<svg width="25" height="32" viewBox="0 0 25 32" fill="none" xmlns="http://www.w3.org/2000/svg">
<path d="M17.5165 15.9478C17.9119 12.5493 13.996 9.68061 11.0673 9.6734H10.2534C4.74822 10.8526 3.75176 14.2285 3.87567 15.6908C3.93595 17.4205 4.46851 20.7354 10.2585 24.88H11.0724C11.836 24.3207 13.6118 22.9825 14.9401 21.4876C17.6717 18.3781 17.5165 15.9478 17.5165 15.9478Z" fill="#7F5831"/>
<path d="M9.65271 24.2287L9.98486 25.9737C10.0562 26.3485 10.4177 26.5945 10.7922 26.5231C11.0594 26.4722 11.2717 26.2692 11.3347 26.0045L11.7573 24.2288L9.65271 24.2287Z" fill="#7F5831"/>
<path d="M16.6382 16.3831C9.81969 19.2497 5.14419 16.3831 5.14419 16.3831L3.88083 15.6815C3.93922 17.4149 4.54835 18.9905 5.65906 20.5077C7.13752 21.1446 10.8732 22.2847 15.8327 20.4145C16.8444 19.0043 17.4225 17.5418 17.5291 15.9479L16.6382 16.3831Z" fill="#FFB42E"/>
<path d="M16.3529 12.3669C14.9241 10.6036 12.5003 9.58225 11.0731 9.67341H10.2591C9.08232 9.74002 6.56937 10.7075 5.05707 12.4198C5.87185 12.8563 10.2465 14.9086 16.3529 12.3669Z" fill="#FFB42E"/>
<path d="M2.05108 14.2197C3.96755 11.6271 8.61739 9.49269 9.17401 9.90459C9.73063 10.3165 9.05234 15.39 7.13586 17.9826C5.21938 20.5753 2.72349 21.5696 1.31936 20.5304C-0.0847619 19.4913 0.134598 16.8122 2.05108 14.2197Z" fill="#C8C3BF"/>
<path d="M19.359 14.2197C17.4426 11.6271 12.7927 9.49269 12.2361 9.90459C11.6795 10.3165 12.3578 15.39 14.2743 17.9826C16.1907 20.5753 18.6866 21.5696 20.0907 20.5304C21.4949 19.4913 21.2754 16.8122 19.359 14.2197Z" fill="#C8C3BF"/>
<path d="M11.5086 7.11422C11.4869 7.11422 11.4652 7.11254 11.4438 7.10925C11.2148 7.07371 11.058 6.85919 11.0934 6.63012C11.1699 6.13671 11.893 1.7814 13.731 0.795917C14.2197 0.531022 14.8069 0.521367 15.3041 0.76996C15.5143 0.867354 15.6059 1.11686 15.5086 1.32725C15.4113 1.53764 15.1619 1.62929 14.9516 1.5319C14.694 1.39323 14.3837 1.3947 14.1274 1.53589C12.8802 2.20421 12.113 5.53262 11.9227 6.75872C11.8909 6.96309 11.7152 7.1138 11.5086 7.11422Z" fill="#7F5831"/>
<path d="M14.5342 2.99373C15.0914 2.99373 15.543 2.54183 15.543 1.98438C15.543 1.42694 15.0914 0.975037 14.5342 0.975037C13.9771 0.975037 13.5255 1.42694 13.5255 1.98438C13.5255 2.54183 13.9771 2.99373 14.5342 2.99373Z" fill="white"/>
<path d="M14.5341 3.41346C13.7453 3.41346 13.1059 2.77361 13.1059 1.98431C13.1059 1.19502 13.7454 0.555237 14.5342 0.555237C15.323 0.555237 15.9625 1.19509 15.9625 1.98438C15.9616 2.77326 15.3226 3.41262 14.5341 3.41346ZM14.5341 1.39484C14.2088 1.39484 13.945 1.65883 13.945 1.98438C13.945 2.30994 14.2088 2.57386 14.5342 2.57386C14.8596 2.57386 15.1233 2.30994 15.1233 1.98438C15.123 1.65897 14.8594 1.39519 14.5341 1.39484Z" fill="#7F5831"/>
<path d="M9.90137 7.11423C9.69474 7.11388 9.51909 6.9631 9.48727 6.7588C9.29686 5.53269 8.52976 2.20422 7.28255 1.53597C7.02627 1.39484 6.71594 1.3933 6.45833 1.53198C6.24806 1.62937 5.99863 1.53772 5.90136 1.32733C5.80403 1.11693 5.89563 0.867362 6.1059 0.770038C6.60315 0.521585 7.19018 0.53124 7.67897 0.795996C9.51699 1.78141 10.24 6.13679 10.3165 6.6302C10.3519 6.85927 10.1951 7.07372 9.9662 7.10933C9.94473 7.11255 9.92305 7.11423 9.90137 7.11423Z" fill="#7F5831"/>
<path d="M6.8757 2.99373C7.43283 2.99373 7.88446 2.54183 7.88446 1.98438C7.88446 1.42694 7.43283 0.975037 6.8757 0.975037C6.31858 0.975037 5.86694 1.42694 5.86694 1.98438C5.86694 2.54183 6.31858 2.99373 6.8757 2.99373Z" fill="white"/>
<path d="M6.87573 3.41346C6.08689 3.41346 5.44748 2.77361 5.44748 1.98431C5.44748 1.19502 6.08696 0.555237 6.8758 0.555237C7.66464 0.555237 8.30405 1.19509 8.30405 1.98438C8.30314 2.77333 7.66415 3.41262 6.87573 3.41346ZM6.87573 1.39484C6.55036 1.39484 6.2866 1.65883 6.2866 1.98438C6.2866 2.30994 6.55043 2.57386 6.8758 2.57386C7.20117 2.57386 7.46486 2.30994 7.46493 1.98438C7.46458 1.6589 7.20103 1.39519 6.87573 1.39484Z" fill="#7F5831"/>
<path d="M10.705 11.7396C12.6547 11.7396 14.2352 10.3233 14.2352 8.57612C14.2352 6.82897 12.6547 5.41263 10.705 5.41263C8.75538 5.41263 7.17487 6.82897 7.17487 8.57612C7.17487 10.3233 8.75538 11.7396 10.705 11.7396Z" fill="#7F5831"/>
<path d="M17.1922 28.5993C17.3258 28.5181 17.4529 28.4338 17.5701 28.3487C17.7576 28.2126 17.7992 27.9502 17.6631 27.7627C17.5269 27.5751 17.2646 27.5335 17.077 27.6697C16.9783 27.7413 16.8702 27.813 16.7559 27.8826C16.5565 28.0006 16.4905 28.2579 16.6084 28.4573C16.7264 28.6567 16.9837 28.7228 17.1832 28.6048C17.1862 28.603 17.1892 28.6012 17.1922 28.5993Z" fill="black"/>
<path d="M17.6257 30.1448C17.4966 30.1198 17.3662 30.0909 17.2378 30.0589C17.0133 30.0016 16.7848 30.1372 16.7276 30.3617C16.6703 30.5862 16.8059 30.8147 17.0304 30.872C17.0318 30.8723 17.0331 30.8727 17.0345 30.873C17.1774 30.9087 17.3226 30.9408 17.4661 30.9686C17.6934 31.0128 17.9134 30.8644 17.9576 30.6372C17.9577 30.6369 17.9577 30.6367 17.9578 30.6365C18.0019 30.409 17.8532 30.1889 17.6257 30.1448Z" fill="black"/>
<path d="M18.5505 27.3218C18.6379 27.1753 18.709 27.0197 18.7625 26.8577C18.8364 26.6381 18.7183 26.4002 18.4987 26.3263C18.279 26.2523 18.0411 26.3705 17.9672 26.5901C17.9664 26.5925 17.9657 26.5948 17.9649 26.5972C17.9304 26.7009 17.8847 26.8004 17.8286 26.8942C17.7085 27.0923 17.7717 27.3503 17.9698 27.4705C18.1679 27.5906 18.4259 27.5274 18.5461 27.3293C18.5477 27.3268 18.5491 27.3243 18.5505 27.3218Z" fill="black"/>
<path d="M24.5017 30.4867C24.3929 30.2821 24.1388 30.2045 23.9343 30.3133C23.8264 30.3702 23.7151 30.42 23.6009 30.4626C23.3832 30.5421 23.2712 30.783 23.3507 31.0006C23.4301 31.2182 23.6711 31.3303 23.8887 31.2508C23.8913 31.2499 23.8938 31.2489 23.8964 31.248C24.0444 31.1927 24.1887 31.128 24.3284 31.0542C24.533 30.9453 24.6105 30.6912 24.5017 30.4867Z" fill="black"/>
<path d="M21.0414 26.9775C20.8687 26.9957 20.6989 27.0346 20.5355 27.0933C20.3172 27.1711 20.2034 27.4111 20.2812 27.6294C20.359 27.8476 20.5991 27.9615 20.8173 27.8836C20.9174 27.8475 21.0214 27.8235 21.1272 27.8122C21.3577 27.7885 21.5254 27.5825 21.5017 27.352C21.478 27.1215 21.2719 26.9537 21.0414 26.9775Z" fill="black"/>
<path d="M19.9354 27.9013C19.7453 27.7688 19.4838 27.8155 19.3513 28.0055C19.3252 28.0429 19.3 28.0812 19.2751 28.1214C19.214 28.2203 19.158 28.3197 19.1087 28.417C19.0038 28.6237 19.0864 28.8762 19.2931 28.981C19.4998 29.0857 19.7523 29.0032 19.8571 28.7965C19.8959 28.7201 19.9402 28.6414 19.9885 28.5633C20.005 28.5367 20.022 28.5107 20.0397 28.4854C20.1722 28.2954 20.1255 28.0338 19.9354 27.9013Z" fill="black"/>
<path d="M16.1176 29.6758C15.9971 29.622 15.8791 29.5643 15.7667 29.5044C15.5622 29.3954 15.308 29.4728 15.1991 29.6774C15.0901 29.8818 15.1675 30.1359 15.372 30.2449C15.5015 30.3139 15.6371 30.3802 15.7751 30.4419C15.9866 30.5365 16.2348 30.4417 16.3294 30.2301C16.424 30.0186 16.3291 29.7704 16.1176 29.6758Z" fill="black"/>
<path d="M19.6795 29.7209C19.6262 29.4954 19.4002 29.3557 19.1747 29.409C18.9492 29.4623 18.8096 29.6883 18.8628 29.9138C18.8634 29.9163 18.864 29.9188 18.8647 29.9213C18.8955 30.047 18.9414 30.1686 19.0014 30.2834C18.9379 30.283 18.874 30.2818 18.81 30.2796C18.8052 30.2794 18.8003 30.2793 18.7956 30.2793C18.5638 30.2789 18.3757 30.4664 18.3752 30.6981C18.3748 30.9249 18.5548 31.1111 18.7816 31.1182C18.8692 31.1212 18.9565 31.1226 19.0434 31.1226C19.1044 31.1226 19.1651 31.1219 19.2255 31.1205C19.4574 31.1147 19.6408 30.9219 19.6349 30.6899C19.634 30.6536 19.6283 30.6174 19.6181 30.5825C19.828 30.4837 19.9182 30.2334 19.8194 30.0235C19.8108 30.0052 19.8009 29.9876 19.7898 29.9708C19.7389 29.8944 19.7016 29.8099 19.6795 29.7209Z" fill="black"/>
<path d="M15.2431 24.3208C15.0984 24.3797 14.9572 24.4469 14.8203 24.5221C14.6157 24.6309 14.538 24.885 14.6468 25.0895C14.7556 25.2941 15.0096 25.3718 15.2142 25.263C15.2178 25.261 15.2215 25.2591 15.2251 25.257C15.3335 25.1975 15.4454 25.1443 15.56 25.0977C15.7751 25.0115 15.8795 24.7673 15.7934 24.5522C15.7072 24.3372 15.463 24.2327 15.2479 24.3188C15.2463 24.3195 15.2447 24.3202 15.2431 24.3208Z" fill="black"/>
<path d="M13.7156 28.1394C13.9476 28.1394 14.1357 27.9513 14.1357 27.7193C14.1357 27.6955 14.1337 27.6718 14.1296 27.6483C14.1084 27.5263 14.094 27.4032 14.0867 27.2796C14.0766 27.0481 13.8807 26.8687 13.6492 26.8789C13.4177 26.889 13.2383 27.0849 13.2485 27.3164C13.2486 27.3199 13.2488 27.3234 13.249 27.3269C13.2581 27.4825 13.2761 27.6376 13.3029 27.7912C13.3375 27.9922 13.5117 28.1391 13.7156 28.1394Z" fill="black"/>
<path d="M14.5874 28.5751C14.4413 28.3953 14.1771 28.3679 13.9972 28.5141C13.9349 28.5647 13.8884 28.6322 13.8633 28.7084C13.8431 28.7078 13.8229 28.707 13.8027 28.7061C13.5712 28.6956 13.375 28.8748 13.3645 29.1063C13.3541 29.3378 13.5332 29.534 13.7647 29.5444C13.8361 29.5477 13.9077 29.5493 13.9791 29.5493C14.0624 29.5519 14.1414 29.5474 14.2229 29.5435C14.2659 29.5415 14.3083 29.5329 14.3488 29.518C14.5532 29.6271 14.8073 29.5498 14.9164 29.3454C15.005 29.1795 14.9723 28.975 14.8366 28.845C14.7481 28.7601 14.6649 28.67 14.5874 28.5751Z" fill="black"/>
<path d="M16.9743 24.0209C16.8517 24.0064 16.728 24.0027 16.6046 24.0097C16.3731 24.0182 16.1922 24.2128 16.2007 24.4443C16.2091 24.6759 16.4037 24.8567 16.6353 24.8483C16.6381 24.8482 16.6409 24.8481 16.6436 24.8479C16.7212 24.8434 16.799 24.8456 16.8762 24.8544C16.8918 24.8567 16.9075 24.8581 16.9232 24.8586C16.9399 24.8592 16.9564 24.861 16.9728 24.8639C17.201 24.9037 17.4184 24.7509 17.4582 24.5226C17.4979 24.2943 17.3452 24.077 17.1168 24.0372C17.1154 24.0369 17.114 24.0367 17.1126 24.0365C17.0669 24.0287 17.0208 24.0235 16.9743 24.0209Z" fill="black"/>
<path d="M14.3234 25.3669C14.1334 25.2345 13.8721 25.2813 13.7397 25.4713C13.7396 25.4714 13.7395 25.4717 13.7394 25.4718C13.6448 25.6077 13.563 25.7519 13.4949 25.9028C13.3967 26.1127 13.4871 26.3624 13.697 26.4607C13.9068 26.5589 14.1566 26.4685 14.2549 26.2586C14.2565 26.255 14.2582 26.2514 14.2598 26.2478C14.3068 26.1439 14.3632 26.0445 14.4283 25.9509C14.5606 25.7607 14.5137 25.4992 14.3234 25.3669Z" fill="black"/>
<path d="M12.6979 28.4882C12.5805 28.4451 12.4655 28.396 12.3532 28.341C12.1457 28.2378 11.8938 28.3224 11.7907 28.5298C11.6875 28.7373 11.7721 28.9892 11.9795 29.0923C11.9808 29.0929 11.9821 29.0936 11.9833 29.0941C12.1221 29.1622 12.2645 29.2231 12.4097 29.2762C12.6266 29.3579 12.8686 29.2484 12.9503 29.0316C13.0319 28.8147 12.9224 28.5727 12.7056 28.491C12.703 28.49 12.7005 28.4891 12.6979 28.4882Z" fill="black"/>
<path d="M15.558 29.3138C15.6987 29.2727 15.8417 29.2257 15.9828 29.174C16.2014 29.0972 16.3164 28.8577 16.2396 28.6391C16.1628 28.4204 15.9234 28.3055 15.7047 28.3822C15.7012 28.3835 15.6977 28.3848 15.6942 28.3861C15.5705 28.4313 15.4455 28.4725 15.3225 28.5085C15.0997 28.572 14.9705 28.8041 15.034 29.027C15.0975 29.2498 15.3296 29.379 15.5525 29.3155C15.5544 29.3149 15.5562 29.3144 15.558 29.3138Z" fill="black"/>
<path d="M22.2359 30.0857C22.3569 29.9638 22.4637 29.8285 22.5541 29.6824C22.6755 29.485 22.6139 29.2265 22.4165 29.1051C22.2191 28.9837 21.9606 29.0453 21.8393 29.2427C21.7824 29.3345 21.7152 29.4194 21.6391 29.4959C21.4762 29.6607 21.4777 29.9263 21.6425 30.0892C21.8074 30.2521 22.073 30.2506 22.2359 30.0857Z" fill="black"/>
<path d="M11.1547 27.4215C10.9973 27.2515 10.7318 27.2413 10.5618 27.3987C10.3943 27.5538 10.3816 27.8143 10.533 27.985C10.6359 28.0986 10.7435 28.2076 10.8526 28.3091C11.0212 28.4681 11.2867 28.4603 11.4457 28.2917C11.6046 28.1231 11.5969 27.8576 11.4283 27.6986C11.4269 27.6973 11.4255 27.6959 11.4241 27.6947C11.3323 27.6093 11.2417 27.5174 11.1547 27.4215Z" fill="black"/>
<path d="M21.9393 28.3349C21.9892 28.5612 22.213 28.7043 22.4393 28.6544C22.6656 28.6046 22.8086 28.3807 22.7588 28.1544C22.7581 28.1513 22.7574 28.1482 22.7566 28.145C22.7149 27.9598 22.6406 27.7835 22.537 27.6244C22.4123 27.4292 22.1528 27.372 21.9576 27.4968C21.7623 27.6216 21.7052 27.881 21.8299 28.0763C21.8321 28.0797 21.8343 28.083 21.8367 28.0864C21.8853 28.1625 21.9201 28.2467 21.9393 28.3349Z" fill="black"/>
<path d="M21.2614 30.2911C21.1854 30.0722 20.9465 29.9563 20.7275 30.0322C20.6131 30.0719 20.4907 30.1077 20.3639 30.1383C20.1385 30.1929 20.0002 30.4197 20.0547 30.645C20.0609 30.6706 20.0695 30.6955 20.0804 30.7195C19.9726 30.9249 20.0517 31.1787 20.2571 31.2865C20.2743 31.2956 20.2922 31.3034 20.3106 31.31C20.4576 31.3621 20.6073 31.4058 20.7591 31.4409C20.9849 31.4935 21.2105 31.353 21.263 31.1273C21.2959 30.9862 21.2537 30.8382 21.1513 30.7357C21.2727 30.6223 21.3159 30.4481 21.2614 30.2911Z" fill="black"/>
<path d="M22.483 30.7106C22.3547 30.7231 22.2243 30.7308 22.0951 30.7337C21.8634 30.7397 21.6805 30.9322 21.6865 31.1639C21.6923 31.3907 21.8774 31.5718 22.1044 31.5727C22.1075 31.5727 22.1108 31.5727 22.114 31.5725C22.2636 31.5692 22.415 31.5602 22.5636 31.546C22.7943 31.5237 22.9632 31.3187 22.9409 31.088C22.9186 30.8574 22.7136 30.6885 22.483 30.7106Z" fill="black"/>
<path d="M17.8084 24.8098C17.6239 24.95 17.588 25.2132 17.7282 25.3977C17.7954 25.4856 17.8531 25.5803 17.9005 25.6802C17.9991 25.8899 18.249 25.98 18.4587 25.8814C18.6684 25.7828 18.7585 25.5328 18.6599 25.3231C18.5875 25.1699 18.4992 25.0248 18.3964 24.8901C18.2562 24.7056 17.9929 24.6697 17.8084 24.8098Z" fill="black"/>
<path d="M13.7299 0.796C12.5219 1.44361 11.7955 3.54675 11.4178 5.05265C10.9452 4.97296 10.4626 4.97296 9.98997 5.05265C9.61223 3.54675 8.8859 1.44368 7.67792 0.79607C7.55527 0.725403 7.24326 0.567487 6.81964 0.586798C6.36938 0.607299 6.05961 0.815731 5.94752 0.899551C5.3493 1.41262 5.28 2.31372 5.79277 2.91229C6.30554 3.51086 7.20613 3.5802 7.80435 3.06713C7.96616 2.92839 8.09482 2.75508 8.1809 2.56008C8.6134 3.33252 8.94772 4.37118 9.17575 5.27214C9.12149 5.29292 9.06792 5.31496 9.01492 5.33777C7.67974 5.91325 6.75412 7.14831 6.75412 8.57619C6.7544 9.06554 6.86405 9.5486 7.07515 9.98995C6.62105 10.1933 6.20303 10.4121 5.91983 10.5672C5.06497 11.0355 2.94375 12.3046 1.71262 13.9701C-0.296158 16.6876 -0.572998 19.6532 1.06867 20.8681C1.51872 21.1956 2.06324 21.3674 2.61964 21.3576C3.16437 21.3473 3.70141 21.2273 4.19872 21.0047C4.52185 20.8649 4.83219 20.6974 5.1263 20.5039C6.39966 22.3414 8.12181 23.7803 9.31252 24.6915L9.5716 26.0523C9.66188 26.5713 10.1104 26.9513 10.6369 26.9549C10.6462 26.9551 10.6553 26.9551 10.6645 26.9551C11.1805 26.9623 11.6305 26.6059 11.7418 26.1017L12.0853 24.6583C13.2803 23.7408 14.9878 22.3041 16.2476 20.474C17.1183 21.0451 18.0021 21.3537 18.799 21.3537C19.3515 21.3637 19.8922 21.1933 20.3391 20.8681C21.9808 19.6532 21.7039 16.6877 19.6952 13.9702C18.464 12.3047 16.3427 11.0357 15.4878 10.5674C15.2046 10.4122 14.7865 10.1936 14.3324 9.99023C14.5435 9.54881 14.6532 9.06568 14.6534 8.57633C14.6534 7.14845 13.7279 5.91339 12.3927 5.33791C12.3397 5.31503 12.2862 5.29299 12.232 5.27228C12.4599 4.37132 12.7942 3.33279 13.2267 2.56036C13.3446 2.82595 13.5402 3.0495 13.7878 3.20147C14.4585 3.61476 15.3371 3.40577 15.7502 2.73465C16.1192 2.1351 15.996 1.35595 15.4602 0.899551C15.3198 0.813212 15.0315 0.661873 14.6351 0.632207C14.2084 0.600302 13.8808 0.726452 13.7299 0.796ZM14.533 1.39485C14.8583 1.39478 15.1222 1.65869 15.1222 1.98425C15.1222 2.30981 14.8585 2.57379 14.5331 2.57379C14.2077 2.57379 13.9439 2.30995 13.9439 1.98439C13.9443 1.65897 14.2078 1.3952 14.533 1.39485ZM6.8746 2.57386C6.54924 2.57386 6.28547 2.30988 6.28547 1.98432C6.28547 1.65876 6.54931 1.39485 6.87467 1.39485C7.20004 1.39485 7.46381 1.65883 7.46381 1.98439C7.46346 2.30981 7.19983 2.57351 6.8746 2.57386ZM19.0206 14.4693C20.7167 16.7638 21.0767 19.278 19.8401 20.193C18.6035 21.1081 16.3065 20.0275 14.6104 17.733C13.3912 16.0837 12.7214 13.4526 12.5201 11.7566C13.0467 11.5109 13.5116 11.1506 13.8811 10.702C15.4431 11.3845 17.791 12.8061 19.0206 14.4693ZM10.445 14.0339C10.9924 14.0333 11.5394 14.0017 12.0833 13.9392C12.3411 14.9916 12.7097 16.0137 13.1829 16.9883C11.5435 17.3026 9.85977 17.3066 8.21887 17.0001C8.68808 16.0371 9.0545 15.0272 9.31218 13.9873C9.67209 14.0169 10.0497 14.0339 10.445 14.0339ZM9.50175 13.163C9.56111 12.8717 9.6351 12.4711 9.69209 12.0398C10.3572 12.1994 11.0506 12.1994 11.7156 12.0398C11.7695 12.448 11.8388 12.8293 11.8964 13.1159C11.1011 13.2033 10.2997 13.219 9.50161 13.163H9.50175ZM10.7039 5.83244C12.4189 5.83244 13.8143 7.0633 13.8143 8.57619C13.8143 10.0891 12.4189 11.32 10.7039 11.32C8.98876 11.32 7.59324 10.0891 7.59324 8.57619C7.59324 7.0633 8.98863 5.83244 10.7039 5.83244ZM3.86979 20.2323C2.94941 20.6244 2.13176 20.6105 1.56766 20.193C0.331083 19.2779 0.691135 16.7637 2.3872 14.4692C3.61665 12.806 5.96458 11.3844 7.52653 10.7019C7.89595 11.1505 8.36096 11.5108 8.88751 11.7565C8.68626 13.4525 8.01644 16.0837 6.79727 17.7331C5.92619 18.9114 4.88659 19.799 3.86979 20.2323ZM5.80214 20.0073C6.42952 19.4866 6.9904 18.8904 7.47199 18.2323C7.57793 18.089 7.67883 17.9398 7.77547 17.787C8.70374 17.9874 9.65083 18.0876 10.6005 18.0859C11.6151 18.0834 12.6266 17.9765 13.6194 17.767C13.7199 17.9269 13.8251 18.0827 13.9357 18.2323C14.4084 18.8779 14.9583 19.4632 15.5732 19.9752C15.5513 20.0073 15.529 20.039 15.5068 20.0707C10.8759 21.7716 7.3564 20.7685 5.9229 20.1808C5.88186 20.1236 5.84221 20.0653 5.80214 20.0073ZM10.9255 25.9072C10.9028 26.0358 10.7859 26.126 10.6558 26.1154C10.5258 26.1189 10.4139 26.024 10.3959 25.8951L10.2825 25.2998H11.0701L10.9255 25.9072ZM10.9529 24.4601H10.4015C9.56209 23.8375 8.15937 22.7785 6.90782 21.3955C8.05133 21.7031 9.23064 21.8573 10.4148 21.854C11.8193 21.8491 13.2163 21.6491 14.5658 21.2598C13.285 22.7093 11.8191 23.8176 10.9529 24.4601Z" fill="black"/>
<path d="M5.52929 14.8335C5.34294 14.6957 5.08029 14.7351 4.9424 14.9214L2.94418 17.6247C2.80635 17.8111 2.84565 18.074 3.032 18.2119C3.21836 18.3498 3.48107 18.3105 3.6189 18.124L5.61712 15.4207C5.75495 15.2343 5.71565 14.9715 5.52929 14.8335C5.52936 14.8336 5.52936 14.8336 5.52929 14.8335Z" fill="black"/>
<path d="M17.7888 18.124C17.9266 18.3104 18.1893 18.3498 18.3756 18.2118C18.562 18.0739 18.6013 17.8111 18.4635 17.6246L16.4653 14.9214C16.3274 14.735 16.0647 14.6956 15.8784 14.8335C15.6921 14.9714 15.6527 15.2343 15.7905 15.4207L17.7888 18.124Z" fill="black"/>
</svg>
