<svg width="33" height="32" viewBox="0 0 33 32" fill="none" xmlns="http://www.w3.org/2000/svg">
<path d="M4.78959 8.45624H1.8918L0.443054 10.9672L1.8918 13.4782H4.78959L6.23848 10.9672L4.78959 8.45624Z" fill="#FF9200"/>
<path d="M4.78959 13.4782H1.8918L0.443054 15.989L1.8918 18.5H4.78959L6.23848 15.989L4.78959 13.4782Z" fill="#E56610"/>
<path d="M4.78959 18.5001H1.8918L0.443054 21.0111L1.8918 23.5219H4.78959L6.23848 21.0111L4.78959 18.5001Z" fill="#F37C22"/>
<path d="M9.14866 5.93713H6.25102L4.80212 8.44797L6.25102 10.959H9.14866L10.5976 8.44797L9.14866 5.93713Z" fill="#E56610"/>
<path d="M9.14866 10.959H6.25102L4.80212 13.47L6.25102 15.981H9.14866L10.5976 13.47L9.14866 10.959Z" fill="#F37C22"/>
<path d="M9.14866 15.9808H6.25102L4.80212 18.4918L6.25102 21.0027H9.14866L10.5976 18.4918L9.14866 15.9808Z" fill="#FF9200"/>
<path d="M9.14866 21.0027H6.25102L4.80212 23.5136L6.25102 26.0246H9.14866L10.5976 23.5136L9.14866 21.0027Z" fill="#E56610"/>
<path d="M13.4991 3.43439H10.6013L9.15237 5.94537L10.6013 8.45621H13.4991L14.9479 5.94537L13.4991 3.43439Z" fill="#F37C22"/>
<path d="M13.4991 8.45624H10.6013L9.15237 10.9672L10.6013 13.4782H13.4991L14.9479 10.9672L13.4991 8.45624Z" fill="#FF9200"/>
<path d="M13.4991 13.4782H10.6013L9.15237 15.989L10.6013 18.5H13.4991L14.9479 15.989L13.4991 13.4782Z" fill="#E56610"/>
<path d="M13.4991 18.5001H10.6013L9.15237 21.0111L10.6013 23.5219H13.4991L14.9479 21.0111L13.4991 18.5001Z" fill="#F37C22"/>
<path d="M13.4991 23.5219H10.6013L9.15237 26.0328L10.6013 28.5438H13.4991L14.9479 26.0328L13.4991 23.5219Z" fill="#FF9200"/>
<path d="M17.8488 0.915161H14.951L13.5023 3.42615L14.951 5.93714H17.8488L19.2977 3.42615L17.8488 0.915161Z" fill="#FF9200"/>
<path d="M17.8488 5.93713H14.951L13.5023 8.44797L14.951 10.959H17.8488L19.2977 8.44797L17.8488 5.93713Z" fill="#E56610"/>
<path d="M17.8488 10.959H14.951L13.5023 13.47L14.951 15.981H17.8488L19.2977 13.47L17.8488 10.959Z" fill="#F37C22"/>
<path d="M17.8488 15.9808H14.951L13.5023 18.4918L14.951 21.0027H17.8488L19.2977 18.4918L17.8488 15.9808Z" fill="#FF9200"/>
<path d="M17.8488 21.0027H14.951L13.5023 23.5136L14.951 26.0246H17.8488L19.2977 23.5136L17.8488 21.0027Z" fill="#E56610"/>
<path d="M17.8488 26.0246H14.951L13.5023 28.5356L14.951 31.0464H17.8488L19.2977 28.5356L17.8488 26.0246Z" fill="#F37C22"/>
<path d="M22.1992 3.43439H19.3014L17.8525 5.94537L19.3014 8.45621H22.1992L23.6479 5.94537L22.1992 3.43439Z" fill="#F37C22"/>
<path d="M22.1992 8.45624H19.3014L17.8525 10.9672L19.3014 13.4782H22.1992L23.6479 10.9672L22.1992 8.45624Z" fill="#FF9200"/>
<path d="M22.1992 13.4782H19.3014L17.8525 15.989L19.3014 18.5H22.1992L23.6479 15.989L22.1992 13.4782Z" fill="#E56610"/>
<path d="M22.1992 18.5001H19.3014L17.8525 21.0111L19.3014 23.5219H22.1992L23.6479 21.0111L22.1992 18.5001Z" fill="#F37C22"/>
<path d="M22.1992 23.5219H19.3014L17.8525 26.0328L19.3014 28.5438H22.1992L23.6479 26.0328L22.1992 23.5219Z" fill="#FF9200"/>
<path d="M26.5583 5.93713H23.6605L22.2116 8.44797L23.6605 10.959H26.5583L28.007 8.44797L26.5583 5.93713Z" fill="#E56610"/>
<path d="M26.5583 10.959H23.6605L22.2116 13.47L23.6605 15.981H26.5583L28.007 13.47L26.5583 10.959Z" fill="#F37C22"/>
<path d="M26.5583 15.9808H23.6605L22.2116 18.4918L23.6605 21.0027H26.5583L28.007 18.4918L26.5583 15.9808Z" fill="#FF9200"/>
<path d="M26.5583 21.0027H23.6605L22.2116 23.5136L23.6605 26.0246H26.5583L28.007 23.5136L26.5583 21.0027Z" fill="#E56610"/>
<path d="M30.9085 8.45624H28.0109L26.562 10.9672L28.0109 13.4782H30.9085L32.3574 10.9672L30.9085 8.45624Z" fill="#FF9200"/>
<path d="M30.9085 13.4782H28.0109L26.562 15.989L28.0109 18.5H30.9085L32.3574 15.989L30.9085 13.4782Z" fill="#E56610"/>
<path d="M30.9085 18.5001H28.0109L26.562 21.0111L28.0109 23.5219H30.9085L32.3574 21.0111L30.9085 18.5001Z" fill="#F37C22"/>
<path d="M16.4002 25.7524C21.7938 25.7524 26.1662 21.3775 26.1662 15.9808C26.1662 10.5841 21.7938 6.20917 16.4002 6.20917C11.0066 6.20917 6.63425 10.5841 6.63425 15.9808C6.63425 21.3775 11.0066 25.7524 16.4002 25.7524Z" fill="#C8C3BF"/>
<path d="M32.7411 15.7674L31.4202 13.4782L32.7411 11.1889C32.8202 11.0517 32.8202 10.8827 32.7411 10.7456L31.2923 8.23474C31.2132 8.09754 31.0669 8.01309 30.9087 8.01309H28.2677L26.9419 5.71547C26.8628 5.57827 26.7165 5.49382 26.5583 5.49382H23.8991L22.5827 3.21284C22.5036 3.07563 22.3574 2.99111 22.1991 2.99119H19.5582L18.2325 0.693573C18.1534 0.556372 18.0071 0.471924 17.8489 0.471924H14.9511C14.7929 0.471924 14.6466 0.556372 14.5675 0.693573L13.2419 2.99119H10.6013C10.4431 2.99119 10.2968 3.07563 10.2177 3.21284L8.90152 5.49382H6.2511C6.09278 5.49375 5.94658 5.57827 5.8675 5.71547L4.54147 8.01301H1.89186C1.73362 8.01301 1.58734 8.09746 1.50826 8.23466L0.0593676 10.7456C-0.0197892 10.8827 -0.0197892 11.0517 0.0593676 11.1889L1.3803 13.4782L0.0593676 15.7674C-0.0197892 15.9045 -0.0197892 16.0736 0.0593676 16.2107L1.3803 18.5L0.0593676 20.7894C-0.0197892 20.9265 -0.0197892 21.0955 0.0593676 21.2327L1.50819 23.7437C1.58727 23.8809 1.73355 23.9653 1.89179 23.9653H4.55115L5.86735 26.2463C5.94643 26.3835 6.09271 26.468 6.25095 26.468H8.89192L10.2176 28.7656C10.2967 28.9028 10.4429 28.9872 10.6012 28.9872H13.2512L14.5674 31.2682C14.6464 31.4054 14.7927 31.4899 14.951 31.4899H17.8487C18.007 31.4899 18.1533 31.4054 18.2323 31.2682L19.5485 28.9872H22.199C22.3573 28.9873 22.5035 28.9028 22.5826 28.7656L23.9084 26.468H26.5581C26.7164 26.468 26.8627 26.3835 26.9417 26.2463L28.2579 23.9653H30.9085C31.0668 23.9653 31.213 23.8809 31.2921 23.7437L32.7409 21.2327C32.82 21.0955 32.82 20.9265 32.7409 20.7894L31.4199 18.5002L32.7409 16.2108C32.8203 16.0736 32.8203 15.9046 32.7411 15.7674ZM30.6528 8.89961L31.8459 10.9672L30.6528 13.0348H28.2677L27.0741 10.9663L28.2667 8.89954H30.6528V8.89961ZM7.27829 20.5595H6.50688L5.31362 18.4918L6.23426 16.8966C6.34775 18.1725 6.70204 19.4154 7.27829 20.5595ZM5.31362 13.4699L6.50688 11.4023H7.27829C6.70197 12.5463 6.34775 13.7892 6.23426 15.0652L5.31362 13.4699ZM7.07722 15.9809C7.07722 10.829 11.2512 6.65253 16.4002 6.65253C21.5491 6.65253 25.7231 10.8289 25.7231 15.9809C25.7231 21.1327 21.5491 25.3092 16.4002 25.3092C11.2537 25.3034 7.08306 21.1303 7.07722 15.9809ZM26.567 16.8843L27.495 18.4927L26.3024 20.5595H25.5221C26.1002 19.4118 26.4548 18.1645 26.567 16.8843ZM25.522 11.4023H26.3015L27.495 13.4708L26.5671 15.0789C26.455 13.7981 26.1003 12.5504 25.522 11.4023ZM23.9163 6.38042H26.3024L27.4955 8.44796L26.3024 10.5157H25.0186C24.4451 9.61251 23.7345 8.80437 22.9122 8.12037L23.9163 6.38042ZM21.9433 3.87778L23.1365 5.94532L22.1947 7.57733C21.0457 6.78042 19.7447 6.22955 18.373 5.95914L18.3646 5.94444L19.5572 3.87771L21.9433 3.87778ZM15.207 1.35852H17.593L18.7861 3.42621L17.593 5.49375H15.207L14.0137 3.42614L15.207 1.35852ZM10.8571 3.87778H13.2432L14.4355 5.94399L14.4266 5.95929C13.0555 6.2297 11.7549 6.78035 10.6063 7.57688L9.66444 5.94458L10.8571 3.87778ZM6.50688 6.38042H8.89192L9.89327 8.11593C9.06884 8.8009 8.35636 9.61059 7.78173 10.5157H6.50688L5.31362 8.44796L6.50688 6.38042ZM0.954533 10.9672L2.14764 8.89968H4.53372L5.72683 10.9672L4.53372 13.0349H2.14772L0.954533 10.9672ZM0.954533 15.9891L2.14764 13.9215H4.53372L5.72683 15.9891L4.53372 18.0567H2.14772L0.954533 15.9891ZM4.53379 23.0786H2.14772L0.954533 21.011L2.14764 18.9435H4.53372L5.72683 21.011L4.53379 23.0786ZM6.50681 25.5813L5.31355 23.5136L6.50681 21.4461H7.78173C8.35651 22.3513 9.06921 23.1612 9.89393 23.8464L8.89281 25.5814L6.50681 25.5813ZM13.2416 28.1005H10.8571L9.664 26.0329L10.6124 24.3892C11.7571 25.1817 13.0524 25.7303 14.4179 26.0009L14.4356 26.0315L13.2416 28.1005ZM17.593 30.6032H15.207L14.0147 28.5369L15.2084 26.468H17.5922L18.7857 28.5365L17.593 30.6032ZM21.9432 28.1005H19.5582L18.3645 26.032L18.3825 26.0008C19.7479 25.7302 21.0432 25.1817 22.1878 24.3892L23.1364 26.0329L21.9432 28.1005ZM26.3024 25.5813H23.9163L22.9122 23.8412C23.7345 23.1572 24.4451 22.349 25.0185 21.4459H26.3015L27.4949 23.5144L26.3024 25.5813ZM31.8458 21.0109L30.6527 23.0786H28.2676L27.074 21.01L28.2666 18.9433H30.6527L31.8458 21.0109ZM30.6527 18.0567H28.2676L27.074 15.9882L28.2666 13.9214H30.6527L31.8458 15.989L30.6527 18.0567Z" fill="black"/>
<path d="M11.0854 18.0478C11.0854 17.831 10.9098 17.6553 10.6932 17.6553H10.6925C10.4682 17.6553 10.2864 17.4734 10.2864 17.249V13.9278C10.2864 13.7034 10.1046 13.5215 9.88026 13.5215H8.8507C8.63406 13.5215 8.45847 13.6972 8.45847 13.914C8.45847 14.1307 8.63406 14.3064 8.8507 14.3064H9.00415C9.22847 14.3064 9.41027 14.4883 9.41027 14.7128V17.2489C9.41027 17.4733 9.22847 17.6552 9.00415 17.6552H8.98317C8.76653 17.6552 8.59093 17.8309 8.59093 18.0477C8.59093 18.2645 8.76653 18.4402 8.98317 18.4402H10.6932C10.9098 18.4402 11.0854 18.2645 11.0854 18.0478Z" fill="black"/>
<path d="M11.8113 18.0426C12.1291 18.3648 12.5612 18.5481 13.0136 18.5524C13.2435 18.5519 13.4708 18.5033 13.6809 18.4097C13.7959 18.3576 13.9052 18.2935 14.0069 18.2186C14.1043 18.1465 14.1932 18.0636 14.2718 17.9713C14.4279 17.8109 14.5462 17.6176 14.6182 17.4055C14.6485 17.3014 14.6698 17.1948 14.6819 17.087C14.6952 16.9472 14.7011 16.8068 14.6997 16.6664V15.2851C14.7042 15.027 14.6681 14.7699 14.5927 14.5231C14.5127 14.2901 14.3782 14.0795 14.2005 13.9089C13.8848 13.5943 13.4591 13.4151 13.0136 13.4094C12.7742 13.409 12.5377 13.4612 12.3207 13.5623C12.1001 13.6641 11.9025 13.8097 11.7401 13.9905C11.6622 14.0804 11.5652 14.2117 11.4839 14.386C11.3952 14.5761 11.3574 14.7487 11.3401 14.8723C11.3269 15.0095 11.3209 15.1473 11.3222 15.2852V16.6665C11.3176 16.8767 11.3365 17.0867 11.3782 17.2924C11.4058 17.3971 11.4525 17.5323 11.5341 17.678C11.6255 17.841 11.7292 17.9611 11.8113 18.0426ZM12.2202 15.0338C12.2294 14.8977 12.2595 14.7627 12.3195 14.6403C12.3199 14.6394 12.3203 14.6386 12.3207 14.6377C12.4587 14.3873 12.7283 14.2386 13.0136 14.2555C13.1422 14.2554 13.2693 14.2841 13.3855 14.3396C13.5018 14.3935 13.6007 14.4792 13.6707 14.5868C13.7304 14.6764 13.7719 14.7768 13.793 14.8824C13.8096 14.9731 13.8164 15.0654 13.8134 15.1576L13.7983 16.9464C13.7929 17.039 13.779 17.1315 13.7488 17.2192C13.7354 17.2584 13.7195 17.2967 13.7013 17.334C13.5667 17.5858 13.2985 17.7369 13.0136 17.7214C12.8822 17.7217 12.7523 17.6921 12.6341 17.6347C12.5184 17.5815 12.4386 17.4911 12.3564 17.385C12.2916 17.2996 12.2479 17.2 12.229 17.0944C12.2176 17.0356 12.2117 16.9759 12.2112 16.916L12.2202 15.0338Z" fill="black"/>
<path d="M15.5661 18.0426C15.8838 18.3648 16.316 18.5481 16.7684 18.5524C16.9983 18.5519 17.2256 18.5033 17.4357 18.4097C17.5507 18.3576 17.66 18.2935 17.7617 18.2186C17.8591 18.1465 17.948 18.0636 18.0266 17.9713C18.1827 17.8109 18.301 17.6176 18.373 17.4055C18.4033 17.3014 18.4246 17.1948 18.4367 17.087C18.45 16.9472 18.4559 16.8068 18.4545 16.6664V15.2851C18.459 15.027 18.4228 14.7699 18.3475 14.5231C18.2675 14.2901 18.133 14.0795 17.9553 13.9089C17.6396 13.5943 17.2139 13.4151 16.7684 13.4094C16.529 13.409 16.2925 13.4612 16.0755 13.5623C15.8549 13.6641 15.6573 13.8097 15.4949 13.9905C15.417 14.0804 15.32 14.2117 15.2387 14.386C15.15 14.5761 15.1122 14.7487 15.0949 14.8723C15.0816 15.0095 15.0757 15.1473 15.077 15.2852V16.6665C15.0724 16.8767 15.0912 17.0867 15.133 17.2924C15.1606 17.3971 15.2073 17.5323 15.2888 17.678C15.3803 17.841 15.484 17.9611 15.5661 18.0426ZM15.975 15.0338C15.9842 14.8977 16.0143 14.7627 16.0744 14.6403C16.0748 14.6394 16.0752 14.6386 16.0756 14.6377C16.2135 14.3873 16.4831 14.2386 16.7685 14.2555C16.8971 14.2554 17.0242 14.2841 17.1403 14.3396C17.2567 14.3935 17.3556 14.4792 17.4256 14.5868C17.4852 14.6764 17.5268 14.7768 17.5478 14.8824C17.5645 14.9731 17.5712 15.0654 17.5682 15.1576L17.5532 16.9464C17.5478 17.039 17.5339 17.1315 17.5037 17.2192C17.4902 17.2584 17.4744 17.2967 17.4561 17.334C17.3215 17.5858 17.0534 17.7369 16.7685 17.7214C16.637 17.7217 16.5072 17.6921 16.3889 17.6347C16.2733 17.5815 16.1935 17.4911 16.1113 17.385C16.0464 17.2996 16.0027 17.2 15.9838 17.0944C15.9725 17.0356 15.9666 16.9759 15.966 16.916L15.975 15.0338Z" fill="black"/>
<path d="M19.8484 18.5648L20.8227 18.5659L23.6914 13.3968L22.7186 13.3958L19.8484 18.5648Z" fill="black"/>
<path d="M21.5572 14.5762C21.5572 13.9242 21.0291 13.3958 20.3776 13.3958C19.726 13.3958 19.1978 13.9242 19.1978 14.5761C19.1978 15.2281 19.7259 15.7565 20.3775 15.7565C21.0288 15.7558 21.5565 15.2278 21.5572 14.5762ZM20.3775 14.9568C20.1674 14.9568 19.9972 14.7863 19.9972 14.5762C19.9972 14.366 20.1676 14.1957 20.3776 14.1957C20.5876 14.1957 20.7578 14.3661 20.7578 14.5763C20.7577 14.7863 20.5874 14.9565 20.3775 14.9568Z" fill="black"/>
<path d="M21.9825 17.3855C21.9825 18.0374 22.5107 18.5658 23.1622 18.5658C23.8137 18.5658 24.3419 18.0374 24.3419 17.3855C24.3419 16.7336 23.8137 16.2051 23.1622 16.2051C22.511 16.2058 21.9833 16.7338 21.9825 17.3855ZM23.5426 17.3855C23.5426 17.5957 23.3723 17.7661 23.1622 17.7661C22.9521 17.7661 22.7819 17.5957 22.7819 17.3855C22.7819 17.1753 22.9521 17.0049 23.1621 17.0049C23.3722 17.0051 23.5424 17.1754 23.5426 17.3855Z" fill="black"/>
<path d="M16.4002 23.9706C19.0935 23.9738 21.6062 22.6154 23.0797 20.3596C23.2141 20.1549 23.1571 19.8801 22.9525 19.7457C22.748 19.6113 22.4733 19.6683 22.339 19.873C20.1904 23.1547 15.7897 24.0724 12.5099 21.9225C11.6936 21.3874 10.9963 20.6898 10.4615 19.873C10.3272 19.6683 10.0525 19.6114 9.848 19.7457C9.64347 19.8801 9.58654 20.1549 9.72078 20.3596C11.1943 22.6154 13.7069 23.9737 16.4002 23.9706Z" fill="black"/>
<path d="M9.84802 12.2159C10.0525 12.3503 10.327 12.2934 10.4613 12.0889C10.4614 12.0888 10.4614 12.0887 10.4615 12.0886C12.6102 8.80682 17.011 7.88942 20.291 10.0394C21.1071 10.5744 21.8043 11.272 22.339 12.0886C22.4733 12.2933 22.748 12.3503 22.9525 12.2159C23.1571 12.0816 23.214 11.8067 23.0798 11.602C20.6624 7.91092 15.7123 6.87951 12.0233 9.29829C11.1058 9.89985 10.3221 10.684 9.72086 11.602C9.58655 11.8066 9.64348 12.0815 9.84802 12.2159Z" fill="black"/>
</svg>
