<svg width="32" height="32" viewBox="0 0 32 32" fill="none" xmlns="http://www.w3.org/2000/svg">
<path d="M3.77111 9.61438C1.69642 12.0733 -1.179 16.9868 1.38327 23.4754C4.65369 29.3528 11.0374 29.1678 12.6088 29.0256C14.1801 29.1677 20.5638 29.3528 23.8342 23.4754C26.3965 16.9868 23.5211 12.0733 21.4464 9.61438H3.77111Z" fill="#FFB42E"/>
<path d="M7.69486 25.0273C7.63394 25.1559 7.54621 25.2699 7.43757 25.3616C7.32893 25.4534 7.20191 25.5209 7.06504 25.5594C6.92817 25.5979 6.78464 25.6067 6.6441 25.5851C6.50357 25.5635 6.3693 25.512 6.25032 25.4341C5.06897 24.6644 4.09639 23.614 3.41933 22.3768C3.39254 22.329 3.36976 22.279 3.35122 22.2274C2.71746 20.5177 2.46728 18.6895 2.61839 16.8722C2.62999 16.7338 2.6704 16.5993 2.73703 16.4775C2.80366 16.3556 2.89504 16.249 3.00528 16.1646C3.11553 16.0802 3.24221 16.0197 3.37718 15.9872C3.51216 15.9547 3.65244 15.9507 3.78902 15.9757L3.79168 15.9762C4.0335 16.0202 4.25026 16.1528 4.39964 16.3481C4.54902 16.5434 4.6203 16.7874 4.59956 17.0324C4.47602 18.5044 4.66682 19.9858 5.15929 21.3783C5.18146 21.4432 5.2102 21.5057 5.24506 21.5648C5.76104 22.4545 6.47901 23.2102 7.34094 23.7709C7.54176 23.9013 7.68848 24.1002 7.75386 24.3307C7.81924 24.5611 7.79885 24.8075 7.69646 25.024L7.69486 25.0273Z" fill="white"/>
<path d="M19.8036 7.5412H5.12492L3.68591 3.92606H21.2426L19.8036 7.5412Z" fill="#F37C22"/>
<path d="M20.2261 7.81918L24.8563 11.9223C23.3251 11.9223 23.3251 13.5636 21.794 13.5636C20.2629 13.5636 20.2629 11.9223 18.7317 11.9223C17.2006 11.9223 17.2008 13.5636 15.6699 13.5636C14.139 13.5636 14.1389 11.9223 12.6079 11.9223C11.077 11.9223 11.077 13.5636 9.54614 13.5636C8.01525 13.5636 8.01526 11.9223 6.48438 11.9223C4.9535 11.9223 4.95369 13.5636 3.423 13.5636C1.89231 13.5636 1.89213 11.9223 0.361267 11.9223L4.99141 7.81918H20.2261Z" fill="#F37C22"/>
<path d="M20.4096 8.50304H4.8079C4.57343 8.4923 4.35211 8.39155 4.18998 8.22173C4.02785 8.05191 3.93738 7.82609 3.93738 7.59124C3.93738 7.35639 4.02785 7.13057 4.18998 6.96075C4.35211 6.79093 4.57343 6.69018 4.8079 6.67944H20.4096C20.6441 6.69018 20.8654 6.79093 21.0275 6.96075C21.1896 7.13057 21.2801 7.35639 21.2801 7.59124C21.2801 7.82609 21.1896 8.05191 21.0275 8.22173C20.8654 8.39155 20.6441 8.4923 20.4096 8.50304Z" fill="#7F5831"/>
<path d="M23.9543 27.7728C27.1546 28.704 31.4582 26.7723 31.4582 26.7723C31.4582 26.7723 29.4024 22.5246 26.3526 21.1798C24.1008 20.1868 20.9796 21.9348 20.9796 21.9348L20.6483 22.8356L20.3234 23.7387C20.3234 23.7387 21.5914 27.0852 23.9543 27.7728Z" fill="#25861F"/>
<path d="M29.1358 25.4484L26.3958 24.4617C26.7766 24.2762 27.1213 24.0241 27.4136 23.7173C27.4535 23.6763 27.4849 23.6278 27.506 23.5746C27.5271 23.5214 27.5375 23.4646 27.5365 23.4074C27.5356 23.3502 27.5233 23.2937 27.5005 23.2413C27.4776 23.1888 27.4446 23.1414 27.4034 23.1018C27.3622 23.0621 27.3135 23.031 27.2602 23.0103C27.2069 22.9895 27.1501 22.9795 27.0929 22.9809C27.0357 22.9822 26.9794 22.9948 26.9271 23.018C26.8748 23.0413 26.8277 23.0746 26.7883 23.1161C26.5525 23.3738 26.2658 23.5796 25.9464 23.7205C25.6269 23.8614 25.2817 23.9344 24.9326 23.9349L24.3189 23.7139C24.8385 23.4569 25.2714 23.053 25.5639 22.5522C25.6236 22.4539 25.6418 22.3358 25.6145 22.2241C25.5872 22.1123 25.5166 22.0159 25.4183 21.9562C25.32 21.8964 25.2021 21.8782 25.0903 21.9055C24.9786 21.9328 24.8823 22.0034 24.8226 22.1018C24.6037 22.4887 24.2645 22.7935 23.8565 22.9699C23.4486 23.1462 22.9943 23.1845 22.5626 23.0788C22.5576 23.0773 22.5526 23.0773 22.5476 23.0761L21.0505 22.537C20.9968 22.5172 20.9397 22.5082 20.8825 22.5105C20.8253 22.5128 20.7692 22.5265 20.7173 22.5507C20.6654 22.5749 20.6188 22.6091 20.5802 22.6514C20.5416 22.6937 20.5117 22.7432 20.4923 22.7971C20.473 22.851 20.4644 22.9082 20.4673 22.9654C20.4701 23.0226 20.4842 23.0787 20.5088 23.1304C20.5334 23.1821 20.568 23.2284 20.6106 23.2667C20.6532 23.305 20.7029 23.3344 20.757 23.3534L22.3842 23.9393C22.4053 23.964 22.4292 23.9862 22.4554 24.0056C23.6509 24.8765 23.6559 26.4635 23.6557 26.4795C23.6547 26.5943 23.6993 26.7048 23.7795 26.7869C23.8598 26.8689 23.9693 26.9158 24.0841 26.9172H24.0895C24.2035 26.9171 24.313 26.8721 24.3941 26.7919C24.4752 26.7117 24.5215 26.6027 24.5229 26.4886C24.5073 25.8049 24.3347 25.134 24.0184 24.5277L25.1162 24.9231C25.4229 25.1435 25.6807 25.4248 25.8737 25.7495C26.0667 26.0742 26.1906 26.4352 26.2377 26.8101C26.2464 26.9187 26.2956 27.0201 26.3756 27.0941C26.4556 27.1681 26.5605 27.2092 26.6695 27.2093C26.6805 27.2093 26.6916 27.2089 26.7027 27.2081C26.7595 27.2038 26.8148 27.1883 26.8656 27.1626C26.9164 27.1368 26.9617 27.1014 26.9988 27.0581C27.0359 27.0149 27.0641 26.9648 27.0818 26.9107C27.0995 26.8565 27.1064 26.7994 27.1021 26.7426C27.0529 26.3108 26.9268 25.8913 26.7297 25.5041L28.8422 26.2647C28.8959 26.2845 28.9529 26.2935 29.0101 26.2911C29.0673 26.2887 29.1234 26.275 29.1753 26.2508C29.2271 26.2267 29.2737 26.1924 29.3123 26.1502C29.3509 26.1079 29.3807 26.0584 29.4001 26.0045C29.4194 25.9506 29.428 25.8935 29.4252 25.8363C29.4223 25.7791 29.4082 25.723 29.3837 25.6713C29.3591 25.6196 29.3245 25.5733 29.282 25.535C29.2394 25.4968 29.1897 25.4673 29.1357 25.4483L29.1358 25.4484Z" fill="#1F6B19"/>
<path d="M15.5438 29.5035C12.8326 31.4902 8.08896 31.1449 8.08896 31.1449C8.08896 31.1449 8.5728 26.4108 10.999 24.0841C12.7904 22.3662 16.3502 22.9454 16.3502 22.9454L16.9747 23.6846L17.5938 24.4283C17.5938 24.4283 17.5457 28.0366 15.5438 29.5035Z" fill="#25861F"/>
<path d="M17.1035 23.5989C17.067 23.5551 17.0224 23.519 16.972 23.4925C16.9216 23.466 16.8664 23.4497 16.8097 23.4445C16.753 23.4393 16.6959 23.4454 16.6415 23.4623C16.5872 23.4793 16.5367 23.5067 16.4929 23.5432L15.2593 24.5713C15.2547 24.5745 15.2496 24.5764 15.245 24.5798C14.8713 24.8274 14.4274 24.9469 13.98 24.9203C13.5326 24.8938 13.106 24.7226 12.7642 24.4326C12.6744 24.3606 12.5598 24.3272 12.4455 24.3398C12.3312 24.3524 12.2265 24.4099 12.1546 24.4996C12.0826 24.5894 12.0493 24.7041 12.0619 24.8185C12.0744 24.9329 12.1319 25.0376 12.2216 25.1095C12.6735 25.4846 13.226 25.7177 13.8098 25.7794L13.2961 26.2076C12.9646 26.3281 12.6117 26.3782 12.2598 26.355C11.9079 26.3317 11.5647 26.2354 11.252 26.0723C11.2008 26.0471 11.1452 26.0322 11.0883 26.0285C11.0315 26.0248 10.9744 26.0324 10.9204 26.0508C10.8665 26.0692 10.8167 26.0981 10.7739 26.1357C10.7311 26.1734 10.6961 26.2192 10.671 26.2704C10.6459 26.3216 10.6311 26.3772 10.6276 26.4342C10.624 26.4911 10.6316 26.5482 10.6501 26.6021C10.6686 26.6561 10.6976 26.7059 10.7353 26.7486C10.773 26.7914 10.8188 26.8262 10.87 26.8513C11.2545 27.0422 11.67 27.1627 12.0969 27.207L9.83535 29.0918C9.79109 29.1281 9.75444 29.1728 9.72753 29.2233C9.70062 29.2739 9.68398 29.3292 9.67855 29.3862C9.67313 29.4432 9.67904 29.5007 9.69595 29.5554C9.71285 29.6102 9.74041 29.661 9.77704 29.705C9.81366 29.749 9.85863 29.7853 9.90935 29.8118C9.96007 29.8383 10.0155 29.8545 10.0726 29.8595C10.1296 29.8645 10.187 29.8581 10.2415 29.8407C10.2961 29.8234 10.3466 29.7954 10.3903 29.7584L12.1368 28.3029C12.0822 28.7403 12.1068 29.1839 12.2095 29.6125C12.2244 29.6679 12.2501 29.7198 12.2852 29.7652C12.3202 29.8106 12.3639 29.8486 12.4137 29.877C12.4635 29.9054 12.5185 29.9236 12.5754 29.9306C12.6323 29.9376 12.69 29.9333 12.7452 29.9178C12.8004 29.9023 12.852 29.8761 12.897 29.8405C12.942 29.8049 12.9795 29.7608 13.0073 29.7107C13.0352 29.6605 13.0528 29.6053 13.0592 29.5483C13.0655 29.4913 13.0606 29.4336 13.0445 29.3785C12.9611 29.0066 12.9548 28.6214 13.026 28.2469C13.0973 27.8724 13.2445 27.5165 13.4586 27.2012L14.3698 26.4418C14.2772 27.1277 14.3444 27.8258 14.5659 28.4815C14.6067 28.5887 14.6883 28.6753 14.7929 28.7225C14.8974 28.7696 15.0163 28.7734 15.1236 28.7331C15.231 28.6927 15.3179 28.6114 15.3655 28.5071C15.4131 28.4027 15.4175 28.2837 15.3776 28.1762C15.3721 28.161 14.8289 26.654 15.6627 25.4147C15.6808 25.3873 15.6957 25.3579 15.7072 25.3272L17.0479 24.2098C17.1362 24.1362 17.1917 24.0304 17.2021 23.9159C17.2125 23.8013 17.177 23.6873 17.1035 23.5989Z" fill="#1F6B19"/>
<path d="M24.1687 18.789L24.2119 18.827C24.7601 19.3601 24.9419 20.5582 23.9265 21.8259C22.9111 23.0935 20.3132 23.7398 20.0959 23.5285L20.039 23.4785L19.5682 23.064L19.5114 23.0139C19.2743 22.8252 19.584 20.1646 20.7113 18.9954C21.8386 17.8263 23.0495 17.8542 23.6477 18.3303L23.6908 18.3683L24.1687 18.789Z" fill="#F37C22"/>
<path d="M17.5194 17.0823L17.5739 17.0638C18.3093 16.8554 19.4373 17.2969 20.0268 18.8106C20.6162 20.3242 19.8766 22.8986 19.5851 22.9812L19.5134 23.0055L18.9192 23.2062L18.8475 23.2304C18.5656 23.3415 16.4176 21.7428 15.9694 20.1814C15.5211 18.6201 16.1507 17.5847 16.8619 17.3044L16.9164 17.286L17.5194 17.0823Z" fill="#F37C22"/>
<path d="M12.6219 22.1138L12.6331 22.0574C12.8204 21.3159 13.7666 20.5592 15.3714 20.8053C16.9763 21.0513 18.8346 22.9794 18.7604 23.2733L18.7455 23.3476L18.6222 23.9628L18.6073 24.0371C18.5625 24.3369 16.1048 25.3988 14.5292 25.0065C12.9537 24.6143 12.3724 23.5511 12.4853 22.7946L12.4967 22.7382L12.6219 22.1138Z" fill="#F37C22"/>
<path d="M14.4597 28.8596L14.4165 28.8217C13.8684 28.2886 13.6865 27.0904 14.7019 25.8228C15.7173 24.5552 18.3152 23.9089 18.5325 24.1202L18.5894 24.1702L19.0602 24.5847L19.117 24.6348C19.3542 24.8235 19.0444 27.4841 17.9171 28.6532C16.7898 29.8224 15.5789 29.7945 14.9807 29.3184L14.9376 29.2804L14.4597 28.8596Z" fill="#F37C22"/>
<path d="M21.149 30.6264L21.0945 30.6448C20.3591 30.8533 19.2311 30.4118 18.6416 28.8981C18.0521 27.3844 18.7918 24.8101 19.0833 24.7274L19.155 24.7032L19.7492 24.5024L19.8209 24.4782C20.1028 24.3671 22.2508 25.9658 22.699 27.5272C23.1473 29.0886 22.5177 30.1239 21.8065 30.4042L21.752 30.4226L21.149 30.6264Z" fill="#F37C22"/>
<path d="M25.9407 25.7679L25.9295 25.8243C25.7422 26.5658 24.796 27.3225 23.1912 27.0765C21.5863 26.8305 19.728 24.9024 19.8022 24.6084L19.8171 24.5342L19.9404 23.9189L19.9553 23.8447C20.0001 23.5448 22.4578 22.483 24.0334 22.8752C25.6089 23.2674 26.1902 24.3307 26.0773 25.0871L26.0659 25.1435L25.9407 25.7679Z" fill="#F37C22"/>
<path d="M20.7031 25.0407C21.3516 24.3035 21.28 23.1798 20.5432 22.5309C19.8064 21.882 18.6834 21.9536 18.0348 22.6909C17.3863 23.4281 17.4579 24.5518 18.1947 25.2007C18.9315 25.8496 20.0546 25.778 20.7031 25.0407Z" fill="#7F5831"/>
<path d="M21.7941 14.2695C20.2791 12.563 19.9995 10.2014 20.0402 8.48134C20.0434 8.33873 20.018 8.19692 19.9656 8.06427C19.9132 7.93161 19.8348 7.81077 19.735 7.70886C19.6353 7.60694 19.5162 7.52601 19.3847 7.47082C19.2533 7.41562 19.1121 7.38728 18.9695 7.38745C18.746 7.38738 18.528 7.45734 18.3462 7.58751C18.1644 7.71768 18.0278 7.90154 17.9558 8.11329C17.3693 9.83563 16.5235 12.231 15.6969 14.2591C15.6543 14.3635 15.634 14.4756 15.6371 14.5883C15.6402 14.701 15.6667 14.8118 15.7149 14.9137C15.7632 15.0156 15.8321 15.1063 15.9172 15.1801C16.0024 15.2539 16.102 15.3092 16.2097 15.3424C16.4081 15.3994 16.6206 15.3803 16.8057 15.2888C16.9908 15.1973 17.1352 15.04 17.2105 14.8477C17.6909 13.6677 18.1768 12.3685 18.6156 11.1469C18.8872 12.5902 19.4665 14.104 20.5997 15.3703C20.6727 15.4518 20.7614 15.5178 20.8605 15.5641C20.9596 15.6105 21.067 15.6364 21.1764 15.6402C21.2857 15.644 21.3947 15.6256 21.4967 15.5862C21.5988 15.5468 21.6919 15.4872 21.7703 15.4109C21.9196 15.2599 22.0053 15.0573 22.0098 14.845C22.0142 14.6326 21.937 14.4266 21.7941 14.2695Z" fill="#7F5831"/>
<path d="M21.3701 7.51096C20.9512 7.9929 19.8832 9.08861 19.0181 8.85507C18.3023 8.66179 17.8515 7.55514 17.6465 6.9127C17.4432 6.27545 17.1532 5.01683 17.4955 3.74779C17.7189 2.91935 18.0445 2.25509 18.4632 1.77348C19.1274 1.00936 20.0367 0.713711 20.9577 0.962448C22.2778 1.31883 23.3208 2.75077 22.6748 5.14624C22.421 6.02169 21.9753 6.82952 21.3701 7.51096ZM19.4656 7.08974C20.24 6.48561 20.8125 5.6602 21.1072 4.72299C21.4231 3.55156 21.2037 2.71153 20.5346 2.53091C20.3337 2.47667 20.0274 2.44966 19.6882 2.83972C19.386 3.233 19.1727 3.68724 19.0631 4.17106C18.7647 5.27738 19.17 6.50905 19.4656 7.08974Z" fill="#7F5831"/>
<path d="M26.3492 9.30669C25.8008 9.93755 24.9149 10.3439 23.7159 10.5144C22.4152 10.6993 21.2022 10.2577 20.5949 9.97794C19.9826 9.69596 18.9399 9.1132 18.8356 8.37877C18.783 8.00848 18.9394 7.62779 19.3279 7.18087C20.0508 6.3493 21.4546 5.41433 22.9609 5.20008C25.4159 4.85086 26.709 6.06139 26.9014 7.41596C26.9545 7.75236 26.9326 8.09635 26.8371 8.42325C26.7416 8.75015 26.575 9.05185 26.3492 9.30669ZM20.6418 8.15027C21.182 8.51467 22.354 9.06707 23.4874 8.90593C24.2661 8.79515 24.8473 8.55888 25.1241 8.24046C25.1963 8.16088 25.2491 8.06574 25.2786 7.96241C25.308 7.85909 25.3132 7.75036 25.2939 7.64468C25.1963 6.95825 24.3899 6.63787 23.1894 6.80866C22.1034 6.96307 21.112 7.66144 20.6418 8.15027Z" fill="#7F5831"/>
<path d="M7.53643 23.4668C6.72205 22.9361 6.04361 22.2214 5.55574 21.3803C5.53347 21.3425 5.51517 21.3026 5.50112 21.261C5.0256 19.9165 4.84097 18.4863 4.95946 17.065C4.98107 16.8042 4.92679 16.5428 4.80315 16.3122C4.67952 16.0817 4.49182 15.8919 4.26272 15.7657C4.03363 15.6395 3.77293 15.5824 3.51211 15.6013C3.25129 15.6202 3.0015 15.7142 2.79291 15.8719C2.64152 15.9873 2.5158 16.133 2.42378 16.2996C2.33176 16.4663 2.27545 16.6503 2.25844 16.84C2.10316 18.7094 2.3601 20.5902 3.01111 22.3493C3.03646 22.4199 3.06762 22.4882 3.10425 22.5536C3.81046 23.842 4.82387 24.9359 6.0544 25.738C6.21812 25.8439 6.4026 25.9137 6.59547 25.9424C6.78834 25.9712 6.98512 25.9583 7.17261 25.9047C7.35753 25.8516 7.52899 25.7596 7.67547 25.6348C7.82196 25.5101 7.9401 25.3554 8.02197 25.1812L8.02351 25.1777C8.16233 24.8817 8.18949 24.5455 8.09997 24.231C8.01044 23.9166 7.81029 23.6452 7.53643 23.4668ZM7.36806 24.8733L7.36735 24.8749C7.32969 24.9558 7.27498 25.0276 7.20699 25.0854C7.139 25.1432 7.05933 25.1856 6.97344 25.2096C6.88499 25.2348 6.79217 25.2408 6.70123 25.2271C6.61029 25.2134 6.52332 25.1804 6.44617 25.1304C5.31507 24.3921 4.3837 23.3858 3.73482 22.2008C3.71763 22.1701 3.70304 22.138 3.6912 22.1049C3.07582 20.4446 2.83241 18.6694 2.97819 16.9046C2.98556 16.8151 3.01177 16.7281 3.05509 16.6494C3.09841 16.5707 3.15786 16.5021 3.22955 16.448C3.33765 16.3652 3.47006 16.3203 3.60624 16.3204C3.64634 16.3204 3.68635 16.3241 3.72577 16.3315C3.87871 16.3598 4.01579 16.4437 4.11067 16.567C4.20554 16.6904 4.25153 16.8444 4.23978 16.9996C4.11197 18.5222 4.30887 20.0546 4.81745 21.4954C4.84758 21.5837 4.88669 21.6687 4.93416 21.7491C5.47904 22.6868 6.23637 23.4834 7.14518 24.0748C7.27255 24.1584 7.36531 24.2854 7.40629 24.4322C7.44727 24.5791 7.43369 24.7358 7.36806 24.8733Z" fill="black"/>
<path d="M31.7834 26.6148C31.6972 26.4365 29.6336 22.2315 26.4983 20.849C26.0336 20.6502 25.5363 20.5387 25.0313 20.5198C25.4664 17.8551 25.0625 15.121 23.8757 12.6962C24.0016 12.5632 24.1538 12.4579 24.3226 12.3869C24.4914 12.3159 24.6731 12.2808 24.8562 12.2838C24.9295 12.2838 25.0011 12.2615 25.0615 12.2198C25.1218 12.1781 25.168 12.119 25.194 12.0504C25.22 11.9818 25.2245 11.907 25.207 11.8357C25.1894 11.7645 25.1506 11.7003 25.0957 11.6517L24.0989 10.7682C25.1023 10.5448 25.8698 10.1347 26.3834 9.54392C26.6438 9.25031 26.8359 8.90268 26.946 8.52598C27.0562 8.14929 27.0817 7.75287 27.0206 7.36516C26.9636 6.95928 26.8196 6.57053 26.5984 6.22558C26.3772 5.88063 26.084 5.58764 25.739 5.36671C25.0504 4.9159 24.1545 4.72048 23.1275 4.79345C23.3252 3.78266 23.2408 2.86901 22.8777 2.13018C22.7007 1.76056 22.4459 1.43364 22.1307 1.17183C21.8155 0.910015 21.4475 0.719515 21.0518 0.613393C19.9926 0.327146 18.9493 0.663456 18.1905 1.53624C17.7031 2.13462 17.3538 2.83331 17.1675 3.58241H3.71479C3.65634 3.58241 3.59876 3.5966 3.547 3.62376C3.49523 3.65092 3.45083 3.69024 3.41759 3.73835C3.38435 3.78646 3.36327 3.84192 3.35617 3.89997C3.34906 3.95802 3.35613 4.01693 3.37678 4.07164L4.27236 6.44627C4.06169 6.55384 3.88502 6.71785 3.76205 6.92C3.63908 7.12216 3.57465 7.35452 3.57593 7.59117C3.57556 7.86969 3.66514 8.14088 3.83132 8.36432L0.121769 11.6517C0.0668763 11.7003 0.0280731 11.7645 0.0105137 11.8357C-0.00704566 11.907 -0.00253019 11.9818 0.0234604 12.0504C0.0494509 12.119 0.0956864 12.1781 0.156025 12.2198C0.216363 12.2615 0.287948 12.2838 0.361271 12.2838C0.544354 12.2808 0.72606 12.3159 0.894859 12.3869C1.06366 12.4579 1.21586 12.5633 1.34181 12.6963C0.0384223 15.4169 -0.71185 19.1532 1.04719 23.6082C1.05303 23.623 1.05981 23.6374 1.06751 23.6513C2.91203 26.9661 5.68526 28.4197 8.11215 29.0285C7.94013 29.7128 7.81231 30.4074 7.7295 31.1081C7.7246 31.1562 7.72939 31.2049 7.7436 31.2511C7.7578 31.2973 7.78113 31.3402 7.8122 31.3773C7.84326 31.4143 7.88144 31.4448 7.92448 31.4668C7.96751 31.4888 8.01452 31.502 8.06273 31.5055C8.11241 31.5091 8.44181 31.5315 8.95201 31.5315C10.4363 31.5315 13.4476 31.3416 15.5367 29.9489C15.6688 29.9744 15.803 29.9874 15.9376 29.9876C16.6328 29.9876 17.4409 29.6678 18.177 28.9043C18.1986 28.8819 18.2183 28.8564 18.2393 28.833C18.2599 28.8996 18.2804 28.9661 18.305 29.0294C18.8466 30.4204 19.8578 31.0553 20.7318 31.0553C20.8877 31.0558 21.0429 31.0347 21.1931 30.9926C21.1988 30.991 21.2045 30.9892 21.2103 30.9872L21.9217 30.7468C21.9275 30.7449 21.9332 30.7428 21.9388 30.7406C22.7839 30.4076 23.4205 29.3191 23.1392 27.8272C23.3667 27.9488 23.606 28.0469 23.8535 28.1199C24.5245 28.3064 25.2186 28.3972 25.915 28.3895C28.6982 28.3895 31.4618 27.167 31.6061 27.1022C31.6502 27.0824 31.6899 27.054 31.7228 27.0186C31.7558 26.9831 31.7812 26.9415 31.7978 26.896C31.8143 26.8506 31.8216 26.8023 31.8191 26.754C31.8166 26.7057 31.8045 26.6584 31.7834 26.6149V26.6148ZM23.0611 12.4962C22.6932 12.8905 22.4026 13.202 21.794 13.202C21.6724 13.2024 21.5513 13.1871 21.4336 13.1563C20.9571 12.3182 20.6461 11.3961 20.5173 10.4405C21.2565 10.7452 22.0465 10.9078 22.8459 10.9197C22.952 10.9197 23.0595 10.9159 23.1678 10.9089L24.0686 11.7071C23.6293 11.8871 23.3331 12.2046 23.0611 12.4962ZM21.5186 15.1514C21.4751 15.1938 21.4235 15.227 21.3668 15.2489C21.3102 15.2708 21.2496 15.281 21.1889 15.2789C21.1282 15.2769 21.0686 15.2625 21.0135 15.2368C20.9585 15.211 20.9092 15.1744 20.8687 15.1292C19.9142 14.0624 19.2754 12.7 18.9706 11.08C18.9559 11.002 18.916 10.931 18.857 10.878C18.798 10.825 18.7232 10.7928 18.6441 10.7865C18.6345 10.7858 18.625 10.7854 18.6154 10.7854C18.541 10.7855 18.4684 10.8084 18.4076 10.8513C18.3468 10.8941 18.3007 10.9546 18.2755 11.0246C17.7724 12.4253 17.3015 13.6657 16.8759 14.7114C16.8347 14.8199 16.7547 14.9092 16.6514 14.962C16.5481 15.0148 16.4289 15.0273 16.317 14.9971C16.2571 14.9788 16.2016 14.9482 16.1542 14.9073C16.1068 14.8664 16.0684 14.816 16.0416 14.7594C16.0147 14.7028 15.9999 14.6412 15.9981 14.5786C15.9964 14.5159 16.0077 14.4536 16.0313 14.3956C16.7983 12.5141 17.58 10.3206 18.145 8.67589C18.2315 8.77624 18.3275 8.86792 18.4318 8.94965C18.7069 9.41055 19.2221 9.78777 19.7429 10.0738C19.8991 11.5545 20.3677 13.2072 21.524 14.5095C21.6048 14.5972 21.6492 14.7123 21.6482 14.8315C21.6472 14.9508 21.6009 15.0651 21.5186 15.1514ZM23.542 5.50124C24.1753 5.47941 24.8013 5.64289 25.3433 5.97164C25.6019 6.13671 25.8218 6.3558 25.9878 6.6139C26.1538 6.87199 26.2621 7.16297 26.3051 7.46687C26.3503 7.75191 26.3319 8.04344 26.2512 8.32051C26.1704 8.59758 26.0294 8.85333 25.8381 9.06939C25.3484 9.6327 24.5371 9.99845 23.4267 10.1565C22.2176 10.3285 21.0788 9.91267 20.5075 9.6495C19.593 9.22839 19.0126 8.73435 18.9548 8.3278C18.9317 8.16498 18.9488 7.8935 19.3621 7.41809C20.0409 6.63722 21.3589 5.75914 22.7732 5.55791C23.0278 5.52098 23.2847 5.50205 23.542 5.50125V5.50124ZM20.8323 4.3055C20.8127 4.40944 20.7883 4.51718 20.7582 4.6288C20.6376 5.04504 20.4475 5.43785 20.1958 5.79057C19.9636 5.93684 19.74 6.09647 19.5263 6.26866C19.3514 5.70607 19.2345 4.97346 19.4024 4.30557L20.8323 4.3055ZM19.6527 3.58247C19.7313 3.40035 19.835 3.23017 19.9609 3.07691C20.0012 3.01628 20.0545 2.96538 20.1169 2.92791C20.1793 2.89044 20.2492 2.86734 20.3217 2.86029C20.362 2.86136 20.402 2.86796 20.4405 2.87991C20.6956 2.94883 20.8454 3.20262 20.88 3.58247H19.6527ZM17.8443 3.84195C18.0534 3.06686 18.3533 2.45075 18.7356 2.01072C18.9286 1.77393 19.171 1.58218 19.4459 1.44887C19.7207 1.31556 20.0212 1.2439 20.3266 1.2389C20.508 1.23928 20.6885 1.26366 20.8635 1.31142C21.1597 1.3913 21.4351 1.53434 21.6708 1.73073C21.9066 1.92713 22.097 2.17222 22.2292 2.44921C22.549 3.09993 22.5922 3.94414 22.3625 4.89605C22.0069 4.97023 21.6589 5.07652 21.3225 5.2136C21.3742 5.084 21.4187 4.95167 21.4559 4.8172C21.9031 3.15967 21.3217 2.36902 20.6287 2.18189C20.1727 2.05867 19.7649 2.20046 19.4156 2.60243C19.0772 3.03691 18.8378 3.54013 18.7141 4.07687C18.4642 5.00343 18.6541 6.0401 18.9454 6.80301C18.9009 6.85006 18.8574 6.897 18.8168 6.94364C18.6206 7.15949 18.4608 7.40586 18.3436 7.67309C18.202 7.39335 18.0839 7.10225 17.9906 6.80284C17.7995 6.20324 17.5263 5.02132 17.8444 3.84196L17.8443 3.84195ZM17.3083 7.04093C17.4018 7.33587 17.5159 7.62385 17.6499 7.90271C17.6369 7.93352 17.6246 7.96469 17.6138 7.9967C17.5978 8.0437 17.5808 8.09337 17.5643 8.14152H4.80787C4.6693 8.13088 4.53985 8.06828 4.44541 7.96626C4.35098 7.86424 4.29851 7.7303 4.29851 7.59124C4.29851 7.45218 4.35098 7.31825 4.44541 7.21622C4.53985 7.1142 4.6693 7.0516 4.80787 7.04096L17.3083 7.04093ZM4.23727 4.3055H17.0203C16.9423 4.97712 16.9754 5.65701 17.1181 6.3179H4.99621L4.23727 4.3055ZM1.14894 11.7072L4.42757 8.80175C4.55008 8.84322 4.67853 8.86442 4.80786 8.86454H17.3155C16.8654 10.1634 16.3042 11.7298 15.7306 13.198C15.7098 13.1988 15.6915 13.202 15.6699 13.202C15.0613 13.202 14.7709 12.8905 14.4029 12.4962C13.9939 12.0577 13.5304 11.5608 12.608 11.5608C11.6855 11.5608 11.2219 12.0578 10.8129 12.4963C10.4451 12.8905 10.1546 13.2019 9.54619 13.2019C8.93776 13.2019 8.64726 12.8905 8.27951 12.4963C7.87051 12.0578 7.40687 11.5608 6.48441 11.5608C5.56196 11.5608 5.09845 12.0578 4.68945 12.4963C4.3218 12.8905 4.03119 13.2019 3.4229 13.2019C2.81461 13.2019 2.52397 12.8905 2.15635 12.4963C1.88426 12.2047 1.58816 11.8871 1.14894 11.7072ZM1.71051 23.3203C0.109123 19.247 0.722706 15.8064 1.88185 13.2536C2.07695 13.4678 2.31509 13.6384 2.58066 13.7541C2.84624 13.8698 3.13325 13.9281 3.4229 13.925C4.34536 13.925 4.80887 13.428 5.21786 12.9895C5.58551 12.5953 5.87612 12.2839 6.48441 12.2839C7.09271 12.2839 7.38334 12.5953 7.75109 12.9895C8.16009 13.428 8.62373 13.925 9.54619 13.925C10.4686 13.925 10.9323 13.428 11.3413 12.9895C11.7091 12.5953 11.9995 12.2839 12.608 12.2839C13.2164 12.2839 13.5069 12.5953 13.8746 12.9895C14.2492 13.391 14.6704 13.8402 15.4466 13.9136C15.4185 13.9834 15.3903 14.0538 15.3622 14.1227C15.3008 14.2735 15.2714 14.4354 15.2758 14.5981C15.2803 14.7609 15.3185 14.9209 15.3881 15.0681C15.4577 15.2152 15.5571 15.3463 15.68 15.453C15.803 15.5596 15.9467 15.6395 16.1022 15.6876C16.387 15.7706 16.6926 15.7446 16.9593 15.6145C17.2261 15.4845 17.4349 15.2598 17.5451 14.9842C17.8573 14.2171 18.1935 13.3468 18.5483 12.3869C18.9005 13.5789 19.5088 14.6795 20.3306 15.6116C20.4406 15.7346 20.5753 15.833 20.726 15.9003C20.8766 15.9676 21.0398 16.0024 21.2047 16.0023C21.2132 16.0023 21.2218 16.0022 21.2303 16.002C21.5266 15.9957 21.8094 15.8773 22.0218 15.6705C22.2393 15.4554 22.3652 15.1645 22.3731 14.8586C22.3811 14.5527 22.2704 14.2556 22.0643 14.0295C22.0321 13.9934 22.0036 13.9551 21.9727 13.9182C22.4947 13.8774 22.9818 13.6398 23.3355 13.2534C24.1042 14.9223 24.4929 16.7412 24.4737 18.5787C24.4702 18.5752 24.4672 18.5711 24.4636 18.5677C24.4592 18.5635 24.4547 18.5593 24.4501 18.5552L23.8864 18.059C23.8819 18.055 23.8772 18.0511 23.8726 18.0474C23.0997 17.4322 21.6762 17.4738 20.4513 18.7444C20.4348 18.7616 20.4197 18.7814 20.4034 18.7992C20.3899 18.7593 20.3783 18.718 20.3633 18.6793C19.7229 17.0345 18.4256 16.4464 17.4754 16.7161C17.4696 16.7177 17.4638 16.7195 17.4582 16.7214L16.7466 16.9619C16.7408 16.9638 16.7351 16.9659 16.7295 16.9681C15.8104 17.3303 15.1349 18.5847 15.622 20.2813C15.6432 20.3552 15.6697 20.4292 15.6975 20.5032C15.6065 20.4803 15.516 20.4616 15.4262 20.4479C13.6825 20.181 12.5249 21.0107 12.2829 21.9689C12.2814 21.9746 12.28 21.9805 12.2789 21.9864L12.1312 22.7236C12.13 22.7294 12.1289 22.7353 12.1281 22.7412C12.1175 22.8169 12.1121 22.8933 12.1122 22.9697C11.6072 23.1638 11.1444 23.4536 10.7491 23.8231C9.49059 25.0299 8.7389 26.8231 8.29997 28.3294C6.02619 27.7593 3.43396 26.403 1.71053 23.3203H1.71051ZM20.5891 19.7599C20.6963 19.5746 20.8246 19.4023 20.9713 19.2464C22.0008 18.1788 22.9938 18.2788 23.4164 18.6081L23.9301 19.0604L23.9305 19.0608L23.9661 19.0921C24.3462 19.4694 24.5714 20.4426 23.6446 21.5997C23.3202 21.9703 22.9261 22.2734 22.4847 22.4917C22.0503 22.5552 21.622 22.6553 21.2044 22.7908C21.0115 22.4532 20.7291 22.1755 20.3884 21.9883C20.5661 21.2597 20.6338 20.5086 20.5891 19.7599ZM16.7269 20.9222C16.5488 20.6642 16.4105 20.3808 16.3166 20.0816C15.9074 18.6564 16.4906 17.8454 16.9867 17.6439L17.635 17.4249H17.6352L17.6804 17.4096C18.1965 17.269 19.152 17.56 19.6901 18.942C20.0037 19.7471 19.8893 20.9243 19.7027 21.7517C19.2002 21.6682 18.6845 21.7664 18.2478 22.0285C17.7877 21.5992 17.277 21.2277 16.7269 20.9222ZM17.6999 22.507C17.3711 22.9088 17.2005 23.4169 17.22 23.9357C16.5987 24.1238 16.0036 24.3897 15.4489 24.727C15.1695 24.7422 14.8893 24.7181 14.6165 24.6556C13.178 24.2976 12.7677 23.3867 12.8417 22.856L12.9762 22.1849L12.9856 22.1381C13.122 21.6201 13.8517 20.9382 15.3168 21.1626C16.1462 21.2897 17.0764 21.9423 17.6999 22.507ZM8.4994 30.8002C8.67243 29.6488 9.33633 26.1793 11.249 24.3451C11.5431 24.0701 11.8836 23.8496 12.2547 23.6938C12.4347 24.1126 12.7252 24.4745 13.095 24.7408C12.9625 24.6681 12.8366 24.5838 12.7189 24.4889C12.6441 24.4297 12.5489 24.4024 12.454 24.4132C12.3592 24.4239 12.2725 24.4718 12.2128 24.5463C12.1531 24.6208 12.1253 24.7159 12.1354 24.8109C12.1456 24.9058 12.1929 24.9929 12.267 25.0531C12.754 25.4595 13.3615 25.6936 13.9951 25.7191L13.3337 26.2704C12.9917 26.3972 12.6269 26.4509 12.2629 26.428C11.8988 26.4051 11.5436 26.3061 11.2202 26.1373C11.1776 26.116 11.1311 26.1033 11.0835 26.0999C11.036 26.0966 10.9882 26.1028 10.943 26.118C10.8979 26.1333 10.8561 26.1573 10.8203 26.1888C10.7844 26.2202 10.7552 26.2585 10.7341 26.3013C10.7131 26.3441 10.7008 26.3907 10.6979 26.4383C10.6949 26.4859 10.7014 26.5337 10.717 26.5788C10.7326 26.6238 10.757 26.6654 10.7887 26.701C10.8204 26.7367 10.8588 26.7657 10.9018 26.7863C11.3314 27.0005 11.8005 27.1238 12.2798 27.1488L9.88172 29.1474C9.84445 29.1775 9.81354 29.2147 9.79078 29.2569C9.76802 29.2991 9.75387 29.3454 9.74916 29.3931C9.74445 29.4408 9.74926 29.489 9.76332 29.5348C9.77738 29.5806 9.80041 29.6232 9.83107 29.66C9.86172 29.6968 9.89939 29.7272 9.94189 29.7493C9.98438 29.7715 10.0309 29.7849 10.0786 29.7889C10.1263 29.7929 10.1744 29.7874 10.22 29.7726C10.2655 29.7579 10.3077 29.7342 10.3441 29.7029L12.2342 28.1276C12.1492 28.6141 12.1645 29.1128 12.2792 29.5931C12.2916 29.6392 12.3131 29.6824 12.3423 29.7201C12.3716 29.7578 12.408 29.7894 12.4495 29.813C12.4909 29.8366 12.5367 29.8517 12.584 29.8575C12.6314 29.8633 12.6794 29.8596 12.7254 29.8468C12.7713 29.8339 12.8143 29.812 12.8517 29.7825C12.8892 29.7529 12.9204 29.7162 12.9436 29.6745C12.9668 29.6328 12.9815 29.5869 12.9869 29.5394C12.9923 29.492 12.9882 29.444 12.975 29.3981C12.8887 29.0141 12.8824 28.6165 12.9565 28.2299C13.0306 27.8434 13.1834 27.4763 13.4055 27.1514L13.7275 26.8831C13.4608 27.7931 13.6789 28.6085 14.1647 29.0809C14.1689 29.085 14.1734 29.0891 14.1779 29.0931L14.74 29.5879C12.5953 30.7838 9.56123 30.8261 8.4994 30.8001V30.8002ZM18.072 27.8317C17.9578 28.0383 17.8184 28.23 17.6571 28.4022C16.6276 29.4698 15.6346 29.3699 15.212 29.0406L14.6983 28.5882H14.6982L14.6625 28.5567C14.2822 28.1795 14.0569 27.2064 14.9838 26.049C15.515 25.3858 16.5629 24.9002 17.3672 24.6446C17.5422 25.0935 17.8652 25.4693 18.2827 25.7096C18.1134 26.4036 18.0425 27.1179 18.072 27.8317V27.8317ZM18.2909 22.9235C18.4134 22.7836 18.5623 22.6692 18.7292 22.5872C18.8961 22.5052 19.0776 22.4572 19.2632 22.4458C19.2939 22.4438 19.3247 22.4428 19.3553 22.4428C19.6788 22.4433 19.9924 22.5546 20.2438 22.7582C20.4952 22.9618 20.6694 23.2454 20.7372 23.5619C20.805 23.8783 20.7625 24.2085 20.6167 24.4974C20.4708 24.7863 20.2305 25.0164 19.9356 25.1496C19.6408 25.2827 19.3093 25.3108 18.9963 25.2291C18.6833 25.1474 18.4077 24.961 18.2154 24.7007C18.0232 24.4405 17.9258 24.1221 17.9395 23.7988C17.9532 23.4754 18.0772 23.1665 18.2909 22.9235ZM21.6817 30.0649L21.0334 30.2839H21.0333L20.9881 30.2991C20.4723 30.4399 19.5162 30.1486 18.9782 28.7668C18.6652 27.963 18.7788 26.7884 18.9648 25.9612C19.4016 26.0422 19.8527 25.9846 20.2551 25.7964C20.8106 26.3291 21.4452 26.7725 22.1363 27.111C22.2258 27.2751 22.298 27.4481 22.3517 27.6271C22.7609 29.0524 22.1778 29.8634 21.6817 30.0648L21.6817 30.0649ZM20.86 25.3722C20.8931 25.3391 20.9272 25.3074 20.9585 25.2718C21.1446 25.0614 21.2871 24.8161 21.3778 24.5501C21.4685 24.2841 21.5056 24.0028 21.4869 23.7224C21.481 23.638 21.4702 23.5541 21.4545 23.471C22.223 23.2257 23.2068 23.0421 23.9462 23.2261C25.3846 23.5842 25.7949 24.4951 25.7209 25.0257L25.5864 25.6968L25.5771 25.7436C25.4407 26.2617 24.7109 26.9443 23.2458 26.7191C22.4152 26.5918 21.4835 25.9374 20.86 25.3721V25.3722ZM24.1867 27.4606C25.182 27.3496 25.8781 26.8355 26.171 26.214C26.2399 26.4047 26.2865 26.6027 26.3098 26.8042C26.317 26.8947 26.358 26.9793 26.4246 27.041C26.4913 27.1027 26.5787 27.137 26.6695 27.1371C26.6787 27.1371 26.688 27.1367 26.6973 27.136C26.7446 27.1324 26.7908 27.1195 26.8331 27.0981C26.8755 27.0767 26.9132 27.0471 26.9441 27.0111C26.975 26.9751 26.9985 26.9333 27.0133 26.8882C27.0281 26.8431 27.0339 26.7955 27.0303 26.7482C26.9745 26.2639 26.8209 25.796 26.5788 25.373L28.8667 26.1968C28.9569 26.2293 29.0563 26.2246 29.143 26.1837C29.2297 26.1429 29.2966 26.0693 29.3291 25.979C29.3615 25.8888 29.3568 25.7894 29.316 25.7026C29.2752 25.6159 29.2016 25.5489 29.1114 25.5164L26.4155 24.5456C26.4051 24.4939 26.3931 24.4421 26.378 24.3903C26.7457 24.2089 27.0786 23.9642 27.3615 23.6673C27.4279 23.5982 27.4642 23.5055 27.4623 23.4096C27.4604 23.3137 27.4205 23.2225 27.3514 23.1561C27.3171 23.1232 27.2768 23.0974 27.2326 23.0801C27.1884 23.0628 27.1412 23.0544 27.0938 23.0553C26.998 23.0572 26.9069 23.0971 26.8405 23.1663C26.6157 23.4025 26.3512 23.5975 26.0591 23.7424C25.826 23.4203 25.5276 23.1511 25.1833 22.9524C25.3015 22.8156 25.4081 22.6692 25.502 22.5148C25.5513 22.4328 25.5662 22.3347 25.5433 22.2418C25.5204 22.149 25.4617 22.069 25.38 22.0193C25.2984 21.9697 25.2003 21.9545 25.1074 21.977C25.0146 21.9995 24.9344 22.0579 24.8844 22.1394C24.7754 22.3212 24.6432 22.488 24.4911 22.6357C24.3725 22.5949 24.2503 22.5567 24.1206 22.5244C24.0167 22.4993 23.9115 22.4799 23.8055 22.4661C23.9519 22.3403 24.0868 22.2017 24.2085 22.052C24.4109 21.8015 24.5828 21.5279 24.7204 21.2367C25.2298 21.2209 25.7367 21.3143 26.207 21.5106C28.6048 22.568 30.4007 25.5723 30.9546 26.5891C29.8959 27.0048 26.6882 28.118 24.1868 27.4606H24.1867Z" fill="black"/>
<path d="M20.2014 8.45002C20.8161 8.86464 21.8279 9.29569 22.8381 9.29569C22.9926 9.29597 23.1468 9.28534 23.2998 9.26388C23.9116 9.17681 24.7305 8.96979 25.1582 8.4778C25.2641 8.35892 25.342 8.21778 25.3861 8.06478C25.4302 7.91178 25.4395 7.75083 25.4131 7.59378C25.3767 7.36035 25.277 7.14138 25.1248 6.96073C24.9726 6.78008 24.7738 6.64467 24.5501 6.56925C24.1219 6.39908 23.5513 6.35813 22.9002 6.45078C21.809 6.60591 20.7291 7.29024 20.143 7.89973C20.1065 7.93773 20.0787 7.98328 20.0616 8.03317C20.0445 8.08307 20.0385 8.1361 20.0441 8.18854C20.0497 8.24099 20.0666 8.29158 20.0938 8.33677C20.121 8.38195 20.1577 8.42064 20.2014 8.45012V8.45002ZM21.6289 7.76391C21.6333 7.75882 21.6383 7.75336 21.6427 7.74832H21.6429C21.6875 7.697 21.7345 7.63987 21.7814 7.58252C22.1613 7.37477 22.5742 7.23408 23.0018 7.16665C23.529 7.09165 23.9719 7.11736 24.2835 7.24128C24.654 7.3885 24.6869 7.61967 24.6977 7.69572C24.7099 7.75 24.7085 7.80644 24.6937 7.86007C24.679 7.9137 24.6512 7.96288 24.613 8.00329C24.3998 8.24873 23.8708 8.45236 23.1982 8.54811C22.6001 8.60953 21.9962 8.51797 21.4431 8.28203C21.5416 8.12471 21.6049 7.94798 21.6289 7.76391Z" fill="black"/>
</svg>
