<svg width="175" height="63" viewBox="0 0 175 63" fill="none" xmlns="http://www.w3.org/2000/svg">
<path d="M62.3019 42.6214C62.0461 42.3526 61.9182 41.9815 61.9182 41.508V19.6618C61.9182 19.1882 62.0461 18.8171 62.3019 18.5483C62.5577 18.2796 62.9287 18.1388 63.4019 18.1388C63.8752 18.1388 64.2461 18.2796 64.5147 18.5483C64.7833 18.8171 64.924 19.1882 64.924 19.6618L64.9624 29.5674C66.6891 27.5453 68.9147 26.5215 71.6263 26.5215C74.2739 26.5215 76.3716 27.2638 77.9065 28.7355C79.4413 30.2073 80.2088 32.2294 80.2088 34.7762C80.2088 37.387 79.4541 39.4091 77.9448 40.8553C76.4356 42.3014 74.3123 43.0181 71.5751 43.0181C70.1554 43.0181 68.9019 42.7622 67.8275 42.263C66.7531 41.7511 65.7938 40.9704 64.9496 39.921V41.508C64.9496 41.9815 64.8089 42.3526 64.5403 42.6214C64.2717 42.8901 63.9008 43.0309 63.4275 43.0309C62.9287 43.0181 62.5577 42.8901 62.3019 42.6214ZM75.6681 39.0635C76.6786 38.0781 77.1902 36.6575 77.1902 34.7762C77.1902 32.9589 76.6658 31.5511 75.6042 30.5401C74.5425 29.529 73.0972 29.0171 71.2426 29.0171C70.0147 29.0171 68.9147 29.2603 67.9554 29.7466C66.9961 30.2329 66.2542 30.9112 65.7298 31.7815C65.2054 32.6517 64.9368 33.65 64.9368 34.7762C64.9368 36.5679 65.4996 37.9757 66.6252 38.9995C67.7507 40.0234 69.2856 40.5353 71.2554 40.5353C73.1739 40.5353 74.6449 40.0362 75.6681 39.0635Z" fill="#272122"/>
<path d="M84.6728 41.5975C83.4577 40.6505 82.8438 39.3707 82.8438 37.7453C82.8438 36.1328 83.4833 34.8402 84.7623 33.8931C86.0414 32.9461 87.7937 32.4726 90.0193 32.4726C91.1832 32.4726 92.2193 32.6261 93.1402 32.9205C94.0611 33.2276 94.7902 33.6372 95.353 34.1491V32.5365C95.353 31.3719 94.982 30.4761 94.2402 29.8618C93.4983 29.2475 92.3983 28.9403 90.953 28.9403C89.0344 28.9403 87.3716 29.3882 85.9774 30.2713C85.5681 30.5145 85.21 30.6296 84.9158 30.6296C84.6344 30.6296 84.353 30.5145 84.0717 30.2713C83.8286 30.0281 83.7135 29.7594 83.7135 29.4266C83.7135 29.0555 83.8926 28.7227 84.2635 28.4284C85.0437 27.8397 86.0158 27.379 87.2054 27.0334C88.3949 26.6879 89.6356 26.5215 90.9274 26.5215C93.2809 26.5215 95.1099 27.059 96.4274 28.1212C97.7448 29.1835 98.3971 30.6808 98.3971 32.6005V41.5591C98.3971 42.0327 98.2692 42.391 98.0262 42.647C97.7832 42.8901 97.4123 43.0181 96.939 43.0181C96.4658 43.0181 96.0948 42.8901 95.839 42.647C95.5832 42.4038 95.4553 42.0583 95.4553 41.6231V40.7145C94.1634 42.2502 92.2193 43.0181 89.6356 43.0181C87.5379 43.0181 85.8879 42.5446 84.6728 41.5975ZM93.9588 39.8698C94.9181 39.2939 95.4041 38.5516 95.4041 37.6174C95.4041 36.7087 94.9437 36.0048 94.0355 35.4929C93.1146 34.981 91.8483 34.7378 90.2367 34.7378C88.8298 34.7378 87.7553 34.9938 87.0007 35.5185C86.2461 36.0304 85.8623 36.7855 85.8623 37.7453C85.8623 38.6924 86.2333 39.4347 86.9751 39.9466C87.717 40.4585 88.7786 40.7273 90.16 40.7273C91.7332 40.7273 92.9995 40.4457 93.9588 39.8698Z" fill="#272122"/>
<path d="M103.296 42.6214C103.053 42.3526 102.925 41.9815 102.925 41.508V19.6618C102.925 19.1626 103.053 18.7915 103.296 18.5227C103.539 18.2668 103.91 18.1388 104.383 18.1388C104.856 18.1388 105.227 18.2796 105.496 18.5483C105.764 18.8171 105.905 19.1882 105.905 19.6618V41.508C105.905 41.9815 105.764 42.3526 105.496 42.6214C105.227 42.8901 104.856 43.0309 104.383 43.0309C103.91 43.0181 103.552 42.8901 103.296 42.6214Z" fill="#272122"/>
<path d="M112.262 40.8425C110.702 39.3835 109.921 37.3614 109.921 34.7762C109.921 32.2038 110.689 30.1945 112.236 28.7227C113.784 27.251 115.92 26.5215 118.657 26.5215C120.346 26.5215 121.829 26.7902 123.134 27.315C124.439 27.8397 125.462 28.582 126.191 29.5418C126.92 30.5017 127.291 31.6023 127.291 32.8309C127.291 33.778 127.022 34.5074 126.472 35.0322C125.922 35.5441 125.142 35.8128 124.132 35.8128H112.902C112.902 37.323 113.413 38.5004 114.436 39.3195C115.46 40.1514 116.918 40.5609 118.824 40.5609C119.949 40.5609 120.921 40.4457 121.753 40.2026C122.584 39.9594 123.364 39.5755 124.093 39.0379C124.631 38.6668 125.04 38.4876 125.321 38.4876C125.577 38.4876 125.82 38.59 126.037 38.8076C126.344 39.1147 126.485 39.4219 126.485 39.7418C126.485 40.0618 126.332 40.3689 126.037 40.6505C124.272 42.2246 121.868 43.0181 118.824 43.0181C116.01 43.0181 113.822 42.2886 112.262 40.8425ZM123.211 33.5348C123.594 33.5348 123.876 33.458 124.055 33.3044C124.221 33.1509 124.311 32.8821 124.311 32.4982C124.311 31.4615 123.786 30.6168 122.738 29.9514C121.689 29.2987 120.333 28.9659 118.645 28.9659C116.892 28.9659 115.511 29.3754 114.488 30.1945C113.464 31.0136 112.953 32.127 112.953 33.522H123.211V33.5348Z" fill="#272122"/>
<path d="M134.172 41.9176C132.791 41.1881 131.742 40.1899 131.013 38.9357C130.284 37.6814 129.926 36.2993 129.926 34.7635C129.926 33.2277 130.284 31.8456 131.013 30.5914C131.729 29.3371 132.791 28.3517 134.172 27.6094C135.554 26.8799 137.178 26.5088 139.058 26.5088C140.939 26.5088 142.563 26.8799 143.932 27.6094C145.3 28.3389 146.349 29.3371 147.065 30.5914C147.782 31.8456 148.153 33.2405 148.153 34.7635C148.153 36.2993 147.794 37.6814 147.065 38.9357C146.349 40.1899 145.3 41.1753 143.932 41.9176C142.563 42.6471 140.939 43.0182 139.058 43.0182C137.178 43.0182 135.554 42.6599 134.172 41.9176ZM143.497 39.0124C144.597 38.0014 145.147 36.5808 145.147 34.7763C145.147 32.959 144.597 31.5512 143.497 30.5402C142.397 29.5291 140.926 29.0172 139.071 29.0172C137.217 29.0172 135.733 29.5291 134.62 30.5402C133.507 31.5512 132.957 32.9718 132.957 34.7763C132.957 36.5936 133.507 38.0014 134.62 39.0124C135.733 40.0235 137.217 40.5354 139.071 40.5354C140.913 40.5354 142.397 40.0235 143.497 39.0124Z" fill="#272122"/>
<path d="M151.465 42.6215C151.222 42.3527 151.094 41.9816 151.094 41.5081V28.0446C151.094 27.0335 151.58 26.5216 152.552 26.5216C153 26.5216 153.358 26.6624 153.614 26.9311C153.87 27.1999 153.998 27.571 153.998 28.0446V29.6187C155.597 27.5454 157.758 26.5088 160.495 26.5088C162.567 26.5088 164.166 27.1103 165.305 28.3005C166.443 29.5035 167.006 31.1929 167.006 33.3685V41.4953C167.006 41.9688 166.865 42.3399 166.597 42.6087C166.328 42.8774 165.97 43.0182 165.509 43.0182C165.036 43.0182 164.665 42.8774 164.409 42.6087C164.154 42.3399 164.026 41.9688 164.026 41.4953V33.3685C164.026 31.9223 163.68 30.8345 163.002 30.105C162.324 29.3755 161.314 29.0044 159.984 29.0044C158.168 29.0044 156.735 29.5419 155.661 30.6042C154.599 31.6664 154.062 33.1126 154.062 34.9299V41.4953C154.062 41.9688 153.921 42.3399 153.652 42.6087C153.384 42.8774 153.013 43.0182 152.54 43.0182C152.066 43.0182 151.708 42.8902 151.465 42.6215Z" fill="#272122"/>
<path d="M171.47 23.0404C171.086 22.682 170.881 22.2341 170.881 21.6966C170.881 21.1591 171.073 20.6983 171.47 20.34C171.853 19.9688 172.327 19.7897 172.89 19.7897C173.491 19.7897 173.99 19.9688 174.399 20.34C174.795 20.7111 175 21.1591 175 21.6966C175 22.2085 174.795 22.6564 174.399 23.0276C174.002 23.3987 173.503 23.5779 172.89 23.5779C172.327 23.5779 171.853 23.3987 171.47 23.0404ZM171.828 42.6213C171.572 42.3526 171.444 41.9814 171.444 41.5079V28.0444C171.444 27.5709 171.572 27.1997 171.828 26.931C172.084 26.6622 172.455 26.5214 172.928 26.5214C173.401 26.5214 173.772 26.6622 174.028 26.931C174.284 27.1997 174.412 27.5709 174.412 28.0444V41.5079C174.412 41.9814 174.284 42.3526 174.028 42.6213C173.772 42.8901 173.401 43.0309 172.928 43.0309C172.455 43.0181 172.084 42.8901 171.828 42.6213Z" fill="#272122"/>
<mask id="mask0_2_30" style="mask-type:alpha" maskUnits="userSpaceOnUse" x="1" y="2" width="54" height="59">
<path d="M23.1445 3.5553L6.32713 13.2696C3.39649 14.9688 1.59302 18.0967 1.59302 21.4801V40.9087C1.59302 44.2922 3.39649 47.4351 6.32713 49.1193L23.1445 58.8336C26.0751 60.5328 29.6971 60.5328 32.6277 58.8336L49.4451 49.1193C52.3757 47.42 54.1792 44.2922 54.1792 40.9087V21.4801C54.1792 18.0967 52.3757 14.9538 49.4451 13.2696L32.6277 3.5553C31.1549 2.71319 29.5168 2.2771 27.8936 2.2771C26.2705 2.2771 24.6173 2.69815 23.1445 3.5553Z" fill="white"/>
</mask>
<g mask="url(#mask0_2_30)">
<mask id="mask1_2_30" style="mask-type:alpha" maskUnits="userSpaceOnUse" x="-28" y="-25" width="112" height="112">
<path d="M27.8859 -24.0402L-27.5337 31.4114L27.8859 86.863L83.3054 31.4114L27.8859 -24.0402Z" fill="white"/>
</mask>
<g mask="url(#mask1_2_30)">
<path d="M-27.5331 15.7206L43.5687 86.8635H-27.5331V15.7206Z" fill="#FF5B00"/>
</g>
<mask id="mask2_2_30" style="mask-type:alpha" maskUnits="userSpaceOnUse" x="-28" y="-25" width="112" height="112">
<path d="M27.8859 -24.0402L-27.5337 31.4114L27.8859 86.863L83.3054 31.4114L27.8859 -24.0402Z" fill="white"/>
</mask>
<g mask="url(#mask2_2_30)">
<path d="M-27.5331 14.4875L44.8011 86.8636H43.5687L-27.5331 15.7206V14.4875Z" fill="#FF5B00"/>
</g>
<mask id="mask3_2_30" style="mask-type:alpha" maskUnits="userSpaceOnUse" x="-28" y="-25" width="112" height="112">
<path d="M27.8859 -24.0402L-27.5337 31.4114L27.8859 86.863L83.3054 31.4114L27.8859 -24.0402Z" fill="white"/>
</mask>
<g mask="url(#mask3_2_30)">
<path d="M-27.5331 13.2545L46.0335 86.8636H44.8011L-27.5331 14.4876V13.2545Z" fill="#FF5C00"/>
</g>
<mask id="mask4_2_30" style="mask-type:alpha" maskUnits="userSpaceOnUse" x="-28" y="-25" width="112" height="112">
<path d="M27.8859 -24.0402L-27.5337 31.4114L27.8859 86.863L83.3054 31.4114L27.8859 -24.0402Z" fill="white"/>
</mask>
<g mask="url(#mask4_2_30)">
<path d="M-27.5331 12.0214L47.2659 86.8636H46.0335L-27.5331 13.2544V12.0214Z" fill="#FF5D00"/>
</g>
<mask id="mask5_2_30" style="mask-type:alpha" maskUnits="userSpaceOnUse" x="-28" y="-25" width="112" height="112">
<path d="M27.8859 -24.0402L-27.5337 31.4114L27.8859 86.863L83.3054 31.4114L27.8859 -24.0402Z" fill="white"/>
</mask>
<g mask="url(#mask5_2_30)">
<path d="M-27.5331 10.7883L48.4832 86.8636H47.2659L-27.5331 12.0214V10.7883Z" fill="#FF5E00"/>
</g>
<mask id="mask6_2_30" style="mask-type:alpha" maskUnits="userSpaceOnUse" x="-28" y="-25" width="112" height="112">
<path d="M27.8859 -24.0402L-27.5337 31.4114L27.8859 86.863L83.3054 31.4114L27.8859 -24.0402Z" fill="white"/>
</mask>
<g mask="url(#mask6_2_30)">
<path d="M-27.5331 9.57031L49.7156 86.8636H48.4832L-27.5331 10.7884V9.57031Z" fill="#FF5F00"/>
</g>
<mask id="mask7_2_30" style="mask-type:alpha" maskUnits="userSpaceOnUse" x="-28" y="-25" width="112" height="112">
<path d="M27.8859 -24.0402L-27.5337 31.4114L27.8859 86.863L83.3054 31.4114L27.8859 -24.0402Z" fill="white"/>
</mask>
<g mask="url(#mask7_2_30)">
<path d="M-27.5331 8.33728L50.9479 86.8637H49.7156L-27.5331 9.57036V8.33728Z" fill="#FF6000"/>
</g>
<mask id="mask8_2_30" style="mask-type:alpha" maskUnits="userSpaceOnUse" x="-28" y="-25" width="112" height="112">
<path d="M27.8859 -24.0402L-27.5337 31.4114L27.8859 86.863L83.3054 31.4114L27.8859 -24.0402Z" fill="white"/>
</mask>
<g mask="url(#mask8_2_30)">
<path d="M-27.5331 7.10413L52.1803 86.8636H50.9479L-27.5331 8.33721V7.10413Z" fill="#FF6100"/>
</g>
<mask id="mask9_2_30" style="mask-type:alpha" maskUnits="userSpaceOnUse" x="-28" y="-25" width="112" height="112">
<path d="M27.8859 -24.0402L-27.5337 31.4114L27.8859 86.863L83.3054 31.4114L27.8859 -24.0402Z" fill="white"/>
</mask>
<g mask="url(#mask9_2_30)">
<path d="M-27.5331 5.87109L53.3977 86.8637H52.1803L-27.5331 7.10418V5.87109Z" fill="#FF6200"/>
</g>
<mask id="mask10_2_30" style="mask-type:alpha" maskUnits="userSpaceOnUse" x="-28" y="-25" width="112" height="112">
<path d="M27.8859 -24.0402L-27.5337 31.4114L27.8859 86.863L83.3054 31.4114L27.8859 -24.0402Z" fill="white"/>
</mask>
<g mask="url(#mask10_2_30)">
<path d="M-27.5331 4.65295L54.63 86.8636H53.3977L-27.5331 5.871V4.65295Z" fill="#FF6300"/>
</g>
<mask id="mask11_2_30" style="mask-type:alpha" maskUnits="userSpaceOnUse" x="-28" y="-25" width="112" height="112">
<path d="M27.8859 -24.0402L-27.5337 31.4114L27.8859 86.863L83.3054 31.4114L27.8859 -24.0402Z" fill="white"/>
</mask>
<g mask="url(#mask11_2_30)">
<path d="M-27.5331 3.41992L55.8624 86.8636H54.63L-27.5331 4.65301V3.41992Z" fill="#FF6400"/>
</g>
<mask id="mask12_2_30" style="mask-type:alpha" maskUnits="userSpaceOnUse" x="-28" y="-25" width="112" height="112">
<path d="M27.8859 -24.0402L-27.5337 31.4114L27.8859 86.863L83.3054 31.4114L27.8859 -24.0402Z" fill="white"/>
</mask>
<g mask="url(#mask12_2_30)">
<path d="M-27.5331 2.18677L57.0948 86.8636H55.8624L-27.5331 3.41985V2.18677Z" fill="#FF6500"/>
</g>
<mask id="mask13_2_30" style="mask-type:alpha" maskUnits="userSpaceOnUse" x="-28" y="-25" width="112" height="112">
<path d="M27.8859 -24.0402L-27.5337 31.4114L27.8859 86.863L83.3054 31.4114L27.8859 -24.0402Z" fill="white"/>
</mask>
<g mask="url(#mask13_2_30)">
<path d="M-27.5331 0.953735L58.3271 86.8636H57.0948L-27.5331 2.18682V0.953735Z" fill="#FF6600"/>
</g>
<mask id="mask14_2_30" style="mask-type:alpha" maskUnits="userSpaceOnUse" x="-28" y="-25" width="112" height="112">
<path d="M27.8859 -24.0402L-27.5337 31.4114L27.8859 86.863L83.3054 31.4114L27.8859 -24.0402Z" fill="white"/>
</mask>
<g mask="url(#mask14_2_30)">
<path d="M-27.5331 -0.279297L59.5445 86.8637H58.3271L-27.5331 0.953787V-0.279297Z" fill="#FF6700"/>
</g>
<mask id="mask15_2_30" style="mask-type:alpha" maskUnits="userSpaceOnUse" x="-28" y="-25" width="112" height="112">
<path d="M27.8859 -24.0402L-27.5337 31.4114L27.8859 86.863L83.3054 31.4114L27.8859 -24.0402Z" fill="white"/>
</mask>
<g mask="url(#mask15_2_30)">
<path d="M-27.5331 -1.49744L60.7769 86.8636H59.5445L-27.5331 -0.279389V-1.49744Z" fill="#FF6800"/>
</g>
<mask id="mask16_2_30" style="mask-type:alpha" maskUnits="userSpaceOnUse" x="-28" y="-25" width="112" height="112">
<path d="M27.8859 -24.0402L-27.5337 31.4114L27.8859 86.863L83.3054 31.4114L27.8859 -24.0402Z" fill="white"/>
</mask>
<g mask="url(#mask16_2_30)">
<path d="M-27.5331 -2.73035L62.0092 86.8638H60.7769L-27.5331 -1.49726V-2.73035Z" fill="#FF6900"/>
</g>
<mask id="mask17_2_30" style="mask-type:alpha" maskUnits="userSpaceOnUse" x="-28" y="-25" width="112" height="112">
<path d="M27.8859 -24.0402L-27.5337 31.4114L27.8859 86.863L83.3054 31.4114L27.8859 -24.0402Z" fill="white"/>
</mask>
<g mask="url(#mask17_2_30)">
<path d="M-27.5331 -3.9635L63.2416 86.8637H62.0092L-27.5331 -2.73042V-3.9635Z" fill="#FF6A00"/>
</g>
<mask id="mask18_2_30" style="mask-type:alpha" maskUnits="userSpaceOnUse" x="-28" y="-25" width="112" height="112">
<path d="M27.8859 -24.0402L-27.5337 31.4114L27.8859 86.863L83.3054 31.4114L27.8859 -24.0402Z" fill="white"/>
</mask>
<g mask="url(#mask18_2_30)">
<path d="M-27.5331 -5.19666L64.4589 86.8636H63.2416L-27.5331 -3.96357V-5.19666Z" fill="#FF6B00"/>
</g>
<mask id="mask19_2_30" style="mask-type:alpha" maskUnits="userSpaceOnUse" x="-28" y="-25" width="112" height="112">
<path d="M27.8859 -24.0402L-27.5337 31.4114L27.8859 86.863L83.3054 31.4114L27.8859 -24.0402Z" fill="white"/>
</mask>
<g mask="url(#mask19_2_30)">
<path d="M-27.5331 -6.41467L65.6913 86.8636H64.4589L-27.5331 -5.19663V-6.41467Z" fill="#FF6C00"/>
</g>
<mask id="mask20_2_30" style="mask-type:alpha" maskUnits="userSpaceOnUse" x="-28" y="-25" width="112" height="112">
<path d="M27.8859 -24.0402L-27.5337 31.4114L27.8859 86.863L83.3054 31.4114L27.8859 -24.0402Z" fill="white"/>
</mask>
<g mask="url(#mask20_2_30)">
<path d="M-27.5331 -7.64771L66.9237 86.8637H65.6913L-27.5331 -6.41462V-7.64771Z" fill="#FF6D00"/>
</g>
<mask id="mask21_2_30" style="mask-type:alpha" maskUnits="userSpaceOnUse" x="-28" y="-25" width="112" height="112">
<path d="M27.8859 -24.0402L-27.5337 31.4114L27.8859 86.863L83.3054 31.4114L27.8859 -24.0402Z" fill="white"/>
</mask>
<g mask="url(#mask21_2_30)">
<path d="M-27.5331 -8.88086L68.1561 86.8636H66.9237L-27.5331 -7.64778V-8.88086Z" fill="#FF6E00"/>
</g>
<mask id="mask22_2_30" style="mask-type:alpha" maskUnits="userSpaceOnUse" x="-28" y="-25" width="112" height="112">
<path d="M27.8859 -24.0402L-27.5337 31.4114L27.8859 86.863L83.3054 31.4114L27.8859 -24.0402Z" fill="white"/>
</mask>
<g mask="url(#mask22_2_30)">
<path d="M-27.5331 -10.1139L69.3884 86.8637H68.1561L-27.5331 -8.88081V-10.1139Z" fill="#FF6F00"/>
</g>
<mask id="mask23_2_30" style="mask-type:alpha" maskUnits="userSpaceOnUse" x="-28" y="-25" width="112" height="112">
<path d="M27.8859 -24.0402L-27.5337 31.4114L27.8859 86.863L83.3054 31.4114L27.8859 -24.0402Z" fill="white"/>
</mask>
<g mask="url(#mask23_2_30)">
<path d="M-27.5331 -11.3319L70.6058 86.8637H69.3884L-27.5331 -10.1139V-11.3319Z" fill="#FF7000"/>
</g>
<mask id="mask24_2_30" style="mask-type:alpha" maskUnits="userSpaceOnUse" x="-28" y="-25" width="112" height="112">
<path d="M27.8859 -24.0402L-27.5337 31.4114L27.8859 86.863L83.3054 31.4114L27.8859 -24.0402Z" fill="white"/>
</mask>
<g mask="url(#mask24_2_30)">
<path d="M-27.5331 -12.5651L71.8381 86.8636H70.6058L-27.5331 -11.332V-12.5651Z" fill="#FF7100"/>
</g>
<mask id="mask25_2_30" style="mask-type:alpha" maskUnits="userSpaceOnUse" x="-28" y="-25" width="112" height="112">
<path d="M27.8859 -24.0402L-27.5337 31.4114L27.8859 86.863L83.3054 31.4114L27.8859 -24.0402Z" fill="white"/>
</mask>
<g mask="url(#mask25_2_30)">
<path d="M-27.5331 -13.7981L73.0705 86.8637H71.8381L-27.5331 -12.565V-13.7981Z" fill="#FF7200"/>
</g>
<mask id="mask26_2_30" style="mask-type:alpha" maskUnits="userSpaceOnUse" x="-28" y="-25" width="112" height="112">
<path d="M27.8859 -24.0402L-27.5337 31.4114L27.8859 86.863L83.3054 31.4114L27.8859 -24.0402Z" fill="white"/>
</mask>
<g mask="url(#mask26_2_30)">
<path d="M-27.5331 -15.0311L74.3029 86.8637H73.0705L-27.5331 -13.798V-15.0311Z" fill="#FF7300"/>
</g>
<mask id="mask27_2_30" style="mask-type:alpha" maskUnits="userSpaceOnUse" x="-28" y="-25" width="112" height="112">
<path d="M27.8859 -24.0402L-27.5337 31.4114L27.8859 86.863L83.3054 31.4114L27.8859 -24.0402Z" fill="white"/>
</mask>
<g mask="url(#mask27_2_30)">
<path d="M-27.5331 -16.2643L75.5202 86.8637H74.3029L-27.5331 -15.0312V-16.2643Z" fill="#FF7400"/>
</g>
<mask id="mask28_2_30" style="mask-type:alpha" maskUnits="userSpaceOnUse" x="-28" y="-25" width="112" height="112">
<path d="M27.8859 -24.0402L-27.5337 31.4114L27.8859 86.863L83.3054 31.4114L27.8859 -24.0402Z" fill="white"/>
</mask>
<g mask="url(#mask28_2_30)">
<path d="M-27.5331 -17.4823L76.7526 86.8637H75.5202L-27.5331 -16.2643V-17.4823Z" fill="#FF7500"/>
</g>
<mask id="mask29_2_30" style="mask-type:alpha" maskUnits="userSpaceOnUse" x="-28" y="-25" width="112" height="112">
<path d="M27.8859 -24.0402L-27.5337 31.4114L27.8859 86.863L83.3054 31.4114L27.8859 -24.0402Z" fill="white"/>
</mask>
<g mask="url(#mask29_2_30)">
<path d="M-27.5331 -18.7153L77.985 86.8637H76.7526L-27.5331 -17.4822V-18.7153Z" fill="#FF7600"/>
</g>
<mask id="mask30_2_30" style="mask-type:alpha" maskUnits="userSpaceOnUse" x="-28" y="-25" width="112" height="112">
<path d="M27.8859 -24.0402L-27.5337 31.4114L27.8859 86.863L83.3054 31.4114L27.8859 -24.0402Z" fill="white"/>
</mask>
<g mask="url(#mask30_2_30)">
<path d="M-27.5331 -19.9485L79.2173 86.8637H77.985L-27.5331 -18.7154V-19.9485Z" fill="#FF7700"/>
</g>
<mask id="mask31_2_30" style="mask-type:alpha" maskUnits="userSpaceOnUse" x="-28" y="-25" width="112" height="112">
<path d="M27.8859 -24.0402L-27.5337 31.4114L27.8859 86.863L83.3054 31.4114L27.8859 -24.0402Z" fill="white"/>
</mask>
<g mask="url(#mask31_2_30)">
<path d="M-27.5331 -21.1815L80.4347 86.8637H79.2173L-27.5331 -19.9484V-21.1815Z" fill="#FF7800"/>
</g>
<mask id="mask32_2_30" style="mask-type:alpha" maskUnits="userSpaceOnUse" x="-28" y="-25" width="112" height="112">
<path d="M27.8859 -24.0402L-27.5337 31.4114L27.8859 86.863L83.3054 31.4114L27.8859 -24.0402Z" fill="white"/>
</mask>
<g mask="url(#mask32_2_30)">
<path d="M-27.5331 -22.3997L81.667 86.8636H80.4347L-27.5331 -21.1816V-22.3997Z" fill="#FF7900"/>
</g>
<mask id="mask33_2_30" style="mask-type:alpha" maskUnits="userSpaceOnUse" x="-28" y="-25" width="112" height="112">
<path d="M27.8859 -24.0402L-27.5337 31.4114L27.8859 86.863L83.3054 31.4114L27.8859 -24.0402Z" fill="white"/>
</mask>
<g mask="url(#mask33_2_30)">
<path d="M-27.5331 -23.6331L82.8994 86.8633H81.6671L-27.5331 -22.4V-23.6331Z" fill="#FF7A00"/>
</g>
<mask id="mask34_2_30" style="mask-type:alpha" maskUnits="userSpaceOnUse" x="-28" y="-25" width="112" height="112">
<path d="M27.8859 -24.0402L-27.5337 31.4114L27.8859 86.863L83.3054 31.4114L27.8859 -24.0402Z" fill="white"/>
</mask>
<g mask="url(#mask34_2_30)">
<path d="M-26.7066 -24.0389L83.3051 86.0364V86.8634H82.8993L-27.5332 -23.6329V-24.0389H-26.7066Z" fill="#FF7C00"/>
</g>
<mask id="mask35_2_30" style="mask-type:alpha" maskUnits="userSpaceOnUse" x="-28" y="-25" width="112" height="112">
<path d="M27.8859 -24.0402L-27.5337 31.4114L27.8859 86.863L83.3054 31.4114L27.8859 -24.0402Z" fill="white"/>
</mask>
<g mask="url(#mask35_2_30)">
<path d="M-25.474 -24.0387L83.3053 84.8035V86.0366L-26.7064 -24.0387H-25.474Z" fill="#FF7D00"/>
</g>
<mask id="mask36_2_30" style="mask-type:alpha" maskUnits="userSpaceOnUse" x="-28" y="-25" width="112" height="112">
<path d="M27.8859 -24.0402L-27.5337 31.4114L27.8859 86.863L83.3054 31.4114L27.8859 -24.0402Z" fill="white"/>
</mask>
<g mask="url(#mask36_2_30)">
<path d="M-24.2417 -24.0387L83.3052 83.5705V84.8035L-25.4741 -24.0387H-24.2417Z" fill="#FF7E00"/>
</g>
<mask id="mask37_2_30" style="mask-type:alpha" maskUnits="userSpaceOnUse" x="-28" y="-25" width="112" height="112">
<path d="M27.8859 -24.0402L-27.5337 31.4114L27.8859 86.863L83.3054 31.4114L27.8859 -24.0402Z" fill="white"/>
</mask>
<g mask="url(#mask37_2_30)">
<path d="M-23.0242 -24.0387L83.3054 82.3524V83.5705L-24.2416 -24.0387H-23.0242Z" fill="#FF7F00"/>
</g>
<mask id="mask38_2_30" style="mask-type:alpha" maskUnits="userSpaceOnUse" x="-28" y="-25" width="112" height="112">
<path d="M27.8859 -24.0402L-27.5337 31.4114L27.8859 86.863L83.3054 31.4114L27.8859 -24.0402Z" fill="white"/>
</mask>
<g mask="url(#mask38_2_30)">
<path d="M-21.7919 -24.0387L83.3053 81.1193V82.3524L-23.0243 -24.0387H-21.7919Z" fill="#FF8000"/>
</g>
<mask id="mask39_2_30" style="mask-type:alpha" maskUnits="userSpaceOnUse" x="-28" y="-25" width="112" height="112">
<path d="M27.8859 -24.0402L-27.5337 31.4114L27.8859 86.863L83.3054 31.4114L27.8859 -24.0402Z" fill="white"/>
</mask>
<g mask="url(#mask39_2_30)">
<path d="M-20.5595 -24.0387L83.3054 79.8862V81.1193L-21.7919 -24.0387H-20.5595Z" fill="#FF8100"/>
</g>
<mask id="mask40_2_30" style="mask-type:alpha" maskUnits="userSpaceOnUse" x="-28" y="-25" width="112" height="112">
<path d="M27.8859 -24.0402L-27.5337 31.4114L27.8859 86.863L83.3054 31.4114L27.8859 -24.0402Z" fill="white"/>
</mask>
<g mask="url(#mask40_2_30)">
<path d="M-19.3272 -24.0387L83.3053 78.6532V79.8862L-20.5596 -24.0387H-19.3272Z" fill="#FF8200"/>
</g>
<mask id="mask41_2_30" style="mask-type:alpha" maskUnits="userSpaceOnUse" x="-28" y="-25" width="112" height="112">
<path d="M27.8859 -24.0402L-27.5337 31.4114L27.8859 86.863L83.3054 31.4114L27.8859 -24.0402Z" fill="white"/>
</mask>
<g mask="url(#mask41_2_30)">
<path d="M-18.1099 -24.0387L83.3052 77.4201V78.6532L-19.3273 -24.0387H-18.1099Z" fill="#FF8300"/>
</g>
<mask id="mask42_2_30" style="mask-type:alpha" maskUnits="userSpaceOnUse" x="-28" y="-25" width="112" height="112">
<path d="M27.8859 -24.0402L-27.5337 31.4114L27.8859 86.863L83.3054 31.4114L27.8859 -24.0402Z" fill="white"/>
</mask>
<g mask="url(#mask42_2_30)">
<path d="M-16.8776 -24.0387L83.3052 76.202V77.4201L22.0924 16.1869L-18.11 -24.0387H-16.8776Z" fill="#FF8400"/>
</g>
<mask id="mask43_2_30" style="mask-type:alpha" maskUnits="userSpaceOnUse" x="-28" y="-25" width="112" height="112">
<path d="M27.8859 -24.0402L-27.5337 31.4114L27.8859 86.863L83.3054 31.4114L27.8859 -24.0402Z" fill="white"/>
</mask>
<g mask="url(#mask43_2_30)">
<path d="M-15.6452 -24.0387L83.3052 74.969V76.202L-16.8776 -24.0387H-15.6452Z" fill="#FF8500"/>
</g>
<mask id="mask44_2_30" style="mask-type:alpha" maskUnits="userSpaceOnUse" x="-28" y="-25" width="112" height="112">
<path d="M27.8859 -24.0402L-27.5337 31.4114L27.8859 86.863L83.3054 31.4114L27.8859 -24.0402Z" fill="white"/>
</mask>
<g mask="url(#mask44_2_30)">
<path d="M-14.4129 -24.0387L83.3052 73.7359V74.969L-15.6453 -24.0387H-14.4129Z" fill="#FF8600"/>
</g>
<mask id="mask45_2_30" style="mask-type:alpha" maskUnits="userSpaceOnUse" x="-28" y="-25" width="112" height="112">
<path d="M27.8859 -24.0402L-27.5337 31.4114L27.8859 86.863L83.3054 31.4114L27.8859 -24.0402Z" fill="white"/>
</mask>
<g mask="url(#mask45_2_30)">
<path d="M-13.1955 -24.0387L83.3052 72.5028V73.7359L-14.4128 -24.0387H-13.1955Z" fill="#FF8700"/>
</g>
<mask id="mask46_2_30" style="mask-type:alpha" maskUnits="userSpaceOnUse" x="-28" y="-25" width="112" height="112">
<path d="M27.8859 -24.0402L-27.5337 31.4114L27.8859 86.863L83.3054 31.4114L27.8859 -24.0402Z" fill="white"/>
</mask>
<g mask="url(#mask46_2_30)">
<path d="M-11.9631 -24.0387L83.3053 71.2847V72.5028L-13.1954 -24.0387H-11.9631Z" fill="#FF8800"/>
</g>
<mask id="mask47_2_30" style="mask-type:alpha" maskUnits="userSpaceOnUse" x="-28" y="-25" width="112" height="112">
<path d="M27.8859 -24.0402L-27.5337 31.4114L27.8859 86.863L83.3054 31.4114L27.8859 -24.0402Z" fill="white"/>
</mask>
<g mask="url(#mask47_2_30)">
<path d="M-10.7308 -24.0387L83.3052 70.0516V71.2847L-11.9631 -24.0387H-10.7308Z" fill="#FF8900"/>
</g>
<mask id="mask48_2_30" style="mask-type:alpha" maskUnits="userSpaceOnUse" x="-28" y="-25" width="112" height="112">
<path d="M27.8859 -24.0402L-27.5337 31.4114L27.8859 86.863L83.3054 31.4114L27.8859 -24.0402Z" fill="white"/>
</mask>
<g mask="url(#mask48_2_30)">
<path d="M-9.49834 -24.0387L83.3052 68.8186V70.0517L-10.7307 -24.0387H-9.49834Z" fill="#FF8A00"/>
</g>
<mask id="mask49_2_30" style="mask-type:alpha" maskUnits="userSpaceOnUse" x="-28" y="-25" width="112" height="112">
<path d="M27.8859 -24.0402L-27.5337 31.4114L27.8859 86.863L83.3054 31.4114L27.8859 -24.0402Z" fill="white"/>
</mask>
<g mask="url(#mask49_2_30)">
<path d="M-8.26604 -24.0387L83.3052 67.5855V68.8186L-9.49841 -24.0387H-8.26604Z" fill="#FF8B00"/>
</g>
<mask id="mask50_2_30" style="mask-type:alpha" maskUnits="userSpaceOnUse" x="-28" y="-25" width="112" height="112">
<path d="M27.8859 -24.0402L-27.5337 31.4114L27.8859 86.863L83.3054 31.4114L27.8859 -24.0402Z" fill="white"/>
</mask>
<g mask="url(#mask50_2_30)">
<path d="M-7.04865 -24.0387L83.3052 66.3674V67.5855L-8.26599 -24.0387H-7.04865Z" fill="#FF8C00"/>
</g>
<mask id="mask51_2_30" style="mask-type:alpha" maskUnits="userSpaceOnUse" x="-28" y="-25" width="112" height="112">
<path d="M27.8859 -24.0402L-27.5337 31.4114L27.8859 86.863L83.3054 31.4114L27.8859 -24.0402Z" fill="white"/>
</mask>
<g mask="url(#mask51_2_30)">
<path d="M-5.81621 -24.0387L83.3053 65.1343V66.3674L-7.04858 -24.0387H-5.81621Z" fill="#FF8D00"/>
</g>
<mask id="mask52_2_30" style="mask-type:alpha" maskUnits="userSpaceOnUse" x="-28" y="-25" width="112" height="112">
<path d="M27.8859 -24.0402L-27.5337 31.4114L27.8859 86.863L83.3054 31.4114L27.8859 -24.0402Z" fill="white"/>
</mask>
<g mask="url(#mask52_2_30)">
<path d="M-4.58391 -24.0387L83.3052 63.9013V65.1343L-5.81628 -24.0387H-4.58391Z" fill="#FF8E00"/>
</g>
<mask id="mask53_2_30" style="mask-type:alpha" maskUnits="userSpaceOnUse" x="-28" y="-25" width="112" height="112">
<path d="M27.8859 -24.0402L-27.5337 31.4114L27.8859 86.863L83.3054 31.4114L27.8859 -24.0402Z" fill="white"/>
</mask>
<g mask="url(#mask53_2_30)">
<path d="M-3.35137 -24.0387L83.3054 62.6682V63.9013L-4.58374 -24.0387H-3.35137Z" fill="#FF8F00"/>
</g>
<mask id="mask54_2_30" style="mask-type:alpha" maskUnits="userSpaceOnUse" x="-28" y="-25" width="112" height="112">
<path d="M27.8859 -24.0402L-27.5337 31.4114L27.8859 86.863L83.3054 31.4114L27.8859 -24.0402Z" fill="white"/>
</mask>
<g mask="url(#mask54_2_30)">
<path d="M-2.1341 -24.0387L83.3053 61.4351V62.6682L-3.35144 -24.0387H-2.1341Z" fill="#FF9000"/>
</g>
<mask id="mask55_2_30" style="mask-type:alpha" maskUnits="userSpaceOnUse" x="-28" y="-25" width="112" height="112">
<path d="M27.8859 -24.0402L-27.5337 31.4114L27.8859 86.863L83.3054 31.4114L27.8859 -24.0402Z" fill="white"/>
</mask>
<g mask="url(#mask55_2_30)">
<path d="M-0.901906 -24.0387L83.3051 60.217V61.4351L-2.13428 -24.0387H-0.901906Z" fill="#FF9100"/>
</g>
<mask id="mask56_2_30" style="mask-type:alpha" maskUnits="userSpaceOnUse" x="-28" y="-25" width="112" height="112">
<path d="M27.8859 -24.0402L-27.5337 31.4114L27.8859 86.863L83.3054 31.4114L27.8859 -24.0402Z" fill="white"/>
</mask>
<g mask="url(#mask56_2_30)">
<path d="M0.330394 -24.0387L83.3051 58.984V60.217L-0.901978 -24.0387H0.330394Z" fill="#FF9200"/>
</g>
<mask id="mask57_2_30" style="mask-type:alpha" maskUnits="userSpaceOnUse" x="-28" y="-25" width="112" height="112">
<path d="M27.8859 -24.0402L-27.5337 31.4114L27.8859 86.863L83.3054 31.4114L27.8859 -24.0402Z" fill="white"/>
</mask>
<g mask="url(#mask57_2_30)">
<path d="M1.56294 -24.0387L83.3052 57.7509V58.984L0.330566 -24.0387H1.56294Z" fill="#FF9300"/>
</g>
<mask id="mask58_2_30" style="mask-type:alpha" maskUnits="userSpaceOnUse" x="-28" y="-25" width="112" height="112">
<path d="M27.8859 -24.0402L-27.5337 31.4114L27.8859 86.863L83.3054 31.4114L27.8859 -24.0402Z" fill="white"/>
</mask>
<g mask="url(#mask58_2_30)">
<path d="M2.79536 -24.0387L83.3053 56.5178V57.7509L1.56299 -24.0387H2.79536Z" fill="#FF9400"/>
</g>
<mask id="mask59_2_30" style="mask-type:alpha" maskUnits="userSpaceOnUse" x="-28" y="-25" width="112" height="112">
<path d="M27.8859 -24.0402L-27.5337 31.4114L27.8859 86.863L83.3054 31.4114L27.8859 -24.0402Z" fill="white"/>
</mask>
<g mask="url(#mask59_2_30)">
<path d="M4.01251 -24.0387L83.3051 55.2997V56.5178L2.79517 -24.0387H4.01251Z" fill="#FF9500"/>
</g>
<mask id="mask60_2_30" style="mask-type:alpha" maskUnits="userSpaceOnUse" x="-28" y="-25" width="112" height="112">
<path d="M27.8859 -24.0402L-27.5337 31.4114L27.8859 86.863L83.3054 31.4114L27.8859 -24.0402Z" fill="white"/>
</mask>
<g mask="url(#mask60_2_30)">
<path d="M5.24507 -24.0387L83.3053 54.0667V55.2997L4.0127 -24.0387H5.24507Z" fill="#FF9600"/>
</g>
<mask id="mask61_2_30" style="mask-type:alpha" maskUnits="userSpaceOnUse" x="-28" y="-25" width="112" height="112">
<path d="M27.8859 -24.0402L-27.5337 31.4114L27.8859 86.863L83.3054 31.4114L27.8859 -24.0402Z" fill="white"/>
</mask>
<g mask="url(#mask61_2_30)">
<path d="M6.47737 -24.0387L83.3052 52.8336V54.0667L5.245 -24.0387H6.47737Z" fill="#FF9700"/>
</g>
<mask id="mask62_2_30" style="mask-type:alpha" maskUnits="userSpaceOnUse" x="-28" y="-25" width="112" height="112">
<path d="M27.8859 -24.0402L-27.5337 31.4114L27.8859 86.863L83.3054 31.4114L27.8859 -24.0402Z" fill="white"/>
</mask>
<g mask="url(#mask62_2_30)">
<path d="M7.70979 -24.0387L83.3053 51.6005V52.8336L6.47742 -24.0387H7.70979Z" fill="#FF9800"/>
</g>
<mask id="mask63_2_30" style="mask-type:alpha" maskUnits="userSpaceOnUse" x="-28" y="-25" width="112" height="112">
<path d="M27.8859 -24.0402L-27.5337 31.4114L27.8859 86.863L83.3054 31.4114L27.8859 -24.0402Z" fill="white"/>
</mask>
<g mask="url(#mask63_2_30)">
<path d="M8.92706 -24.0387L83.3052 50.3674V51.6005L7.70972 -24.0387H8.92706Z" fill="#FF9900"/>
</g>
<mask id="mask64_2_30" style="mask-type:alpha" maskUnits="userSpaceOnUse" x="-28" y="-25" width="112" height="112">
<path d="M27.8859 -24.0402L-27.5337 31.4114L27.8859 86.863L83.3054 31.4114L27.8859 -24.0402Z" fill="white"/>
</mask>
<g mask="url(#mask64_2_30)">
<path d="M10.1595 -24.0387L83.3052 49.1494V50.3674L8.92712 -24.0387H10.1595Z" fill="#FF9A00"/>
</g>
<mask id="mask65_2_30" style="mask-type:alpha" maskUnits="userSpaceOnUse" x="-28" y="-25" width="112" height="112">
<path d="M27.8859 -24.0402L-27.5337 31.4114L27.8859 86.863L83.3054 31.4114L27.8859 -24.0402Z" fill="white"/>
</mask>
<g mask="url(#mask65_2_30)">
<path d="M11.3918 -24.0387L83.3052 47.9163V49.1494L10.1594 -24.0387H11.3918Z" fill="#FF9B00"/>
</g>
<mask id="mask66_2_30" style="mask-type:alpha" maskUnits="userSpaceOnUse" x="-28" y="-25" width="112" height="112">
<path d="M27.8859 -24.0402L-27.5337 31.4114L27.8859 86.863L83.3054 31.4114L27.8859 -24.0402Z" fill="white"/>
</mask>
<g mask="url(#mask66_2_30)">
<path d="M12.6243 -24.0387L83.3054 46.6832V47.9163L11.392 -24.0387H12.6243Z" fill="#FF9C00"/>
</g>
<mask id="mask67_2_30" style="mask-type:alpha" maskUnits="userSpaceOnUse" x="-28" y="-25" width="112" height="112">
<path d="M27.8859 -24.0402L-27.5337 31.4114L27.8859 86.863L83.3054 31.4114L27.8859 -24.0402Z" fill="white"/>
</mask>
<g mask="url(#mask67_2_30)">
<path d="M83.3053 46.6832L12.6243 -24.0387H83.3053V46.6832Z" fill="#FF9C00"/>
</g>
</g>
<path d="M0 43.2775V18.7712C0 16.4536 1.26793 14.2856 3.29057 13.1343L24.7094 0.888608C26.7321 -0.277648 29.2528 -0.277648 31.2906 0.888608L52.7094 13.1343C54.7321 14.3006 56 16.4536 56 18.7712V43.2775C56 45.5951 54.7321 47.7631 52.7094 48.9144L31.2906 61.1751C29.2679 62.3413 26.7472 62.3413 24.7094 61.1751L3.29057 48.9144C1.26793 47.7631 0 45.5951 0 43.2775ZM52.8302 18.7712C52.8302 17.575 52.1811 16.4536 51.1245 15.8556L29.7057 3.59492C28.6491 2.99684 27.3509 2.99684 26.2943 3.59492L4.87547 15.8406C3.81887 16.4387 3.16981 17.5601 3.16981 18.7562V43.2626C3.16981 44.4587 3.81887 45.5801 4.87547 46.1782L26.2943 58.4239C27.3509 59.022 28.6491 59.022 29.7057 58.4239L51.1396 46.1932C52.1962 45.5951 52.8453 44.4737 52.8453 43.2775V18.7712H52.8302Z" fill="#272122"/>
<path d="M32.6878 35.8109C29.3063 38.1869 26.4958 38.1869 23.0993 35.7808C23.0843 35.7658 23.0693 35.7508 23.0542 35.7508C22.5432 35.3899 22.4831 35.4199 22.3779 36.0064C22.1976 37.0891 22.2427 38.1869 22.3479 39.2846C22.3629 39.5102 22.4681 39.6455 22.6785 39.7508C25.6242 41.2696 28.645 41.8109 31.786 40.3523C33.7248 39.45 33.4392 40.0515 33.5594 37.7207C33.5594 37.1944 33.5594 36.6681 33.4693 36.1417C33.334 35.3748 33.3039 35.3598 32.6878 35.8109Z" fill="#272122"/>
<path d="M32.282 41.886C30.0727 42.6379 27.8334 42.9687 25.519 42.4274C24.7675 42.2469 24.0311 42.0063 23.2947 41.8109C23.1594 41.7808 23.0091 41.6605 22.9039 41.8109C22.8588 41.886 22.9039 42.0515 22.949 42.1567C23.3849 43.5101 23.986 44.7582 25.023 45.7507C25.8195 46.5327 26.7664 46.9988 27.9086 47.0139C28.9906 46.9988 29.9074 46.5627 30.7039 45.8259C31.7259 44.8785 32.3421 43.6755 32.793 42.3823C32.8531 42.2018 33.0184 41.9462 32.8982 41.8109C32.7328 41.6003 32.4774 41.8109 32.282 41.886Z" fill="#272122"/>
<path d="M27.9987 25.1793C25.9548 25.1492 24.3767 26.0515 23.2796 27.7959C23.0091 28.2169 23.0542 28.3823 23.5952 28.3974C24.7675 28.4274 25.9397 28.6079 27.0819 28.8936C27.3525 28.9538 27.638 29.0289 27.8935 29.0891C28.0137 29.059 28.1189 29.044 28.2091 29.0289C29.5467 28.653 30.9143 28.4575 32.297 28.3974C32.7929 28.3823 32.7779 28.2019 32.5675 27.841C31.5155 26.1417 29.9975 25.2094 27.9987 25.1793Z" fill="#272122"/>
<path d="M27.8786 36.0665C29.9676 36.0064 31.5456 35.0741 32.6277 33.2695C32.8682 32.8786 32.8381 32.6831 32.3121 32.7282C30.9294 32.8485 29.5768 33.1041 28.3595 33.8109C28.0439 33.9913 27.7884 34.0064 27.4728 33.8109C26.2554 33.1041 24.9179 32.8334 23.5202 32.7282C22.9942 32.6831 22.9641 32.8786 23.1895 33.2695C24.2566 35.044 25.8046 35.9763 27.8786 36.0665Z" fill="#272122"/>
<path d="M47.4312 31.45C47.4012 31.4199 47.3561 31.4199 47.326 31.3899C46.7549 30.9989 46.1989 30.5929 45.6127 30.1868C45.7029 30.0966 45.733 30.0665 45.763 30.0515C46.1989 29.841 46.6046 29.6004 46.9804 29.3297C49.1295 27.7508 50.3168 25.0741 49.9861 22.3673C49.9561 22.1117 49.8809 21.841 49.7908 21.6004C49.5052 20.8786 49.1445 20.7132 48.4081 20.9838C45.4624 22.0214 42.637 23.3297 39.8416 24.7282C38.0832 25.6154 36.3699 26.5778 34.7919 27.7658C34.6116 27.9011 34.4462 28.0515 34.2809 28.1868C34.6116 28.1568 34.8671 28.0515 35.1376 27.9462C39.2555 26.262 43.3734 24.6229 47.5515 23.1041C48.3781 22.8034 48.5434 22.9237 48.4081 23.8109C48.0624 26.0214 47.1156 27.856 45.0266 28.9237C44.3503 29.1192 43.689 29.3297 43.0127 29.5252C42.9526 29.5402 42.8925 29.5402 42.8174 29.5553C42.652 29.5252 42.5017 29.5402 42.3515 29.6154L41.7202 29.6756C40.6231 29.6756 39.526 29.6756 38.4289 29.6756C38.0532 29.6605 37.6775 29.6455 37.3168 29.6154C36.8358 29.5102 36.3699 29.5102 35.889 29.5553C34.7468 29.465 33.6046 29.435 32.4624 29.5553C32.1769 29.5102 31.9064 29.5252 31.6358 29.6154C31.5006 29.6305 31.3803 29.6455 31.2451 29.6605C31.0046 29.6305 30.7792 29.6455 30.5688 29.7658C30.5087 29.7808 30.4485 29.7808 30.3884 29.7959C30.0728 29.7808 29.7722 29.856 29.4867 30.0064C29.4266 30.0214 29.3514 30.0365 29.2913 30.0515C29.0659 30.0515 28.8555 30.1267 28.6751 30.262C28.5549 30.3071 28.4497 30.3523 28.3295 30.3974C28.2092 30.3823 28.1341 30.4274 28.059 30.5177C27.9537 30.5177 27.8485 30.5177 27.7433 30.5177C27.6832 30.4274 27.5931 30.3974 27.4728 30.3974C27.3526 30.3523 27.2474 30.3071 27.1272 30.262C26.9468 30.1267 26.7364 30.0515 26.511 30.0515C26.4509 30.0365 26.3757 30.0214 26.3156 30.0064C26.03 29.856 25.7295 29.7808 25.4139 29.7959C25.3537 29.7808 25.2936 29.7808 25.2335 29.7658C25.0231 29.6455 24.7977 29.6305 24.5572 29.6605C24.467 29.6605 24.3769 29.6455 24.2717 29.6455C23.8058 29.4951 23.3248 29.4951 22.8439 29.5402C22.1075 29.45 21.3861 29.465 20.6497 29.5402C19.9283 29.4951 19.2069 29.5252 18.4855 29.6305C18.1549 29.6455 17.8092 29.6605 17.4786 29.6756C16.3514 29.6756 15.2092 29.6756 14.0821 29.6756C13.8717 29.6605 13.6612 29.6305 13.4508 29.6154C12.5491 29.45 11.6624 29.2545 10.7907 28.9387C10.0543 28.5628 9.43812 28.0214 8.82193 27.4801C8.74679 27.3748 8.67164 27.2846 8.5965 27.1793C8.23581 26.4425 7.84505 25.7056 7.60459 24.9086C7.63465 24.8184 7.61962 24.7432 7.54447 24.6831C7.48436 24.1568 7.30401 23.6304 7.40922 23.0741C7.4543 23.059 7.46933 23.0289 7.46933 22.9838C7.67974 22.9086 7.87511 22.9838 8.05546 23.059C12.2786 24.6229 16.4867 26.2019 20.6046 27.9914C20.8 28.0816 20.9954 28.232 21.326 28.1117C20.5746 27.3748 19.748 26.8635 18.9214 26.3823C16.9826 25.2395 14.9988 24.2169 12.9248 23.3147C11.0763 22.5177 9.25777 21.6304 7.3491 20.9838C6.64274 20.7432 6.28205 20.8936 6.01153 21.5853C5.90632 21.841 5.83118 22.1267 5.80112 22.4124C5.5306 25.3898 6.92829 28.5177 9.70864 29.9312C9.85893 30.0064 10.0543 30.0515 10.0994 30.2771C9.1676 30.8034 8.29592 31.3899 7.67974 32.3072C7.25893 33.029 7.3491 33.5553 7.98031 34.0515C8.35604 34.3372 8.79188 34.5327 9.24274 34.6229C12.8647 35.3598 16.2612 34.8184 19.3422 32.7132C19.5526 32.5778 19.763 32.4275 19.9283 32.0816C18.4104 32.8635 16.8925 33.2846 15.3295 33.5102C13.6763 33.7508 12.0231 33.9162 10.3699 33.4951C9.57338 33.2846 9.46818 32.9838 9.85893 32.262C9.9491 32.1868 10.0393 32.0966 10.1295 32.0214C11.0612 31.3447 11.963 30.668 13.2404 30.8936C14.3826 31.1041 15.5399 31.059 16.6971 31.044C18.5456 31.029 20.3792 30.9237 22.2277 31.029C24.1214 31.1342 25.985 31.435 27.6081 32.5327C27.8786 32.7132 28.0439 32.5929 28.2543 32.4575C29.2462 31.8259 30.3283 31.465 31.4705 31.2545C33.1838 30.9538 34.8971 30.9838 36.6254 31.0139C38.489 31.044 40.3676 31.2094 42.2162 30.9237C43.2983 30.7583 44.1549 31.059 44.9965 31.6154C45.1018 31.6756 45.1769 31.7808 45.3122 31.7808C45.4925 31.9462 45.6729 32.0966 45.8382 32.2771C46.3191 32.7884 46.2439 33.1793 45.5827 33.435C45.252 33.5703 44.8763 33.6605 44.5156 33.6906C41.7653 33.9011 39.0902 33.5252 36.5353 32.4575C36.4301 32.4124 36.3249 32.3372 36.2046 32.2921C36.0994 32.247 35.9942 32.1568 35.8289 32.232C36.6705 33.0891 37.6775 33.6305 38.7595 34.0365C41.3746 34.9838 44.0347 35.3297 46.7549 34.5628C47.4463 34.3673 48.1376 34.0515 48.2879 33.2395C48.4833 32.4274 47.9272 31.9312 47.4312 31.45Z" fill="#272122"/>
<path d="M20.9051 19.1042C21.4011 19.1042 21.8219 18.6982 21.8219 18.1869C21.8219 18.0816 21.8068 17.9764 21.7768 17.8862C22.423 17.8561 23.3248 17.9313 24.1664 18.4726C25.3537 19.2245 26.1502 20.6531 26.5259 22.7132C25.8797 23.1493 25.3988 23.8561 25.3236 24.608C25.2785 24.9538 25.3386 25.1192 25.6693 24.9538C27.1722 24.232 28.6751 24.232 30.178 24.9538C30.4635 25.0892 30.5386 24.9839 30.5086 24.6982C30.4485 23.9313 29.9675 23.1794 29.3063 22.7283C29.682 20.6531 30.4785 19.2245 31.6808 18.4726C32.5074 17.9463 33.3941 17.8561 34.0254 17.8862C33.9953 17.9764 33.9803 18.0666 33.9803 18.1719C33.9803 18.6681 34.386 19.0892 34.897 19.0892C35.393 19.0892 35.8138 18.6831 35.8138 18.1719C35.8138 17.7057 35.4681 17.3298 35.0323 17.2696C34.4762 17.1343 32.8381 16.8636 31.3051 17.826C29.9675 18.6681 29.0658 20.2019 28.63 22.3824C28.4196 22.3072 28.1941 22.2771 27.9837 22.2621C27.7282 22.2621 27.4878 22.2922 27.2473 22.3674C26.8115 20.1869 25.9097 18.6531 24.5722 17.826C22.7086 16.6681 20.7248 17.2846 20.6496 17.3147C20.6346 17.3147 20.6196 17.3298 20.6045 17.3298C20.2739 17.4651 20.0334 17.7959 20.0334 18.1719C20.0034 18.6982 20.4092 19.1042 20.9051 19.1042Z" fill="#272122"/>
</svg>
