<svg width="52" height="52" viewBox="0 0 52 52" fill="none" xmlns="http://www.w3.org/2000/svg">
<path d="M22.418 35.75C22.418 34.888 22.7604 34.0614 23.3699 33.4519C23.9794 32.8424 24.806 32.5 25.668 32.5C26.5299 32.5 27.3566 32.8424 27.9661 33.4519C28.5756 34.0614 28.918 34.888 28.918 35.75C28.918 36.612 28.5756 37.4386 27.9661 38.0481C27.3566 38.6576 26.5299 39 25.668 39C24.806 39 23.9794 38.6576 23.3699 38.0481C22.7604 37.4386 22.418 36.612 22.418 35.75Z" fill="#FF6701"/>
<path d="M23.5347 14.7767C23.6251 14.2772 23.8881 13.8252 24.2778 13.4998C24.6674 13.1744 25.159 12.9961 25.6667 12.9961C26.1743 12.9961 26.6659 13.1744 27.0556 13.4998C27.4452 13.8252 27.7082 14.2772 27.7987 14.7767L27.8333 15.1667V26.0001L27.7987 26.3901C27.7082 26.8896 27.4452 27.3416 27.0556 27.667C26.6659 27.9924 26.1743 28.1707 25.6667 28.1707C25.159 28.1707 24.6674 27.9924 24.2778 27.667C23.8881 27.3416 23.6251 26.8896 23.5347 26.3901L23.5 26.0001V15.1667L23.5347 14.7767Z" fill="#FF6701"/>
<path d="M47.3333 26C47.3333 31.7464 45.0506 37.2574 40.9873 41.3207C36.924 45.384 31.413 47.6667 25.6667 47.6667C19.9203 47.6667 14.4093 45.384 10.346 41.3207C6.28273 37.2574 4 31.7464 4 26C4 20.2537 6.28273 14.7427 10.346 10.6794C14.4093 6.61611 19.9203 4.33337 25.6667 4.33337C31.413 4.33337 36.924 6.61611 40.9873 10.6794C45.0506 14.7427 47.3333 20.2537 47.3333 26ZM43 26C43 21.403 41.1738 16.9942 37.9232 13.7435C34.6726 10.4929 30.2638 8.66671 25.6667 8.66671C21.0696 8.66671 16.6608 10.4929 13.4101 13.7435C10.1595 16.9942 8.33333 21.403 8.33333 26C8.33333 30.5971 10.1595 35.0059 13.4101 38.2566C16.6608 41.5072 21.0696 43.3334 25.6667 43.3334C30.2638 43.3334 34.6726 41.5072 37.9232 38.2566C41.1738 35.0059 43 30.5971 43 26Z" fill="#FF6701"/>
</svg>
