<svg width="1170" height="600" viewBox="0 0 1170 600" fill="none" xmlns="http://www.w3.org/2000/svg">
<rect x="0.5" y="0.5" width="1169" height="599" rx="7.5" stroke="#FF6701"/>
<path d="M627.667 276.167V259.5C627.667 238.667 619.334 230.333 598.5 230.333H573.5C552.667 230.333 544.333 238.667 544.333 259.5V284.5C544.333 305.333 552.667 313.667 573.5 313.667H590.167" stroke="#FF6701" stroke-width="1.5" stroke-linecap="round" stroke-linejoin="round"/>
<path d="M627.667 276.167V259.5C627.667 238.667 619.334 230.333 598.5 230.333H573.5C552.667 230.333 544.333 238.667 544.333 259.5V284.5C544.333 305.333 552.667 313.667 573.5 313.667H590.167" stroke="#FF6701" stroke-width="1.5" stroke-linecap="round" stroke-linejoin="round"/>
<path d="M627.667 276.167V259.5C627.667 238.667 619.334 230.333 598.5 230.333H573.5C552.667 230.333 544.333 238.667 544.333 259.5V284.5C544.333 305.333 552.667 313.667 573.5 313.667H590.167M602.667 302.958L609.25 309.5L623.5 292.833M565.167 265.75V278.25M586 265.75V278.25M606.834 265.75V278.25" stroke="#FF6701" stroke-width="3" stroke-linecap="round" stroke-linejoin="round"/>
<path d="M49.58 540.35C50.2411 539.689 51.0261 539.164 51.89 538.806C52.7539 538.448 53.6799 538.264 54.615 538.264C55.5501 538.264 56.476 538.448 57.3399 538.806C58.2039 539.164 58.9888 539.689 59.65 540.35M49.58 540.35C48.961 542.527 50.156 544.282 52.937 547.063" stroke="#FF6701" stroke-linecap="round"/>
<path d="M49.5798 540.35L42.6948 536.1C40.9364 535.082 38.8781 534.71 36.8747 535.047C34.8713 535.384 33.0482 536.41 31.7198 537.947C30.3658 539.481 29.5842 541.435 29.5077 543.48C29.4311 545.524 30.0643 547.532 31.2998 549.162C33.8868 552.468 38.3188 553.182 42.1898 551.561L52.9358 547.061" stroke="#FF6701" stroke-linecap="round"/>
<path d="M33.6289 566.371C32.3349 564.997 30.1469 559.165 34.9269 551.827" stroke="#FF6701" stroke-linecap="round"/>
<path d="M32.6051 564.527C32.6051 564.527 31.4821 568.517 30.7451 569.255M32.1101 559.004L36.5531 563.447M33.9291 553.52L40.2041 559.796M43.4751 556.525L39.2801 552.329M47.3881 552.612L45.1141 550.338M59.2161 539.948C59.2161 539.948 62.6581 536.575 61.6601 534.542C60.6621 532.509 58.2421 533.988 57.7431 534.507M59.6501 550.42C60.3114 549.759 60.8359 548.974 61.1938 548.11C61.5517 547.246 61.7359 546.32 61.7359 545.385C61.7359 544.45 61.5517 543.524 61.1938 542.66C60.8359 541.796 60.3114 541.011 59.6501 540.35M59.6501 550.42C57.4731 551.039 55.7181 549.844 52.9371 547.063" stroke="#FF6701" stroke-linecap="round"/>
<path d="M59.65 550.42L63.9 557.305C64.9171 559.063 65.2889 561.122 64.9514 563.125C64.6139 565.128 63.5882 566.951 62.051 568.279C60.5175 569.633 58.5628 570.415 56.5185 570.491C54.4743 570.568 52.4665 569.934 50.836 568.699C47.531 566.113 46.816 561.68 48.438 557.809L52.938 547.063" stroke="#FF6701" stroke-linecap="round"/>
<path d="M33.6289 566.371C35.0029 567.665 40.8349 569.853 48.1729 565.073" stroke="#FF6701" stroke-linecap="round"/>
<path d="M35.4731 567.395C35.4731 567.395 31.4831 568.518 30.7451 569.255M40.9961 567.89L36.5531 563.447M46.4801 566.071L40.2041 559.796M43.4751 556.525L47.6711 560.72M47.3881 552.612L49.6621 554.886M60.0521 540.784C60.0521 540.784 63.4251 537.342 65.4581 538.339C67.4911 539.336 66.0121 541.759 65.4931 542.257" stroke="#FF6701" stroke-linecap="round"/>
<path d="M1120.42 540.35C1119.76 539.689 1118.97 539.164 1118.11 538.806C1117.25 538.448 1116.32 538.264 1115.39 538.264C1114.45 538.264 1113.52 538.448 1112.66 538.806C1111.8 539.164 1111.01 539.689 1110.35 540.35M1120.42 540.35C1121.04 542.527 1119.84 544.282 1117.06 547.063" stroke="#FF6701" stroke-linecap="round"/>
<path d="M1120.42 540.35L1127.31 536.1C1129.06 535.082 1131.12 534.71 1133.13 535.047C1135.13 535.384 1136.95 536.41 1138.28 537.947C1139.63 539.481 1140.42 541.435 1140.49 543.48C1140.57 545.524 1139.94 547.532 1138.7 549.162C1136.11 552.468 1131.68 553.182 1127.81 551.561L1117.06 547.061" stroke="#FF6701" stroke-linecap="round"/>
<path d="M1136.37 566.371C1137.67 564.997 1139.85 559.165 1135.07 551.827" stroke="#FF6701" stroke-linecap="round"/>
<path d="M1137.39 564.527C1137.39 564.527 1138.52 568.517 1139.25 569.255M1137.89 559.004L1133.45 563.447M1136.07 553.52L1129.8 559.796M1126.52 556.525L1130.72 552.329M1122.61 552.612L1124.89 550.338M1110.78 539.948C1110.78 539.948 1107.34 536.575 1108.34 534.542C1109.34 532.509 1111.76 533.988 1112.26 534.507M1110.35 550.42C1109.69 549.759 1109.16 548.974 1108.81 548.11C1108.45 547.246 1108.26 546.32 1108.26 545.385C1108.26 544.45 1108.45 543.524 1108.81 542.66C1109.16 541.796 1109.69 541.011 1110.35 540.35M1110.35 550.42C1112.53 551.039 1114.28 549.844 1117.06 547.063" stroke="#FF6701" stroke-linecap="round"/>
<path d="M1110.35 550.42L1106.1 557.305C1105.08 559.063 1104.71 561.122 1105.05 563.125C1105.39 565.128 1106.41 566.951 1107.95 568.279C1109.48 569.633 1111.44 570.415 1113.48 570.491C1115.53 570.568 1117.53 569.934 1119.16 568.699C1122.47 566.113 1123.18 561.68 1121.56 557.809L1117.06 547.063" stroke="#FF6701" stroke-linecap="round"/>
<path d="M1136.37 566.371C1135 567.665 1129.17 569.853 1121.83 565.073" stroke="#FF6701" stroke-linecap="round"/>
<path d="M1134.53 567.395C1134.53 567.395 1138.52 568.518 1139.25 569.255M1129 567.89L1133.45 563.447M1123.52 566.071L1129.8 559.796M1126.52 556.525L1122.33 560.72M1122.61 552.612L1120.34 554.886M1109.95 540.784C1109.95 540.784 1106.57 537.342 1104.54 538.339C1102.51 539.336 1103.99 541.759 1104.51 542.257" stroke="#FF6701" stroke-linecap="round"/>
<path d="M49.58 59.65C50.2411 60.3113 51.0261 60.8359 51.89 61.1938C52.7539 61.5516 53.6799 61.7358 54.615 61.7358C55.5501 61.7358 56.476 61.5516 57.3399 61.1938C58.2039 60.8359 58.9888 60.3113 59.65 59.65M49.58 59.65C48.961 57.473 50.156 55.718 52.937 52.937" stroke="#FF6701" stroke-linecap="round"/>
<path d="M49.5798 59.65L42.6948 63.9C40.9364 64.9176 38.8781 65.2898 36.8747 64.9527C34.8713 64.6155 33.0482 63.59 31.7198 62.053C30.3658 60.5195 29.5842 58.5647 29.5077 56.5205C29.4311 54.4762 30.0643 52.4685 31.2998 50.838C33.8868 47.532 38.3188 46.818 42.1898 48.439L52.9358 52.939" stroke="#FF6701" stroke-linecap="round"/>
<path d="M33.6289 33.629C32.3349 35.003 30.1469 40.835 34.9269 48.173" stroke="#FF6701" stroke-linecap="round"/>
<path d="M32.6051 35.473C32.6051 35.473 31.4821 31.483 30.7451 30.745M32.1101 40.996L36.5531 36.553M33.9291 46.48L40.2041 40.204M43.4751 43.475L39.2801 47.671M47.3881 47.388L45.1141 49.662M59.2161 60.052C59.2161 60.052 62.6581 63.425 61.6601 65.458C60.6621 67.491 58.2421 66.012 57.7431 65.493M59.6501 49.58C60.3114 50.2412 60.8359 51.0261 61.1938 51.89C61.5517 52.7539 61.7359 53.6799 61.7359 54.615C61.7359 55.5501 61.5517 56.476 61.1938 57.34C60.8359 58.2039 60.3114 58.9888 59.6501 59.65M59.6501 49.58C57.4731 48.961 55.7181 50.156 52.9371 52.937" stroke="#FF6701" stroke-linecap="round"/>
<path d="M59.65 49.58L63.9 42.695C64.9171 40.9365 65.2889 38.8783 64.9514 36.8751C64.6139 34.8719 63.5882 33.0492 62.051 31.721C60.5175 30.3671 58.5628 29.5855 56.5185 29.5089C54.4743 29.4323 52.4665 30.0655 50.836 31.301C47.531 33.887 46.816 38.32 48.438 42.191L52.938 52.937" stroke="#FF6701" stroke-linecap="round"/>
<path d="M33.6289 33.629C35.0029 32.335 40.8349 30.147 48.1729 34.927" stroke="#FF6701" stroke-linecap="round"/>
<path d="M35.4731 32.6049C35.4731 32.6049 31.4831 31.4819 30.7451 30.7449M40.9961 32.11L36.5531 36.553M46.4801 33.929L40.2041 40.204M43.4751 43.475L47.6711 39.2799M47.3881 47.388L49.6621 45.114M60.0521 59.2159C60.0521 59.2159 63.4251 62.658 65.4581 61.661C67.4911 60.664 66.0121 58.2409 65.4931 57.7429" stroke="#FF6701" stroke-linecap="round"/>
<path d="M1120.42 59.65C1119.76 60.3113 1118.97 60.8359 1118.11 61.1938C1117.25 61.5516 1116.32 61.7358 1115.39 61.7358C1114.45 61.7358 1113.52 61.5516 1112.66 61.1938C1111.8 60.8359 1111.01 60.3113 1110.35 59.65M1120.42 59.65C1121.04 57.473 1119.84 55.718 1117.06 52.937" stroke="#FF6701" stroke-linecap="round"/>
<path d="M1120.42 59.65L1127.31 63.9C1129.06 64.9176 1131.12 65.2898 1133.13 64.9527C1135.13 64.6155 1136.95 63.59 1138.28 62.053C1139.63 60.5195 1140.42 58.5647 1140.49 56.5205C1140.57 54.4762 1139.94 52.4685 1138.7 50.838C1136.11 47.532 1131.68 46.818 1127.81 48.439L1117.06 52.939" stroke="#FF6701" stroke-linecap="round"/>
<path d="M1136.37 33.629C1137.67 35.003 1139.85 40.835 1135.07 48.173" stroke="#FF6701" stroke-linecap="round"/>
<path d="M1137.39 35.473C1137.39 35.473 1138.52 31.483 1139.25 30.745M1137.89 40.996L1133.45 36.553M1136.07 46.48L1129.8 40.204M1126.52 43.475L1130.72 47.671M1122.61 47.388L1124.89 49.662M1110.78 60.052C1110.78 60.052 1107.34 63.425 1108.34 65.458C1109.34 67.491 1111.76 66.012 1112.26 65.493M1110.35 49.58C1109.69 50.2412 1109.16 51.0261 1108.81 51.89C1108.45 52.7539 1108.26 53.6799 1108.26 54.615C1108.26 55.5501 1108.45 56.476 1108.81 57.34C1109.16 58.2039 1109.69 58.9888 1110.35 59.65M1110.35 49.58C1112.53 48.961 1114.28 50.156 1117.06 52.937" stroke="#FF6701" stroke-linecap="round"/>
<path d="M1110.35 49.58L1106.1 42.695C1105.08 40.9365 1104.71 38.8783 1105.05 36.8751C1105.39 34.8719 1106.41 33.0492 1107.95 31.721C1109.48 30.3671 1111.44 29.5855 1113.48 29.5089C1115.53 29.4323 1117.53 30.0655 1119.16 31.301C1122.47 33.887 1123.18 38.32 1121.56 42.191L1117.06 52.937" stroke="#FF6701" stroke-linecap="round"/>
<path d="M1136.37 33.629C1135 32.335 1129.17 30.147 1121.83 34.927" stroke="#FF6701" stroke-linecap="round"/>
<path d="M1134.53 32.6049C1134.53 32.6049 1138.52 31.4819 1139.25 30.7449M1129 32.11L1133.45 36.553M1123.52 33.929L1129.8 40.204M1126.52 43.475L1122.33 39.2799M1122.61 47.388L1120.34 45.114M1109.95 59.2159C1109.95 59.2159 1106.57 62.658 1104.54 61.661C1102.51 60.664 1103.99 58.2409 1104.51 57.7429" stroke="#FF6701" stroke-linecap="round"/>
</svg>
