<svg width="42" height="42" viewBox="0 0 42 42" fill="none" xmlns="http://www.w3.org/2000/svg">
<path fill-rule="evenodd" clip-rule="evenodd" d="M4.71882 7.12138C4.72282 7.12138 4.62282 7.22538 4.49682 7.34938C4.01282 7.81938 3.01082 8.79738 3.00072 10.8434C2.98482 13.7054 4.86682 19.0194 13.9288 28.0794C22.9488 37.0954 28.2548 38.9994 31.1228 38.9994H31.1648C33.2108 38.9894 34.1868 37.9854 34.6588 37.5034C34.8028 37.3554 34.9188 37.2474 35.0008 37.1794C36.9928 35.1754 38.0128 33.6834 38.0029 32.7274C37.9888 31.7514 36.7748 30.5974 35.0968 29.0014C34.5628 28.4934 33.9828 27.9414 33.3708 27.3294C31.7848 25.7474 30.9988 26.0174 29.2708 26.6254C26.8808 27.4634 23.6008 28.6034 18.5048 23.5054C13.4008 18.4054 14.5428 15.1294 15.3788 12.7394C15.9828 11.0114 16.2588 10.2234 14.6708 8.63538C14.0488 8.01538 13.4908 7.42738 12.9768 6.88738C11.3908 5.21938 10.2468 4.01338 9.27682 3.99938H9.26082C8.30282 3.99938 6.81482 5.02338 4.70882 7.12938C4.71482 7.12338 4.71682 7.12138 4.71882 7.12138ZM31.1248 41.9994C26.1408 41.9994 19.6428 38.0314 11.8088 30.2014C3.94482 22.3394 -0.0291764 15.8214 0.000654986 10.8274C0.0188236 7.52738 1.74882 5.83738 2.39882 5.20338C2.43282 5.16138 2.54882 5.04738 2.58882 5.00738C5.45682 2.13738 7.39082 0.977384 9.31482 0.999078C11.5488 1.02938 13.1388 2.70138 15.1508 4.81938C15.6488 5.34338 16.1888 5.91338 16.7908 6.51338C19.7108 9.43338 18.8788 11.8154 18.2108 13.7274C17.4828 15.8134 16.8528 17.6134 20.6248 21.3854C24.4008 25.1574 26.2008 24.5274 28.2788 23.7934C30.1928 23.1254 32.5688 22.2894 35.4928 25.2094C36.0848 25.8014 36.6468 26.3354 37.1648 26.8294C39.2928 28.8514 40.9728 30.4494 41.0012 32.6894C41.0248 34.5994 39.8648 36.5454 37.0008 39.4114L35.7328 38.5514L36.8048 39.5994C36.1708 40.2494 34.4828 41.9814 31.1808 41.9994H31.1248Z" fill="#FF6701"/>
</svg>
