<svg width="30" height="20" viewBox="0 0 30 20" fill="none" xmlns="http://www.w3.org/2000/svg">
<path fill-rule="evenodd" clip-rule="evenodd" d="M1.42989 8.4407L1.43449 8.42944C2.0435 6.94075 2.82446 5.58099 3.77869 4.35413L3.78903 4.34083L3.79982 4.32788C4.81198 3.11329 5.88142 2.13996 7.01404 1.43207L7.02544 1.42495L7.03702 1.41813C8.23161 0.715433 9.43008 0.320068 10.616 0.320068C11.4317 0.320068 12.1934 0.526686 12.874 0.95207C13.7589 1.5051 14.112 2.42624 14.112 3.43207C14.112 4.05225 13.9984 4.67332 13.6561 5.18677C13.2925 5.73214 12.7485 6.04051 12.1327 6.14507C11.5604 6.25001 10.8948 6.4928 10.1301 6.90454L10.1168 6.91172L10.1033 6.9185C9.39719 7.27153 8.84171 7.79457 8.426 8.51236C8.05276 9.26763 7.87204 10.0349 7.87204 10.8241C7.87204 11.2361 7.98729 11.5931 8.22748 11.9242C8.40097 12.1159 8.62219 12.2241 8.98404 12.2241C9.32309 12.2241 9.66604 12.1775 10.0151 12.0813C10.4391 11.9189 10.7423 11.7464 10.9513 11.5792L11.589 11.0691L12.2162 11.5918C12.6956 11.9913 13.0684 12.4754 13.3238 13.038C13.6971 13.6427 13.8006 14.3396 13.723 15.0527C13.6335 16.0101 13.1981 16.8732 12.5135 17.6346C11.8947 18.3301 11.1039 18.8855 10.1711 19.316L10.154 19.3239L10.1367 19.3312C9.23766 19.7057 8.27381 19.8881 7.25604 19.8881C5.36873 19.8881 3.73785 19.2993 2.44268 18.0803L2.43165 18.0699L2.42093 18.0592C1.15442 16.7927 0.592041 15.0318 0.592041 12.9361C0.592041 11.4038 0.87119 9.90728 1.42555 8.45208L1.42989 8.4407ZM11.768 16.9681C12.344 16.3281 12.664 15.6561 12.728 14.9521C12.792 14.3761 12.696 13.8961 12.44 13.5121C12.248 13.0641 11.96 12.6801 11.576 12.3601C11.256 12.6161 10.84 12.8401 10.328 13.0321C9.88004 13.1601 9.43204 13.2241 8.98404 13.2241C8.34404 13.2241 7.83204 13.0001 7.44804 12.5521C7.06404 12.0401 6.87204 11.4641 6.87204 10.8241C6.87204 9.86407 7.09604 8.93607 7.54404 8.04007C8.05604 7.14407 8.76004 6.47207 9.65604 6.02407C10.488 5.57607 11.256 5.28807 11.96 5.16007C12.728 5.03207 13.112 4.45607 13.112 3.43207C13.112 2.66407 12.856 2.12007 12.344 1.80007C11.832 1.48007 11.256 1.32007 10.616 1.32007C9.65604 1.32007 8.63204 1.64007 7.54404 2.28007C6.52004 2.92007 5.52804 3.81607 4.56804 4.96807C3.67204 6.12007 2.93604 7.40007 2.36004 8.80807C1.84804 10.1521 1.59204 11.5281 1.59204 12.9361C1.59204 14.8561 2.10404 16.3281 3.12804 17.3521C4.21604 18.3761 5.59204 18.8881 7.25604 18.8881C8.15204 18.8881 8.98404 18.7281 9.75204 18.4081C10.584 18.0241 11.256 17.5441 11.768 16.9681ZM16.7899 8.4407L16.7945 8.42944C17.4035 6.94075 18.1845 5.58099 19.1387 4.35413L19.149 4.34083L19.1598 4.32788C20.172 3.11329 21.2414 2.13996 22.374 1.43207L22.3854 1.42495L22.397 1.41813C23.5916 0.715433 24.7901 0.320068 25.976 0.320068C26.7917 0.320068 27.5534 0.526686 28.234 0.95207C29.1189 1.5051 29.472 2.42624 29.472 3.43207C29.472 4.05225 29.3584 4.67332 29.0161 5.18677C28.6525 5.73214 28.1085 6.04052 27.4927 6.14507C26.9204 6.25001 26.2548 6.49281 25.4901 6.90454L25.4768 6.91172L25.4633 6.9185C24.7572 7.27153 24.2017 7.79458 23.786 8.51238C23.4128 9.26764 23.232 10.0349 23.232 10.8241C23.232 11.2361 23.3473 11.5931 23.5875 11.9242C23.761 12.1159 23.9822 12.2241 24.344 12.2241C24.6831 12.2241 25.026 12.1775 25.3751 12.0813C25.7991 11.9189 26.1023 11.7464 26.3113 11.5792L26.9489 11.0691L27.5762 11.5918C28.0556 11.9913 28.4285 12.4754 28.6838 13.038C29.0571 13.6427 29.1606 14.3397 29.083 15.0527C28.9935 16.0101 28.5581 16.873 27.8737 17.6344C27.2548 18.33 26.464 18.8855 25.5311 19.316L25.514 19.3239L25.4967 19.3312C24.5977 19.7057 23.6338 19.8881 22.616 19.8881C20.7287 19.8881 19.0979 19.2993 17.8027 18.0803L17.7916 18.0699L17.7809 18.0592C16.5144 16.7927 15.952 15.0318 15.952 12.9361C15.952 11.4038 16.2312 9.90728 16.7856 8.45208L16.7899 8.4407ZM27.128 16.9681C27.704 16.3281 28.024 15.6561 28.088 14.9521C28.152 14.3761 28.056 13.8961 27.8 13.5121C27.608 13.0641 27.32 12.6801 26.936 12.3601C26.616 12.6161 26.2 12.8401 25.688 13.0321C25.24 13.1601 24.792 13.2241 24.344 13.2241C23.704 13.2241 23.192 13.0001 22.808 12.5521C22.424 12.0401 22.232 11.4641 22.232 10.8241C22.232 9.86407 22.456 8.93607 22.904 8.04007C23.416 7.14407 24.12 6.47207 25.016 6.02407C25.848 5.57607 26.616 5.28807 27.32 5.16007C28.088 5.03207 28.472 4.45607 28.472 3.43207C28.472 2.66407 28.216 2.12007 27.704 1.80007C27.192 1.48007 26.616 1.32007 25.976 1.32007C25.016 1.32007 23.992 1.64007 22.904 2.28007C21.88 2.92007 20.888 3.81607 19.928 4.96807C19.032 6.12007 18.296 7.40007 17.72 8.80807C17.208 10.1521 16.952 11.5281 16.952 12.9361C16.952 14.8561 17.464 16.3281 18.488 17.3521C19.576 18.3761 20.952 18.8881 22.616 18.8881C23.512 18.8881 24.344 18.7281 25.112 18.4081C25.944 18.0241 26.616 17.5441 27.128 16.9681Z" fill="#696969"/>
</svg>
