<svg width="30" height="21" viewBox="0 0 30 21" fill="none" xmlns="http://www.w3.org/2000/svg">
<path fill-rule="evenodd" clip-rule="evenodd" d="M17.4123 14.3507L17.4196 14.3495C18.0589 14.243 18.7546 13.9981 19.5099 13.5914L19.5232 13.5843L19.5368 13.5775C20.2392 13.2262 20.7543 12.7112 21.1055 12.0087L21.118 11.9839L21.1317 11.9598C21.5641 11.2032 21.768 10.4449 21.768 9.67191C21.768 9.24884 21.6477 8.94157 21.4327 8.6907L21.4115 8.66597L21.392 8.63991C21.1968 8.37972 20.9812 8.27191 20.656 8.27191C20.3511 8.27191 19.9908 8.33735 19.5671 8.49624L19.5294 8.51037L19.4907 8.52143C19.1528 8.61797 18.8919 8.75419 18.6887 8.91678L18.0511 9.42686L17.4238 8.90413C16.972 8.52764 16.5855 8.10499 16.2719 7.63461L16.221 7.55822L16.1848 7.47383C15.9142 6.84231 15.8393 6.15504 15.917 5.44334C16.004 4.51104 16.3903 3.67754 17.0286 2.95954L17.0327 2.95494C17.7 2.21342 18.4874 1.64719 19.3899 1.26814C20.3451 0.83009 21.3461 0.60791 22.384 0.60791C24.2649 0.60791 25.874 1.1936 27.1124 2.42614C28.4468 3.68865 29.048 5.45304 29.048 7.55991C29.048 9.10407 28.7323 10.6365 28.1141 12.1513C27.5632 13.5935 26.7748 14.9287 25.755 16.1551C24.799 17.3813 23.7221 18.3608 22.5186 19.071C21.38 19.7804 20.2103 20.1759 19.024 20.1759C18.2083 20.1759 17.4466 19.9693 16.766 19.5439C15.8811 18.9909 15.528 18.0697 15.528 17.0639C15.528 16.456 15.6293 15.8487 15.9387 15.3425C16.2731 14.7952 16.7917 14.4636 17.4051 14.352L17.4123 14.3507ZM22 18.2159C23.088 17.5759 24.08 16.6799 24.976 15.5279C25.936 14.3759 26.672 13.1279 27.184 11.7839C27.76 10.3759 28.048 8.96791 28.048 7.55991C28.048 5.63991 27.504 4.16791 26.416 3.14391C25.392 2.11991 24.048 1.60791 22.384 1.60791C21.488 1.60791 20.624 1.79991 19.792 2.18391C19.024 2.50391 18.352 2.98391 17.776 3.62391C17.264 4.19991 16.976 4.83991 16.912 5.54391C16.848 6.11991 16.912 6.63191 17.104 7.07991C17.36 7.46391 17.68 7.81591 18.064 8.13591C18.384 7.87991 18.768 7.68791 19.216 7.55991C19.728 7.36791 20.208 7.27191 20.656 7.27191C21.296 7.27191 21.808 7.52791 22.192 8.03991C22.576 8.48791 22.768 9.03191 22.768 9.67191C22.768 10.6319 22.512 11.5599 22 12.4559C21.552 13.3519 20.88 14.0239 19.984 14.4719C19.152 14.9199 18.352 15.2079 17.584 15.3359C16.88 15.4639 16.528 16.0399 16.528 17.0639C16.528 17.8319 16.784 18.3759 17.296 18.6959C17.808 19.0159 18.384 19.1759 19.024 19.1759C19.984 19.1759 20.976 18.8559 22 18.2159ZM2.05232 14.3507L2.05957 14.3495C2.6989 14.243 3.39461 13.9981 4.14987 13.5914L4.16321 13.5843L4.17675 13.5775C4.87923 13.2262 5.39431 12.7112 5.74554 12.0087L5.75795 11.9839L5.77173 11.9598C6.20407 11.2032 6.40797 10.4449 6.40797 9.67191C6.40797 9.24884 6.28775 8.94157 6.07271 8.6907L6.05151 8.66597L6.03197 8.63991C5.83683 8.37972 5.62121 8.27191 5.29597 8.27191C4.99107 8.27191 4.6308 8.33735 4.20709 8.49624L4.1694 8.51037L4.13069 8.52143C3.7928 8.61797 3.53191 8.75419 3.32867 8.91678L2.69106 9.42687L2.06378 8.90413C1.612 8.52764 1.22551 8.10499 0.911919 7.63461L0.860991 7.55822L0.824824 7.47383C0.554164 6.84229 0.4793 6.155 0.557006 5.44328C0.643984 4.51101 1.03035 3.67752 1.66856 2.95954L1.67266 2.95493L1.67268 2.95494C2.34005 2.21342 3.12745 1.64718 4.02991 1.26813C4.9851 0.830088 5.98608 0.60791 7.02397 0.60791C8.9049 0.60791 10.514 1.19361 11.7524 2.42616C13.0868 3.68867 13.688 5.45305 13.688 7.55991C13.688 9.10406 13.3723 10.6365 12.7541 12.1513C12.2033 13.5934 11.4148 14.9287 10.395 16.1551C9.439 17.3814 8.36212 18.3608 7.15858 19.071C6.01994 19.7804 4.85025 20.1759 3.66397 20.1759C2.8483 20.1759 2.08658 19.9693 1.40597 19.5439C0.52112 18.9909 0.167969 18.0697 0.167969 17.0639C0.167969 16.456 0.269344 15.8487 0.578687 15.3425C0.913109 14.7952 1.43169 14.4636 2.04509 14.352L2.05232 14.3507ZM6.63997 18.2159C7.72797 17.5759 8.71997 16.6799 9.61597 15.5279C10.576 14.3759 11.312 13.1279 11.824 11.7839C12.4 10.3759 12.688 8.96791 12.688 7.55991C12.688 5.63991 12.144 4.16791 11.056 3.14391C10.032 2.11991 8.68797 1.60791 7.02397 1.60791C6.12797 1.60791 5.26397 1.79991 4.43197 2.18391C3.66397 2.50391 2.99197 2.98391 2.41597 3.62391C1.90397 4.19991 1.61597 4.83991 1.55197 5.54391C1.48797 6.11991 1.55197 6.63191 1.74397 7.07991C1.99997 7.46391 2.31997 7.81591 2.70397 8.13591C3.02397 7.87991 3.40797 7.68791 3.85597 7.55991C4.36797 7.36791 4.84797 7.27191 5.29597 7.27191C5.93597 7.27191 6.44797 7.52791 6.83197 8.03991C7.21597 8.48791 7.40797 9.03191 7.40797 9.67191C7.40797 10.6319 7.15197 11.5599 6.63997 12.4559C6.19197 13.3519 5.51997 14.0239 4.62397 14.4719C3.79197 14.9199 2.99197 15.2079 2.22397 15.3359C1.51997 15.4639 1.16797 16.0399 1.16797 17.0639C1.16797 17.8319 1.42397 18.3759 1.93597 18.6959C2.44797 19.0159 3.02397 19.1759 3.66397 19.1759C4.62397 19.1759 5.61597 18.8559 6.63997 18.2159Z" fill="#696969"/>
</svg>
