<svg width="48" height="48" viewBox="0 0 48 48" fill="none" xmlns="http://www.w3.org/2000/svg">
<path d="M24 32C28.4182 32 32 28.4182 32 24C32 19.5817 28.4182 16 24 16C19.5817 16 16 19.5817 16 24C16 28.4182 19.5817 32 24 32Z" stroke="#272122" stroke-width="2" stroke-linecap="round" stroke-linejoin="round"/>
<path d="M6 32V16C6 10.4772 10.4772 6 16 6H32C37.5228 6 42 10.4772 42 16V32C42 37.5228 37.5228 42 32 42H16C10.4772 42 6 37.5228 6 32Z" stroke="#272122" stroke-width="2"/>
<path d="M35 13.02L35.02 12.9978" stroke="#272122" stroke-width="2" stroke-linecap="round" stroke-linejoin="round"/>
</svg>
