<svg width="48" height="48" viewBox="0 0 48 48" fill="none" xmlns="http://www.w3.org/2000/svg">
<mask id="mask0_700_300" style="mask-type:alpha" maskUnits="userSpaceOnUse" x="6" y="4" width="36" height="40">
<path d="M20.7052 5.40324L9.29343 11.9951C7.30478 13.1481 6.08099 15.2706 6.08099 17.5665V30.7502C6.08099 33.0461 7.30478 35.1788 9.29343 36.3216L20.7052 42.9135C22.6939 44.0665 25.1516 44.0665 27.1403 42.9135L38.5521 36.3216C40.5407 35.1686 41.7645 33.0461 41.7645 30.7502V17.5665C41.7645 15.2706 40.5407 13.1379 38.5521 11.9951L27.1403 5.40324C26.1408 4.83181 25.0292 4.53589 23.9278 4.53589C22.8264 4.53589 21.7046 4.8216 20.7052 5.40324Z" fill="white"/>
</mask>
<g mask="url(#mask0_700_300)">
<mask id="mask1_700_300" style="mask-type:alpha" maskUnits="userSpaceOnUse" x="-14" y="-14" width="76" height="76">
<path d="M23.9225 -13.3224L-13.6836 24.3054L23.9225 61.9333L61.5286 24.3054L23.9225 -13.3224Z" fill="white"/>
</mask>
<g mask="url(#mask1_700_300)">
<path d="M-13.6831 13.6582L34.5646 61.9338H-13.6831V13.6582Z" fill="#FF5B00"/>
</g>
<mask id="mask2_700_300" style="mask-type:alpha" maskUnits="userSpaceOnUse" x="-14" y="-14" width="76" height="76">
<path d="M23.9225 -13.3224L-13.6836 24.3054L23.9225 61.9333L61.5286 24.3054L23.9225 -13.3224Z" fill="white"/>
</mask>
<g mask="url(#mask2_700_300)">
<path d="M-13.6831 12.8215L35.4008 61.9338H34.5646L-13.6831 13.6583V12.8215Z" fill="#FF5B00"/>
</g>
<mask id="mask3_700_300" style="mask-type:alpha" maskUnits="userSpaceOnUse" x="-14" y="-14" width="76" height="76">
<path d="M23.9225 -13.3224L-13.6836 24.3054L23.9225 61.9333L61.5286 24.3054L23.9225 -13.3224Z" fill="white"/>
</mask>
<g mask="url(#mask3_700_300)">
<path d="M-13.6831 11.9846L36.2371 61.9337H35.4008L-13.6831 12.8214V11.9846Z" fill="#FF5C00"/>
</g>
<mask id="mask4_700_300" style="mask-type:alpha" maskUnits="userSpaceOnUse" x="-14" y="-14" width="76" height="76">
<path d="M23.9225 -13.3224L-13.6836 24.3054L23.9225 61.9333L61.5286 24.3054L23.9225 -13.3224Z" fill="white"/>
</mask>
<g mask="url(#mask4_700_300)">
<path d="M-13.6831 11.1479L37.0733 61.9337H36.2371L-13.6831 11.9847V11.1479Z" fill="#FF5D00"/>
</g>
<mask id="mask5_700_300" style="mask-type:alpha" maskUnits="userSpaceOnUse" x="-14" y="-14" width="76" height="76">
<path d="M23.9225 -13.3224L-13.6836 24.3054L23.9225 61.9333L61.5286 24.3054L23.9225 -13.3224Z" fill="white"/>
</mask>
<g mask="url(#mask5_700_300)">
<path d="M-13.6831 10.3113L37.8994 61.9338H37.0733L-13.6831 11.148V10.3113Z" fill="#FF5E00"/>
</g>
<mask id="mask6_700_300" style="mask-type:alpha" maskUnits="userSpaceOnUse" x="-14" y="-14" width="76" height="76">
<path d="M23.9225 -13.3224L-13.6836 24.3054L23.9225 61.9333L61.5286 24.3054L23.9225 -13.3224Z" fill="white"/>
</mask>
<g mask="url(#mask6_700_300)">
<path d="M-13.6831 9.48438L38.7356 61.9334H37.8994L-13.6831 10.3109V9.48438Z" fill="#FF5F00"/>
</g>
<mask id="mask7_700_300" style="mask-type:alpha" maskUnits="userSpaceOnUse" x="-14" y="-14" width="76" height="76">
<path d="M23.9225 -13.3224L-13.6836 24.3054L23.9225 61.9333L61.5286 24.3054L23.9225 -13.3224Z" fill="white"/>
</mask>
<g mask="url(#mask7_700_300)">
<path d="M-13.6831 8.64819L39.5719 61.934H38.7356L-13.6831 9.48493V8.64819Z" fill="#FF6000"/>
</g>
<mask id="mask8_700_300" style="mask-type:alpha" maskUnits="userSpaceOnUse" x="-14" y="-14" width="76" height="76">
<path d="M23.9225 -13.3224L-13.6836 24.3054L23.9225 61.9333L61.5286 24.3054L23.9225 -13.3224Z" fill="white"/>
</mask>
<g mask="url(#mask8_700_300)">
<path d="M-13.6831 7.81128L40.4081 61.9338H39.5719L-13.6831 8.64801V7.81128Z" fill="#FF6100"/>
</g>
<mask id="mask9_700_300" style="mask-type:alpha" maskUnits="userSpaceOnUse" x="-14" y="-14" width="76" height="76">
<path d="M23.9225 -13.3224L-13.6836 24.3054L23.9225 61.9333L61.5286 24.3054L23.9225 -13.3224Z" fill="white"/>
</mask>
<g mask="url(#mask9_700_300)">
<path d="M-13.6831 6.97461L41.2342 61.9339H40.4081L-13.6831 7.81135V6.97461Z" fill="#FF6200"/>
</g>
<mask id="mask10_700_300" style="mask-type:alpha" maskUnits="userSpaceOnUse" x="-14" y="-14" width="76" height="76">
<path d="M23.9225 -13.3224L-13.6836 24.3054L23.9225 61.9333L61.5286 24.3054L23.9225 -13.3224Z" fill="white"/>
</mask>
<g mask="url(#mask10_700_300)">
<path d="M-13.6831 6.14819L42.0704 61.934H41.2342L-13.6831 6.97472V6.14819Z" fill="#FF6300"/>
</g>
<mask id="mask11_700_300" style="mask-type:alpha" maskUnits="userSpaceOnUse" x="-14" y="-14" width="76" height="76">
<path d="M23.9225 -13.3224L-13.6836 24.3054L23.9225 61.9333L61.5286 24.3054L23.9225 -13.3224Z" fill="white"/>
</mask>
<g mask="url(#mask11_700_300)">
<path d="M-13.6831 5.31128L42.9067 61.9338H42.0704L-13.6831 6.14801V5.31128Z" fill="#FF6400"/>
</g>
<mask id="mask12_700_300" style="mask-type:alpha" maskUnits="userSpaceOnUse" x="-14" y="-14" width="76" height="76">
<path d="M23.9225 -13.3224L-13.6836 24.3054L23.9225 61.9333L61.5286 24.3054L23.9225 -13.3224Z" fill="white"/>
</mask>
<g mask="url(#mask12_700_300)">
<path d="M-13.6831 4.47437L43.7429 61.9336H42.9067L-13.6831 5.3111V4.47437Z" fill="#FF6500"/>
</g>
<mask id="mask13_700_300" style="mask-type:alpha" maskUnits="userSpaceOnUse" x="-14" y="-14" width="76" height="76">
<path d="M23.9225 -13.3224L-13.6836 24.3054L23.9225 61.9333L61.5286 24.3054L23.9225 -13.3224Z" fill="white"/>
</mask>
<g mask="url(#mask13_700_300)">
<path d="M-13.6831 3.63794L44.5792 61.9339H43.7429L-13.6831 4.47467V3.63794Z" fill="#FF6600"/>
</g>
<mask id="mask14_700_300" style="mask-type:alpha" maskUnits="userSpaceOnUse" x="-14" y="-14" width="76" height="76">
<path d="M23.9225 -13.3224L-13.6836 24.3054L23.9225 61.9333L61.5286 24.3054L23.9225 -13.3224Z" fill="white"/>
</mask>
<g mask="url(#mask14_700_300)">
<path d="M-13.6831 2.80103L45.4052 61.9337H44.5792L-13.6831 3.63776V2.80103Z" fill="#FF6700"/>
</g>
<mask id="mask15_700_300" style="mask-type:alpha" maskUnits="userSpaceOnUse" x="-14" y="-14" width="76" height="76">
<path d="M23.9225 -13.3224L-13.6836 24.3054L23.9225 61.9333L61.5286 24.3054L23.9225 -13.3224Z" fill="white"/>
</mask>
<g mask="url(#mask15_700_300)">
<path d="M-13.6831 1.97437L46.2415 61.9336H45.4053L-13.6831 2.8009V1.97437Z" fill="#FF6800"/>
</g>
<mask id="mask16_700_300" style="mask-type:alpha" maskUnits="userSpaceOnUse" x="-14" y="-14" width="76" height="76">
<path d="M23.9225 -13.3224L-13.6836 24.3054L23.9225 61.9333L61.5286 24.3054L23.9225 -13.3224Z" fill="white"/>
</mask>
<g mask="url(#mask16_700_300)">
<path d="M-13.6831 1.1377L47.0777 61.9337H46.2415L-13.6831 1.97443V1.1377Z" fill="#FF6900"/>
</g>
<mask id="mask17_700_300" style="mask-type:alpha" maskUnits="userSpaceOnUse" x="-14" y="-14" width="76" height="76">
<path d="M23.9225 -13.3224L-13.6836 24.3054L23.9225 61.9333L61.5286 24.3054L23.9225 -13.3224Z" fill="white"/>
</mask>
<g mask="url(#mask17_700_300)">
<path d="M-13.6831 0.301025L47.914 61.9338H47.0777L-13.6831 1.13776V0.301025Z" fill="#FF6A00"/>
</g>
<mask id="mask18_700_300" style="mask-type:alpha" maskUnits="userSpaceOnUse" x="-14" y="-14" width="76" height="76">
<path d="M23.9225 -13.3224L-13.6836 24.3054L23.9225 61.9333L61.5286 24.3054L23.9225 -13.3224Z" fill="white"/>
</mask>
<g mask="url(#mask18_700_300)">
<path d="M-13.6831 -0.5354L48.74 61.9341H47.914L-13.6831 0.301335V-0.5354Z" fill="#FF6B00"/>
</g>
<mask id="mask19_700_300" style="mask-type:alpha" maskUnits="userSpaceOnUse" x="-14" y="-14" width="76" height="76">
<path d="M23.9225 -13.3224L-13.6836 24.3054L23.9225 61.9333L61.5286 24.3054L23.9225 -13.3224Z" fill="white"/>
</mask>
<g mask="url(#mask19_700_300)">
<path d="M-13.6831 -1.36206L49.5763 61.9339H48.7401L-13.6831 -0.535528V-1.36206Z" fill="#FF6C00"/>
</g>
<mask id="mask20_700_300" style="mask-type:alpha" maskUnits="userSpaceOnUse" x="-14" y="-14" width="76" height="76">
<path d="M23.9225 -13.3224L-13.6836 24.3054L23.9225 61.9333L61.5286 24.3054L23.9225 -13.3224Z" fill="white"/>
</mask>
<g mask="url(#mask20_700_300)">
<path d="M-13.6831 -2.19897L50.4126 61.9338H49.5763L-13.6831 -1.36224V-2.19897Z" fill="#FF6D00"/>
</g>
<mask id="mask21_700_300" style="mask-type:alpha" maskUnits="userSpaceOnUse" x="-14" y="-14" width="76" height="76">
<path d="M23.9225 -13.3224L-13.6836 24.3054L23.9225 61.9333L61.5286 24.3054L23.9225 -13.3224Z" fill="white"/>
</mask>
<g mask="url(#mask21_700_300)">
<path d="M-13.6831 -3.03564L51.2488 61.9338H50.4125L-13.6831 -2.19891V-3.03564Z" fill="#FF6E00"/>
</g>
<mask id="mask22_700_300" style="mask-type:alpha" maskUnits="userSpaceOnUse" x="-14" y="-14" width="76" height="76">
<path d="M23.9225 -13.3224L-13.6836 24.3054L23.9225 61.9333L61.5286 24.3054L23.9225 -13.3224Z" fill="white"/>
</mask>
<g mask="url(#mask22_700_300)">
<path d="M-13.6831 -3.87231L52.0851 61.9339H51.2488L-13.6831 -3.03558V-3.87231Z" fill="#FF6F00"/>
</g>
<mask id="mask23_700_300" style="mask-type:alpha" maskUnits="userSpaceOnUse" x="-14" y="-14" width="76" height="76">
<path d="M23.9225 -13.3224L-13.6836 24.3054L23.9225 61.9333L61.5286 24.3054L23.9225 -13.3224Z" fill="white"/>
</mask>
<g mask="url(#mask23_700_300)">
<path d="M-13.6831 -4.69873L52.9111 61.934H52.0851L-13.6831 -3.8722V-4.69873Z" fill="#FF7000"/>
</g>
<mask id="mask24_700_300" style="mask-type:alpha" maskUnits="userSpaceOnUse" x="-14" y="-14" width="76" height="76">
<path d="M23.9225 -13.3224L-13.6836 24.3054L23.9225 61.9333L61.5286 24.3054L23.9225 -13.3224Z" fill="white"/>
</mask>
<g mask="url(#mask24_700_300)">
<path d="M-13.6831 -5.53589L53.7474 61.9336H52.9111L-13.6831 -4.69915V-5.53589Z" fill="#FF7100"/>
</g>
<mask id="mask25_700_300" style="mask-type:alpha" maskUnits="userSpaceOnUse" x="-14" y="-14" width="76" height="76">
<path d="M23.9225 -13.3224L-13.6836 24.3054L23.9225 61.9333L61.5286 24.3054L23.9225 -13.3224Z" fill="white"/>
</mask>
<g mask="url(#mask25_700_300)">
<path d="M-13.6831 -6.37231L54.5836 61.9339H53.7474L-13.6831 -5.53558V-6.37231Z" fill="#FF7200"/>
</g>
<mask id="mask26_700_300" style="mask-type:alpha" maskUnits="userSpaceOnUse" x="-14" y="-14" width="76" height="76">
<path d="M23.9225 -13.3224L-13.6836 24.3054L23.9225 61.9333L61.5286 24.3054L23.9225 -13.3224Z" fill="white"/>
</mask>
<g mask="url(#mask26_700_300)">
<path d="M-13.6831 -7.20898L55.4199 61.934H54.5836L-13.6831 -6.37225V-7.20898Z" fill="#FF7300"/>
</g>
<mask id="mask27_700_300" style="mask-type:alpha" maskUnits="userSpaceOnUse" x="-14" y="-14" width="76" height="76">
<path d="M23.9225 -13.3224L-13.6836 24.3054L23.9225 61.9333L61.5286 24.3054L23.9225 -13.3224Z" fill="white"/>
</mask>
<g mask="url(#mask27_700_300)">
<path d="M-13.6831 -8.04614L56.2459 61.9335H55.4199L-13.6831 -7.20941V-8.04614Z" fill="#FF7400"/>
</g>
<mask id="mask28_700_300" style="mask-type:alpha" maskUnits="userSpaceOnUse" x="-14" y="-14" width="76" height="76">
<path d="M23.9225 -13.3224L-13.6836 24.3054L23.9225 61.9333L61.5286 24.3054L23.9225 -13.3224Z" fill="white"/>
</mask>
<g mask="url(#mask28_700_300)">
<path d="M-13.6831 -8.87256L57.0822 61.9337H56.2459L-13.6831 -8.04603V-8.87256Z" fill="#FF7500"/>
</g>
<mask id="mask29_700_300" style="mask-type:alpha" maskUnits="userSpaceOnUse" x="-14" y="-14" width="76" height="76">
<path d="M23.9225 -13.3224L-13.6836 24.3054L23.9225 61.9333L61.5286 24.3054L23.9225 -13.3224Z" fill="white"/>
</mask>
<g mask="url(#mask29_700_300)">
<path d="M-13.6831 -9.70923L57.9184 61.9337H57.0822L-13.6831 -8.87249V-9.70923Z" fill="#FF7600"/>
</g>
<mask id="mask30_700_300" style="mask-type:alpha" maskUnits="userSpaceOnUse" x="-14" y="-14" width="76" height="76">
<path d="M23.9225 -13.3224L-13.6836 24.3054L23.9225 61.9333L61.5286 24.3054L23.9225 -13.3224Z" fill="white"/>
</mask>
<g mask="url(#mask30_700_300)">
<path d="M-13.6831 -10.5459L58.7547 61.9338H57.9184L-13.6831 -9.70916V-10.5459Z" fill="#FF7700"/>
</g>
<mask id="mask31_700_300" style="mask-type:alpha" maskUnits="userSpaceOnUse" x="-14" y="-14" width="76" height="76">
<path d="M23.9225 -13.3224L-13.6836 24.3054L23.9225 61.9333L61.5286 24.3054L23.9225 -13.3224Z" fill="white"/>
</mask>
<g mask="url(#mask31_700_300)">
<path d="M-13.6831 -11.3823L59.5807 61.9341H58.7547L-13.6831 -10.5456V-11.3823Z" fill="#FF7800"/>
</g>
<mask id="mask32_700_300" style="mask-type:alpha" maskUnits="userSpaceOnUse" x="-14" y="-14" width="76" height="76">
<path d="M23.9225 -13.3224L-13.6836 24.3054L23.9225 61.9333L61.5286 24.3054L23.9225 -13.3224Z" fill="white"/>
</mask>
<g mask="url(#mask32_700_300)">
<path d="M-13.6831 -12.209L60.417 61.934H59.5807L-13.6831 -11.3825V-12.209Z" fill="#FF7900"/>
</g>
<mask id="mask33_700_300" style="mask-type:alpha" maskUnits="userSpaceOnUse" x="-14" y="-14" width="76" height="76">
<path d="M23.9225 -13.3224L-13.6836 24.3054L23.9225 61.9333L61.5286 24.3054L23.9225 -13.3224Z" fill="white"/>
</mask>
<g mask="url(#mask33_700_300)">
<path d="M-13.6831 -13.0459L61.2532 61.9338H60.417L-13.6831 -12.2092V-13.0459Z" fill="#FF7A00"/>
</g>
<mask id="mask34_700_300" style="mask-type:alpha" maskUnits="userSpaceOnUse" x="-14" y="-14" width="76" height="76">
<path d="M23.9225 -13.3224L-13.6836 24.3054L23.9225 61.9333L61.5286 24.3054L23.9225 -13.3224Z" fill="white"/>
</mask>
<g mask="url(#mask34_700_300)">
<path d="M-13.1223 -13.3215L61.5285 61.3724V61.9337H61.2531L-13.6832 -13.046V-13.3215H-13.1223Z" fill="#FF7C00"/>
</g>
<mask id="mask35_700_300" style="mask-type:alpha" maskUnits="userSpaceOnUse" x="-14" y="-14" width="76" height="76">
<path d="M23.9225 -13.3224L-13.6836 24.3054L23.9225 61.9333L61.5286 24.3054L23.9225 -13.3224Z" fill="white"/>
</mask>
<g mask="url(#mask35_700_300)">
<path d="M-12.286 -13.3215L61.5285 60.5357V61.3724L-13.1223 -13.3215H-12.286Z" fill="#FF7D00"/>
</g>
<mask id="mask36_700_300" style="mask-type:alpha" maskUnits="userSpaceOnUse" x="-14" y="-14" width="76" height="76">
<path d="M23.9225 -13.3224L-13.6836 24.3054L23.9225 61.9333L61.5286 24.3054L23.9225 -13.3224Z" fill="white"/>
</mask>
<g mask="url(#mask36_700_300)">
<path d="M-11.4498 -13.3215L61.5285 59.699V60.5357L-12.286 -13.3215H-11.4498Z" fill="#FF7E00"/>
</g>
<mask id="mask37_700_300" style="mask-type:alpha" maskUnits="userSpaceOnUse" x="-14" y="-14" width="76" height="76">
<path d="M23.9225 -13.3224L-13.6836 24.3054L23.9225 61.9333L61.5286 24.3054L23.9225 -13.3224Z" fill="white"/>
</mask>
<g mask="url(#mask37_700_300)">
<path d="M-10.6236 -13.3215L61.5286 58.8724V59.699L-11.4496 -13.3215H-10.6236Z" fill="#FF7F00"/>
</g>
<mask id="mask38_700_300" style="mask-type:alpha" maskUnits="userSpaceOnUse" x="-14" y="-14" width="76" height="76">
<path d="M23.9225 -13.3224L-13.6836 24.3054L23.9225 61.9333L61.5286 24.3054L23.9225 -13.3224Z" fill="white"/>
</mask>
<g mask="url(#mask38_700_300)">
<path d="M-9.78741 -13.3215L61.5286 58.0357V58.8724L-10.6237 -13.3215H-9.78741Z" fill="#FF8000"/>
</g>
<mask id="mask39_700_300" style="mask-type:alpha" maskUnits="userSpaceOnUse" x="-14" y="-14" width="76" height="76">
<path d="M23.9225 -13.3224L-13.6836 24.3054L23.9225 61.9333L61.5286 24.3054L23.9225 -13.3224Z" fill="white"/>
</mask>
<g mask="url(#mask39_700_300)">
<path d="M-8.9511 -13.3215L61.5286 57.199V58.0357L-9.78735 -13.3215H-8.9511Z" fill="#FF8100"/>
</g>
<mask id="mask40_700_300" style="mask-type:alpha" maskUnits="userSpaceOnUse" x="-14" y="-14" width="76" height="76">
<path d="M23.9225 -13.3224L-13.6836 24.3054L23.9225 61.9333L61.5286 24.3054L23.9225 -13.3224Z" fill="white"/>
</mask>
<g mask="url(#mask40_700_300)">
<path d="M-8.11492 -13.3215L61.5286 56.3622V57.199L-8.95117 -13.3215H-8.11492Z" fill="#FF8200"/>
</g>
<mask id="mask41_700_300" style="mask-type:alpha" maskUnits="userSpaceOnUse" x="-14" y="-14" width="76" height="76">
<path d="M23.9225 -13.3224L-13.6836 24.3054L23.9225 61.9333L61.5286 24.3054L23.9225 -13.3224Z" fill="white"/>
</mask>
<g mask="url(#mask41_700_300)">
<path d="M-7.28887 -13.3215L61.5286 55.5255V56.3622L-8.11493 -13.3215H-7.28887Z" fill="#FF8300"/>
</g>
<mask id="mask42_700_300" style="mask-type:alpha" maskUnits="userSpaceOnUse" x="-14" y="-14" width="76" height="76">
<path d="M23.9225 -13.3224L-13.6836 24.3054L23.9225 61.9333L61.5286 24.3054L23.9225 -13.3224Z" fill="white"/>
</mask>
<g mask="url(#mask42_700_300)">
<path d="M-6.45269 -13.3215L61.5285 54.699V55.5255L19.9912 13.9744L-7.28894 -13.3215H-6.45269Z" fill="#FF8400"/>
</g>
<mask id="mask43_700_300" style="mask-type:alpha" maskUnits="userSpaceOnUse" x="-14" y="-14" width="76" height="76">
<path d="M23.9225 -13.3224L-13.6836 24.3054L23.9225 61.9333L61.5286 24.3054L23.9225 -13.3224Z" fill="white"/>
</mask>
<g mask="url(#mask43_700_300)">
<path d="M-5.61638 -13.3215L61.5285 53.8622V54.699L-6.45264 -13.3215H-5.61638Z" fill="#FF8500"/>
</g>
<mask id="mask44_700_300" style="mask-type:alpha" maskUnits="userSpaceOnUse" x="-14" y="-14" width="76" height="76">
<path d="M23.9225 -13.3224L-13.6836 24.3054L23.9225 61.9333L61.5286 24.3054L23.9225 -13.3224Z" fill="white"/>
</mask>
<g mask="url(#mask44_700_300)">
<path d="M-4.7802 -13.3215L61.5285 53.0255V53.8622L-5.61646 -13.3215H-4.7802Z" fill="#FF8600"/>
</g>
<mask id="mask45_700_300" style="mask-type:alpha" maskUnits="userSpaceOnUse" x="-14" y="-14" width="76" height="76">
<path d="M23.9225 -13.3224L-13.6836 24.3054L23.9225 61.9333L61.5286 24.3054L23.9225 -13.3224Z" fill="white"/>
</mask>
<g mask="url(#mask45_700_300)">
<path d="M-3.95398 -13.3215L61.5286 52.1888V53.0255L-4.78003 -13.3215H-3.95398Z" fill="#FF8700"/>
</g>
<mask id="mask46_700_300" style="mask-type:alpha" maskUnits="userSpaceOnUse" x="-14" y="-14" width="76" height="76">
<path d="M23.9225 -13.3224L-13.6836 24.3054L23.9225 61.9333L61.5286 24.3054L23.9225 -13.3224Z" fill="white"/>
</mask>
<g mask="url(#mask46_700_300)">
<path d="M-3.11779 -13.3215L61.5286 51.3622V52.1888L-3.95404 -13.3215H-3.11779Z" fill="#FF8800"/>
</g>
<mask id="mask47_700_300" style="mask-type:alpha" maskUnits="userSpaceOnUse" x="-14" y="-14" width="76" height="76">
<path d="M23.9225 -13.3224L-13.6836 24.3054L23.9225 61.9333L61.5286 24.3054L23.9225 -13.3224Z" fill="white"/>
</mask>
<g mask="url(#mask47_700_300)">
<path d="M-2.28161 -13.3215L61.5285 50.5255V51.3622L-3.11786 -13.3215H-2.28161Z" fill="#FF8900"/>
</g>
<mask id="mask48_700_300" style="mask-type:alpha" maskUnits="userSpaceOnUse" x="-14" y="-14" width="76" height="76">
<path d="M23.9225 -13.3224L-13.6836 24.3054L23.9225 61.9333L61.5286 24.3054L23.9225 -13.3224Z" fill="white"/>
</mask>
<g mask="url(#mask48_700_300)">
<path d="M-1.44524 -13.3215L61.5286 49.6887V50.5255L-2.28149 -13.3215H-1.44524Z" fill="#FF8A00"/>
</g>
<mask id="mask49_700_300" style="mask-type:alpha" maskUnits="userSpaceOnUse" x="-14" y="-14" width="76" height="76">
<path d="M23.9225 -13.3224L-13.6836 24.3054L23.9225 61.9333L61.5286 24.3054L23.9225 -13.3224Z" fill="white"/>
</mask>
<g mask="url(#mask49_700_300)">
<path d="M-0.609 -13.3215L61.5286 48.852V49.6887L-1.44525 -13.3215H-0.609Z" fill="#FF8B00"/>
</g>
<mask id="mask50_700_300" style="mask-type:alpha" maskUnits="userSpaceOnUse" x="-14" y="-14" width="76" height="76">
<path d="M23.9225 -13.3224L-13.6836 24.3054L23.9225 61.9333L61.5286 24.3054L23.9225 -13.3224Z" fill="white"/>
</mask>
<g mask="url(#mask50_700_300)">
<path d="M0.216924 -13.3215L61.5285 48.0255V48.852L-0.609131 -13.3215H0.216924Z" fill="#FF8C00"/>
</g>
<mask id="mask51_700_300" style="mask-type:alpha" maskUnits="userSpaceOnUse" x="-14" y="-14" width="76" height="76">
<path d="M23.9225 -13.3224L-13.6836 24.3054L23.9225 61.9333L61.5286 24.3054L23.9225 -13.3224Z" fill="white"/>
</mask>
<g mask="url(#mask51_700_300)">
<path d="M1.05329 -13.3215L61.5286 47.1887V48.0255L0.217041 -13.3215H1.05329Z" fill="#FF8D00"/>
</g>
<mask id="mask52_700_300" style="mask-type:alpha" maskUnits="userSpaceOnUse" x="-14" y="-14" width="76" height="76">
<path d="M23.9225 -13.3224L-13.6836 24.3054L23.9225 61.9333L61.5286 24.3054L23.9225 -13.3224Z" fill="white"/>
</mask>
<g mask="url(#mask52_700_300)">
<path d="M1.88954 -13.3215L61.5286 46.352V47.1887L1.05328 -13.3215H1.88954Z" fill="#FF8E00"/>
</g>
<mask id="mask53_700_300" style="mask-type:alpha" maskUnits="userSpaceOnUse" x="-14" y="-14" width="76" height="76">
<path d="M23.9225 -13.3224L-13.6836 24.3054L23.9225 61.9333L61.5286 24.3054L23.9225 -13.3224Z" fill="white"/>
</mask>
<g mask="url(#mask53_700_300)">
<path d="M2.72584 -13.3215L61.5286 45.5153V46.352L1.88959 -13.3215H2.72584Z" fill="#FF8F00"/>
</g>
<mask id="mask54_700_300" style="mask-type:alpha" maskUnits="userSpaceOnUse" x="-14" y="-14" width="76" height="76">
<path d="M23.9225 -13.3224L-13.6836 24.3054L23.9225 61.9333L61.5286 24.3054L23.9225 -13.3224Z" fill="white"/>
</mask>
<g mask="url(#mask54_700_300)">
<path d="M3.55182 -13.3215L61.5286 44.6785V45.5153L2.72577 -13.3215H3.55182Z" fill="#FF9000"/>
</g>
<mask id="mask55_700_300" style="mask-type:alpha" maskUnits="userSpaceOnUse" x="-14" y="-14" width="76" height="76">
<path d="M23.9225 -13.3224L-13.6836 24.3054L23.9225 61.9333L61.5286 24.3054L23.9225 -13.3224Z" fill="white"/>
</mask>
<g mask="url(#mask55_700_300)">
<path d="M4.38801 -13.3215L61.5285 43.852V44.6785L3.55176 -13.3215H4.38801Z" fill="#FF9100"/>
</g>
<mask id="mask56_700_300" style="mask-type:alpha" maskUnits="userSpaceOnUse" x="-14" y="-14" width="76" height="76">
<path d="M23.9225 -13.3224L-13.6836 24.3054L23.9225 61.9333L61.5286 24.3054L23.9225 -13.3224Z" fill="white"/>
</mask>
<g mask="url(#mask56_700_300)">
<path d="M5.22425 -13.3215L61.5285 43.0153V43.852L4.388 -13.3215H5.22425Z" fill="#FF9200"/>
</g>
<mask id="mask57_700_300" style="mask-type:alpha" maskUnits="userSpaceOnUse" x="-14" y="-14" width="76" height="76">
<path d="M23.9225 -13.3224L-13.6836 24.3054L23.9225 61.9333L61.5286 24.3054L23.9225 -13.3224Z" fill="white"/>
</mask>
<g mask="url(#mask57_700_300)">
<path d="M6.06056 -13.3215L61.5285 42.1785V43.0153L5.2243 -13.3215H6.06056Z" fill="#FF9300"/>
</g>
<mask id="mask58_700_300" style="mask-type:alpha" maskUnits="userSpaceOnUse" x="-14" y="-14" width="76" height="76">
<path d="M23.9225 -13.3224L-13.6836 24.3054L23.9225 61.9333L61.5286 24.3054L23.9225 -13.3224Z" fill="white"/>
</mask>
<g mask="url(#mask58_700_300)">
<path d="M6.8968 -13.3215L61.5285 41.3418V42.1785L6.06055 -13.3215H6.8968Z" fill="#FF9400"/>
</g>
<mask id="mask59_700_300" style="mask-type:alpha" maskUnits="userSpaceOnUse" x="-14" y="-14" width="76" height="76">
<path d="M23.9225 -13.3224L-13.6836 24.3054L23.9225 61.9333L61.5286 24.3054L23.9225 -13.3224Z" fill="white"/>
</mask>
<g mask="url(#mask59_700_300)">
<path d="M7.72278 -13.3215L61.5285 40.5153V41.3418L6.89673 -13.3215H7.72278Z" fill="#FF9500"/>
</g>
<mask id="mask60_700_300" style="mask-type:alpha" maskUnits="userSpaceOnUse" x="-14" y="-14" width="76" height="76">
<path d="M23.9225 -13.3224L-13.6836 24.3054L23.9225 61.9333L61.5286 24.3054L23.9225 -13.3224Z" fill="white"/>
</mask>
<g mask="url(#mask60_700_300)">
<path d="M8.55909 -13.3215L61.5285 39.6785V40.5153L7.72284 -13.3215H8.55909Z" fill="#FF9600"/>
</g>
<mask id="mask61_700_300" style="mask-type:alpha" maskUnits="userSpaceOnUse" x="-14" y="-14" width="76" height="76">
<path d="M23.9225 -13.3224L-13.6836 24.3054L23.9225 61.9333L61.5286 24.3054L23.9225 -13.3224Z" fill="white"/>
</mask>
<g mask="url(#mask61_700_300)">
<path d="M9.39539 -13.3215L61.5286 38.8418V39.6785L8.55914 -13.3215H9.39539Z" fill="#FF9700"/>
</g>
<mask id="mask62_700_300" style="mask-type:alpha" maskUnits="userSpaceOnUse" x="-14" y="-14" width="76" height="76">
<path d="M23.9225 -13.3224L-13.6836 24.3054L23.9225 61.9333L61.5286 24.3054L23.9225 -13.3224Z" fill="white"/>
</mask>
<g mask="url(#mask62_700_300)">
<path d="M10.2316 -13.3215L61.5286 38.0051V38.8418L9.39539 -13.3215H10.2316Z" fill="#FF9800"/>
</g>
<mask id="mask63_700_300" style="mask-type:alpha" maskUnits="userSpaceOnUse" x="-14" y="-14" width="76" height="76">
<path d="M23.9225 -13.3224L-13.6836 24.3054L23.9225 61.9333L61.5286 24.3054L23.9225 -13.3224Z" fill="white"/>
</mask>
<g mask="url(#mask63_700_300)">
<path d="M11.0576 -13.3215L61.5285 37.1683V38.0051L10.2316 -13.3215H11.0576Z" fill="#FF9900"/>
</g>
<mask id="mask64_700_300" style="mask-type:alpha" maskUnits="userSpaceOnUse" x="-14" y="-14" width="76" height="76">
<path d="M23.9225 -13.3224L-13.6836 24.3054L23.9225 61.9333L61.5286 24.3054L23.9225 -13.3224Z" fill="white"/>
</mask>
<g mask="url(#mask64_700_300)">
<path d="M11.8939 -13.3215L61.5285 36.3418V37.1683L11.0577 -13.3215H11.8939Z" fill="#FF9A00"/>
</g>
<mask id="mask65_700_300" style="mask-type:alpha" maskUnits="userSpaceOnUse" x="-14" y="-14" width="76" height="76">
<path d="M23.9225 -13.3224L-13.6836 24.3054L23.9225 61.9333L61.5286 24.3054L23.9225 -13.3224Z" fill="white"/>
</mask>
<g mask="url(#mask65_700_300)">
<path d="M12.7302 -13.3215L61.5285 35.5051V36.3418L11.8939 -13.3215H12.7302Z" fill="#FF9B00"/>
</g>
<mask id="mask66_700_300" style="mask-type:alpha" maskUnits="userSpaceOnUse" x="-14" y="-14" width="76" height="76">
<path d="M23.9225 -13.3224L-13.6836 24.3054L23.9225 61.9333L61.5286 24.3054L23.9225 -13.3224Z" fill="white"/>
</mask>
<g mask="url(#mask66_700_300)">
<path d="M13.5665 -13.3215L61.5286 34.6683V35.5051L12.7302 -13.3215H13.5665Z" fill="#FF9C00"/>
</g>
<mask id="mask67_700_300" style="mask-type:alpha" maskUnits="userSpaceOnUse" x="-14" y="-14" width="76" height="76">
<path d="M23.9225 -13.3224L-13.6836 24.3054L23.9225 61.9333L61.5286 24.3054L23.9225 -13.3224Z" fill="white"/>
</mask>
<g mask="url(#mask67_700_300)">
<path d="M61.5286 34.6683L13.5665 -13.3215H61.5286V34.6683Z" fill="#FF9C00"/>
</g>
</g>
<path d="M5 32.3575V15.7282C5 14.1555 5.86038 12.6844 7.23288 11.9031L21.7671 3.59354C23.1396 2.80215 24.8501 2.80215 26.2329 3.59354L40.7671 11.9031C42.1396 12.6945 43 14.1555 43 15.7282V32.3575C43 33.9301 42.1396 35.4013 40.7671 36.1825L26.2329 44.5022C24.8604 45.2936 23.1499 45.2936 21.7671 44.5022L7.23288 36.1825C5.86038 35.4013 5 33.9301 5 32.3575ZM40.8491 15.7282C40.8491 14.9165 40.4086 14.1555 39.6916 13.7497L25.1574 5.42997C24.4404 5.02413 23.5596 5.02413 22.8426 5.42997L8.30836 13.7395C7.59137 14.1454 7.15094 14.9063 7.15094 15.718V32.3473C7.15094 33.159 7.59137 33.9199 8.30836 34.3258L22.8426 42.6354C23.5596 43.0412 24.4404 43.0412 25.1574 42.6354L39.7019 34.3359C40.4189 33.9301 40.8593 33.1691 40.8593 32.3575V15.7282H40.8491Z" fill="#272122"/>
<path d="M27.181 27.2912C24.8864 28.9034 22.9793 28.9034 20.6745 27.2708C20.6643 27.2606 20.6541 27.2504 20.6439 27.2504C20.2972 27.0055 20.2564 27.0259 20.185 27.4238C20.0626 28.1585 20.0932 28.9034 20.1646 29.6483C20.1748 29.8014 20.2462 29.8932 20.389 29.9647C22.3878 30.9953 24.4377 31.3626 26.5691 30.3728C27.8847 29.7606 27.6909 30.1687 27.7725 28.5871C27.7725 28.23 27.7725 27.8728 27.7113 27.5157C27.6195 26.9953 27.5991 26.9851 27.181 27.2912Z" fill="#272122"/>
<path d="M26.9056 31.4136C25.4064 31.9238 23.8869 32.1482 22.3164 31.7809C21.8065 31.6585 21.3068 31.4952 20.8071 31.3625C20.7153 31.3421 20.6133 31.2605 20.5419 31.3625C20.5113 31.4136 20.5419 31.5258 20.5725 31.5972C20.8682 32.5156 21.2762 33.3625 21.9799 34.036C22.5204 34.5666 23.1628 34.8829 23.9379 34.8931C24.6722 34.8829 25.2943 34.587 25.8348 34.087C26.5282 33.4442 26.9464 32.6278 27.2523 31.7503C27.2931 31.6278 27.4053 31.4544 27.3237 31.3625C27.2115 31.2197 27.0382 31.3625 26.9056 31.4136Z" fill="#272122"/>
<path d="M23.9991 20.0769C22.6122 20.0565 21.5413 20.6687 20.7969 21.8524C20.6133 22.1381 20.6439 22.2504 21.011 22.2606C21.8065 22.281 22.602 22.4034 23.377 22.5973C23.5606 22.6381 23.7544 22.6892 23.9277 22.73C24.0093 22.7096 24.0807 22.6994 24.1419 22.6892C25.0495 22.4341 25.9776 22.3014 26.9158 22.2606C27.2523 22.2504 27.2421 22.1279 27.0994 21.883C26.3855 20.73 25.3555 20.0973 23.9991 20.0769Z" fill="#272122"/>
<path d="M23.9176 27.4645C25.3351 27.4236 26.4059 26.791 27.1402 25.5665C27.3034 25.3012 27.283 25.1685 26.926 25.1992C25.9878 25.2808 25.07 25.4543 24.2439 25.9339C24.0298 26.0563 23.8564 26.0665 23.6422 25.9339C22.8162 25.4543 21.9085 25.2706 20.9601 25.1992C20.6032 25.1685 20.5828 25.3012 20.7357 25.5665C21.4598 26.7706 22.5102 27.4032 23.9176 27.4645Z" fill="#272122"/>
<path d="M37.1855 24.3315C37.1651 24.3111 37.1345 24.3111 37.1141 24.2907C36.7266 24.0254 36.3492 23.7499 35.9515 23.4744C36.0127 23.4131 36.0331 23.3927 36.0535 23.3825C36.3492 23.2397 36.6246 23.0764 36.8796 22.8927C38.3379 21.8213 39.1436 20.005 38.9192 18.1682C38.8988 17.9948 38.8478 17.8111 38.7866 17.6478C38.5928 17.158 38.3481 17.0458 37.8484 17.2294C35.8495 17.9335 33.9323 18.8213 32.0354 19.7703C30.8422 20.3723 29.6796 21.0254 28.6088 21.8315C28.4864 21.9233 28.3743 22.0254 28.2621 22.1172C28.4864 22.0968 28.6598 22.0254 28.8434 21.9539C31.6377 20.8111 34.432 19.6988 37.2671 18.6682C37.828 18.4641 37.9402 18.5458 37.8484 19.1478C37.6138 20.6478 36.9713 21.8927 35.5538 22.6172C35.0949 22.7499 34.6461 22.8927 34.1872 23.0254C34.1464 23.0356 34.1056 23.0356 34.0547 23.0458C33.9425 23.0254 33.8405 23.0356 33.7385 23.0866L33.3102 23.1274C32.5657 23.1274 31.8212 23.1274 31.0768 23.1274C30.8218 23.1172 30.5669 23.107 30.3221 23.0866C29.9958 23.0152 29.6796 23.0152 29.3533 23.0458C28.5782 22.9846 27.8032 22.9641 27.0281 23.0458C26.8343 23.0152 26.6508 23.0254 26.4672 23.0866C26.3754 23.0968 26.2938 23.107 26.202 23.1172C26.0389 23.0968 25.8859 23.107 25.7431 23.1886C25.7023 23.1988 25.6615 23.1988 25.6207 23.209C25.4066 23.1988 25.2026 23.2499 25.0088 23.3519C24.9681 23.3621 24.9171 23.3723 24.8763 23.3825C24.7233 23.3825 24.5805 23.4335 24.4581 23.5254C24.3766 23.556 24.3052 23.5866 24.2236 23.6172C24.142 23.607 24.091 23.6376 24.04 23.6988C23.9686 23.6988 23.8972 23.6988 23.8259 23.6988C23.7851 23.6376 23.7239 23.6172 23.6423 23.6172C23.5607 23.5866 23.4893 23.556 23.4077 23.5254C23.2854 23.4335 23.1426 23.3825 22.9896 23.3825C22.9488 23.3723 22.8978 23.3621 22.857 23.3519C22.6633 23.2499 22.4593 23.1988 22.2451 23.209C22.2043 23.1988 22.1636 23.1988 22.1228 23.1886C21.98 23.107 21.827 23.0968 21.6638 23.1172C21.6027 23.1172 21.5415 23.107 21.4701 23.107C21.1539 23.005 20.8276 23.005 20.5012 23.0356C20.0015 22.9744 19.512 22.9846 19.0123 23.0356C18.5228 23.005 18.0333 23.0254 17.5438 23.0968C17.3194 23.107 17.0849 23.1172 16.8605 23.1274C16.0956 23.1274 15.3206 23.1274 14.5557 23.1274C14.4129 23.1172 14.2702 23.0968 14.1274 23.0866C13.5155 22.9744 12.9138 22.8417 12.3223 22.6274C11.8226 22.3723 11.4045 22.005 10.9863 21.6376C10.9353 21.5662 10.8843 21.505 10.8334 21.4335C10.5886 20.9335 10.3234 20.4335 10.1603 19.8927C10.1807 19.8315 10.1705 19.7805 10.1195 19.7397C10.0787 19.3825 9.95631 19.0254 10.0277 18.6478C10.0583 18.6376 10.0685 18.6172 10.0685 18.5866C10.2113 18.5356 10.3438 18.5866 10.4662 18.6376C13.3319 19.6988 16.1874 20.7703 18.9817 21.9846C19.1143 22.0458 19.2469 22.1478 19.4712 22.0662C18.9613 21.5662 18.4004 21.2192 17.8395 20.8927C16.524 20.1172 15.1778 19.4233 13.7704 18.8111C12.5161 18.2703 11.2821 17.6682 9.98691 17.2294C9.50759 17.0662 9.26283 17.1682 9.07927 17.6376C9.00788 17.8111 8.95689 18.005 8.93649 18.1988C8.75293 20.2192 9.70136 22.3417 11.588 23.3009C11.69 23.3519 11.8226 23.3825 11.8532 23.5356C11.2209 23.8927 10.6294 24.2907 10.2113 24.9131C9.92572 25.4029 9.98691 25.7601 10.4152 26.0968C10.6702 26.2907 10.9659 26.4233 11.2719 26.4846C13.7296 26.9846 16.0344 26.6172 18.1251 25.1886C18.2678 25.0968 18.4106 24.9948 18.5228 24.7601C17.4928 25.2907 16.4628 25.5764 15.4022 25.7295C14.2803 25.8927 13.1585 26.005 12.0367 25.7193C11.4962 25.5764 11.4249 25.3723 11.69 24.8825C11.7512 24.8315 11.8124 24.7703 11.8736 24.7193C12.5059 24.2601 13.1178 23.8009 13.9846 23.9539C14.7597 24.0968 15.5449 24.0662 16.3302 24.056C17.5846 24.0458 18.8287 23.9744 20.0831 24.0458C21.3681 24.1172 22.6327 24.3213 23.7341 25.0662C23.9176 25.1886 24.0298 25.107 24.1726 25.0152C24.8457 24.5866 25.5799 24.3417 26.355 24.1988C27.5176 23.9948 28.6802 24.0152 29.853 24.0356C31.1176 24.056 32.3923 24.1682 33.6467 23.9744C34.381 23.8621 34.9623 24.0662 35.5334 24.4437C35.6048 24.4846 35.6558 24.556 35.7476 24.556C35.8699 24.6682 35.9923 24.7703 36.1045 24.8927C36.4308 25.2397 36.3798 25.505 35.9311 25.6784C35.7068 25.7703 35.4518 25.8315 35.207 25.8519C33.3408 25.9948 31.5255 25.7397 29.7918 25.0152C29.7204 24.9846 29.649 24.9335 29.5674 24.9029C29.4961 24.8723 29.4247 24.8111 29.3125 24.8621C29.8836 25.4437 30.5669 25.8111 31.3011 26.0866C33.0756 26.7295 34.8807 26.9642 36.7266 26.4437C37.1957 26.3111 37.6648 26.0968 37.7668 25.5458C37.8994 24.9948 37.522 24.658 37.1855 24.3315Z" fill="#272122"/>
<path d="M19.1856 15.9543C19.5222 15.9543 19.8077 15.6788 19.8077 15.3318C19.8077 15.2604 19.7975 15.189 19.7771 15.1278C20.2157 15.1073 20.8275 15.1584 21.3986 15.5257C22.2043 16.0359 22.7448 17.0053 22.9998 18.4033C22.5612 18.6992 22.2349 19.1788 22.1839 19.689C22.1533 19.9237 22.1941 20.0359 22.4185 19.9237C23.4383 19.4339 24.4581 19.4339 25.4779 19.9237C25.6717 20.0155 25.7227 19.9441 25.7023 19.7502C25.6615 19.2298 25.3352 18.7196 24.8864 18.4135C25.1414 17.0053 25.6819 16.0359 26.4977 15.5257C27.0586 15.1686 27.6603 15.1073 28.0887 15.1278C28.0683 15.189 28.0581 15.2502 28.0581 15.3216C28.0581 15.6584 28.3334 15.9441 28.6802 15.9441C29.0167 15.9441 29.3022 15.6686 29.3022 15.3216C29.3022 15.0053 29.0677 14.7502 28.7719 14.7094C28.3946 14.6176 27.283 14.4339 26.2428 15.0869C25.3352 15.6584 24.7233 16.6992 24.4275 18.1788C24.2847 18.1278 24.1318 18.1074 23.989 18.0971C23.8156 18.0971 23.6524 18.1176 23.4893 18.1686C23.1935 16.689 22.5816 15.6482 21.674 15.0869C20.4094 14.3012 19.0633 14.7196 19.0123 14.74C19.0021 14.74 18.9919 14.7502 18.9817 14.7502C18.7573 14.842 18.5941 15.0665 18.5941 15.3216C18.5737 15.6788 18.8491 15.9543 19.1856 15.9543Z" fill="#272122"/>
</svg>
