<svg width="375" height="496" viewBox="0 0 375 496" fill="none" xmlns="http://www.w3.org/2000/svg">
<g filter="url(#filter0_d_112_53)">
<path fill-rule="evenodd" clip-rule="evenodd" d="M216.44 438.904C174.579 444.758 132.028 484.189 94.3777 460.488C56.3889 436.574 46.8758 374.849 33.9546 324.028C21.1015 273.475 9.31026 220.854 20.4342 169.659C31.8762 117 58.131 68.5548 95.5203 40.6878C131.272 14.041 178.961 0.971847 216.44 23.5719C252.035 45.0354 252.971 107.474 274.791 148.788C286.631 171.205 302.803 187.14 314.661 209.541C331.656 241.644 357.946 269.188 358.923 307.713C360.053 352.304 348.88 402.517 320.222 428.905C291.544 455.31 251.787 433.961 216.44 438.904Z" fill="white"/>
</g>
<path opacity="0.1" d="M93.2223 327.047C114.853 327.047 132.388 322.586 132.388 317.083C132.388 311.579 114.853 307.118 93.2223 307.118C71.5917 307.118 54.0566 311.579 54.0566 317.083C54.0566 322.586 71.5917 327.047 93.2223 327.047Z" fill="#9C3B13"/>
<path d="M69.563 214.079C69.563 214.079 67.9111 208.644 57.6268 224.95C47.3425 241.202 54.3763 249.355 54.3763 249.355L75.2647 245.572L79.9006 227.135" fill="#DE6A3A"/>
<path d="M124.448 265.128C124.182 264.702 123.969 264.275 123.702 263.796C116.935 250.474 106.757 213.014 100.896 209.923C100.896 209.923 108.089 208.911 108.142 208.911C115.496 207.898 121.997 214.293 126.686 219.461C130.683 223.884 131.855 228.467 131.908 234.169C132.015 239.124 126.633 242.961 125.088 247.543C123.276 252.925 124.395 259.48 124.448 265.128Z" fill="#DE6A3A"/>
<path d="M55.9216 256.709C57.2005 267.952 58.6925 279.196 61.3569 290.226C63.3285 298.432 67.2184 310.848 72.4938 317.669C74.8384 320.653 75.4245 319.64 79.5276 319.161C84.6431 318.628 83.7905 309.303 83.7905 304.027C83.7905 297.42 86.5082 290.492 85.1227 284.045" fill="#BA5931"/>
<path d="M125.94 255.856C124.661 267.1 126.313 273.867 121.997 290.173C119.812 298.326 116.135 310.795 110.86 317.615C108.516 320.599 107.929 319.587 103.826 319.107C98.7108 318.575 99.5634 309.249 99.5634 303.974C99.5634 297.366 96.8457 290.439 98.2312 283.992" fill="#BA5931"/>
<path d="M78.2485 197.294C75.6374 200.065 73.3994 203.262 71.6409 206.086C66.7919 214.133 64.0209 223.511 61.3566 232.517C58.1594 243.334 54.2695 255.75 57.4667 266.567C59.9179 274.879 62.6355 282.766 70.4153 287.455C76.9696 291.398 87.6269 292.517 95.0338 292.251C102.76 291.985 117.787 289.8 122.263 282.18C126.366 275.146 127.059 261.984 127.006 254.204C126.846 235.074 120.451 219.515 106.544 205.5C104.306 203.262 103.4 196.974 100.735 195.323C93.3286 185.838 84.7494 190.314 78.2485 197.294Z" fill="#BA5931"/>
<path d="M101.215 273.761C103.4 272.961 105.372 271.789 106.81 270.297C111.553 265.395 114.111 255.27 114.643 248.982C115.283 241.362 114.324 230.066 108.302 224.364C101.109 217.703 93.3821 219.728 84.43 220.367C67.0052 221.593 67.6447 249.036 70.2557 260.119C71.801 266.567 73.6128 272.908 81.4459 274.666C86.8811 275.892 95.034 276.052 101.215 273.761Z" fill="#9C3B13"/>
<path d="M108.036 164.629C103.986 154.505 68.0175 163.777 60.0245 166.015C52.0315 168.306 66.632 215.039 66.3656 218.449L112.991 212.481C112.938 212.481 112.086 174.754 108.036 164.629Z" fill="#BA5931"/>
<path d="M83.737 180.029C90.3446 180.509 95.8864 190.367 95.9397 196.388C96.0462 204.648 86.9342 208.111 80.4866 203.742C73.506 199.106 72.1738 179.177 83.737 180.029Z" fill="#DE6A3A"/>
<path d="M98.551 160.899C99.6168 159.514 102.814 150.509 107.397 154.771C111.926 159.034 108.782 167.614 108.782 167.614" fill="#BA5931"/>
<path d="M64.3408 166.388C64.3408 166.388 57.1471 158.928 53.0441 161.059C48.941 163.191 55.9748 173.049 59.2253 175.287" fill="#BA5931"/>
<path d="M96.7392 180.349C96.7392 181.415 95.8866 182.267 94.8209 182.267C93.7552 182.267 92.9026 181.415 92.9026 180.349C92.9026 179.283 93.7552 178.431 94.8209 178.431C95.8866 178.431 96.7392 179.283 96.7392 180.349Z" fill="#69280D"/>
<path d="M74.4121 183.28C74.4121 184.346 73.5595 185.198 72.4938 185.198C71.428 185.198 70.5754 184.346 70.5754 183.28C70.5754 182.214 71.428 181.362 72.4938 181.362C73.5595 181.362 74.4121 182.214 74.4121 183.28Z" fill="#69280D"/>
<path d="M105.158 160.207C105.265 160.26 104.892 160.473 105.425 160.313C106.118 160.1 108.142 158.235 107.983 160.42C107.929 161.486 106.224 163.99 104.412 163.457C103.613 163.191 101.908 160.047 102.228 159.354C103.027 157.436 104.093 159.674 105.158 160.207Z" fill="#DE6A3A"/>
<path d="M57.0404 165.962C57.147 165.962 56.9871 166.335 57.3068 165.855C57.6798 165.216 58.1061 162.498 59.385 164.31C59.9712 165.162 60.2909 168.2 58.5324 168.892C57.7331 169.212 54.4294 167.827 54.2162 167.134C53.6834 165.216 55.9214 166.281 57.0404 165.962Z" fill="#DE6A3A"/>
<path d="M73.0797 192.125C73.0797 194.044 71.5344 195.642 69.5628 195.642C67.6445 195.642 66.0459 194.097 66.0459 192.125C66.0459 190.207 67.5912 188.609 69.5628 188.609C71.4811 188.609 73.0797 190.207 73.0797 192.125Z" fill="#FF7BAC"/>
<path d="M103.773 188.449C103.773 190.367 102.228 191.966 100.256 191.966C98.3376 191.966 96.739 190.42 96.739 188.449C96.739 186.53 98.2843 184.932 100.256 184.932C102.228 184.932 103.773 186.53 103.773 188.449Z" fill="#FF7BAC"/>
<path d="M99.9364 246.691L68.7638 239.497C67.0586 239.124 65.9929 237.419 66.3659 235.714L67.0053 232.89C67.3783 231.185 69.0835 230.119 70.7887 230.492L101.961 237.686C103.667 238.059 104.732 239.764 104.359 241.469L103.72 244.293C103.347 245.998 101.642 247.064 99.9364 246.691Z" fill="#FBB03B"/>
<path d="M94.3945 270.936L63.1686 263.743C61.4634 263.37 60.3977 261.664 60.7707 259.959L61.4101 257.135C61.7831 255.43 63.4883 254.364 65.1934 254.737L96.3661 261.931C98.0713 262.304 99.137 264.009 98.764 265.714L98.1246 268.538C97.7516 270.244 96.0464 271.309 94.3945 270.936Z" fill="#FBB03B"/>
<path d="M88.9594 274.773L66.3658 269.551C64.6607 269.178 63.5949 267.473 63.9679 265.768L64.6074 262.943C64.9804 261.238 66.6855 260.173 68.3907 260.546L90.9842 265.714C92.6894 266.087 93.7551 267.793 93.3821 269.498L92.7427 272.322C92.3697 274.08 90.6645 275.146 88.9594 274.773Z" fill="#FBB03B"/>
<path d="M100.949 253.458L64.9271 245.199C63.2219 244.826 62.1562 243.121 62.5292 241.416L63.1686 238.591C63.5417 236.886 65.2468 235.821 66.952 236.194L102.974 244.453C104.679 244.826 105.745 246.531 105.372 248.236L104.732 251.06C104.359 252.819 102.654 253.885 100.949 253.458Z" fill="#FBB03B"/>
<path d="M98.0712 265.927L62.0494 257.668C60.3442 257.295 59.2785 255.59 59.6515 253.885L60.291 251.06C60.664 249.355 62.3691 248.289 64.0743 248.663L100.096 256.922C101.801 257.295 102.867 259 102.494 260.705L101.855 263.529C101.482 265.235 99.7763 266.3 98.0712 265.927Z" fill="#FBB03B"/>
<path d="M102.76 260.439L60.2377 250.687C58.5325 250.314 57.4667 248.609 57.8398 246.904L58.4792 244.08C58.8522 242.375 60.5574 241.309 62.2625 241.682L104.785 251.433C106.49 251.806 107.556 253.512 107.183 255.217L106.544 258.041C106.171 259.746 104.466 260.865 102.76 260.439Z" fill="#FBB03B"/>
<path d="M84.4832 188.395C84.643 188.395 84.2168 188.982 84.9628 188.395C85.9219 187.703 88.2665 183.76 89.0658 187.33C89.4388 189.035 88.0001 193.831 84.9095 193.884C83.4707 193.884 79.3144 189.674 79.421 188.502C79.794 185.145 82.5649 188.129 84.4832 188.395Z" fill="#9C3B13"/>
<path d="M85.6555 198.626C85.6555 198.573 85.6555 198.573 85.6555 198.626C86.9876 196.761 92.636 195.482 92.636 198.999C92.636 200.385 91.3039 201.344 90.0783 202.037C87.2008 203.689 83.2576 201.983 85.6555 198.626Z" fill="#9C3B13"/>
<path d="M97.6449 207.206C95.5134 206.3 87.6803 203.156 86.9343 212.481C86.1883 221.806 112.832 248.29 121.624 246.638C130.469 244.986 130.789 237.099 130.789 237.099C130.789 237.099 140.86 226.229 97.6449 207.206Z" fill="#DE6A3A"/>
<path d="M96.686 206.46C97.9648 206.566 99.1371 207.632 99.297 208.911C99.4569 210.19 98.4444 211.522 97.1655 211.575C96.0998 211.628 94.8742 210.989 94.1815 211.735C93.9683 211.948 93.8085 212.321 93.7552 212.641C93.4888 213.973 93.8085 215.358 93.7552 216.691C93.6486 218.023 92.8493 219.515 91.5171 219.621C90.558 219.675 89.7054 218.982 89.2258 218.129C87.9469 215.891 88.9594 213.067 88.4798 210.563C87.8404 210.936 87.0411 210.723 86.5615 210.19C86.0819 209.657 85.9221 208.911 86.0286 208.218C86.1885 206.833 87.2542 205.607 88.6397 205.234C92.423 204.275 94.6078 203.049 96.686 206.46Z" fill="#FBB03B"/>
<path d="M63.8613 215.998C63.5948 217.33 42.44 231.238 44.0919 248.29C45.1577 259.693 85.2825 267.793 86.9344 257.508C86.9344 257.508 95.6201 252.073 81.4991 247.224C67.3782 242.322 57.0939 237.739 57.0939 237.739L61.4101 224.47" fill="#DE6A3A"/>
<path d="M225.959 179.337C225.959 179.337 219.671 180.402 222.229 177.951C224.787 175.447 226.758 179.017 226.758 179.017" fill="#62261E"/>
<path d="M230.169 178.804L228.304 181.894C227.984 182.481 227.238 182.64 226.652 182.321L225.693 181.735C225.107 181.415 224.947 180.669 225.266 180.083L227.131 176.992C227.451 176.406 228.197 176.246 228.783 176.566L229.742 177.152C230.329 177.472 230.488 178.218 230.169 178.804Z" fill="#FBB03B"/>
<path d="M230.009 179.017L227.025 177.258C226.971 177.312 226.918 177.365 226.865 177.471L226.545 178.004L229.582 179.816L229.902 179.283C229.902 179.177 229.956 179.123 230.009 179.017Z" fill="#864239"/>
<path d="M225.48 179.816L228.464 181.575C228.517 181.521 228.57 181.468 228.624 181.361L228.943 180.829L225.906 179.017L225.586 179.55C225.533 179.71 225.48 179.763 225.48 179.816Z" fill="#864239"/>
<path d="M225.906 178.431C225.906 178.431 219.085 174.914 223.668 175.393C228.251 175.873 226.918 178.751 226.918 178.751" fill="#864239"/>
<path d="M47.7687 205.234C47.7687 205.234 41.8006 202.996 45.2643 202.143C48.7279 201.291 48.6213 205.341 48.6213 205.341" fill="#62261E"/>
<path d="M51.6586 206.886L48.4614 208.644C47.8753 208.964 47.1293 208.751 46.8096 208.165L46.2767 207.206C45.957 206.619 46.1701 205.873 46.7563 205.554L49.9535 203.795C50.5396 203.476 51.2856 203.689 51.6053 204.275L52.1382 205.234C52.4579 205.82 52.2448 206.566 51.6586 206.886Z" fill="#FBB03B"/>
<path d="M51.3923 206.992L49.7404 203.955C49.6871 204.008 49.5805 204.008 49.5273 204.062L48.9944 204.381L50.6996 207.472L51.2324 207.152C51.2324 207.099 51.339 207.046 51.3923 206.992Z" fill="#864239"/>
<path d="M47.0759 205.394L48.7278 208.431C48.7811 208.378 48.8877 208.378 48.941 208.325L49.4738 208.005L47.7687 204.914L47.2358 205.234C47.1825 205.287 47.1292 205.341 47.0759 205.394Z" fill="#864239"/>
<path d="M48.1951 204.435C48.1951 204.435 44.092 197.934 47.7688 200.651C51.4988 203.369 48.8878 205.234 48.8878 205.234" fill="#864239"/>
<path d="M132.708 179.869C132.708 179.869 130.15 174.008 133.134 175.873C136.171 177.738 133.187 180.509 133.187 180.509" fill="#62261E"/>
<path d="M134.253 183.759L130.789 182.694C130.15 182.481 129.777 181.841 129.99 181.202L130.31 180.136C130.523 179.497 131.162 179.124 131.802 179.337L135.265 180.402C135.905 180.616 136.278 181.255 136.065 181.894L135.745 182.96C135.532 183.6 134.892 183.973 134.253 183.759Z" fill="#FBB03B"/>
<path d="M133.933 183.653L134.946 180.349C134.892 180.296 134.786 180.296 134.732 180.243L134.146 180.083L133.134 183.44L133.72 183.6C133.773 183.653 133.88 183.653 133.933 183.653Z" fill="#864239"/>
<path d="M132.068 179.497L131.056 182.8C131.109 182.854 131.216 182.854 131.269 182.907L131.855 183.067L132.867 179.71L132.281 179.55C132.228 179.497 132.121 179.497 132.068 179.497Z" fill="#864239"/>
<path d="M133.507 179.603C133.507 179.603 135.265 172.143 135.905 176.672C136.544 181.255 133.454 180.669 133.454 180.669" fill="#864239"/>
<path d="M144.75 136.867C144.75 136.867 142.566 131.858 145.123 133.457C147.681 135.056 145.177 137.4 145.177 137.4" fill="#62261E"/>
<path d="M146.029 140.224L143.099 139.318C142.566 139.159 142.246 138.572 142.406 138.04L142.672 137.134C142.832 136.601 143.418 136.281 143.951 136.441L146.882 137.347C147.415 137.507 147.734 138.093 147.575 138.626L147.308 139.532C147.148 140.064 146.562 140.384 146.029 140.224Z" fill="#FBB03B"/>
<path d="M145.816 140.118L146.669 137.294C146.616 137.24 146.562 137.24 146.456 137.187L145.976 137.027L145.124 139.905L145.603 140.064C145.656 140.118 145.71 140.118 145.816 140.118Z" fill="#864239"/>
<path d="M144.164 136.547L143.312 139.372C143.365 139.425 143.418 139.425 143.525 139.478L144.004 139.638L144.857 136.761L144.377 136.601C144.324 136.547 144.271 136.547 144.164 136.547Z" fill="#864239"/>
<path d="M145.443 136.654C145.443 136.654 146.935 130.26 147.468 134.15C148.001 138.04 145.336 137.56 145.336 137.56" fill="#864239"/>
<path d="M182.229 155.688C182.229 155.688 177.327 153.343 180.311 152.863C183.295 152.384 182.922 155.847 182.922 155.847" fill="#62261E"/>
<path d="M185.373 157.393L182.549 158.618C182.016 158.832 181.43 158.618 181.217 158.086L180.844 157.233C180.631 156.7 180.844 156.114 181.377 155.901L184.201 154.675C184.734 154.462 185.32 154.675 185.533 155.208L185.906 156.061C186.173 156.54 185.906 157.18 185.373 157.393Z" fill="#FBB03B"/>
<path d="M185.16 157.499L183.988 154.782C183.934 154.782 183.828 154.835 183.774 154.835L183.295 155.048L184.521 157.819L185 157.606C185.053 157.553 185.107 157.499 185.16 157.499Z" fill="#864239"/>
<path d="M181.59 155.794L182.762 158.512C182.816 158.512 182.922 158.459 182.976 158.459L183.455 158.245L182.23 155.474L181.75 155.688C181.75 155.741 181.697 155.794 181.59 155.794Z" fill="#864239"/>
<path d="M182.602 155.048C182.602 155.048 179.618 149.24 182.549 151.851C185.48 154.462 183.135 155.794 183.135 155.794" fill="#864239"/>
<path d="M262.514 179.497C262.514 179.497 260.329 174.488 262.887 176.086C265.445 177.685 262.94 180.029 262.94 180.029" fill="#62261E"/>
<path d="M263.792 182.854L260.862 181.948C260.329 181.788 260.009 181.202 260.169 180.669L260.435 179.763C260.595 179.23 261.181 178.91 261.714 179.07L264.645 179.976C265.178 180.136 265.498 180.722 265.338 181.255L265.071 182.161C264.911 182.694 264.325 183.013 263.792 182.854Z" fill="#FBB03B"/>
<path d="M263.579 182.747L264.432 179.923C264.379 179.87 264.325 179.87 264.219 179.816L263.739 179.656L262.887 182.534L263.366 182.694C263.42 182.747 263.473 182.747 263.579 182.747Z" fill="#864239"/>
<path d="M261.928 179.177L261.075 182.001C261.128 182.054 261.182 182.054 261.288 182.108L261.768 182.267L262.621 179.39L262.141 179.23C262.088 179.177 262.034 179.177 261.928 179.177Z" fill="#864239"/>
<path d="M263.207 179.283C263.207 179.283 264.699 172.889 265.232 176.779C265.764 180.669 263.153 180.189 263.153 180.189" fill="#864239"/>
<path d="M56.1348 139.691C56.1348 139.691 53.577 133.83 56.5611 135.695C59.5984 137.56 56.6144 140.331 56.6144 140.331" fill="#62261E"/>
<path d="M57.6801 143.581L54.2164 142.516C53.577 142.303 53.204 141.663 53.4171 141.024L53.7369 139.958C53.95 139.318 54.5895 138.945 55.2289 139.159L58.6925 140.224C59.332 140.437 59.705 141.077 59.4918 141.716L59.1721 142.782C59.0122 143.422 58.3195 143.795 57.6801 143.581Z" fill="#FBB03B"/>
<path d="M57.4136 143.475L58.426 140.171C58.3727 140.118 58.2661 140.118 58.2129 140.064L57.6267 139.905L56.6143 143.262L57.2004 143.421C57.2537 143.475 57.307 143.475 57.4136 143.475Z" fill="#864239"/>
<path d="M55.4954 139.318L54.4829 142.622C54.5362 142.676 54.6428 142.676 54.6961 142.729L55.2822 142.889L56.2947 139.532L55.7085 139.372C55.6552 139.318 55.6019 139.318 55.4954 139.318Z" fill="#864239"/>
<path d="M56.9871 139.425C56.9871 139.425 58.7456 131.965 59.385 136.494C60.0245 141.077 56.9338 140.491 56.9338 140.491" fill="#864239"/>
<path d="M168.303 186.797C168.303 186.797 170.861 180.935 167.877 182.8C164.839 184.665 167.823 187.436 167.823 187.436" fill="#62261E"/>
<path d="M166.811 190.74L170.275 189.674C170.914 189.461 171.287 188.822 171.074 188.182L170.754 187.117C170.541 186.477 169.902 186.104 169.262 186.317L165.799 187.383C165.159 187.596 164.786 188.236 164.999 188.875L165.319 189.941C165.479 190.58 166.172 190.953 166.811 190.74Z" fill="#FBB03B"/>
<path d="M167.078 190.633L166.065 187.33C166.118 187.276 166.225 187.276 166.278 187.223L166.864 187.063L167.877 190.42L167.291 190.58C167.237 190.633 167.184 190.633 167.078 190.633Z" fill="#864239"/>
<path d="M168.942 186.424L169.955 189.728C169.902 189.781 169.795 189.781 169.742 189.834L169.156 189.994L168.143 186.637L168.729 186.477C168.783 186.477 168.889 186.477 168.942 186.424Z" fill="#864239"/>
<path d="M167.504 186.53C167.504 186.53 165.745 179.07 165.106 183.599C164.466 188.182 167.557 187.596 167.557 187.596" fill="#864239"/>
<path d="M209.835 129.354C209.835 129.354 215.324 126.103 211.807 125.89C208.237 125.677 209.036 129.62 209.036 129.62" fill="#62261E"/>
<path d="M206.265 131.698L209.675 132.871C210.315 133.084 211.007 132.764 211.221 132.125L211.594 131.059C211.807 130.42 211.487 129.727 210.848 129.514L207.437 128.341C206.798 128.128 206.105 128.448 205.892 129.087L205.519 130.153C205.306 130.793 205.679 131.485 206.265 131.698Z" fill="#FBB03B"/>
<path d="M206.585 131.752L207.704 128.448C207.81 128.448 207.864 128.501 207.97 128.501L208.556 128.714L207.437 132.018L206.851 131.805C206.745 131.858 206.638 131.805 206.585 131.752Z" fill="#864239"/>
<path d="M210.581 129.46L209.462 132.764C209.356 132.764 209.302 132.711 209.196 132.711L208.61 132.498L209.729 129.194L210.315 129.407C210.421 129.354 210.475 129.407 210.581 129.46Z" fill="#864239"/>
<path d="M209.302 128.661C209.302 128.661 212.233 121.574 209.036 124.878C205.839 128.235 208.716 129.567 208.716 129.567" fill="#864239"/>
<path d="M108.302 214.133C108.302 214.133 114.27 211.788 110.807 210.989C107.343 210.19 107.503 214.239 107.503 214.239" fill="#62261E"/>
<path d="M104.413 215.838L107.61 217.543C108.196 217.863 108.942 217.65 109.262 217.063L109.794 216.104C110.114 215.518 109.901 214.772 109.315 214.452L106.118 212.747C105.532 212.428 104.786 212.641 104.466 213.227L103.933 214.186C103.613 214.772 103.826 215.518 104.413 215.838Z" fill="#FBB03B"/>
<path d="M104.732 215.945L106.384 212.907C106.437 212.961 106.544 212.961 106.597 213.014L107.13 213.28L105.478 216.371L104.945 216.104C104.839 216.051 104.785 215.998 104.732 215.945Z" fill="#864239"/>
<path d="M108.995 214.293L107.343 217.33C107.29 217.277 107.183 217.277 107.13 217.223L106.597 216.957L108.249 213.866L108.782 214.133C108.888 214.186 108.942 214.239 108.995 214.293Z" fill="#864239"/>
<path d="M107.876 213.334C107.876 213.334 111.926 206.779 108.249 209.55C104.572 212.321 107.183 214.133 107.183 214.133" fill="#62261E"/>
<path d="M95.78 151.255C95.78 151.255 89.8119 148.91 93.2755 148.111C96.7391 147.311 96.5793 151.361 96.5793 151.361" fill="#62261E"/>
<path d="M99.6166 152.96L96.4194 154.665C95.8333 154.985 95.0873 154.771 94.7676 154.185L94.2347 153.226C93.915 152.64 94.1281 151.894 94.7143 151.574L97.9115 149.869C98.4976 149.549 99.2436 149.763 99.5634 150.349L100.096 151.308C100.416 151.894 100.203 152.64 99.6166 152.96Z" fill="#FBB03B"/>
<path d="M99.3503 153.066L97.6984 150.029C97.6451 150.082 97.5385 150.082 97.4853 150.136L96.9524 150.402L98.6043 153.493L99.1371 153.226C99.1904 153.173 99.297 153.12 99.3503 153.066Z" fill="#864239"/>
<path d="M95.0342 151.414L96.6861 154.452C96.7394 154.399 96.8459 154.399 96.8992 154.345L97.4321 154.079L95.7802 150.988L95.2473 151.255C95.194 151.308 95.1408 151.361 95.0342 151.414Z" fill="#864239"/>
<path d="M96.153 150.455C96.153 150.455 92.1033 143.901 95.78 146.672C99.4568 149.443 96.8458 151.255 96.8458 151.255" fill="#62261E"/>
<path d="M176.94 265C175.96 265 175.143 264.673 174.49 264.02C173.837 263.32 173.51 262.457 173.51 261.43V225.8L174.77 226.22L159.65 245.54L159.3 244.63H184.01C184.943 244.63 185.713 244.957 186.32 245.61C186.973 246.217 187.3 246.987 187.3 247.92C187.3 248.807 186.973 249.553 186.32 250.16C185.713 250.767 184.943 251.07 184.01 251.07H154.47C153.63 251.07 152.837 250.743 152.09 250.09C151.343 249.39 150.97 248.573 150.97 247.64C150.97 246.753 151.273 245.96 151.88 245.26L174.14 217.4C174.467 216.933 174.887 216.583 175.4 216.35C175.913 216.117 176.45 216 177.01 216C178.037 216 178.877 216.35 179.53 217.05C180.183 217.703 180.51 218.543 180.51 219.57V261.43C180.51 262.457 180.16 263.32 179.46 264.02C178.76 264.673 177.92 265 176.94 265ZM213.286 265.7C209.366 265.7 206.053 264.627 203.346 262.48C200.639 260.287 198.586 257.3 197.186 253.52C195.833 249.693 195.156 245.353 195.156 240.5C195.156 235.6 195.833 231.26 197.186 227.48C198.586 223.653 200.639 220.667 203.346 218.52C206.053 216.373 209.366 215.3 213.286 215.3C217.206 215.3 220.496 216.373 223.156 218.52C225.863 220.667 227.916 223.653 229.316 227.48C230.716 231.26 231.416 235.6 231.416 240.5C231.416 245.353 230.716 249.693 229.316 253.52C227.916 257.3 225.863 260.287 223.156 262.48C220.496 264.627 217.206 265.7 213.286 265.7ZM213.286 258.63C215.479 258.63 217.346 257.93 218.886 256.53C220.473 255.13 221.686 253.077 222.526 250.37C223.413 247.663 223.856 244.373 223.856 240.5C223.856 236.58 223.413 233.267 222.526 230.56C221.686 227.853 220.473 225.8 218.886 224.4C217.346 223 215.479 222.3 213.286 222.3C211.093 222.3 209.203 223 207.616 224.4C206.029 225.8 204.816 227.853 203.976 230.56C203.136 233.267 202.716 236.58 202.716 240.5C202.716 244.373 203.136 247.663 203.976 250.37C204.816 253.077 206.029 255.13 207.616 256.53C209.203 257.93 211.093 258.63 213.286 258.63ZM265.534 265C264.554 265 263.737 264.673 263.084 264.02C262.43 263.32 262.104 262.457 262.104 261.43V225.8L263.364 226.22L248.244 245.54L247.894 244.63H272.604C273.537 244.63 274.307 244.957 274.914 245.61C275.567 246.217 275.894 246.987 275.894 247.92C275.894 248.807 275.567 249.553 274.914 250.16C274.307 250.767 273.537 251.07 272.604 251.07H243.064C242.224 251.07 241.43 250.743 240.684 250.09C239.937 249.39 239.564 248.573 239.564 247.64C239.564 246.753 239.867 245.96 240.474 245.26L262.734 217.4C263.06 216.933 263.48 216.583 263.994 216.35C264.507 216.117 265.044 216 265.604 216C266.63 216 267.47 216.35 268.124 217.05C268.777 217.703 269.104 218.543 269.104 219.57V261.43C269.104 262.457 268.754 263.32 268.054 264.02C267.354 264.673 266.514 265 265.534 265Z" fill="#FF6701"/>
<path d="M161.2 288.152C161.52 288.152 161.784 288.272 161.992 288.512C162.216 288.736 162.328 288.984 162.328 289.256C162.328 289.512 162.24 289.76 162.064 290L157.024 296.744L155.656 294.848L160.24 288.728C160.512 288.344 160.832 288.152 161.2 288.152ZM150.256 288.128C150.64 288.128 150.968 288.296 151.24 288.632L162.064 303.176C162.24 303.384 162.328 303.624 162.328 303.896C162.328 304.28 162.192 304.576 161.92 304.784C161.648 304.992 161.376 305.096 161.104 305.096C160.72 305.096 160.4 304.928 160.144 304.592L149.296 290.072C149.12 289.848 149.032 289.608 149.032 289.352C149.032 289 149.16 288.712 149.416 288.488C149.672 288.248 149.952 288.128 150.256 288.128ZM150.088 305.096C149.784 305.096 149.528 304.992 149.32 304.784C149.112 304.56 149.008 304.312 149.008 304.04C149.008 303.768 149.104 303.496 149.296 303.224L154.384 296.336L155.704 298.28L151.072 304.544C150.816 304.912 150.488 305.096 150.088 305.096ZM169.616 292.472C170.928 292.472 172.072 292.752 173.048 293.312C174.04 293.856 174.8 294.616 175.328 295.592C175.872 296.552 176.144 297.656 176.144 298.904C176.144 300.312 175.856 301.52 175.28 302.528C174.72 303.52 173.976 304.288 173.048 304.832C172.136 305.36 171.168 305.624 170.144 305.624C169.376 305.624 168.632 305.464 167.912 305.144C167.208 304.84 166.584 304.416 166.04 303.872C165.496 303.312 165.064 302.664 164.744 301.928C164.424 301.176 164.256 300.36 164.24 299.48C164.256 299.16 164.384 298.896 164.624 298.688C164.864 298.48 165.144 298.376 165.464 298.376H174.776L175.352 300.416H166.328L166.784 299.984V300.584C166.832 301.144 167.024 301.64 167.36 302.072C167.696 302.488 168.104 302.816 168.584 303.056C169.08 303.28 169.6 303.392 170.144 303.392C170.624 303.392 171.088 303.32 171.536 303.176C171.984 303.016 172.376 302.768 172.712 302.432C173.048 302.096 173.32 301.656 173.528 301.112C173.736 300.552 173.84 299.864 173.84 299.048C173.84 298.168 173.656 297.4 173.288 296.744C172.92 296.088 172.424 295.584 171.8 295.232C171.176 294.864 170.48 294.68 169.712 294.68C169.136 294.68 168.656 294.744 168.272 294.872C167.888 294.984 167.568 295.128 167.312 295.304C167.056 295.48 166.832 295.648 166.64 295.808C166.384 295.952 166.144 296.024 165.92 296.024C165.632 296.024 165.392 295.928 165.2 295.736C165.008 295.528 164.912 295.288 164.912 295.016C164.912 294.664 165.088 294.344 165.44 294.056C165.872 293.64 166.464 293.272 167.216 292.952C167.984 292.632 168.784 292.472 169.616 292.472ZM178.575 292.52H184.215C184.535 292.52 184.799 292.632 185.007 292.856C185.231 293.064 185.343 293.328 185.343 293.648C185.343 293.952 185.231 294.208 185.007 294.416C184.799 294.624 184.535 294.728 184.215 294.728H178.575C178.255 294.728 177.983 294.624 177.759 294.416C177.551 294.192 177.447 293.928 177.447 293.624C177.447 293.304 177.551 293.04 177.759 292.832C177.983 292.624 178.255 292.52 178.575 292.52ZM181.095 289.4C181.447 289.4 181.735 289.52 181.959 289.76C182.183 289.984 182.295 290.272 182.295 290.624V301.76C182.295 302.048 182.343 302.28 182.439 302.456C182.535 302.632 182.663 302.752 182.823 302.816C182.999 302.88 183.175 302.912 183.351 302.912C183.527 302.912 183.679 302.88 183.807 302.816C183.951 302.752 184.119 302.72 184.311 302.72C184.503 302.72 184.679 302.808 184.839 302.984C184.999 303.16 185.079 303.4 185.079 303.704C185.079 304.088 184.871 304.4 184.455 304.64C184.039 304.88 183.591 305 183.111 305C182.839 305 182.519 304.976 182.151 304.928C181.783 304.88 181.423 304.76 181.071 304.568C180.735 304.376 180.455 304.072 180.23 303.656C180.007 303.224 179.895 302.624 179.895 301.856V290.624C179.895 290.272 180.007 289.984 180.23 289.76C180.47 289.52 180.759 289.4 181.095 289.4ZM198.248 292.184C198.584 292.184 198.864 292.304 199.088 292.544C199.328 292.768 199.448 293.056 199.448 293.408V303.776C199.448 304.128 199.328 304.424 199.088 304.664C198.864 304.888 198.584 305 198.248 305C197.896 305 197.608 304.888 197.384 304.664C197.16 304.424 197.048 304.128 197.048 303.776V302.048L197.528 302.12C197.528 302.408 197.408 302.728 197.168 303.08C196.944 303.432 196.632 303.776 196.232 304.112C195.832 304.432 195.36 304.704 194.816 304.928C194.272 305.136 193.688 305.24 193.064 305.24C191.96 305.24 190.968 304.96 190.088 304.4C189.208 303.824 188.512 303.04 188 302.048C187.488 301.056 187.232 299.928 187.232 298.664C187.232 297.368 187.488 296.232 188 295.256C188.512 294.264 189.2 293.488 190.064 292.928C190.944 292.368 191.92 292.088 192.992 292.088C193.68 292.088 194.312 292.2 194.888 292.424C195.48 292.648 195.992 292.936 196.424 293.288C196.856 293.64 197.192 294.016 197.432 294.416C197.672 294.8 197.792 295.168 197.792 295.52L197.048 295.592V293.408C197.048 293.072 197.16 292.784 197.384 292.544C197.608 292.304 197.896 292.184 198.248 292.184ZM193.352 303.032C194.104 303.032 194.76 302.84 195.32 302.456C195.896 302.072 196.344 301.552 196.664 300.896C196.984 300.224 197.144 299.48 197.144 298.664C197.144 297.832 196.984 297.088 196.664 296.432C196.344 295.776 195.896 295.256 195.32 294.872C194.76 294.488 194.104 294.296 193.352 294.296C192.616 294.296 191.96 294.488 191.384 294.872C190.808 295.256 190.36 295.776 190.04 296.432C189.72 297.088 189.56 297.832 189.56 298.664C189.56 299.48 189.72 300.224 190.04 300.896C190.36 301.552 190.8 302.072 191.36 302.456C191.936 302.84 192.6 303.032 193.352 303.032ZM215.829 292.088C216.949 292.088 217.941 292.368 218.805 292.928C219.685 293.488 220.381 294.264 220.893 295.256C221.405 296.232 221.661 297.36 221.661 298.64C221.661 299.92 221.405 301.056 220.893 302.048C220.381 303.04 219.693 303.824 218.829 304.4C217.965 304.96 216.989 305.24 215.901 305.24C215.293 305.24 214.717 305.144 214.173 304.952C213.629 304.744 213.149 304.488 212.733 304.184C212.317 303.864 211.973 303.528 211.701 303.176C211.445 302.824 211.285 302.496 211.221 302.192L211.869 301.88V303.968C211.869 304.304 211.749 304.592 211.509 304.832C211.285 305.056 211.005 305.168 210.669 305.168C210.317 305.168 210.029 305.056 209.805 304.832C209.581 304.608 209.469 304.32 209.469 303.968V288.464C209.469 288.112 209.581 287.824 209.805 287.6C210.029 287.36 210.317 287.24 210.669 287.24C211.005 287.24 211.285 287.36 211.509 287.6C211.749 287.824 211.869 288.112 211.869 288.464V295.208L211.485 294.992C211.533 294.688 211.685 294.376 211.941 294.056C212.197 293.72 212.517 293.4 212.901 293.096C213.301 292.792 213.749 292.552 214.245 292.376C214.757 292.184 215.285 292.088 215.829 292.088ZM215.565 294.296C214.797 294.296 214.125 294.488 213.549 294.872C212.989 295.256 212.549 295.776 212.229 296.432C211.909 297.072 211.749 297.808 211.749 298.64C211.749 299.472 211.909 300.224 212.229 300.896C212.549 301.552 212.989 302.072 213.549 302.456C214.125 302.84 214.797 303.032 215.565 303.032C216.317 303.032 216.973 302.84 217.533 302.456C218.093 302.072 218.533 301.544 218.853 300.872C219.189 300.2 219.357 299.456 219.357 298.64C219.357 297.808 219.189 297.072 218.853 296.432C218.533 295.776 218.093 295.256 217.533 294.872C216.973 294.488 216.317 294.296 215.565 294.296ZM234.506 292.184C234.842 292.184 235.122 292.304 235.346 292.544C235.586 292.768 235.706 293.056 235.706 293.408V303.776C235.706 304.128 235.586 304.424 235.346 304.664C235.122 304.888 234.842 305 234.506 305C234.154 305 233.866 304.888 233.642 304.664C233.418 304.424 233.306 304.128 233.306 303.776V302.048L233.786 302.12C233.786 302.408 233.666 302.728 233.426 303.08C233.202 303.432 232.89 303.776 232.49 304.112C232.09 304.432 231.618 304.704 231.074 304.928C230.53 305.136 229.946 305.24 229.322 305.24C228.218 305.24 227.226 304.96 226.346 304.4C225.466 303.824 224.77 303.04 224.258 302.048C223.746 301.056 223.49 299.928 223.49 298.664C223.49 297.368 223.746 296.232 224.258 295.256C224.77 294.264 225.458 293.488 226.322 292.928C227.202 292.368 228.178 292.088 229.25 292.088C229.938 292.088 230.57 292.2 231.146 292.424C231.738 292.648 232.25 292.936 232.682 293.288C233.114 293.64 233.45 294.016 233.69 294.416C233.93 294.8 234.05 295.168 234.05 295.52L233.306 295.592V293.408C233.306 293.072 233.418 292.784 233.642 292.544C233.866 292.304 234.154 292.184 234.506 292.184ZM229.61 303.032C230.362 303.032 231.018 302.84 231.578 302.456C232.154 302.072 232.602 301.552 232.922 300.896C233.242 300.224 233.402 299.48 233.402 298.664C233.402 297.832 233.242 297.088 232.922 296.432C232.602 295.776 232.154 295.256 231.578 294.872C231.018 294.488 230.362 294.296 229.61 294.296C228.874 294.296 228.218 294.488 227.642 294.872C227.066 295.256 226.618 295.776 226.298 296.432C225.978 297.088 225.818 297.832 225.818 298.664C225.818 299.48 225.978 300.224 226.298 300.896C226.618 301.552 227.058 302.072 227.618 302.456C228.194 302.84 228.858 303.032 229.61 303.032ZM238.303 303.032C238.159 302.808 238.095 302.552 238.111 302.264C238.127 301.96 238.295 301.704 238.615 301.496C238.839 301.352 239.071 301.296 239.311 301.328C239.567 301.344 239.807 301.464 240.031 301.688C240.479 302.184 240.975 302.576 241.519 302.864C242.079 303.152 242.751 303.296 243.535 303.296C243.855 303.28 244.183 303.232 244.519 303.152C244.855 303.056 245.143 302.896 245.383 302.672C245.623 302.432 245.743 302.088 245.743 301.64C245.743 301.24 245.615 300.92 245.359 300.68C245.103 300.44 244.767 300.248 244.351 300.104C243.935 299.944 243.487 299.8 243.007 299.672C242.495 299.528 241.975 299.368 241.447 299.192C240.935 299.016 240.471 298.792 240.055 298.52C239.639 298.232 239.295 297.864 239.023 297.416C238.767 296.968 238.639 296.416 238.639 295.76C238.639 295.008 238.847 294.36 239.263 293.816C239.695 293.272 240.247 292.848 240.919 292.544C241.607 292.24 242.351 292.088 243.151 292.088C243.615 292.088 244.103 292.152 244.615 292.28C245.127 292.392 245.623 292.576 246.103 292.832C246.583 293.088 246.999 293.424 247.351 293.84C247.511 294.048 247.599 294.296 247.615 294.584C247.647 294.872 247.519 295.128 247.231 295.352C247.039 295.512 246.807 295.584 246.535 295.568C246.263 295.552 246.039 295.464 245.863 295.304C245.559 294.92 245.167 294.624 244.687 294.416C244.207 294.192 243.663 294.08 243.055 294.08C242.751 294.08 242.431 294.128 242.095 294.224C241.775 294.304 241.503 294.456 241.279 294.68C241.055 294.904 240.943 295.232 240.943 295.664C240.943 296.064 241.071 296.384 241.327 296.624C241.599 296.864 241.951 297.064 242.383 297.224C242.815 297.384 243.287 297.528 243.799 297.656C244.295 297.784 244.783 297.936 245.263 298.112C245.759 298.288 246.199 298.52 246.583 298.808C246.983 299.08 247.303 299.44 247.543 299.888C247.799 300.32 247.927 300.872 247.927 301.544C247.927 302.328 247.695 303 247.231 303.56C246.783 304.104 246.207 304.52 245.503 304.808C244.815 305.096 244.087 305.24 243.319 305.24C242.407 305.24 241.495 305.08 240.583 304.76C239.687 304.424 238.927 303.848 238.303 303.032ZM242.671 308.552C242.527 308.552 242.343 308.512 242.119 308.432C241.895 308.352 241.695 308.24 241.519 308.096C241.359 307.952 241.279 307.776 241.279 307.568C241.279 307.36 241.359 307.152 241.519 306.944L243.463 304.4H244.927L243.535 307.904C243.359 308.336 243.071 308.552 242.671 308.552ZM257.476 292.256C257.716 292.256 257.94 292.32 258.148 292.448C258.372 292.576 258.532 292.768 258.628 293.024L262.396 301.736L261.94 301.952L265.756 293.048C265.98 292.52 266.34 292.264 266.836 292.28C267.156 292.28 267.42 292.384 267.628 292.592C267.852 292.784 267.964 293.04 267.964 293.36C267.964 293.456 267.948 293.56 267.916 293.672C267.884 293.768 267.844 293.864 267.796 293.96L263.236 304.232C263.028 304.712 262.684 304.968 262.204 305C261.964 305.032 261.724 304.984 261.484 304.856C261.26 304.712 261.084 304.504 260.956 304.232L256.42 293.96C256.388 293.896 256.356 293.816 256.324 293.72C256.292 293.608 256.276 293.48 256.276 293.336C256.276 293.096 256.38 292.856 256.588 292.616C256.812 292.376 257.108 292.256 257.476 292.256ZM276.049 305.24C274.737 305.24 273.585 304.968 272.593 304.424C271.617 303.864 270.857 303.104 270.313 302.144C269.785 301.168 269.521 300.056 269.521 298.808C269.521 297.4 269.801 296.2 270.361 295.208C270.937 294.2 271.681 293.432 272.593 292.904C273.521 292.36 274.497 292.088 275.521 292.088C276.289 292.088 277.025 292.248 277.729 292.568C278.449 292.872 279.081 293.304 279.625 293.864C280.169 294.408 280.601 295.056 280.921 295.808C281.241 296.544 281.409 297.352 281.425 298.232C281.409 298.552 281.281 298.816 281.041 299.024C280.801 299.232 280.521 299.336 280.201 299.336H270.889L270.313 297.296H279.337L278.881 297.728V297.128C278.833 296.568 278.641 296.08 278.305 295.664C277.969 295.232 277.553 294.904 277.057 294.68C276.577 294.44 276.065 294.32 275.521 294.32C275.041 294.32 274.577 294.4 274.129 294.56C273.681 294.704 273.289 294.944 272.953 295.28C272.617 295.616 272.345 296.064 272.137 296.624C271.929 297.168 271.825 297.848 271.825 298.664C271.825 299.544 272.009 300.312 272.377 300.968C272.745 301.624 273.241 302.136 273.865 302.504C274.489 302.856 275.185 303.032 275.953 303.032C276.529 303.032 277.009 302.976 277.393 302.864C277.777 302.736 278.097 302.584 278.353 302.408C278.609 302.232 278.833 302.064 279.025 301.904C279.281 301.76 279.521 301.688 279.745 301.688C280.033 301.688 280.273 301.792 280.465 302C280.657 302.192 280.753 302.424 280.753 302.696C280.753 303.048 280.577 303.368 280.225 303.656C279.793 304.072 279.193 304.44 278.425 304.76C277.673 305.08 276.881 305.24 276.049 305.24ZM285.224 305C284.872 305 284.584 304.888 284.36 304.664C284.136 304.424 284.024 304.128 284.024 303.776V293.6C284.024 293.248 284.136 292.96 284.36 292.736C284.584 292.496 284.872 292.376 285.224 292.376C285.56 292.376 285.84 292.496 286.064 292.736C286.304 292.96 286.424 293.248 286.424 293.6V296.288L286.184 295.256C286.312 294.808 286.504 294.392 286.76 294.008C287.032 293.624 287.352 293.288 287.72 293C288.088 292.712 288.496 292.488 288.944 292.328C289.408 292.168 289.888 292.088 290.384 292.088C290.8 292.088 291.16 292.2 291.464 292.424C291.768 292.648 291.92 292.928 291.92 293.264C291.92 293.696 291.808 294.016 291.584 294.224C291.36 294.416 291.112 294.512 290.84 294.512C290.6 294.512 290.368 294.464 290.144 294.368C289.92 294.256 289.656 294.2 289.352 294.2C289.016 294.2 288.672 294.288 288.32 294.464C287.968 294.64 287.648 294.904 287.36 295.256C287.072 295.592 286.84 295.992 286.664 296.456C286.504 296.92 286.424 297.44 286.424 298.016V303.776C286.424 304.128 286.304 304.424 286.064 304.664C285.84 304.888 285.56 305 285.224 305ZM303.764 287.24C304.1 287.24 304.38 287.352 304.604 287.576C304.844 287.8 304.964 288.096 304.964 288.464V303.776C304.964 304.128 304.844 304.424 304.604 304.664C304.38 304.888 304.1 305 303.764 305C303.412 305 303.124 304.888 302.9 304.664C302.676 304.424 302.564 304.128 302.564 303.776V302.048L303.044 302.072C303.044 302.36 302.924 302.688 302.684 303.056C302.46 303.408 302.148 303.752 301.748 304.088C301.348 304.424 300.876 304.704 300.332 304.928C299.788 305.136 299.204 305.24 298.58 305.24C297.492 305.24 296.5 304.96 295.604 304.4C294.724 303.824 294.028 303.048 293.516 302.072C293.004 301.08 292.748 299.944 292.748 298.664C292.748 297.384 293.004 296.256 293.516 295.28C294.028 294.288 294.716 293.512 295.58 292.952C296.46 292.376 297.436 292.088 298.508 292.088C299.18 292.088 299.804 292.2 300.38 292.424C300.972 292.648 301.484 292.936 301.916 293.288C302.348 293.64 302.684 294.016 302.924 294.416C303.18 294.8 303.308 295.168 303.308 295.52L302.564 295.592V288.464C302.564 288.112 302.676 287.824 302.9 287.6C303.124 287.36 303.412 287.24 303.764 287.24ZM298.868 303.032C299.62 303.032 300.276 302.84 300.836 302.456C301.412 302.072 301.86 301.552 302.18 300.896C302.5 300.24 302.66 299.496 302.66 298.664C302.66 297.832 302.5 297.088 302.18 296.432C301.86 295.776 301.412 295.256 300.836 294.872C300.276 294.488 299.62 294.296 298.868 294.296C298.132 294.296 297.476 294.488 296.9 294.872C296.324 295.256 295.876 295.776 295.556 296.432C295.236 297.088 295.076 297.832 295.076 298.664C295.076 299.496 295.236 300.24 295.556 300.896C295.876 301.552 296.324 302.072 296.9 302.456C297.476 302.84 298.132 303.032 298.868 303.032ZM310.561 303.776C310.561 304.128 310.449 304.424 310.225 304.664C310.001 304.888 309.713 305 309.361 305C309.025 305 308.737 304.888 308.497 304.664C308.273 304.424 308.161 304.128 308.161 303.776V293.504C308.161 293.152 308.273 292.864 308.497 292.64C308.737 292.4 309.025 292.28 309.361 292.28C309.713 292.28 310.001 292.4 310.225 292.64C310.449 292.864 310.561 293.152 310.561 293.504V303.776ZM309.337 290.696C308.873 290.696 308.537 290.616 308.329 290.456C308.121 290.28 308.017 289.992 308.017 289.592V289.208C308.017 288.808 308.129 288.528 308.353 288.368C308.577 288.208 308.913 288.128 309.361 288.128C309.841 288.128 310.185 288.216 310.393 288.392C310.601 288.552 310.705 288.824 310.705 289.208V289.592C310.705 290.008 310.593 290.296 310.369 290.456C310.161 290.616 309.817 290.696 309.337 290.696ZM314.989 299.888C314.525 299.888 314.277 299.632 314.245 299.12L313.693 289.688C313.661 289.272 313.765 288.92 314.005 288.632C314.245 288.344 314.573 288.2 314.989 288.2C315.389 288.2 315.709 288.344 315.949 288.632C316.205 288.92 316.309 289.272 316.261 289.688L315.733 299.12C315.701 299.632 315.453 299.888 314.989 299.888ZM314.869 305C314.469 305 314.157 304.888 313.933 304.664C313.725 304.44 313.621 304.128 313.621 303.728V303.296C313.621 302.88 313.725 302.568 313.933 302.36C314.157 302.136 314.469 302.024 314.869 302.024H315.109C315.525 302.024 315.837 302.136 316.045 302.36C316.253 302.568 316.357 302.88 316.357 303.296V303.728C316.357 304.128 316.253 304.44 316.045 304.664C315.837 304.888 315.525 305 315.109 305H314.869Z" fill="#272122"/>
<path d="M146.585 77.7557C146.419 77.5806 146.335 77.3388 146.335 77.0303V62.7991C146.335 62.4906 146.419 62.2489 146.585 62.0738C146.752 61.8987 146.994 61.807 147.302 61.807C147.61 61.807 147.852 61.8987 148.027 62.0738C148.202 62.2489 148.294 62.4906 148.294 62.7991L148.319 69.2519C149.443 67.9347 150.893 67.2677 152.66 67.2677C154.384 67.2677 155.751 67.7513 156.751 68.71C157.751 69.6688 158.25 70.986 158.25 72.6451C158.25 74.3458 157.759 75.6631 156.776 76.6052C155.792 77.5472 154.409 78.0141 152.626 78.0141C151.701 78.0141 150.885 77.8474 150.185 77.5222C149.485 77.1888 148.86 76.6802 148.31 75.9966V77.0303C148.31 77.3388 148.219 77.5806 148.044 77.7557C147.869 77.9307 147.627 78.0224 147.319 78.0224C146.994 78.0141 146.752 77.9307 146.585 77.7557ZM155.293 75.438C155.951 74.796 156.284 73.8706 156.284 72.6451C156.284 71.4612 155.942 70.5442 155.251 69.8856C154.559 69.2269 153.618 68.8934 152.41 68.8934C151.61 68.8934 150.893 69.0519 150.268 69.3687C149.643 69.6855 149.16 70.1273 148.818 70.6942C148.477 71.2612 148.302 71.9114 148.302 72.6451C148.302 73.8123 148.668 74.7293 149.402 75.3963C150.135 76.0633 151.135 76.3967 152.418 76.3967C153.668 76.3967 154.626 76.0716 155.293 75.438Z" fill="#272122"/>
<path d="M161.158 77.0888C160.367 76.4719 159.967 75.6382 159.967 74.5794C159.967 73.5289 160.383 72.6869 161.217 72.0699C162.05 71.453 163.191 71.1445 164.641 71.1445C165.399 71.1445 166.074 71.2446 166.674 71.4363C167.274 71.6364 167.749 71.9032 168.116 72.2367V71.1862C168.116 70.4275 167.874 69.844 167.391 69.4438C166.907 69.0436 166.191 68.8435 165.249 68.8435C164 68.8435 162.916 69.1353 162.008 69.7106C161.742 69.869 161.508 69.944 161.317 69.944C161.133 69.944 160.95 69.869 160.767 69.7106C160.608 69.5522 160.533 69.3771 160.533 69.1603C160.533 68.9185 160.65 68.7018 160.892 68.51C161.4 68.1265 162.033 67.8264 162.808 67.6013C163.583 67.3762 164.391 67.2678 165.233 67.2678C166.766 67.2678 167.957 67.618 168.816 68.3099C169.674 69.0019 170.099 69.9773 170.099 71.2279V77.0638C170.099 77.3723 170.015 77.6057 169.857 77.7724C169.699 77.9308 169.457 78.0142 169.149 78.0142C168.841 78.0142 168.599 77.9308 168.432 77.7724C168.266 77.614 168.182 77.3889 168.182 77.1055V76.5135C167.341 77.514 166.074 78.0142 164.391 78.0142C163.025 78.0142 161.95 77.7057 161.158 77.0888ZM167.207 75.9633C167.832 75.5881 168.149 75.1046 168.149 74.496C168.149 73.9041 167.849 73.4455 167.257 73.1121C166.658 72.7786 165.833 72.6202 164.783 72.6202C163.866 72.6202 163.166 72.7869 162.675 73.1287C162.183 73.4622 161.933 73.9541 161.933 74.5794C161.933 75.1963 162.175 75.6798 162.658 76.0133C163.141 76.3468 163.833 76.5219 164.733 76.5219C165.758 76.5219 166.583 76.3385 167.207 75.9633Z" fill="#272122"/>
<path d="M173.29 77.7557C173.132 77.5806 173.048 77.3388 173.048 77.0303V62.7991C173.048 62.474 173.132 62.2322 173.29 62.0571C173.448 61.8904 173.69 61.807 173.998 61.807C174.306 61.807 174.548 61.8987 174.723 62.0738C174.898 62.2489 174.99 62.4906 174.99 62.7991V77.0303C174.99 77.3388 174.898 77.5806 174.723 77.7557C174.548 77.9307 174.306 78.0224 173.998 78.0224C173.69 78.0141 173.457 77.9307 173.29 77.7557Z" fill="#272122"/>
<path d="M179.131 76.5969C178.114 75.6465 177.606 74.3293 177.606 72.6452C177.606 70.9694 178.106 69.6605 179.114 68.7018C180.122 67.743 181.514 67.2678 183.297 67.2678C184.397 67.2678 185.363 67.4429 186.213 67.7847C187.063 68.1265 187.73 68.6101 188.204 69.2354C188.679 69.8606 188.921 70.5776 188.921 71.378C188.921 71.9949 188.746 72.4701 188.388 72.8119C188.03 73.1454 187.521 73.3205 186.863 73.3205H179.547C179.547 74.3042 179.881 75.0712 180.547 75.6048C181.214 76.1467 182.164 76.4135 183.405 76.4135C184.138 76.4135 184.772 76.3385 185.313 76.1801C185.855 76.0217 186.363 75.7716 186.838 75.4214C187.188 75.1796 187.455 75.0629 187.638 75.0629C187.805 75.0629 187.963 75.1296 188.104 75.2713C188.304 75.4714 188.396 75.6715 188.396 75.8799C188.396 76.0884 188.296 76.2884 188.104 76.4719C186.955 77.4973 185.388 78.0142 183.405 78.0142C181.572 78.0142 180.147 77.539 179.131 76.5969ZM186.263 71.8365C186.513 71.8365 186.696 71.7865 186.813 71.6864C186.921 71.5864 186.98 71.4113 186.98 71.1612C186.98 70.4859 186.638 69.9357 185.955 69.5021C185.272 69.077 184.388 68.8602 183.288 68.8602C182.147 68.8602 181.247 69.127 180.581 69.6605C179.914 70.1941 179.581 70.9194 179.581 71.8282H186.263V71.8365Z" fill="#272122"/>
<path d="M193.404 77.2973C192.504 76.822 191.821 76.1718 191.346 75.3547C190.871 74.5377 190.637 73.6373 190.637 72.6369C190.637 71.6364 190.871 70.736 191.346 69.919C191.812 69.102 192.504 68.46 193.404 67.9765C194.304 67.5013 195.362 67.2595 196.587 67.2595C197.811 67.2595 198.87 67.5013 199.761 67.9765C200.653 68.4517 201.336 69.102 201.803 69.919C202.269 70.736 202.511 71.6448 202.511 72.6369C202.511 73.6373 202.277 74.5377 201.803 75.3547C201.336 76.1718 200.653 76.8137 199.761 77.2973C198.87 77.7725 197.811 78.0142 196.587 78.0142C195.362 78.0142 194.304 77.7808 193.404 77.2973ZM199.478 75.4048C200.194 74.7461 200.553 73.8207 200.553 72.6452C200.553 71.4614 200.194 70.5443 199.478 69.8857C198.761 69.2271 197.803 68.8936 196.595 68.8936C195.387 68.8936 194.42 69.2271 193.695 69.8857C192.97 70.5443 192.612 71.4697 192.612 72.6452C192.612 73.8291 192.97 74.7461 193.695 75.4048C194.42 76.0634 195.387 76.3969 196.595 76.3969C197.795 76.3969 198.761 76.0634 199.478 75.4048Z" fill="#272122"/>
<path d="M204.669 77.7558C204.511 77.5807 204.427 77.3389 204.427 77.0305V68.26C204.427 67.6013 204.744 67.2679 205.377 67.2679C205.669 67.2679 205.902 67.3596 206.069 67.5346C206.235 67.7097 206.319 67.9515 206.319 68.26V69.2854C207.36 67.9348 208.768 67.2595 210.551 67.2595C211.901 67.2595 212.943 67.6514 213.684 68.4267C214.426 69.2104 214.792 70.3109 214.792 71.7281V77.0221C214.792 77.3306 214.701 77.5724 214.526 77.7475C214.351 77.9225 214.118 78.0142 213.818 78.0142C213.509 78.0142 213.268 77.9225 213.101 77.7475C212.934 77.5724 212.851 77.3306 212.851 77.0221V71.7281C212.851 70.7861 212.626 70.0774 212.184 69.6022C211.743 69.127 211.085 68.8852 210.218 68.8852C209.035 68.8852 208.102 69.2354 207.402 69.9274C206.71 70.6193 206.36 71.5614 206.36 72.7453V77.0221C206.36 77.3306 206.269 77.5724 206.094 77.7475C205.919 77.9225 205.677 78.0142 205.369 78.0142C205.06 78.0142 204.827 77.9309 204.669 77.7558Z" fill="#272122"/>
<path d="M217.7 65C217.45 64.7666 217.317 64.4748 217.317 64.1247C217.317 63.7745 217.442 63.4744 217.7 63.2409C217.95 62.9992 218.258 62.8824 218.625 62.8824C219.017 62.8824 219.342 62.9992 219.608 63.2409C219.867 63.4827 220 63.7745 220 64.1247C220 64.4581 219.867 64.7499 219.608 64.9917C219.35 65.2335 219.025 65.3502 218.625 65.3502C218.258 65.3502 217.95 65.2335 217.7 65ZM217.933 77.7556C217.767 77.5806 217.684 77.3388 217.684 77.0303V68.2598C217.684 67.9513 217.767 67.7096 217.933 67.5345C218.1 67.3594 218.342 67.2677 218.65 67.2677C218.958 67.2677 219.2 67.3594 219.367 67.5345C219.533 67.7096 219.617 67.9513 219.617 68.2598V77.0303C219.617 77.3388 219.533 77.5806 219.367 77.7556C219.2 77.9307 218.958 78.0224 218.65 78.0224C218.342 78.0141 218.1 77.9307 217.933 77.7556Z" fill="#272122"/>
<mask id="mask0_112_53" style="mask-type:alpha" maskUnits="userSpaceOnUse" x="107" y="51" width="35" height="39">
<path d="M121.077 52.307L110.122 58.6352C108.213 59.7421 107.038 61.7797 107.038 63.9838V76.6401C107.038 78.8442 108.213 80.8915 110.122 81.9887L121.077 88.3169C122.986 89.4238 125.346 89.4238 127.255 88.3169L138.21 81.9887C140.119 80.8817 141.294 78.8442 141.294 76.6401V63.9838C141.294 61.7797 140.119 59.7323 138.21 58.6352L127.255 52.307C126.295 51.7584 125.228 51.4744 124.171 51.4744C123.113 51.4744 122.037 51.7487 121.077 52.307Z" fill="white"/>
</mask>
<g mask="url(#mask0_112_53)">
<mask id="mask1_112_53" style="mask-type:alpha" maskUnits="userSpaceOnUse" x="88" y="34" width="73" height="73">
<path d="M124.166 34.3305L88.0637 70.4532L124.166 106.576L160.267 70.4532L124.166 34.3305Z" fill="white"/>
</mask>
<g mask="url(#mask1_112_53)">
<path d="M88.0642 60.2318L134.382 106.576H88.0642V60.2318Z" fill="#FF5B00"/>
</g>
<mask id="mask2_112_53" style="mask-type:alpha" maskUnits="userSpaceOnUse" x="88" y="34" width="73" height="73">
<path d="M124.166 34.3305L88.0637 70.4532L124.166 106.576L160.267 70.4532L124.166 34.3305Z" fill="white"/>
</mask>
<g mask="url(#mask2_112_53)">
<path d="M88.0642 59.4286L135.185 106.576H134.382L88.0642 60.2319V59.4286Z" fill="#FF5B00"/>
</g>
<mask id="mask3_112_53" style="mask-type:alpha" maskUnits="userSpaceOnUse" x="88" y="34" width="73" height="73">
<path d="M124.166 34.3305L88.0637 70.4532L124.166 106.576L160.267 70.4532L124.166 34.3305Z" fill="white"/>
</mask>
<g mask="url(#mask3_112_53)">
<path d="M88.0642 58.6254L135.988 106.576H135.185L88.0642 59.4286V58.6254Z" fill="#FF5C00"/>
</g>
<mask id="mask4_112_53" style="mask-type:alpha" maskUnits="userSpaceOnUse" x="88" y="34" width="73" height="73">
<path d="M124.166 34.3305L88.0637 70.4532L124.166 106.576L160.267 70.4532L124.166 34.3305Z" fill="white"/>
</mask>
<g mask="url(#mask4_112_53)">
<path d="M88.0642 57.822L136.79 106.576H135.988L88.0642 58.6253V57.822Z" fill="#FF5D00"/>
</g>
<mask id="mask5_112_53" style="mask-type:alpha" maskUnits="userSpaceOnUse" x="88" y="34" width="73" height="73">
<path d="M124.166 34.3305L88.0637 70.4532L124.166 106.576L160.267 70.4532L124.166 34.3305Z" fill="white"/>
</mask>
<g mask="url(#mask5_112_53)">
<path d="M88.0642 57.0188L137.583 106.576H136.79L88.0642 57.8221V57.0188Z" fill="#FF5E00"/>
</g>
<mask id="mask6_112_53" style="mask-type:alpha" maskUnits="userSpaceOnUse" x="88" y="34" width="73" height="73">
<path d="M124.166 34.3305L88.0637 70.4532L124.166 106.576L160.267 70.4532L124.166 34.3305Z" fill="white"/>
</mask>
<g mask="url(#mask6_112_53)">
<path d="M88.0642 56.2253L138.386 106.576H137.583L88.0642 57.0188V56.2253Z" fill="#FF5F00"/>
</g>
<mask id="mask7_112_53" style="mask-type:alpha" maskUnits="userSpaceOnUse" x="88" y="34" width="73" height="73">
<path d="M124.166 34.3305L88.0637 70.4532L124.166 106.576L160.267 70.4532L124.166 34.3305Z" fill="white"/>
</mask>
<g mask="url(#mask7_112_53)">
<path d="M88.0642 55.4221L139.189 106.576H138.386L88.0642 56.2254V55.4221Z" fill="#FF6000"/>
</g>
<mask id="mask8_112_53" style="mask-type:alpha" maskUnits="userSpaceOnUse" x="88" y="34" width="73" height="73">
<path d="M124.166 34.3305L88.0637 70.4532L124.166 106.576L160.267 70.4532L124.166 34.3305Z" fill="white"/>
</mask>
<g mask="url(#mask8_112_53)">
<path d="M88.0642 54.6188L139.992 106.576H139.189L88.0642 55.422V54.6188Z" fill="#FF6100"/>
</g>
<mask id="mask9_112_53" style="mask-type:alpha" maskUnits="userSpaceOnUse" x="88" y="34" width="73" height="73">
<path d="M124.166 34.3305L88.0637 70.4532L124.166 106.576L160.267 70.4532L124.166 34.3305Z" fill="white"/>
</mask>
<g mask="url(#mask9_112_53)">
<path d="M88.0642 53.8156L140.785 106.576H139.992L88.0642 54.6188V53.8156Z" fill="#FF6200"/>
</g>
<mask id="mask10_112_53" style="mask-type:alpha" maskUnits="userSpaceOnUse" x="88" y="34" width="73" height="73">
<path d="M124.166 34.3305L88.0637 70.4532L124.166 106.576L160.267 70.4532L124.166 34.3305Z" fill="white"/>
</mask>
<g mask="url(#mask10_112_53)">
<path d="M88.0642 53.022L141.588 106.576H140.785L88.0642 53.8154V53.022Z" fill="#FF6300"/>
</g>
<mask id="mask11_112_53" style="mask-type:alpha" maskUnits="userSpaceOnUse" x="88" y="34" width="73" height="73">
<path d="M124.166 34.3305L88.0637 70.4532L124.166 106.576L160.267 70.4532L124.166 34.3305Z" fill="white"/>
</mask>
<g mask="url(#mask11_112_53)">
<path d="M88.0642 52.2188L142.39 106.576H141.588L88.0642 53.022V52.2188Z" fill="#FF6400"/>
</g>
<mask id="mask12_112_53" style="mask-type:alpha" maskUnits="userSpaceOnUse" x="88" y="34" width="73" height="73">
<path d="M124.166 34.3305L88.0637 70.4532L124.166 106.576L160.267 70.4532L124.166 34.3305Z" fill="white"/>
</mask>
<g mask="url(#mask12_112_53)">
<path d="M88.0642 51.4154L143.193 106.576H142.39L88.0642 52.2187V51.4154Z" fill="#FF6500"/>
</g>
<mask id="mask13_112_53" style="mask-type:alpha" maskUnits="userSpaceOnUse" x="88" y="34" width="73" height="73">
<path d="M124.166 34.3305L88.0637 70.4532L124.166 106.576L160.267 70.4532L124.166 34.3305Z" fill="white"/>
</mask>
<g mask="url(#mask13_112_53)">
<path d="M88.0642 50.6122L143.996 106.576H143.193L88.0642 51.4154V50.6122Z" fill="#FF6600"/>
</g>
<mask id="mask14_112_53" style="mask-type:alpha" maskUnits="userSpaceOnUse" x="88" y="34" width="73" height="73">
<path d="M124.166 34.3305L88.0637 70.4532L124.166 106.576L160.267 70.4532L124.166 34.3305Z" fill="white"/>
</mask>
<g mask="url(#mask14_112_53)">
<path d="M88.0642 49.809L144.789 106.576H143.996L88.0642 50.6122V49.809Z" fill="#FF6700"/>
</g>
<mask id="mask15_112_53" style="mask-type:alpha" maskUnits="userSpaceOnUse" x="88" y="34" width="73" height="73">
<path d="M124.166 34.3305L88.0637 70.4532L124.166 106.576L160.267 70.4532L124.166 34.3305Z" fill="white"/>
</mask>
<g mask="url(#mask15_112_53)">
<path d="M88.0642 49.0154L145.592 106.576H144.789L88.0642 49.8089V49.0154Z" fill="#FF6800"/>
</g>
<mask id="mask16_112_53" style="mask-type:alpha" maskUnits="userSpaceOnUse" x="88" y="34" width="73" height="73">
<path d="M124.166 34.3305L88.0637 70.4532L124.166 106.576L160.267 70.4532L124.166 34.3305Z" fill="white"/>
</mask>
<g mask="url(#mask16_112_53)">
<path d="M88.0642 48.2123L146.395 106.576H145.592L88.0642 49.0155V48.2123Z" fill="#FF6900"/>
</g>
<mask id="mask17_112_53" style="mask-type:alpha" maskUnits="userSpaceOnUse" x="88" y="34" width="73" height="73">
<path d="M124.166 34.3305L88.0637 70.4532L124.166 106.576L160.267 70.4532L124.166 34.3305Z" fill="white"/>
</mask>
<g mask="url(#mask17_112_53)">
<path d="M88.0642 47.4089L147.197 106.576H146.395L88.0642 48.2122V47.4089Z" fill="#FF6A00"/>
</g>
<mask id="mask18_112_53" style="mask-type:alpha" maskUnits="userSpaceOnUse" x="88" y="34" width="73" height="73">
<path d="M124.166 34.3305L88.0637 70.4532L124.166 106.576L160.267 70.4532L124.166 34.3305Z" fill="white"/>
</mask>
<g mask="url(#mask18_112_53)">
<path d="M88.0642 46.6057L147.99 106.576H147.197L88.0642 47.409V46.6057Z" fill="#FF6B00"/>
</g>
<mask id="mask19_112_53" style="mask-type:alpha" maskUnits="userSpaceOnUse" x="88" y="34" width="73" height="73">
<path d="M124.166 34.3305L88.0637 70.4532L124.166 106.576L160.267 70.4532L124.166 34.3305Z" fill="white"/>
</mask>
<g mask="url(#mask19_112_53)">
<path d="M88.0642 45.8121L148.793 106.576H147.99L88.0642 46.6056V45.8121Z" fill="#FF6C00"/>
</g>
<mask id="mask20_112_53" style="mask-type:alpha" maskUnits="userSpaceOnUse" x="88" y="34" width="73" height="73">
<path d="M124.166 34.3305L88.0637 70.4532L124.166 106.576L160.267 70.4532L124.166 34.3305Z" fill="white"/>
</mask>
<g mask="url(#mask20_112_53)">
<path d="M88.0642 45.0089L149.596 106.576H148.793L88.0642 45.8122V45.0089Z" fill="#FF6D00"/>
</g>
<mask id="mask21_112_53" style="mask-type:alpha" maskUnits="userSpaceOnUse" x="88" y="34" width="73" height="73">
<path d="M124.166 34.3305L88.0637 70.4532L124.166 106.576L160.267 70.4532L124.166 34.3305Z" fill="white"/>
</mask>
<g mask="url(#mask21_112_53)">
<path d="M88.0642 44.2057L150.399 106.576H149.596L88.0642 45.009V44.2057Z" fill="#FF6E00"/>
</g>
<mask id="mask22_112_53" style="mask-type:alpha" maskUnits="userSpaceOnUse" x="88" y="34" width="73" height="73">
<path d="M124.166 34.3305L88.0637 70.4532L124.166 106.576L160.267 70.4532L124.166 34.3305Z" fill="white"/>
</mask>
<g mask="url(#mask22_112_53)">
<path d="M88.0642 43.4025L151.202 106.576H150.399L88.0642 44.2057V43.4025Z" fill="#FF6F00"/>
</g>
<mask id="mask23_112_53" style="mask-type:alpha" maskUnits="userSpaceOnUse" x="88" y="34" width="73" height="73">
<path d="M124.166 34.3305L88.0637 70.4532L124.166 106.576L160.267 70.4532L124.166 34.3305Z" fill="white"/>
</mask>
<g mask="url(#mask23_112_53)">
<path d="M88.0642 42.609L151.995 106.576H151.202L88.0642 43.4025V42.609Z" fill="#FF7000"/>
</g>
<mask id="mask24_112_53" style="mask-type:alpha" maskUnits="userSpaceOnUse" x="88" y="34" width="73" height="73">
<path d="M124.166 34.3305L88.0637 70.4532L124.166 106.576L160.267 70.4532L124.166 34.3305Z" fill="white"/>
</mask>
<g mask="url(#mask24_112_53)">
<path d="M88.0642 41.8058L152.797 106.576H151.995L88.0642 42.6091V41.8058Z" fill="#FF7100"/>
</g>
<mask id="mask25_112_53" style="mask-type:alpha" maskUnits="userSpaceOnUse" x="88" y="34" width="73" height="73">
<path d="M124.166 34.3305L88.0637 70.4532L124.166 106.576L160.267 70.4532L124.166 34.3305Z" fill="white"/>
</mask>
<g mask="url(#mask25_112_53)">
<path d="M88.0642 41.0024L153.6 106.576H152.797L88.0642 41.8057V41.0024Z" fill="#FF7200"/>
</g>
<mask id="mask26_112_53" style="mask-type:alpha" maskUnits="userSpaceOnUse" x="88" y="34" width="73" height="73">
<path d="M124.166 34.3305L88.0637 70.4532L124.166 106.576L160.267 70.4532L124.166 34.3305Z" fill="white"/>
</mask>
<g mask="url(#mask26_112_53)">
<path d="M88.0642 40.1992L154.403 106.576H153.6L88.0642 41.0025V40.1992Z" fill="#FF7300"/>
</g>
<mask id="mask27_112_53" style="mask-type:alpha" maskUnits="userSpaceOnUse" x="88" y="34" width="73" height="73">
<path d="M124.166 34.3305L88.0637 70.4532L124.166 106.576L160.267 70.4532L124.166 34.3305Z" fill="white"/>
</mask>
<g mask="url(#mask27_112_53)">
<path d="M88.0642 39.3959L155.196 106.576H154.403L88.0642 40.1991V39.3959Z" fill="#FF7400"/>
</g>
<mask id="mask28_112_53" style="mask-type:alpha" maskUnits="userSpaceOnUse" x="88" y="34" width="73" height="73">
<path d="M124.166 34.3305L88.0637 70.4532L124.166 106.576L160.267 70.4532L124.166 34.3305Z" fill="white"/>
</mask>
<g mask="url(#mask28_112_53)">
<path d="M88.0642 38.6025L155.999 106.577H155.196L88.0642 39.396V38.6025Z" fill="#FF7500"/>
</g>
<mask id="mask29_112_53" style="mask-type:alpha" maskUnits="userSpaceOnUse" x="88" y="34" width="73" height="73">
<path d="M124.166 34.3305L88.0637 70.4532L124.166 106.576L160.267 70.4532L124.166 34.3305Z" fill="white"/>
</mask>
<g mask="url(#mask29_112_53)">
<path d="M88.0642 37.7992L156.802 106.576H155.999L88.0642 38.6025V37.7992Z" fill="#FF7600"/>
</g>
<mask id="mask30_112_53" style="mask-type:alpha" maskUnits="userSpaceOnUse" x="88" y="34" width="73" height="73">
<path d="M124.166 34.3305L88.0637 70.4532L124.166 106.576L160.267 70.4532L124.166 34.3305Z" fill="white"/>
</mask>
<g mask="url(#mask30_112_53)">
<path d="M88.0642 36.996L157.604 106.576H156.802L88.0642 37.7992V36.996Z" fill="#FF7700"/>
</g>
<mask id="mask31_112_53" style="mask-type:alpha" maskUnits="userSpaceOnUse" x="88" y="34" width="73" height="73">
<path d="M124.166 34.3305L88.0637 70.4532L124.166 106.576L160.267 70.4532L124.166 34.3305Z" fill="white"/>
</mask>
<g mask="url(#mask31_112_53)">
<path d="M88.0642 36.1926L158.397 106.576H157.604L88.0642 36.9959V36.1926Z" fill="#FF7800"/>
</g>
<mask id="mask32_112_53" style="mask-type:alpha" maskUnits="userSpaceOnUse" x="88" y="34" width="73" height="73">
<path d="M124.166 34.3305L88.0637 70.4532L124.166 106.576L160.267 70.4532L124.166 34.3305Z" fill="white"/>
</mask>
<g mask="url(#mask32_112_53)">
<path d="M88.0642 35.3992L159.2 106.576H158.397L88.0642 36.1926V35.3992Z" fill="#FF7900"/>
</g>
<mask id="mask33_112_53" style="mask-type:alpha" maskUnits="userSpaceOnUse" x="88" y="34" width="73" height="73">
<path d="M124.166 34.3305L88.0637 70.4532L124.166 106.576L160.267 70.4532L124.166 34.3305Z" fill="white"/>
</mask>
<g mask="url(#mask33_112_53)">
<path d="M88.0642 34.5957L160.003 106.576H159.2L88.0642 35.399V34.5957Z" fill="#FF7A00"/>
</g>
<mask id="mask34_112_53" style="mask-type:alpha" maskUnits="userSpaceOnUse" x="88" y="34" width="73" height="73">
<path d="M124.166 34.3305L88.0637 70.4532L124.166 106.576L160.267 70.4532L124.166 34.3305Z" fill="white"/>
</mask>
<g mask="url(#mask34_112_53)">
<path d="M88.6027 34.3315L160.267 106.038V106.577H160.003L88.0642 34.596V34.3315H88.6027Z" fill="#FF7C00"/>
</g>
<mask id="mask35_112_53" style="mask-type:alpha" maskUnits="userSpaceOnUse" x="88" y="34" width="73" height="73">
<path d="M124.166 34.3305L88.0637 70.4532L124.166 106.576L160.267 70.4532L124.166 34.3305Z" fill="white"/>
</mask>
<g mask="url(#mask35_112_53)">
<path d="M89.4053 34.3314L160.267 105.234V106.038L88.6025 34.3314H89.4053Z" fill="#FF7D00"/>
</g>
<mask id="mask36_112_53" style="mask-type:alpha" maskUnits="userSpaceOnUse" x="88" y="34" width="73" height="73">
<path d="M124.166 34.3305L88.0637 70.4532L124.166 106.576L160.267 70.4532L124.166 34.3305Z" fill="white"/>
</mask>
<g mask="url(#mask36_112_53)">
<path d="M90.2081 34.3314L160.267 104.431V105.234L89.4053 34.3314H90.2081Z" fill="#FF7E00"/>
</g>
<mask id="mask37_112_53" style="mask-type:alpha" maskUnits="userSpaceOnUse" x="88" y="34" width="73" height="73">
<path d="M124.166 34.3305L88.0637 70.4532L124.166 106.576L160.267 70.4532L124.166 34.3305Z" fill="white"/>
</mask>
<g mask="url(#mask37_112_53)">
<path d="M91.0013 34.3314L160.267 103.638V104.431L90.2083 34.3314H91.0013Z" fill="#FF7F00"/>
</g>
<mask id="mask38_112_53" style="mask-type:alpha" maskUnits="userSpaceOnUse" x="88" y="34" width="73" height="73">
<path d="M124.166 34.3305L88.0637 70.4532L124.166 106.576L160.267 70.4532L124.166 34.3305Z" fill="white"/>
</mask>
<g mask="url(#mask38_112_53)">
<path d="M91.804 34.3314L160.267 102.834V103.638L91.0012 34.3314H91.804Z" fill="#FF8000"/>
</g>
<mask id="mask39_112_53" style="mask-type:alpha" maskUnits="userSpaceOnUse" x="88" y="34" width="73" height="73">
<path d="M124.166 34.3305L88.0637 70.4532L124.166 106.576L160.267 70.4532L124.166 34.3305Z" fill="white"/>
</mask>
<g mask="url(#mask39_112_53)">
<path d="M92.6068 34.3314L160.267 102.031V102.834L91.804 34.3314H92.6068Z" fill="#FF8100"/>
</g>
<mask id="mask40_112_53" style="mask-type:alpha" maskUnits="userSpaceOnUse" x="88" y="34" width="73" height="73">
<path d="M124.166 34.3305L88.0637 70.4532L124.166 106.576L160.267 70.4532L124.166 34.3305Z" fill="white"/>
</mask>
<g mask="url(#mask40_112_53)">
<path d="M93.4095 34.3314L160.267 101.228V102.031L92.6067 34.3314H93.4095Z" fill="#FF8200"/>
</g>
<mask id="mask41_112_53" style="mask-type:alpha" maskUnits="userSpaceOnUse" x="88" y="34" width="73" height="73">
<path d="M124.166 34.3305L88.0637 70.4532L124.166 106.576L160.267 70.4532L124.166 34.3305Z" fill="white"/>
</mask>
<g mask="url(#mask41_112_53)">
<path d="M94.2027 34.3314L160.267 100.425V101.228L93.4097 34.3314H94.2027Z" fill="#FF8300"/>
</g>
<mask id="mask42_112_53" style="mask-type:alpha" maskUnits="userSpaceOnUse" x="88" y="34" width="73" height="73">
<path d="M124.166 34.3305L88.0637 70.4532L124.166 106.576L160.267 70.4532L124.166 34.3305Z" fill="white"/>
</mask>
<g mask="url(#mask42_112_53)">
<path d="M95.0054 34.3314L160.267 99.6311V100.425L120.392 60.5355L94.2026 34.3314H95.0054Z" fill="#FF8400"/>
</g>
<mask id="mask43_112_53" style="mask-type:alpha" maskUnits="userSpaceOnUse" x="88" y="34" width="73" height="73">
<path d="M124.166 34.3305L88.0637 70.4532L124.166 106.576L160.267 70.4532L124.166 34.3305Z" fill="white"/>
</mask>
<g mask="url(#mask43_112_53)">
<path d="M95.8082 34.3314L160.267 98.8278V99.6311L95.0054 34.3314H95.8082Z" fill="#FF8500"/>
</g>
<mask id="mask44_112_53" style="mask-type:alpha" maskUnits="userSpaceOnUse" x="88" y="34" width="73" height="73">
<path d="M124.166 34.3305L88.0637 70.4532L124.166 106.576L160.267 70.4532L124.166 34.3305Z" fill="white"/>
</mask>
<g mask="url(#mask44_112_53)">
<path d="M96.6112 34.3314L160.267 98.0246V98.8278L95.8083 34.3314H96.6112Z" fill="#FF8600"/>
</g>
<mask id="mask45_112_53" style="mask-type:alpha" maskUnits="userSpaceOnUse" x="88" y="34" width="73" height="73">
<path d="M124.166 34.3305L88.0637 70.4532L124.166 106.576L160.267 70.4532L124.166 34.3305Z" fill="white"/>
</mask>
<g mask="url(#mask45_112_53)">
<path d="M97.4041 34.3314L160.267 97.2213V98.0246L96.6111 34.3314H97.4041Z" fill="#FF8700"/>
</g>
<mask id="mask46_112_53" style="mask-type:alpha" maskUnits="userSpaceOnUse" x="88" y="34" width="73" height="73">
<path d="M124.166 34.3305L88.0637 70.4532L124.166 106.576L160.267 70.4532L124.166 34.3305Z" fill="white"/>
</mask>
<g mask="url(#mask46_112_53)">
<path d="M98.2069 34.3314L160.267 96.4278V97.2213L97.4041 34.3314H98.2069Z" fill="#FF8800"/>
</g>
<mask id="mask47_112_53" style="mask-type:alpha" maskUnits="userSpaceOnUse" x="88" y="34" width="73" height="73">
<path d="M124.166 34.3305L88.0637 70.4532L124.166 106.576L160.267 70.4532L124.166 34.3305Z" fill="white"/>
</mask>
<g mask="url(#mask47_112_53)">
<path d="M99.0096 34.3314L160.267 95.6246V96.4278L98.2068 34.3314H99.0096Z" fill="#FF8900"/>
</g>
<mask id="mask48_112_53" style="mask-type:alpha" maskUnits="userSpaceOnUse" x="88" y="34" width="73" height="73">
<path d="M124.166 34.3305L88.0637 70.4532L124.166 106.576L160.267 70.4532L124.166 34.3305Z" fill="white"/>
</mask>
<g mask="url(#mask48_112_53)">
<path d="M99.8126 34.3314L160.267 94.8213V95.6246L99.0098 34.3314H99.8126Z" fill="#FF8A00"/>
</g>
<mask id="mask49_112_53" style="mask-type:alpha" maskUnits="userSpaceOnUse" x="88" y="34" width="73" height="73">
<path d="M124.166 34.3305L88.0637 70.4532L124.166 106.576L160.267 70.4532L124.166 34.3305Z" fill="white"/>
</mask>
<g mask="url(#mask49_112_53)">
<path d="M100.615 34.3314L160.267 94.018V94.8213L99.8125 34.3314H100.615Z" fill="#FF8B00"/>
</g>
<mask id="mask50_112_53" style="mask-type:alpha" maskUnits="userSpaceOnUse" x="88" y="34" width="73" height="73">
<path d="M124.166 34.3305L88.0637 70.4532L124.166 106.576L160.267 70.4532L124.166 34.3305Z" fill="white"/>
</mask>
<g mask="url(#mask50_112_53)">
<path d="M101.408 34.3314L160.267 93.2246V94.018L100.615 34.3314H101.408Z" fill="#FF8C00"/>
</g>
<mask id="mask51_112_53" style="mask-type:alpha" maskUnits="userSpaceOnUse" x="88" y="34" width="73" height="73">
<path d="M124.166 34.3305L88.0637 70.4532L124.166 106.576L160.267 70.4532L124.166 34.3305Z" fill="white"/>
</mask>
<g mask="url(#mask51_112_53)">
<path d="M102.211 34.3314L160.268 92.4213V93.2246L101.408 34.3314H102.211Z" fill="#FF8D00"/>
</g>
<mask id="mask52_112_53" style="mask-type:alpha" maskUnits="userSpaceOnUse" x="88" y="34" width="73" height="73">
<path d="M124.166 34.3305L88.0637 70.4532L124.166 106.576L160.267 70.4532L124.166 34.3305Z" fill="white"/>
</mask>
<g mask="url(#mask52_112_53)">
<path d="M103.014 34.3314L160.267 91.618V92.4213L102.211 34.3314H103.014Z" fill="#FF8E00"/>
</g>
<mask id="mask53_112_53" style="mask-type:alpha" maskUnits="userSpaceOnUse" x="88" y="34" width="73" height="73">
<path d="M124.166 34.3305L88.0637 70.4532L124.166 106.576L160.267 70.4532L124.166 34.3305Z" fill="white"/>
</mask>
<g mask="url(#mask53_112_53)">
<path d="M103.817 34.3314L160.267 90.8148V91.618L103.014 34.3314H103.817Z" fill="#FF8F00"/>
</g>
<mask id="mask54_112_53" style="mask-type:alpha" maskUnits="userSpaceOnUse" x="88" y="34" width="73" height="73">
<path d="M124.166 34.3305L88.0637 70.4532L124.166 106.576L160.267 70.4532L124.166 34.3305Z" fill="white"/>
</mask>
<g mask="url(#mask54_112_53)">
<path d="M104.61 34.3314L160.267 90.0115V90.8147L103.817 34.3314H104.61Z" fill="#FF9000"/>
</g>
<mask id="mask55_112_53" style="mask-type:alpha" maskUnits="userSpaceOnUse" x="88" y="34" width="73" height="73">
<path d="M124.166 34.3305L88.0637 70.4532L124.166 106.576L160.267 70.4532L124.166 34.3305Z" fill="white"/>
</mask>
<g mask="url(#mask55_112_53)">
<path d="M105.412 34.3314L160.267 89.218V90.0115L104.61 34.3314H105.412Z" fill="#FF9100"/>
</g>
<mask id="mask56_112_53" style="mask-type:alpha" maskUnits="userSpaceOnUse" x="88" y="34" width="73" height="73">
<path d="M124.166 34.3305L88.0637 70.4532L124.166 106.576L160.267 70.4532L124.166 34.3305Z" fill="white"/>
</mask>
<g mask="url(#mask56_112_53)">
<path d="M106.215 34.3314L160.267 88.4148V89.218L105.413 34.3314H106.215Z" fill="#FF9200"/>
</g>
<mask id="mask57_112_53" style="mask-type:alpha" maskUnits="userSpaceOnUse" x="88" y="34" width="73" height="73">
<path d="M124.166 34.3305L88.0637 70.4532L124.166 106.576L160.267 70.4532L124.166 34.3305Z" fill="white"/>
</mask>
<g mask="url(#mask57_112_53)">
<path d="M107.018 34.3314L160.267 87.6115V88.4147L106.215 34.3314H107.018Z" fill="#FF9300"/>
</g>
<mask id="mask58_112_53" style="mask-type:alpha" maskUnits="userSpaceOnUse" x="88" y="34" width="73" height="73">
<path d="M124.166 34.3305L88.0637 70.4532L124.166 106.576L160.267 70.4532L124.166 34.3305Z" fill="white"/>
</mask>
<g mask="url(#mask58_112_53)">
<path d="M107.821 34.3314L160.267 86.8082V87.6115L107.018 34.3314H107.821Z" fill="#FF9400"/>
</g>
<mask id="mask59_112_53" style="mask-type:alpha" maskUnits="userSpaceOnUse" x="88" y="34" width="73" height="73">
<path d="M124.166 34.3305L88.0637 70.4532L124.166 106.576L160.267 70.4532L124.166 34.3305Z" fill="white"/>
</mask>
<g mask="url(#mask59_112_53)">
<path d="M108.614 34.3314L160.267 86.0147V86.8082L107.821 34.3314H108.614Z" fill="#FF9500"/>
</g>
<mask id="mask60_112_53" style="mask-type:alpha" maskUnits="userSpaceOnUse" x="88" y="34" width="73" height="73">
<path d="M124.166 34.3305L88.0637 70.4532L124.166 106.576L160.267 70.4532L124.166 34.3305Z" fill="white"/>
</mask>
<g mask="url(#mask60_112_53)">
<path d="M109.417 34.3314L160.267 85.2115V86.0147L108.614 34.3314H109.417Z" fill="#FF9600"/>
</g>
<mask id="mask61_112_53" style="mask-type:alpha" maskUnits="userSpaceOnUse" x="88" y="34" width="73" height="73">
<path d="M124.166 34.3305L88.0637 70.4532L124.166 106.576L160.267 70.4532L124.166 34.3305Z" fill="white"/>
</mask>
<g mask="url(#mask61_112_53)">
<path d="M110.22 34.3314L160.267 84.4082V85.2115L109.417 34.3314H110.22Z" fill="#FF9700"/>
</g>
<mask id="mask62_112_53" style="mask-type:alpha" maskUnits="userSpaceOnUse" x="88" y="34" width="73" height="73">
<path d="M124.166 34.3305L88.0637 70.4532L124.166 106.576L160.267 70.4532L124.166 34.3305Z" fill="white"/>
</mask>
<g mask="url(#mask62_112_53)">
<path d="M111.022 34.3314L160.267 83.6049V84.4082L110.219 34.3314H111.022Z" fill="#FF9800"/>
</g>
<mask id="mask63_112_53" style="mask-type:alpha" maskUnits="userSpaceOnUse" x="88" y="34" width="73" height="73">
<path d="M124.166 34.3305L88.0637 70.4532L124.166 106.576L160.267 70.4532L124.166 34.3305Z" fill="white"/>
</mask>
<g mask="url(#mask63_112_53)">
<path d="M111.815 34.3314L160.267 82.8017V83.605L111.022 34.3314H111.815Z" fill="#FF9900"/>
</g>
<mask id="mask64_112_53" style="mask-type:alpha" maskUnits="userSpaceOnUse" x="88" y="34" width="73" height="73">
<path d="M124.166 34.3305L88.0637 70.4532L124.166 106.576L160.267 70.4532L124.166 34.3305Z" fill="white"/>
</mask>
<g mask="url(#mask64_112_53)">
<path d="M112.618 34.3314L160.267 82.0082V82.8017L111.815 34.3314H112.618Z" fill="#FF9A00"/>
</g>
<mask id="mask65_112_53" style="mask-type:alpha" maskUnits="userSpaceOnUse" x="88" y="34" width="73" height="73">
<path d="M124.166 34.3305L88.0637 70.4532L124.166 106.576L160.267 70.4532L124.166 34.3305Z" fill="white"/>
</mask>
<g mask="url(#mask65_112_53)">
<path d="M113.421 34.3314L160.267 81.205V82.0082L112.618 34.3314H113.421Z" fill="#FF9B00"/>
</g>
<mask id="mask66_112_53" style="mask-type:alpha" maskUnits="userSpaceOnUse" x="88" y="34" width="73" height="73">
<path d="M124.166 34.3305L88.0637 70.4532L124.166 106.576L160.267 70.4532L124.166 34.3305Z" fill="white"/>
</mask>
<g mask="url(#mask66_112_53)">
<path d="M114.224 34.3314L160.267 80.4017V81.205L113.421 34.3314H114.224Z" fill="#FF9C00"/>
</g>
<mask id="mask67_112_53" style="mask-type:alpha" maskUnits="userSpaceOnUse" x="88" y="34" width="73" height="73">
<path d="M124.166 34.3305L88.0637 70.4532L124.166 106.576L160.267 70.4532L124.166 34.3305Z" fill="white"/>
</mask>
<g mask="url(#mask67_112_53)">
<path d="M160.267 80.4017L114.224 34.3314H160.267V80.4017Z" fill="#FF9C00"/>
</g>
</g>
<path d="M106 78.1832V62.219C106 60.7093 106.826 59.297 108.144 58.547L122.096 50.5698C123.414 49.8101 125.056 49.8101 126.384 50.5698L140.336 58.547C141.654 59.3067 142.48 60.7093 142.48 62.219V78.1832C142.48 79.6929 141.654 81.1052 140.336 81.8552L126.384 89.8421C125.066 90.6019 123.424 90.6019 122.096 89.8421L108.144 81.8552C106.826 81.1052 106 79.6929 106 78.1832ZM140.415 62.219C140.415 61.4398 139.992 60.7093 139.304 60.3197L125.351 52.3328C124.663 51.9432 123.817 51.9432 123.129 52.3328L109.176 60.31C108.488 60.6996 108.065 61.4301 108.065 62.2093V78.1734C108.065 78.9526 108.488 79.6831 109.176 80.0728L123.129 88.0499C123.817 88.4395 124.663 88.4395 125.351 88.0499L139.314 80.0825C140.002 79.6929 140.425 78.9624 140.425 78.1832V62.219H140.415Z" fill="#272122"/>
<path d="M127.294 73.3192C125.091 74.8669 123.26 74.8669 121.048 73.2996C121.038 73.2898 121.028 73.28 121.018 73.28C120.685 73.0449 120.646 73.0645 120.578 73.4465C120.46 74.1518 120.49 74.8669 120.558 75.582C120.568 75.729 120.636 75.8171 120.773 75.8857C122.692 76.8751 124.66 77.2277 126.706 76.2775C127.969 75.6898 127.783 76.0816 127.862 74.5632C127.862 74.2204 127.862 73.8775 127.803 73.5347C127.715 73.0351 127.695 73.0253 127.294 73.3192Z" fill="#272122"/>
<path d="M127.029 77.2767C125.59 77.7665 124.132 77.982 122.624 77.6294C122.134 77.5118 121.655 77.3551 121.175 77.2277C121.087 77.2081 120.989 77.1298 120.92 77.2277C120.891 77.2767 120.92 77.3845 120.95 77.453C121.234 78.3347 121.625 79.1477 122.301 79.7943C122.82 80.3037 123.436 80.6073 124.181 80.6171C124.885 80.6073 125.483 80.3233 126.002 79.8433C126.667 79.2261 127.069 78.4424 127.362 77.6C127.402 77.4824 127.509 77.3159 127.431 77.2277C127.323 77.0906 127.157 77.2277 127.029 77.2767Z" fill="#272122"/>
<path d="M124.239 66.3934C122.908 66.3738 121.88 66.9616 121.165 68.0979C120.989 68.3722 121.018 68.48 121.371 68.4897C122.134 68.5093 122.898 68.6269 123.642 68.813C123.818 68.8522 124.004 68.9012 124.171 68.9404C124.249 68.9208 124.317 68.911 124.376 68.9012C125.248 68.6563 126.138 68.5289 127.039 68.4897C127.362 68.48 127.352 68.3624 127.215 68.1273C126.53 67.0204 125.541 66.413 124.239 66.3934Z" fill="#272122"/>
<path d="M124.161 73.4857C125.522 73.4466 126.55 72.8392 127.255 71.6637C127.411 71.409 127.392 71.2817 127.049 71.311C126.148 71.3894 125.267 71.5559 124.474 72.0164C124.269 72.1339 124.102 72.1437 123.896 72.0164C123.103 71.5559 122.232 71.3796 121.322 71.311C120.979 71.2817 120.959 71.409 121.106 71.6637C121.801 72.8196 122.81 73.427 124.161 73.4857Z" fill="#272122"/>
<path d="M136.898 70.4784C136.879 70.4588 136.849 70.4588 136.83 70.4392C136.458 70.1845 136.095 69.92 135.714 69.6556C135.772 69.5968 135.792 69.5772 135.811 69.5674C136.095 69.4302 136.36 69.2735 136.604 69.0972C138.004 68.0686 138.778 66.3249 138.562 64.5617C138.543 64.3951 138.494 64.2188 138.435 64.0621C138.249 63.5919 138.014 63.4841 137.535 63.6604C135.616 64.3364 133.775 65.1886 131.954 66.0996C130.809 66.6776 129.693 67.3045 128.665 68.0784C128.547 68.1666 128.439 68.2645 128.332 68.3527C128.547 68.3331 128.713 68.2645 128.89 68.196C131.572 67.0988 134.255 66.0311 136.976 65.0417C137.515 64.8458 137.623 64.9241 137.535 65.5021C137.309 66.9421 136.693 68.1372 135.332 68.8327C134.891 68.96 134.46 69.0972 134.02 69.2245C133.981 69.2343 133.941 69.2343 133.893 69.2441C133.785 69.2245 133.687 69.2343 133.589 69.2833L133.178 69.3225C132.463 69.3225 131.748 69.3225 131.034 69.3225C130.789 69.3127 130.544 69.3029 130.309 69.2833C129.996 69.2147 129.693 69.2147 129.379 69.2441C128.635 69.1853 127.891 69.1658 127.147 69.2441C126.961 69.2147 126.785 69.2245 126.609 69.2833C126.52 69.2931 126.442 69.3029 126.354 69.3127C126.197 69.2931 126.051 69.3029 125.913 69.3813C125.874 69.3911 125.835 69.3911 125.796 69.4009C125.59 69.3911 125.395 69.44 125.209 69.538C125.169 69.5478 125.12 69.5576 125.081 69.5674C124.934 69.5674 124.797 69.6164 124.68 69.7045C124.602 69.7339 124.533 69.7633 124.455 69.7927C124.376 69.7829 124.327 69.8123 124.278 69.8711C124.21 69.8711 124.141 69.8711 124.073 69.8711C124.034 69.8123 123.975 69.7927 123.897 69.7927C123.818 69.7633 123.75 69.7339 123.671 69.7045C123.554 69.6164 123.417 69.5674 123.27 69.5674C123.231 69.5576 123.182 69.5478 123.143 69.538C122.957 69.44 122.761 69.3911 122.555 69.4009C122.516 69.3911 122.477 69.3911 122.438 69.3813C122.301 69.3029 122.154 69.2931 121.997 69.3127C121.939 69.3127 121.88 69.3029 121.811 69.3029C121.508 69.2049 121.195 69.2049 120.881 69.2343C120.402 69.1756 119.932 69.1853 119.452 69.2343C118.982 69.2049 118.512 69.2245 118.042 69.2931C117.827 69.3029 117.602 69.3127 117.386 69.3225C116.652 69.3225 115.908 69.3225 115.174 69.3225C115.036 69.3127 114.899 69.2931 114.762 69.2833C114.175 69.1756 113.597 69.0482 113.029 68.8425C112.55 68.5976 112.148 68.2449 111.747 67.8923C111.698 67.8237 111.649 67.7649 111.6 67.6964C111.365 67.2164 111.111 66.7364 110.954 66.2172C110.974 66.1584 110.964 66.1094 110.915 66.0702C110.876 65.7274 110.758 65.3845 110.827 65.0221C110.856 65.0123 110.866 64.9927 110.866 64.9633C111.003 64.9143 111.13 64.9633 111.248 65.0123C113.999 66.0311 116.74 67.0596 119.423 68.2253C119.55 68.2841 119.677 68.3821 119.892 68.3037C119.403 67.8237 118.864 67.4907 118.326 67.1772C117.063 66.4327 115.771 65.7666 114.42 65.1788C113.215 64.6596 112.031 64.0817 110.787 63.6604C110.327 63.5037 110.092 63.6017 109.916 64.0523C109.848 64.2188 109.799 64.4049 109.779 64.5911C109.603 66.5307 110.513 68.5682 112.325 69.489C112.422 69.538 112.55 69.5674 112.579 69.7143C111.972 70.0572 111.404 70.4392 111.003 71.0368C110.729 71.507 110.787 71.8498 111.199 72.1731C111.443 72.3592 111.727 72.4866 112.021 72.5454C114.381 73.0254 116.593 72.6727 118.6 71.3013C118.737 71.2131 118.874 71.1151 118.982 70.8898C117.993 71.3992 117.004 71.6735 115.986 71.8205C114.909 71.9772 113.832 72.0849 112.755 71.8107C112.236 71.6735 112.168 71.4776 112.422 71.0074C112.481 70.9584 112.54 70.8996 112.599 70.8507C113.206 70.4098 113.793 69.969 114.625 70.116C115.369 70.2531 116.123 70.2237 116.877 70.2139C118.081 70.2041 119.276 70.1356 120.48 70.2041C121.713 70.2727 122.927 70.4686 123.985 71.1837C124.161 71.3013 124.269 71.2229 124.406 71.1347C125.052 70.7233 125.757 70.4882 126.501 70.3511C127.617 70.1551 128.733 70.1747 129.859 70.1943C131.073 70.2139 132.297 70.3217 133.501 70.1356C134.206 70.0278 134.764 70.2237 135.312 70.5862C135.381 70.6254 135.43 70.6939 135.518 70.6939C135.635 70.8017 135.753 70.8996 135.86 71.0172C136.174 71.3502 136.125 71.6049 135.694 71.7715C135.479 71.8596 135.234 71.9184 134.999 71.938C133.207 72.0751 131.465 71.8303 129.8 71.1347C129.732 71.1054 129.663 71.0564 129.585 71.027C129.516 70.9976 129.448 70.9388 129.34 70.9878C129.888 71.5462 130.544 71.8988 131.249 72.1633C132.953 72.7805 134.686 73.0058 136.458 72.5062C136.908 72.3788 137.358 72.1731 137.456 71.6441C137.583 71.1151 137.221 70.7919 136.898 70.4784Z" fill="#272122"/>
<path d="M119.618 62.4359C119.941 62.4359 120.215 62.1714 120.215 61.8384C120.215 61.7698 120.206 61.7012 120.186 61.6425C120.607 61.6229 121.194 61.6719 121.743 62.0245C122.516 62.5143 123.035 63.4449 123.28 64.787C122.859 65.071 122.545 65.5315 122.497 66.0212C122.467 66.2466 122.506 66.3543 122.722 66.2466C123.701 65.7764 124.68 65.7764 125.659 66.2466C125.845 66.3347 125.894 66.2661 125.874 66.08C125.835 65.5804 125.522 65.0906 125.091 64.7968C125.336 63.4449 125.855 62.5143 126.638 62.0245C127.176 61.6817 127.754 61.6229 128.165 61.6425C128.145 61.7012 128.136 61.76 128.136 61.8286C128.136 62.1519 128.4 62.4261 128.733 62.4261C129.056 62.4261 129.33 62.1617 129.33 61.8286C129.33 61.5249 129.105 61.28 128.821 61.2408C128.459 61.1527 127.392 60.9763 126.393 61.6033C125.522 62.1519 124.934 63.151 124.65 64.5715C124.513 64.5225 124.366 64.5029 124.229 64.4931C124.063 64.4931 123.906 64.5127 123.75 64.5617C123.466 63.1412 122.878 62.1421 122.007 61.6033C120.793 60.849 119.501 61.2506 119.452 61.2702C119.442 61.2702 119.432 61.28 119.422 61.28C119.207 61.3682 119.05 61.5837 119.05 61.8286C119.031 62.1715 119.295 62.4359 119.618 62.4359Z" fill="#272122"/>
<defs>
<filter id="filter0_d_112_53" x="-3" y="0" width="383" height="496" filterUnits="userSpaceOnUse" color-interpolation-filters="sRGB">
<feFlood flood-opacity="0" result="BackgroundImageFix"/>
<feColorMatrix in="SourceAlpha" type="matrix" values="0 0 0 0 0 0 0 0 0 0 0 0 0 0 0 0 0 0 127 0" result="hardAlpha"/>
<feOffset dx="1" dy="8"/>
<feGaussianBlur stdDeviation="10"/>
<feComposite in2="hardAlpha" operator="out"/>
<feColorMatrix type="matrix" values="0 0 0 0 1 0 0 0 0 1 0 0 0 0 1 0 0 0 0.25 0"/>
<feBlend mode="normal" in2="BackgroundImageFix" result="effect1_dropShadow_112_53"/>
<feBlend mode="normal" in="SourceGraphic" in2="effect1_dropShadow_112_53" result="shape"/>
</filter>
</defs>
</svg>
