<svg width="416" height="382" viewBox="0 0 416 382" fill="none" xmlns="http://www.w3.org/2000/svg">
<path opacity="0.1" d="M92.3721 381.047C132.965 381.047 165.872 372.675 165.872 362.347C165.872 352.019 132.965 343.647 92.3721 343.647C51.7791 343.647 18.8721 352.019 18.8721 362.347C18.8721 372.675 51.7791 381.047 92.3721 381.047Z" fill="#9C3B13"/>
<path d="M47.9724 169.047C47.9724 169.047 44.8724 158.847 25.5724 189.447C6.27242 219.947 19.4724 235.247 19.4724 235.247L58.6724 228.147L67.3724 193.547" fill="#DE6A3A"/>
<path d="M150.972 264.847C150.472 264.047 150.072 263.247 149.572 262.347C136.872 237.347 117.772 167.047 106.772 161.247C106.772 161.247 120.272 159.347 120.372 159.347C134.172 157.447 146.372 169.447 155.172 179.147C162.672 187.447 164.872 196.047 164.972 206.747C165.172 216.047 155.072 223.247 152.172 231.847C148.772 241.947 150.872 254.247 150.972 264.847Z" fill="#DE6A3A"/>
<path d="M22.3721 249.047C24.7721 270.147 27.5721 291.247 32.5721 311.947C36.2721 327.347 43.5721 350.647 53.4721 363.447C57.8721 369.047 58.9721 367.147 66.6721 366.247C76.2721 365.247 74.6721 347.747 74.6721 337.847C74.6721 325.447 79.7721 312.447 77.1721 300.347" fill="#BA5931"/>
<path d="M153.773 247.447C151.373 268.547 154.473 281.247 146.373 311.847C142.273 327.147 135.373 350.547 125.473 363.347C121.073 368.947 119.973 367.047 112.273 366.147C102.673 365.147 104.273 347.647 104.273 337.747C104.273 325.347 99.1727 312.347 101.773 300.247" fill="#BA5931"/>
<path d="M64.273 137.547C59.373 142.747 55.173 148.747 51.873 154.047C42.773 169.147 37.573 186.747 32.573 203.647C26.573 223.947 19.273 247.247 25.273 267.547C29.873 283.147 34.973 297.947 49.573 306.747C61.873 314.147 81.873 316.247 95.773 315.747C110.273 315.247 138.473 311.147 146.873 296.847C154.573 283.647 155.873 258.947 155.773 244.347C155.473 208.447 143.473 179.247 117.373 152.947C113.173 148.747 111.473 136.947 106.473 133.847C92.573 116.047 76.473 124.447 64.273 137.547Z" fill="#BA5931"/>
<path d="M107.372 281.047C111.472 279.547 115.172 277.347 117.872 274.547C126.772 265.347 131.572 246.347 132.572 234.547C133.772 220.247 131.972 199.047 120.672 188.347C107.172 175.847 92.6724 179.647 75.8724 180.847C43.1724 183.147 44.3724 234.647 49.2724 255.447C52.1724 267.547 55.5724 279.447 70.2724 282.747C80.4724 285.047 95.7724 285.347 107.372 281.047Z" fill="#9C3B13"/>
<path d="M120.173 76.2472C112.573 57.2472 45.073 74.6472 30.073 78.8472C15.073 83.1472 42.473 170.847 41.973 177.247L129.473 166.047C129.373 166.047 127.773 95.2472 120.173 76.2472Z" fill="#BA5931"/>
<path d="M74.5727 105.147C86.9727 106.047 97.3727 124.547 97.4727 135.847C97.6727 151.347 80.5727 157.847 68.4727 149.647C55.3727 140.947 52.8727 103.547 74.5727 105.147Z" fill="#DE6A3A"/>
<path d="M102.372 69.2472C104.372 66.6472 110.372 49.7472 118.972 57.7472C127.472 65.7472 121.572 81.8472 121.572 81.8472" fill="#BA5931"/>
<path d="M38.1724 79.5472C38.1724 79.5472 24.6724 65.5472 16.9724 69.5472C9.27245 73.5472 22.4724 92.0472 28.5724 96.2472" fill="#BA5931"/>
<path d="M98.9725 105.747C98.9725 107.747 97.3725 109.347 95.3725 109.347C93.3725 109.347 91.7725 107.747 91.7725 105.747C91.7725 103.747 93.3725 102.147 95.3725 102.147C97.3725 102.147 98.9725 103.747 98.9725 105.747Z" fill="#69280D"/>
<path d="M57.0721 111.247C57.0721 113.247 55.4721 114.847 53.4721 114.847C51.4721 114.847 49.8721 113.247 49.8721 111.247C49.8721 109.247 51.4721 107.647 53.4721 107.647C55.4721 107.647 57.0721 109.247 57.0721 111.247Z" fill="#69280D"/>
<path d="M114.772 67.9472C114.972 68.0472 114.272 68.4472 115.272 68.1472C116.572 67.7472 120.372 64.2472 120.072 68.3472C119.972 70.3472 116.772 75.0472 113.372 74.0472C111.872 73.5472 108.672 67.6472 109.272 66.3472C110.772 62.7472 112.772 66.9472 114.772 67.9472Z" fill="#DE6A3A"/>
<path d="M24.473 78.7472C24.673 78.7472 24.373 79.4472 24.973 78.5472C25.673 77.3472 26.473 72.2472 28.873 75.6472C29.973 77.2472 30.573 82.9472 27.273 84.2472C25.773 84.8472 19.573 82.2472 19.173 80.9472C18.173 77.3472 22.373 79.3472 24.473 78.7472Z" fill="#DE6A3A"/>
<path d="M54.5721 127.847C54.5721 131.447 51.6721 134.447 47.9721 134.447C44.3721 134.447 41.3721 131.547 41.3721 127.847C41.3721 124.247 44.2721 121.247 47.9721 121.247C51.5721 121.247 54.5721 124.247 54.5721 127.847Z" fill="#FF7BAC"/>
<path d="M112.173 120.947C112.173 124.547 109.273 127.547 105.573 127.547C101.973 127.547 98.9727 124.647 98.9727 120.947C98.9727 117.347 101.873 114.347 105.573 114.347C109.273 114.347 112.173 117.347 112.173 120.947Z" fill="#FF7BAC"/>
<path d="M104.973 230.247L46.4726 216.747C43.2726 216.047 41.2726 212.847 41.9726 209.647L43.1726 204.347C43.8726 201.147 47.0726 199.147 50.2726 199.847L108.773 213.347C111.973 214.047 113.973 217.247 113.273 220.447L112.073 225.747C111.373 228.947 108.173 230.947 104.973 230.247Z" fill="#FBB03B"/>
<path d="M94.5726 275.747L35.9726 262.247C32.7726 261.547 30.7726 258.347 31.4726 255.147L32.6726 249.847C33.3726 246.647 36.5726 244.647 39.7726 245.347L98.2726 258.847C101.473 259.547 103.473 262.747 102.773 265.947L101.573 271.247C100.873 274.447 97.6726 276.447 94.5726 275.747Z" fill="#FBB03B"/>
<path d="M84.3726 282.947L41.9726 273.147C38.7726 272.447 36.7726 269.247 37.4726 266.047L38.6726 260.747C39.3726 257.547 42.5726 255.547 45.7726 256.247L88.1726 265.947C91.3726 266.647 93.3726 269.847 92.6726 273.047L91.4726 278.347C90.7726 281.647 87.5726 283.647 84.3726 282.947Z" fill="#FBB03B"/>
<path d="M106.872 242.947L39.2724 227.447C36.0724 226.747 34.0724 223.547 34.7724 220.347L35.9724 215.047C36.6724 211.847 39.8724 209.847 43.0724 210.547L110.672 226.047C113.872 226.747 115.872 229.947 115.172 233.147L113.972 238.447C113.272 241.747 110.072 243.747 106.872 242.947Z" fill="#FBB03B"/>
<path d="M101.473 266.347L33.873 250.847C30.673 250.147 28.673 246.947 29.373 243.747L30.573 238.447C31.273 235.247 34.473 233.247 37.673 233.947L105.273 249.447C108.473 250.147 110.473 253.347 109.773 256.547L108.573 261.847C107.873 265.047 104.673 267.047 101.473 266.347Z" fill="#FBB03B"/>
<path d="M110.273 256.047L30.4726 237.747C27.2726 237.047 25.2726 233.847 25.9726 230.647L27.1726 225.347C27.8726 222.147 31.0726 220.147 34.2726 220.847L114.073 239.147C117.273 239.847 119.273 243.047 118.573 246.247L117.373 251.547C116.673 254.747 113.473 256.847 110.273 256.047Z" fill="#FBB03B"/>
<path d="M75.9725 120.847C76.2725 120.847 75.4725 121.947 76.8725 120.847C78.6725 119.547 83.0725 112.147 84.5725 118.847C85.2725 122.047 82.5725 131.047 76.7725 131.147C74.0725 131.147 66.2725 123.247 66.4725 121.047C67.1725 114.747 72.3725 120.347 75.9725 120.847Z" fill="#9C3B13"/>
<path d="M78.1727 140.047C78.1727 139.947 78.1727 139.947 78.1727 140.047C80.6727 136.547 91.2727 134.147 91.2727 140.747C91.2727 143.347 88.7727 145.147 86.4727 146.447C81.0727 149.547 73.6727 146.347 78.1727 140.047Z" fill="#9C3B13"/>
<path d="M100.673 156.147C96.6728 154.447 81.9728 148.547 80.5728 166.047C79.1728 183.547 129.173 233.247 145.673 230.147C162.273 227.047 162.873 212.247 162.873 212.247C162.873 212.247 181.773 191.847 100.673 156.147Z" fill="#DE6A3A"/>
<path d="M98.8727 154.747C101.273 154.947 103.473 156.947 103.773 159.347C104.073 161.747 102.173 164.247 99.7727 164.347C97.7727 164.447 95.4727 163.247 94.1727 164.647C93.7727 165.047 93.4727 165.747 93.3727 166.347C92.8727 168.847 93.4727 171.447 93.3727 173.947C93.1727 176.447 91.6727 179.247 89.1727 179.447C87.3727 179.547 85.7727 178.247 84.8727 176.647C82.4727 172.447 84.3727 167.147 83.4727 162.447C82.2727 163.147 80.7727 162.747 79.8727 161.747C78.9727 160.747 78.6727 159.347 78.8727 158.047C79.1727 155.447 81.1727 153.147 83.7727 152.447C90.8727 150.647 94.9727 148.347 98.8727 154.747Z" fill="#FBB03B"/>
<path d="M37.2725 172.647C36.7725 175.147 -2.92749 201.247 0.172512 233.247C2.17251 254.647 77.4725 269.847 80.5725 250.547C80.5725 250.547 96.8725 240.347 70.3725 231.247C43.8725 222.047 24.5725 213.447 24.5725 213.447L32.6725 188.547" fill="#DE6A3A"/>
<path d="M341.473 103.847C341.473 103.847 329.673 105.847 334.473 101.247C339.273 96.5472 342.973 103.247 342.973 103.247" fill="#62261E"/>
<path d="M349.373 102.847L345.873 108.647C345.273 109.747 343.873 110.047 342.773 109.447L340.973 108.347C339.873 107.747 339.573 106.347 340.173 105.247L343.673 99.4472C344.273 98.3472 345.673 98.0472 346.773 98.6472L348.573 99.7472C349.673 100.347 349.973 101.747 349.373 102.847Z" fill="#FBB03B"/>
<path d="M349.073 103.247L343.473 99.9472C343.373 100.047 343.273 100.147 343.173 100.347L342.573 101.347L348.273 104.747L348.873 103.747C348.873 103.547 348.973 103.447 349.073 103.247Z" fill="#864239"/>
<path d="M340.573 104.747L346.173 108.047C346.273 107.947 346.373 107.847 346.473 107.647L347.073 106.647L341.373 103.247L340.773 104.247C340.673 104.547 340.573 104.647 340.573 104.747Z" fill="#864239"/>
<path d="M341.372 102.147C341.372 102.147 328.572 95.5472 337.172 96.4472C345.772 97.3472 343.272 102.747 343.272 102.747" fill="#864239"/>
<path d="M7.07225 152.447C7.07225 152.447 -4.12775 148.247 2.37225 146.647C8.87225 145.047 8.67225 152.647 8.67225 152.647" fill="#62261E"/>
<path d="M14.3719 155.547L8.37187 158.847C7.27187 159.447 5.87187 159.047 5.27187 157.947L4.27187 156.147C3.67187 155.047 4.07187 153.647 5.17187 153.047L11.1719 149.747C12.2719 149.147 13.6719 149.547 14.2719 150.647L15.2719 152.447C15.8719 153.547 15.4719 154.947 14.3719 155.547Z" fill="#FBB03B"/>
<path d="M13.8711 155.747L10.7711 150.047C10.6711 150.147 10.4711 150.147 10.3711 150.247L9.37109 150.847L12.5711 156.647L13.5711 156.047C13.5711 155.947 13.7711 155.847 13.8711 155.747Z" fill="#864239"/>
<path d="M5.77148 152.747L8.87148 158.447C8.97148 158.347 9.17148 158.347 9.27148 158.247L10.2715 157.647L7.07148 151.847L6.07148 152.447C5.97148 152.547 5.87148 152.647 5.77148 152.747Z" fill="#864239"/>
<path d="M7.87236 150.947C7.87236 150.947 0.172362 138.747 7.07236 143.847C14.0724 148.947 9.17236 152.447 9.17236 152.447" fill="#864239"/>
<path d="M166.471 104.847C166.471 104.847 161.671 93.8472 167.271 97.3472C172.971 100.847 167.371 106.047 167.371 106.047" fill="#62261E"/>
<path d="M169.372 112.147L162.872 110.147C161.672 109.747 160.972 108.547 161.372 107.347L161.972 105.347C162.372 104.147 163.572 103.447 164.772 103.847L171.272 105.847C172.472 106.247 173.172 107.447 172.772 108.647L172.172 110.647C171.772 111.847 170.572 112.547 169.372 112.147Z" fill="#FBB03B"/>
<path d="M168.772 111.947L170.672 105.747C170.572 105.647 170.372 105.647 170.272 105.547L169.172 105.247L167.272 111.547L168.372 111.847C168.472 111.947 168.672 111.947 168.772 111.947Z" fill="#864239"/>
<path d="M165.272 104.147L163.372 110.347C163.472 110.447 163.672 110.447 163.772 110.547L164.872 110.847L166.772 104.547L165.672 104.247C165.572 104.147 165.372 104.147 165.272 104.147Z" fill="#864239"/>
<path d="M167.972 104.347C167.972 104.347 171.272 90.3472 172.472 98.8472C173.672 107.447 167.872 106.347 167.872 106.347" fill="#864239"/>
<path d="M189.073 24.1472C189.073 24.1472 184.973 14.7472 189.773 17.7472C194.573 20.7472 189.873 25.1472 189.873 25.1472" fill="#62261E"/>
<path d="M191.472 30.4472L185.972 28.7472C184.972 28.4472 184.372 27.3472 184.672 26.3472L185.172 24.6472C185.472 23.6472 186.572 23.0472 187.572 23.3472L193.072 25.0472C194.072 25.3472 194.672 26.4472 194.372 27.4472L193.872 29.1472C193.572 30.1472 192.472 30.7472 191.472 30.4472Z" fill="#FBB03B"/>
<path d="M191.072 30.2472L192.672 24.9472C192.572 24.8472 192.472 24.8472 192.272 24.7472L191.372 24.4472L189.772 29.8472L190.672 30.1472C190.772 30.2472 190.872 30.2472 191.072 30.2472Z" fill="#864239"/>
<path d="M187.972 23.5472L186.372 28.8472C186.472 28.9472 186.572 28.9472 186.772 29.0472L187.672 29.3472L189.272 23.9472L188.372 23.6472C188.272 23.5472 188.172 23.5472 187.972 23.5472Z" fill="#864239"/>
<path d="M190.372 23.7472C190.372 23.7472 193.172 11.7472 194.172 19.0472C195.172 26.3472 190.172 25.4472 190.172 25.4472" fill="#864239"/>
<path d="M259.408 59.4663C259.408 59.4663 250.208 55.0663 255.808 54.1663C261.408 53.2663 260.708 59.7663 260.708 59.7663" fill="#62261E"/>
<path d="M265.308 62.6664L260.008 64.9664C259.008 65.3664 257.908 64.9664 257.508 63.9664L256.808 62.3664C256.408 61.3664 256.808 60.2664 257.808 59.8664L263.108 57.5664C264.108 57.1664 265.208 57.5664 265.608 58.5664L266.308 60.1664C266.808 61.0664 266.308 62.2664 265.308 62.6664Z" fill="#FBB03B"/>
<path d="M264.908 62.8664L262.708 57.7664C262.608 57.7664 262.408 57.8664 262.308 57.8664L261.408 58.2664L263.708 63.4664L264.608 63.0664C264.708 62.9664 264.808 62.8664 264.908 62.8664Z" fill="#864239"/>
<path d="M258.208 59.6664L260.408 64.7663C260.508 64.7663 260.708 64.6664 260.808 64.6664L261.708 64.2663L259.408 59.0663L258.508 59.4663C258.508 59.5663 258.408 59.6664 258.208 59.6664Z" fill="#864239"/>
<path d="M260.108 58.2664C260.108 58.2664 254.508 47.3664 260.008 52.2664C265.508 57.1664 261.108 59.6664 261.108 59.6664" fill="#864239"/>
<path d="M410.073 104.147C410.073 104.147 405.973 94.7472 410.773 97.7472C415.573 100.747 410.873 105.147 410.873 105.147" fill="#62261E"/>
<path d="M412.472 110.447L406.972 108.747C405.972 108.447 405.372 107.347 405.672 106.347L406.172 104.647C406.472 103.647 407.572 103.047 408.572 103.347L414.072 105.047C415.072 105.347 415.672 106.447 415.372 107.447L414.872 109.147C414.572 110.147 413.472 110.747 412.472 110.447Z" fill="#FBB03B"/>
<path d="M412.072 110.247L413.672 104.947C413.572 104.847 413.472 104.847 413.272 104.747L412.372 104.447L410.772 109.847L411.672 110.147C411.772 110.247 411.872 110.247 412.072 110.247Z" fill="#864239"/>
<path d="M408.972 103.547L407.372 108.847C407.472 108.947 407.572 108.947 407.772 109.047L408.672 109.347L410.272 103.947L409.372 103.647C409.272 103.547 409.172 103.547 408.972 103.547Z" fill="#864239"/>
<path d="M411.372 103.747C411.372 103.747 414.172 91.7472 415.172 99.0472C416.172 106.347 411.272 105.447 411.272 105.447" fill="#864239"/>
<path d="M22.7721 29.4472C22.7721 29.4472 17.9721 18.4472 23.5721 21.9472C29.2721 25.4472 23.6721 30.6472 23.6721 30.6472" fill="#62261E"/>
<path d="M25.6726 36.7472L19.1726 34.7472C17.9726 34.3472 17.2726 33.1472 17.6726 31.9472L18.2726 29.9472C18.6726 28.7472 19.8726 28.0472 21.0726 28.4472L27.5726 30.4472C28.7726 30.8472 29.4726 32.0472 29.0726 33.2472L28.4726 35.2472C28.1726 36.4472 26.8726 37.1472 25.6726 36.7472Z" fill="#FBB03B"/>
<path d="M25.1729 36.5472L27.0729 30.3472C26.9729 30.2472 26.7729 30.2472 26.6729 30.1472L25.5729 29.8472L23.6729 36.1472L24.7729 36.4472C24.8729 36.5472 24.9729 36.5472 25.1729 36.5472Z" fill="#864239"/>
<path d="M21.5729 28.7472L19.6729 34.9472C19.7729 35.0472 19.9729 35.0472 20.0729 35.1472L21.1729 35.4472L23.0729 29.1472L21.9729 28.8472C21.8729 28.7472 21.7729 28.7472 21.5729 28.7472Z" fill="#864239"/>
<path d="M24.3725 28.9472C24.3725 28.9472 27.6725 14.9472 28.8725 23.4472C30.0725 32.0472 24.2725 30.9472 24.2725 30.9472" fill="#864239"/>
<path d="M233.272 117.847C233.272 117.847 238.072 106.847 232.472 110.347C226.772 113.847 232.372 119.047 232.372 119.047" fill="#62261E"/>
<path d="M230.472 125.247L236.972 123.247C238.172 122.847 238.872 121.647 238.472 120.447L237.872 118.447C237.472 117.247 236.272 116.547 235.072 116.947L228.572 118.947C227.372 119.347 226.672 120.547 227.072 121.747L227.672 123.747C227.972 124.947 229.272 125.647 230.472 125.247Z" fill="#FBB03B"/>
<path d="M230.972 125.047L229.072 118.847C229.172 118.747 229.372 118.747 229.472 118.647L230.572 118.347L232.472 124.647L231.372 124.947C231.272 125.047 231.172 125.047 230.972 125.047Z" fill="#864239"/>
<path d="M234.473 117.147L236.373 123.347C236.273 123.447 236.073 123.447 235.973 123.547L234.873 123.847L232.973 117.547L234.073 117.247C234.173 117.247 234.373 117.247 234.473 117.147Z" fill="#864239"/>
<path d="M231.772 117.347C231.772 117.347 228.472 103.347 227.272 111.847C226.072 120.447 231.872 119.347 231.872 119.347" fill="#864239"/>
<path d="M311.214 10.0471C311.214 10.0471 321.514 3.94715 314.914 3.54715C308.214 3.14715 309.714 10.5471 309.714 10.5471" fill="#62261E"/>
<path d="M304.514 14.4472L310.914 16.6472C312.114 17.0472 313.414 16.4472 313.814 15.2472L314.514 13.2472C314.914 12.0472 314.314 10.7472 313.114 10.3472L306.714 8.14715C305.514 7.74715 304.214 8.34715 303.814 9.54715L303.114 11.5472C302.714 12.7472 303.414 14.0472 304.514 14.4472Z" fill="#FBB03B"/>
<path d="M305.113 14.5472L307.213 8.34717C307.413 8.34717 307.513 8.44717 307.713 8.44717L308.813 8.84717L306.713 15.0472L305.613 14.6472C305.413 14.7472 305.213 14.6472 305.113 14.5472Z" fill="#864239"/>
<path d="M312.613 10.2472L310.513 16.4472C310.313 16.4472 310.213 16.3472 310.013 16.3472L308.913 15.9472L311.013 9.74719L312.113 10.1472C312.313 10.0472 312.413 10.1472 312.613 10.2472Z" fill="#864239"/>
<path d="M310.213 8.74716C310.213 8.74716 315.713 -4.55284 309.713 1.64716C303.713 7.94716 309.113 10.4472 309.113 10.4472" fill="#864239"/>
<path d="M120.672 169.147C120.672 169.147 131.872 164.747 125.372 163.247C118.872 161.747 119.172 169.347 119.172 169.347" fill="#62261E"/>
<path d="M113.372 172.347L119.372 175.547C120.472 176.147 121.872 175.747 122.472 174.647L123.472 172.847C124.072 171.747 123.672 170.347 122.572 169.747L116.572 166.547C115.472 165.947 114.072 166.347 113.472 167.447L112.472 169.247C111.872 170.347 112.272 171.747 113.372 172.347Z" fill="#FBB03B"/>
<path d="M113.972 172.547L117.072 166.847C117.172 166.947 117.372 166.947 117.472 167.047L118.472 167.547L115.372 173.347L114.372 172.847C114.172 172.747 114.072 172.647 113.972 172.547Z" fill="#864239"/>
<path d="M121.972 169.447L118.872 175.147C118.772 175.047 118.572 175.047 118.472 174.947L117.472 174.447L120.572 168.647L121.572 169.147C121.772 169.247 121.872 169.347 121.972 169.447Z" fill="#864239"/>
<path d="M119.872 167.647C119.872 167.647 127.472 155.347 120.572 160.547C113.672 165.747 118.572 169.147 118.572 169.147" fill="#62261E"/>
<path d="M97.1719 51.1472C97.1719 51.1472 85.9719 46.7472 92.4719 45.2472C98.9719 43.7472 98.6719 51.3472 98.6719 51.3472" fill="#62261E"/>
<path d="M104.372 54.3471L98.3719 57.5471C97.2719 58.1471 95.8719 57.7471 95.2719 56.6471L94.2719 54.8471C93.6719 53.7471 94.0719 52.3471 95.1719 51.7471L101.172 48.5471C102.272 47.9471 103.672 48.3471 104.272 49.4471L105.272 51.2471C105.872 52.3471 105.472 53.7471 104.372 54.3471Z" fill="#FBB03B"/>
<path d="M103.871 54.5471L100.771 48.8471C100.671 48.9471 100.471 48.9471 100.371 49.0471L99.3711 49.5471L102.471 55.3471L103.471 54.8471C103.571 54.7471 103.771 54.6471 103.871 54.5471Z" fill="#864239"/>
<path d="M95.7715 51.4471L98.8715 57.1471C98.9715 57.0471 99.1715 57.0471 99.2715 56.9471L100.271 56.4471L97.1715 50.6471L96.1715 51.1471C96.0715 51.2471 95.9715 51.3471 95.7715 51.4471Z" fill="#864239"/>
<path d="M97.8715 49.6472C97.8715 49.6472 90.2715 37.3472 97.1715 42.5472C104.072 47.7472 99.1715 51.1472 99.1715 51.1472" fill="#62261E"/>
</svg>
