<svg width="840" height="822" viewBox="0 0 840 822" fill="none" xmlns="http://www.w3.org/2000/svg">
<g filter="url(#filter0_d_104_1391)">
<path fill-rule="evenodd" clip-rule="evenodd" d="M532.659 706.719C441.275 732.362 357.885 813.826 267.473 788.96C176.248 763.871 137.589 665.363 94.4479 586.198C51.5342 507.449 10.394 424.874 20.5925 335.923C31.0826 244.429 75.6934 154.261 150.892 93.8995C222.798 36.1804 325.087 -3.62198 414.806 19.4872C500.014 41.4344 519.812 144.393 580.035 204.435C612.712 237.014 653.18 257.218 685.894 289.763C732.778 336.405 799.03 371.96 812.132 435.333C827.297 508.685 816.712 596.03 760.499 650.615C704.249 705.238 609.823 685.067 532.659 706.719Z" fill="white"/>
</g>
<defs>
<filter id="filter0_d_104_1391" x="0.0205078" y="0.810181" width="839.373" height="820.813" filterUnits="userSpaceOnUse" color-interpolation-filters="sRGB">
<feFlood flood-opacity="0" result="BackgroundImageFix"/>
<feColorMatrix in="SourceAlpha" type="matrix" values="0 0 0 0 0 0 0 0 0 0 0 0 0 0 0 0 0 0 127 0" result="hardAlpha"/>
<feOffset dx="1" dy="8"/>
<feGaussianBlur stdDeviation="10"/>
<feComposite in2="hardAlpha" operator="out"/>
<feColorMatrix type="matrix" values="0 0 0 0 1 0 0 0 0 1 0 0 0 0 1 0 0 0 0.25 0"/>
<feBlend mode="normal" in2="BackgroundImageFix" result="effect1_dropShadow_104_1391"/>
<feBlend mode="normal" in="SourceGraphic" in2="effect1_dropShadow_104_1391" result="shape"/>
</filter>
</defs>
</svg>
