<svg width="56" height="56" viewBox="0 0 56 56" fill="none" xmlns="http://www.w3.org/2000/svg">
<path d="M18.683 5.565C15.3496 6.48369 12.0388 7.48265 8.7535 8.561C8.45351 8.65818 8.18684 8.83765 7.98388 9.07898C7.78091 9.32031 7.64981 9.6138 7.6055 9.926C5.6665 24.4755 10.1465 35.091 15.491 42.084C17.7538 45.0744 20.4519 47.7088 23.4955 49.8995C24.7065 50.7535 25.7775 51.3695 26.621 51.765C27.041 51.9645 27.384 52.0975 27.6465 52.178C27.7613 52.2183 27.8797 52.2476 28 52.2655C28.1189 52.2462 28.236 52.2169 28.35 52.178C28.616 52.0975 28.959 51.9645 29.379 51.765C30.219 51.3695 31.2935 50.75 32.5045 49.8995C35.548 47.7087 38.2462 45.0743 40.509 42.084C45.8535 35.0945 50.3335 24.4755 48.3945 9.926C48.3506 9.61365 48.2196 9.31997 48.0166 9.07858C47.8136 8.83718 47.5467 8.65781 47.2465 8.561C44.968 7.8155 41.1215 6.601 37.317 5.5685C33.432 4.515 29.8585 3.7345 28 3.7345C26.145 3.7345 22.568 4.515 18.683 5.5685V5.565ZM17.752 1.96C21.5495 0.9275 25.585 0 28 0C30.415 0 34.4505 0.9275 38.248 1.96C42.133 3.01 46.0495 4.2525 48.3525 5.005C49.3154 5.32298 50.169 5.90613 50.8154 6.68745C51.4617 7.46878 51.8746 8.41659 52.0065 9.422C54.0925 25.0915 49.252 36.7045 43.379 44.387C40.8885 47.6734 37.919 50.5675 34.5695 52.9725C33.4113 53.8047 32.1842 54.5366 30.9015 55.16C29.9215 55.622 28.868 56 28 56C27.132 56 26.082 55.622 25.0985 55.16C23.8158 54.5366 22.5887 53.8047 21.4305 52.9725C18.0811 50.5674 15.1115 47.6734 12.621 44.387C6.748 36.7045 1.9075 25.0915 3.9935 9.422C4.1254 8.41659 4.53825 7.46878 5.18461 6.68745C5.83096 5.90613 6.68462 5.32298 7.6475 5.005C10.9907 3.90883 14.3598 2.89354 17.752 1.96Z" fill="#FF6701"/>
<path d="M37.989 18.0108C38.152 18.1734 38.2813 18.3665 38.3695 18.5791C38.4577 18.7917 38.5031 19.0196 38.5031 19.2498C38.5031 19.48 38.4577 19.7079 38.3695 19.9205C38.2813 20.1332 38.152 20.3263 37.989 20.4888L27.489 30.9888C27.3264 31.1518 27.1333 31.2811 26.9207 31.3693C26.7081 31.4575 26.4802 31.503 26.25 31.503C26.0198 31.503 25.7919 31.4575 25.5793 31.3693C25.3667 31.2811 25.1736 31.1518 25.011 30.9888L19.761 25.7388C19.5983 25.5761 19.4692 25.383 19.3812 25.1704C19.2931 24.9578 19.2478 24.7299 19.2478 24.4998C19.2478 24.2697 19.2931 24.0419 19.3812 23.8293C19.4692 23.6167 19.5983 23.4235 19.761 23.2608C19.9237 23.0981 20.1169 22.9691 20.3295 22.881C20.542 22.7929 20.7699 22.7476 21 22.7476C21.2301 22.7476 21.458 22.7929 21.6705 22.881C21.8831 22.9691 22.0763 23.0981 22.239 23.2608L26.25 27.2753L35.511 18.0108C35.6736 17.8479 35.8667 17.7186 36.0793 17.6303C36.2919 17.5421 36.5198 17.4967 36.75 17.4967C36.9802 17.4967 37.2081 17.5421 37.4207 17.6303C37.6333 17.7186 37.8264 17.8479 37.989 18.0108Z" fill="#FF6701"/>
</svg>
