<svg width="70" height="70" viewBox="0 0 70 70" fill="none" xmlns="http://www.w3.org/2000/svg">
<path d="M57.2287 46.0324C55.5182 46.0324 53.8933 46.7023 52.6675 47.9139C51.4417 49.1397 50.7575 50.7361 50.7575 52.4466C50.7575 54.157 51.4274 55.7534 52.6675 56.9792C53.9076 58.1908 55.5182 58.8607 57.2287 58.8607C60.7351 58.8607 63.5858 55.9815 63.5858 52.4466C63.5858 48.9116 60.7351 46.0324 57.2287 46.0324ZM57.2287 56.01C55.2617 56.01 53.6082 54.3851 53.6082 52.4466C53.6082 50.508 55.2617 48.8831 57.2287 48.8831C59.1672 48.8831 60.7351 50.4795 60.7351 52.4466C60.7351 54.4136 59.1672 56.01 57.2287 56.01ZM58.8821 24.6661C58.6255 24.4237 58.2834 24.2955 57.9271 24.2955H50.6149C49.831 24.2955 49.1896 24.9369 49.1896 25.7208V37.4089C49.1896 38.1928 49.831 38.8343 50.6149 38.8343H62.2175C63.0014 38.8343 63.6428 38.1928 63.6428 37.4089V29.5836C63.6428 29.1845 63.4718 28.7996 63.1725 28.5288L58.8821 24.6661ZM60.7921 35.9835H52.0403V27.132H57.3712L60.7921 30.2108V35.9835ZM22.4211 46.0324C20.7106 46.0324 19.0857 46.7023 17.8599 47.9139C16.6341 49.1397 15.9499 50.7361 15.9499 52.4466C15.9499 54.157 16.6198 55.7534 17.8599 56.9792C19.1 58.1908 20.7106 58.8607 22.4211 58.8607C25.9275 58.8607 28.7783 55.9815 28.7783 52.4466C28.7783 48.9116 25.9275 46.0324 22.4211 46.0324ZM22.4211 56.01C20.4541 56.01 18.8007 54.3851 18.8007 52.4466C18.8007 50.508 20.4541 48.8831 22.4211 48.8831C24.3596 48.8831 25.9275 50.4795 25.9275 52.4466C25.9275 54.4136 24.3596 56.01 22.4211 56.01ZM12.9139 47.7856H10.0489V43.9941C10.0489 43.2101 9.40745 42.5687 8.6235 42.5687C7.83954 42.5687 7.19813 43.2101 7.19813 43.9941V49.211C7.19813 49.9949 7.83954 50.6363 8.6235 50.6363H12.9139C13.6978 50.6363 14.3392 49.9949 14.3392 49.211C14.3392 48.427 13.6978 47.7856 12.9139 47.7856ZM20.1405 40.0173C20.1405 39.2334 19.4991 38.5919 18.7151 38.5919H1.42537C0.641417 38.5919 0 39.2334 0 40.0173C0 40.8013 0.641417 41.4427 1.42537 41.4427H18.7151C19.4991 41.4427 20.1405 40.8155 20.1405 40.0173ZM4.31888 34.8717L21.6086 34.9715C22.3926 34.9715 23.034 34.3443 23.0483 33.5604C23.0625 32.7622 22.4211 32.1208 21.6371 32.1208L4.34738 32.021C4.33313 32.021 4.33313 32.021 4.33313 32.021C3.54918 32.021 2.90776 32.6481 2.90776 33.4321C2.8935 34.2303 3.53492 34.8717 4.31888 34.8717ZM7.22663 28.4005H24.5164C25.3003 28.4005 25.9418 27.7591 25.9418 26.9752C25.9418 26.1912 25.3003 25.5498 24.5164 25.5498H7.22663C6.44268 25.5498 5.80126 26.1912 5.80126 26.9752C5.80126 27.7591 6.44268 28.4005 7.22663 28.4005ZM69.4726 26.4763L59.2669 18.0238C59.0104 17.81 58.6968 17.696 58.3547 17.696H46.3531V12.5647C46.3531 11.7807 45.7117 11.1393 44.9277 11.1393H8.6235C7.83954 11.1393 7.19813 11.7807 7.19813 12.5647V22.9984C7.19813 23.7823 7.83954 24.4237 8.6235 24.4237C9.40745 24.4237 10.0489 23.7823 10.0489 22.9984V13.99H43.5166V47.7856H31.8285C31.0446 47.7856 30.4032 48.427 30.4032 49.211C30.4032 49.9949 31.0446 50.6363 31.8285 50.6363H49.2323C50.0163 50.6363 50.6577 49.9949 50.6577 49.211C50.6577 48.427 50.0163 47.7856 49.2323 47.7856H46.3673V20.5467H57.8558L67.1493 28.2437L67.0495 47.7571H65.5671C64.7831 47.7571 64.1417 48.3985 64.1417 49.1824C64.1417 49.9664 64.7831 50.6078 65.5671 50.6078H68.4606C69.2446 50.6078 69.886 49.9807 69.886 49.1967L70 27.5881C69.9857 27.1605 69.8004 26.7471 69.4726 26.4763Z" fill="#FF6701"/>
</svg>
