<svg width="56" height="56" viewBox="0 0 56 56" fill="none" xmlns="http://www.w3.org/2000/svg">
<g clip-path="url(#clip0_13_45)">
<path d="M51.625 25.3855V23.625C51.625 17.3145 49.1676 11.3818 44.7054 6.91961C40.2432 2.45744 34.3105 0 28 0C21.6895 0 15.7568 2.45744 11.2946 6.91961C6.83244 11.3818 4.375 17.3145 4.375 23.625V25.3855C1.85314 26.1017 0 28.4236 0 31.1719V39.9219C0 43.2389 2.69861 45.9375 6.01562 45.9375H12.5781C13.4842 45.9375 14.2188 45.2029 14.2188 44.2969V23.625C14.2188 16.026 20.401 9.84375 28 9.84375C35.599 9.84375 41.7812 16.026 41.7812 23.625V44.2969C41.7812 45.2029 42.5158 45.9375 43.4219 45.9375H46.1562V47.7969C46.1562 48.7015 45.4203 49.4375 44.5156 49.4375H33.7334C33.0562 47.5279 31.2326 46.1562 29.0938 46.1562H26.9062C24.1923 46.1562 21.9844 48.3642 21.9844 51.0781C21.9844 53.792 24.1923 56 26.9062 56H29.0938C31.2326 56 33.0562 54.6283 33.7334 52.7188H44.5156C47.2295 52.7188 49.4375 50.5108 49.4375 47.7969V45.9375H49.9844C53.3014 45.9375 56 43.2389 56 39.9219V31.1719C56 28.4236 54.1469 26.1017 51.625 25.3855ZM29.0938 52.7188H26.9062C26.0016 52.7188 25.2656 51.9828 25.2656 51.0781C25.2656 50.1735 26.0016 49.4375 26.9062 49.4375H29.0938C29.9984 49.4375 30.7344 50.1735 30.7344 51.0781C30.7344 51.9828 29.9984 52.7188 29.0938 52.7188ZM10.9375 42.6562H6.01562C4.50789 42.6562 3.28125 41.4296 3.28125 39.9219V31.1719C3.28125 29.6641 4.50789 28.4375 6.01562 28.4375H10.9375V42.6562ZM28 6.5625C18.5917 6.5625 10.9375 14.2167 10.9375 23.625V25.1562H7.65625V23.625C7.65625 12.4074 16.7824 3.28125 28 3.28125C39.2176 3.28125 48.3438 12.4074 48.3438 23.625V25.1562H45.0625V23.625C45.0625 14.2167 37.4083 6.5625 28 6.5625ZM52.7188 39.9219C52.7188 41.4296 51.4921 42.6562 49.9844 42.6562H45.0625V28.4375H49.9844C51.4921 28.4375 52.7188 29.6641 52.7188 31.1719V39.9219Z" fill="#FF6701"/>
</g>
<defs>
<clipPath id="clip0_13_45">
<rect width="56" height="56" fill="white"/>
</clipPath>
</defs>
</svg>
