<svg width="174" height="63" viewBox="0 0 174 63" fill="none" xmlns="http://www.w3.org/2000/svg">
<path d="M61.722 42.7911C61.4686 42.5248 61.3419 42.1571 61.3419 41.688V20.0452C61.3419 19.576 61.4686 19.2084 61.722 18.9421C61.9754 18.6758 62.3429 18.5364 62.8118 18.5364C63.2806 18.5364 63.6481 18.6758 63.9142 18.9421C64.1803 19.2084 64.3197 19.576 64.3197 20.0452L64.3577 29.8586C66.0683 27.8554 68.2732 26.841 70.9596 26.841C73.5826 26.841 75.6607 27.5764 77.1813 29.0345C78.7019 30.4926 79.4622 32.4958 79.4622 35.0189C79.4622 37.6054 78.7145 39.6087 77.2193 41.0414C75.7241 42.4741 73.6206 43.1841 70.9089 43.1841C69.5023 43.1841 68.2605 42.9305 67.1961 42.4361C66.1317 41.9289 65.1813 41.1555 64.345 40.1158V41.688C64.345 42.1571 64.2056 42.5248 63.9395 42.7911C63.6734 43.0573 63.3059 43.1968 62.8371 43.1968C62.3429 43.1841 61.9754 43.0573 61.722 42.7911ZM74.9638 39.2663C75.9648 38.2901 76.4717 36.8827 76.4717 35.0189C76.4717 33.2185 75.9521 31.8238 74.9004 30.8222C73.8487 29.8206 72.4168 29.3134 70.5794 29.3134C69.3629 29.3134 68.2732 29.5543 67.3228 30.0361C66.3725 30.5179 65.6375 31.1899 65.118 32.0521C64.5984 32.9142 64.3323 33.9032 64.3323 35.0189C64.3323 36.794 64.8899 38.1886 66.005 39.2029C67.1201 40.2173 68.6407 40.7244 70.5921 40.7244C72.4928 40.7244 73.95 40.2299 74.9638 39.2663Z" fill="#272122"/>
<path d="M83.8846 41.7768C82.6808 40.8385 82.0726 39.5707 82.0726 37.9604C82.0726 36.3629 82.7061 35.0823 83.9733 34.1441C85.2405 33.2059 86.9765 32.7367 89.1813 32.7367C90.3344 32.7367 91.3608 32.8889 92.2732 33.1805C93.1855 33.4848 93.9078 33.8905 94.4653 34.3977V32.8001C94.4653 31.6464 94.0979 30.7588 93.3629 30.1503C92.628 29.5417 91.5382 29.2374 90.1063 29.2374C88.2056 29.2374 86.5583 29.6811 85.1771 30.556C84.7716 30.7969 84.4168 30.911 84.1254 30.911C83.8466 30.911 83.5678 30.7969 83.289 30.556C83.0483 30.3151 82.9342 30.0488 82.9342 29.7192C82.9342 29.3515 83.1116 29.0218 83.4791 28.7302C84.2521 28.147 85.2151 27.6905 86.3936 27.3482C87.572 27.0059 88.8012 26.8411 90.081 26.8411C92.4126 26.8411 94.2246 27.3736 95.5298 28.4259C96.8349 29.4783 97.4812 30.9617 97.4812 32.8635V41.7387C97.4812 42.2079 97.3545 42.5629 97.1137 42.8164C96.8729 43.0573 96.5055 43.1841 96.0366 43.1841C95.5678 43.1841 95.2003 43.0573 94.9469 42.8164C94.6934 42.5755 94.5667 42.2332 94.5667 41.8021V40.9019C93.2869 42.4234 91.3608 43.1841 88.8012 43.1841C86.723 43.1841 85.0884 42.715 83.8846 41.7768ZM93.0841 40.0651C94.0345 39.4946 94.516 38.7592 94.516 37.8336C94.516 36.9334 94.0599 36.2361 93.1602 35.729C92.2478 35.2218 90.9933 34.9809 89.3967 34.9809C88.0029 34.9809 86.9384 35.2345 86.1908 35.7543C85.4432 36.2615 85.0631 37.0095 85.0631 37.9604C85.0631 38.8987 85.4305 39.6341 86.1655 40.1412C86.9004 40.6484 87.9522 40.9146 89.3207 40.9146C90.8793 40.9146 92.1338 40.6357 93.0841 40.0651Z" fill="#272122"/>
<path d="M102.334 42.7911C102.094 42.5248 101.967 42.1571 101.967 41.688V20.0452C101.967 19.5507 102.094 19.183 102.334 18.9167C102.575 18.6632 102.943 18.5364 103.411 18.5364C103.88 18.5364 104.248 18.6758 104.514 18.9421C104.78 19.2084 104.919 19.576 104.919 20.0452V41.688C104.919 42.1571 104.78 42.5248 104.514 42.7911C104.248 43.0573 103.88 43.1968 103.411 43.1968C102.943 43.1841 102.588 43.0573 102.334 42.7911Z" fill="#272122"/>
<path d="M111.217 41.0287C109.671 39.5833 108.898 37.5801 108.898 35.0189C108.898 32.4705 109.658 30.4799 111.192 29.0218C112.725 27.5638 114.841 26.8411 117.553 26.8411C119.225 26.8411 120.695 27.1073 121.988 27.6272C123.28 28.147 124.294 28.8824 125.016 29.8333C125.739 30.7842 126.106 31.8746 126.106 33.0918C126.106 34.03 125.84 34.7527 125.295 35.2725C124.75 35.7797 123.977 36.0459 122.976 36.0459H111.851C111.851 37.542 112.357 38.7085 113.371 39.5199C114.385 40.3441 115.829 40.7498 117.718 40.7498C118.833 40.7498 119.796 40.6357 120.619 40.3948C121.443 40.1539 122.216 39.7735 122.938 39.241C123.47 38.8733 123.876 38.6958 124.155 38.6958C124.408 38.6958 124.649 38.7972 124.864 39.0128C125.168 39.3171 125.308 39.6214 125.308 39.9383C125.308 40.2553 125.156 40.5596 124.864 40.8385C123.116 42.398 120.733 43.1841 117.718 43.1841C114.93 43.1841 112.763 42.4614 111.217 41.0287ZM122.064 33.7891C122.444 33.7891 122.723 33.713 122.9 33.5609C123.065 33.4087 123.154 33.1425 123.154 32.7621C123.154 31.7351 122.634 30.8983 121.595 30.239C120.556 29.5924 119.213 29.2627 117.54 29.2627C115.804 29.2627 114.436 29.6685 113.422 30.4799C112.408 31.2914 111.901 32.3944 111.901 33.7764H122.064V33.7891Z" fill="#272122"/>
<path d="M132.923 42.0939C131.555 41.3712 130.516 40.3822 129.794 39.1397C129.071 37.8971 128.716 36.5278 128.716 35.0064C128.716 33.4849 129.071 32.1156 129.794 30.8731C130.503 29.6305 131.555 28.6542 132.923 27.9189C134.292 27.1962 135.901 26.8285 137.764 26.8285C139.627 26.8285 141.236 27.1962 142.592 27.9189C143.948 28.6416 144.987 29.6305 145.696 30.8731C146.406 32.1156 146.773 33.4976 146.773 35.0064C146.773 36.5278 146.419 37.8971 145.696 39.1397C144.987 40.3822 143.948 41.3585 142.592 42.0939C141.236 42.8165 139.627 43.1842 137.764 43.1842C135.901 43.1842 134.292 42.8292 132.923 42.0939ZM142.161 39.2157C143.251 38.2141 143.796 36.8068 143.796 35.019C143.796 33.2186 143.251 31.824 142.161 30.8223C141.071 29.8207 139.614 29.3135 137.777 29.3135C135.939 29.3135 134.469 29.8207 133.367 30.8223C132.264 31.824 131.72 33.2313 131.72 35.019C131.72 36.8194 132.264 38.2141 133.367 39.2157C134.469 40.2174 135.939 40.7245 137.777 40.7245C139.601 40.7245 141.071 40.2174 142.161 39.2157Z" fill="#272122"/>
<path d="M150.055 42.7912C149.815 42.5249 149.688 42.1572 149.688 41.6881V28.35C149.688 27.3483 150.169 26.8412 151.132 26.8412C151.576 26.8412 151.931 26.9806 152.184 27.2469C152.438 27.5131 152.564 27.8808 152.564 28.35V29.9095C154.148 27.8555 156.29 26.8285 159.001 26.8285C161.054 26.8285 162.638 27.4244 163.766 28.6035C164.894 29.7953 165.451 31.469 165.451 33.6244V41.6754C165.451 42.1446 165.312 42.5123 165.046 42.7785C164.78 43.0448 164.425 43.1842 163.969 43.1842C163.5 43.1842 163.132 43.0448 162.879 42.7785C162.625 42.5123 162.499 42.1446 162.499 41.6754V33.6244C162.499 32.1917 162.157 31.1139 161.485 30.3913C160.813 29.6686 159.812 29.3009 158.495 29.3009C156.695 29.3009 155.276 29.8334 154.212 30.8857C153.16 31.9381 152.628 33.3708 152.628 35.1712V41.6754C152.628 42.1446 152.488 42.5123 152.222 42.7785C151.956 43.0448 151.589 43.1842 151.12 43.1842C150.651 43.1842 150.296 43.0574 150.055 42.7912Z" fill="#272122"/>
<path d="M169.874 23.3923C169.494 23.0373 169.291 22.5935 169.291 22.061C169.291 21.5285 169.481 21.0721 169.874 20.7171C170.254 20.3494 170.723 20.1719 171.28 20.1719C171.876 20.1719 172.37 20.3494 172.775 20.7171C173.168 21.0848 173.371 21.5285 173.371 22.061C173.371 22.5682 173.168 23.0119 172.775 23.3796C172.383 23.7473 171.888 23.9248 171.28 23.9248C170.723 23.9248 170.254 23.7473 169.874 23.3923ZM170.228 42.791C169.975 42.5247 169.848 42.157 169.848 41.6879V28.3497C169.848 27.8806 169.975 27.5129 170.228 27.2467C170.482 26.9804 170.849 26.841 171.318 26.841C171.787 26.841 172.155 26.9804 172.408 27.2467C172.661 27.5129 172.788 27.8806 172.788 28.3497V41.6879C172.788 42.157 172.661 42.5247 172.408 42.791C172.155 43.0572 171.787 43.1967 171.318 43.1967C170.849 43.184 170.482 43.0572 170.228 42.791Z" fill="#272122"/>
<mask id="mask0_7_423" style="mask-type:alpha" maskUnits="userSpaceOnUse" x="1" y="2" width="53" height="59">
<path d="M22.929 4.08856L6.26823 13.7124C3.36487 15.3959 1.57819 18.4946 1.57819 21.8465V41.0943C1.57819 44.4462 3.36487 47.5598 6.26823 49.2284L22.929 58.8522C25.8324 60.5357 29.4207 60.5357 32.324 58.8522L48.9848 49.2284C51.8882 47.5449 53.6749 44.4462 53.6749 41.0943V21.8465C53.6749 18.4946 51.8882 15.381 48.9848 13.7124L32.324 4.08856C30.8649 3.2543 29.242 2.82227 27.634 2.82227C26.026 2.82227 24.3882 3.2394 22.929 4.08856Z" fill="white"/>
</mask>
<g mask="url(#mask0_7_423)">
<mask id="mask1_7_423" style="mask-type:alpha" maskUnits="userSpaceOnUse" x="-28" y="-24" width="111" height="111">
<path d="M27.6262 -23.2501L-27.2774 31.6853L27.6262 86.6207L82.5299 31.6853L27.6262 -23.2501Z" fill="white"/>
</mask>
<g mask="url(#mask1_7_423)">
<path d="M-27.2768 16.1406L43.1632 86.6213H-27.2768V16.1406Z" fill="#FF5B00"/>
</g>
<mask id="mask2_7_423" style="mask-type:alpha" maskUnits="userSpaceOnUse" x="-28" y="-24" width="111" height="111">
<path d="M27.6262 -23.2501L-27.2774 31.6853L27.6262 86.6207L82.5299 31.6853L27.6262 -23.2501Z" fill="white"/>
</mask>
<g mask="url(#mask2_7_423)">
<path d="M-27.2768 14.9191L44.3841 86.6214H43.1632L-27.2768 16.1407V14.9191Z" fill="#FF5B00"/>
</g>
<mask id="mask3_7_423" style="mask-type:alpha" maskUnits="userSpaceOnUse" x="-28" y="-24" width="111" height="111">
<path d="M27.6262 -23.2501L-27.2774 31.6853L27.6262 86.6207L82.5299 31.6853L27.6262 -23.2501Z" fill="white"/>
</mask>
<g mask="url(#mask3_7_423)">
<path d="M-27.2768 13.6975L45.6049 86.6214H44.384L-27.2768 14.9191V13.6975Z" fill="#FF5C00"/>
</g>
<mask id="mask4_7_423" style="mask-type:alpha" maskUnits="userSpaceOnUse" x="-28" y="-24" width="111" height="111">
<path d="M27.6262 -23.2501L-27.2774 31.6853L27.6262 86.6207L82.5299 31.6853L27.6262 -23.2501Z" fill="white"/>
</mask>
<g mask="url(#mask4_7_423)">
<path d="M-27.2768 12.4758L46.8259 86.6213H45.605L-27.2768 13.6974V12.4758Z" fill="#FF5D00"/>
</g>
<mask id="mask5_7_423" style="mask-type:alpha" maskUnits="userSpaceOnUse" x="-28" y="-24" width="111" height="111">
<path d="M27.6262 -23.2501L-27.2774 31.6853L27.6262 86.6207L82.5299 31.6853L27.6262 -23.2501Z" fill="white"/>
</mask>
<g mask="url(#mask5_7_423)">
<path d="M-27.2768 11.2543L48.0319 86.6214H46.8259L-27.2768 12.4759V11.2543Z" fill="#FF5E00"/>
</g>
<mask id="mask6_7_423" style="mask-type:alpha" maskUnits="userSpaceOnUse" x="-28" y="-24" width="111" height="111">
<path d="M27.6262 -23.2501L-27.2774 31.6853L27.6262 86.6207L82.5299 31.6853L27.6262 -23.2501Z" fill="white"/>
</mask>
<g mask="url(#mask6_7_423)">
<path d="M-27.2768 10.0476L49.2528 86.6214H48.0319L-27.2768 11.2543V10.0476Z" fill="#FF5F00"/>
</g>
<mask id="mask7_7_423" style="mask-type:alpha" maskUnits="userSpaceOnUse" x="-28" y="-24" width="111" height="111">
<path d="M27.6262 -23.2501L-27.2774 31.6853L27.6262 86.6207L82.5299 31.6853L27.6262 -23.2501Z" fill="white"/>
</mask>
<g mask="url(#mask7_7_423)">
<path d="M-27.2768 8.82605L50.4736 86.6215H49.2527L-27.2768 10.0477V8.82605Z" fill="#FF6000"/>
</g>
<mask id="mask8_7_423" style="mask-type:alpha" maskUnits="userSpaceOnUse" x="-28" y="-24" width="111" height="111">
<path d="M27.6262 -23.2501L-27.2774 31.6853L27.6262 86.6207L82.5299 31.6853L27.6262 -23.2501Z" fill="white"/>
</mask>
<g mask="url(#mask8_7_423)">
<path d="M-27.2768 7.60437L51.6946 86.6214H50.4737L-27.2768 8.82598V7.60437Z" fill="#FF6100"/>
</g>
<mask id="mask9_7_423" style="mask-type:alpha" maskUnits="userSpaceOnUse" x="-28" y="-24" width="111" height="111">
<path d="M27.6262 -23.2501L-27.2774 31.6853L27.6262 86.6207L82.5299 31.6853L27.6262 -23.2501Z" fill="white"/>
</mask>
<g mask="url(#mask9_7_423)">
<path d="M-27.2768 6.38281L52.9006 86.6215H51.6946L-27.2768 7.60442V6.38281Z" fill="#FF6200"/>
</g>
<mask id="mask10_7_423" style="mask-type:alpha" maskUnits="userSpaceOnUse" x="-28" y="-24" width="111" height="111">
<path d="M27.6262 -23.2501L-27.2774 31.6853L27.6262 86.6207L82.5299 31.6853L27.6262 -23.2501Z" fill="white"/>
</mask>
<g mask="url(#mask10_7_423)">
<path d="M-27.2768 5.17615L54.1215 86.6215H52.9006L-27.2768 6.38285V5.17615Z" fill="#FF6300"/>
</g>
<mask id="mask11_7_423" style="mask-type:alpha" maskUnits="userSpaceOnUse" x="-28" y="-24" width="111" height="111">
<path d="M27.6262 -23.2501L-27.2774 31.6853L27.6262 86.6207L82.5299 31.6853L27.6262 -23.2501Z" fill="white"/>
</mask>
<g mask="url(#mask11_7_423)">
<path d="M-27.2768 3.95459L55.3424 86.6215H54.1215L-27.2768 5.1762V3.95459Z" fill="#FF6400"/>
</g>
<mask id="mask12_7_423" style="mask-type:alpha" maskUnits="userSpaceOnUse" x="-28" y="-24" width="111" height="111">
<path d="M27.6262 -23.2501L-27.2774 31.6853L27.6262 86.6207L82.5299 31.6853L27.6262 -23.2501Z" fill="white"/>
</mask>
<g mask="url(#mask12_7_423)">
<path d="M-27.2768 2.73279L56.5633 86.6213H55.3424L-27.2768 3.9544V2.73279Z" fill="#FF6500"/>
</g>
<mask id="mask13_7_423" style="mask-type:alpha" maskUnits="userSpaceOnUse" x="-28" y="-24" width="111" height="111">
<path d="M27.6262 -23.2501L-27.2774 31.6853L27.6262 86.6207L82.5299 31.6853L27.6262 -23.2501Z" fill="white"/>
</mask>
<g mask="url(#mask13_7_423)">
<path d="M-27.2768 1.51135L57.7842 86.6215H56.5633L-27.2768 2.73296V1.51135Z" fill="#FF6600"/>
</g>
<mask id="mask14_7_423" style="mask-type:alpha" maskUnits="userSpaceOnUse" x="-28" y="-24" width="111" height="111">
<path d="M27.6262 -23.2501L-27.2774 31.6853L27.6262 86.6207L82.5299 31.6853L27.6262 -23.2501Z" fill="white"/>
</mask>
<g mask="url(#mask14_7_423)">
<path d="M-27.2768 0.289673L58.9902 86.6214H57.7841L-27.2768 1.51128V0.289673Z" fill="#FF6700"/>
</g>
<mask id="mask15_7_423" style="mask-type:alpha" maskUnits="userSpaceOnUse" x="-28" y="-24" width="111" height="111">
<path d="M27.6262 -23.2501L-27.2774 31.6853L27.6262 86.6207L82.5299 31.6853L27.6262 -23.2501Z" fill="white"/>
</mask>
<g mask="url(#mask15_7_423)">
<path d="M-27.2768 -0.917114L60.2111 86.6214H58.9902L-27.2768 0.289595V-0.917114Z" fill="#FF6800"/>
</g>
<mask id="mask16_7_423" style="mask-type:alpha" maskUnits="userSpaceOnUse" x="-28" y="-24" width="111" height="111">
<path d="M27.6262 -23.2501L-27.2774 31.6853L27.6262 86.6207L82.5299 31.6853L27.6262 -23.2501Z" fill="white"/>
</mask>
<g mask="url(#mask16_7_423)">
<path d="M-27.2768 -2.13855L61.432 86.6215H60.2111L-27.2768 -0.916945V-2.13855Z" fill="#FF6900"/>
</g>
<mask id="mask17_7_423" style="mask-type:alpha" maskUnits="userSpaceOnUse" x="-28" y="-24" width="111" height="111">
<path d="M27.6262 -23.2501L-27.2774 31.6853L27.6262 86.6207L82.5299 31.6853L27.6262 -23.2501Z" fill="white"/>
</mask>
<g mask="url(#mask17_7_423)">
<path d="M-27.2768 -3.36023L62.6529 86.6215H61.432L-27.2768 -2.13862V-3.36023Z" fill="#FF6A00"/>
</g>
<mask id="mask18_7_423" style="mask-type:alpha" maskUnits="userSpaceOnUse" x="-28" y="-24" width="111" height="111">
<path d="M27.6262 -23.2501L-27.2774 31.6853L27.6262 86.6207L82.5299 31.6853L27.6262 -23.2501Z" fill="white"/>
</mask>
<g mask="url(#mask18_7_423)">
<path d="M-27.2768 -4.58179L63.8589 86.6215H62.6529L-27.2768 -3.36018V-4.58179Z" fill="#FF6B00"/>
</g>
<mask id="mask19_7_423" style="mask-type:alpha" maskUnits="userSpaceOnUse" x="-28" y="-24" width="111" height="111">
<path d="M27.6262 -23.2501L-27.2774 31.6853L27.6262 86.6207L82.5299 31.6853L27.6262 -23.2501Z" fill="white"/>
</mask>
<g mask="url(#mask19_7_423)">
<path d="M-27.2768 -5.78857L65.0798 86.6214H63.8589L-27.2768 -4.58187V-5.78857Z" fill="#FF6C00"/>
</g>
<mask id="mask20_7_423" style="mask-type:alpha" maskUnits="userSpaceOnUse" x="-28" y="-24" width="111" height="111">
<path d="M27.6262 -23.2501L-27.2774 31.6853L27.6262 86.6207L82.5299 31.6853L27.6262 -23.2501Z" fill="white"/>
</mask>
<g mask="url(#mask20_7_423)">
<path d="M-27.2768 -7.01013L66.3007 86.6215H65.0798L-27.2768 -5.78853V-7.01013Z" fill="#FF6D00"/>
</g>
<mask id="mask21_7_423" style="mask-type:alpha" maskUnits="userSpaceOnUse" x="-28" y="-24" width="111" height="111">
<path d="M27.6262 -23.2501L-27.2774 31.6853L27.6262 86.6207L82.5299 31.6853L27.6262 -23.2501Z" fill="white"/>
</mask>
<g mask="url(#mask21_7_423)">
<path d="M-27.2768 -8.23181L67.5216 86.6214H66.3007L-27.2768 -7.01021V-8.23181Z" fill="#FF6E00"/>
</g>
<mask id="mask22_7_423" style="mask-type:alpha" maskUnits="userSpaceOnUse" x="-28" y="-24" width="111" height="111">
<path d="M27.6262 -23.2501L-27.2774 31.6853L27.6262 86.6207L82.5299 31.6853L27.6262 -23.2501Z" fill="white"/>
</mask>
<g mask="url(#mask22_7_423)">
<path d="M-27.2768 -9.45349L68.7425 86.6213H67.5216L-27.2768 -8.23188V-9.45349Z" fill="#FF6F00"/>
</g>
<mask id="mask23_7_423" style="mask-type:alpha" maskUnits="userSpaceOnUse" x="-28" y="-24" width="111" height="111">
<path d="M27.6262 -23.2501L-27.2774 31.6853L27.6262 86.6207L82.5299 31.6853L27.6262 -23.2501Z" fill="white"/>
</mask>
<g mask="url(#mask23_7_423)">
<path d="M-27.2768 -10.66L69.9485 86.6215H68.7425L-27.2768 -9.45333V-10.66Z" fill="#FF7000"/>
</g>
<mask id="mask24_7_423" style="mask-type:alpha" maskUnits="userSpaceOnUse" x="-28" y="-24" width="111" height="111">
<path d="M27.6262 -23.2501L-27.2774 31.6853L27.6262 86.6207L82.5299 31.6853L27.6262 -23.2501Z" fill="white"/>
</mask>
<g mask="url(#mask24_7_423)">
<path d="M-27.2768 -11.8817L71.1694 86.6214H69.9485L-27.2768 -10.6601V-11.8817Z" fill="#FF7100"/>
</g>
<mask id="mask25_7_423" style="mask-type:alpha" maskUnits="userSpaceOnUse" x="-28" y="-24" width="111" height="111">
<path d="M27.6262 -23.2501L-27.2774 31.6853L27.6262 86.6207L82.5299 31.6853L27.6262 -23.2501Z" fill="white"/>
</mask>
<g mask="url(#mask25_7_423)">
<path d="M-27.2768 -13.1033L72.3903 86.6215H71.1694L-27.2768 -11.8817V-13.1033Z" fill="#FF7200"/>
</g>
<mask id="mask26_7_423" style="mask-type:alpha" maskUnits="userSpaceOnUse" x="-28" y="-24" width="111" height="111">
<path d="M27.6262 -23.2501L-27.2774 31.6853L27.6262 86.6207L82.5299 31.6853L27.6262 -23.2501Z" fill="white"/>
</mask>
<g mask="url(#mask26_7_423)">
<path d="M-27.2768 -14.3248L73.6112 86.6215H72.3903L-27.2768 -13.1032V-14.3248Z" fill="#FF7300"/>
</g>
<mask id="mask27_7_423" style="mask-type:alpha" maskUnits="userSpaceOnUse" x="-28" y="-24" width="111" height="111">
<path d="M27.6262 -23.2501L-27.2774 31.6853L27.6262 86.6207L82.5299 31.6853L27.6262 -23.2501Z" fill="white"/>
</mask>
<g mask="url(#mask27_7_423)">
<path d="M-27.2768 -15.5465L74.8172 86.6214H73.6112L-27.2768 -14.3249V-15.5465Z" fill="#FF7400"/>
</g>
<mask id="mask28_7_423" style="mask-type:alpha" maskUnits="userSpaceOnUse" x="-28" y="-24" width="111" height="111">
<path d="M27.6262 -23.2501L-27.2774 31.6853L27.6262 86.6207L82.5299 31.6853L27.6262 -23.2501Z" fill="white"/>
</mask>
<g mask="url(#mask28_7_423)">
<path d="M-27.2768 -16.7532L76.0381 86.6215H74.8172L-27.2768 -15.5465V-16.7532Z" fill="#FF7500"/>
</g>
<mask id="mask29_7_423" style="mask-type:alpha" maskUnits="userSpaceOnUse" x="-28" y="-24" width="111" height="111">
<path d="M27.6262 -23.2501L-27.2774 31.6853L27.6262 86.6207L82.5299 31.6853L27.6262 -23.2501Z" fill="white"/>
</mask>
<g mask="url(#mask29_7_423)">
<path d="M-27.2768 -17.9747L77.259 86.6215H76.0381L-27.2768 -16.7531V-17.9747Z" fill="#FF7600"/>
</g>
<mask id="mask30_7_423" style="mask-type:alpha" maskUnits="userSpaceOnUse" x="-28" y="-24" width="111" height="111">
<path d="M27.6262 -23.2501L-27.2774 31.6853L27.6262 86.6207L82.5299 31.6853L27.6262 -23.2501Z" fill="white"/>
</mask>
<g mask="url(#mask30_7_423)">
<path d="M-27.2768 -19.1964L78.4799 86.6214H77.259L-27.2768 -17.9748V-19.1964Z" fill="#FF7700"/>
</g>
<mask id="mask31_7_423" style="mask-type:alpha" maskUnits="userSpaceOnUse" x="-28" y="-24" width="111" height="111">
<path d="M27.6262 -23.2501L-27.2774 31.6853L27.6262 86.6207L82.5299 31.6853L27.6262 -23.2501Z" fill="white"/>
</mask>
<g mask="url(#mask31_7_423)">
<path d="M-27.2768 -20.418L79.6859 86.6215H78.4799L-27.2768 -19.1964V-20.418Z" fill="#FF7800"/>
</g>
<mask id="mask32_7_423" style="mask-type:alpha" maskUnits="userSpaceOnUse" x="-28" y="-24" width="111" height="111">
<path d="M27.6262 -23.2501L-27.2774 31.6853L27.6262 86.6207L82.5299 31.6853L27.6262 -23.2501Z" fill="white"/>
</mask>
<g mask="url(#mask32_7_423)">
<path d="M-27.2768 -21.6248L80.9068 86.6214H79.6859L-27.2768 -20.418V-21.6248Z" fill="#FF7900"/>
</g>
<mask id="mask33_7_423" style="mask-type:alpha" maskUnits="userSpaceOnUse" x="-28" y="-24" width="111" height="111">
<path d="M27.6262 -23.2501L-27.2774 31.6853L27.6262 86.6207L82.5299 31.6853L27.6262 -23.2501Z" fill="white"/>
</mask>
<g mask="url(#mask33_7_423)">
<path d="M-27.2768 -22.8466L82.1277 86.6212H80.9068L-27.2768 -21.625V-22.8466Z" fill="#FF7A00"/>
</g>
<mask id="mask34_7_423" style="mask-type:alpha" maskUnits="userSpaceOnUse" x="-28" y="-24" width="111" height="111">
<path d="M27.6262 -23.2501L-27.2774 31.6853L27.6262 86.6207L82.5299 31.6853L27.6262 -23.2501Z" fill="white"/>
</mask>
<g mask="url(#mask34_7_423)">
<path d="M-26.4579 -23.2488L82.5297 85.8019V86.6212H82.1277L-27.2768 -22.8465V-23.2488H-26.4579Z" fill="#FF7C00"/>
</g>
<mask id="mask35_7_423" style="mask-type:alpha" maskUnits="userSpaceOnUse" x="-28" y="-24" width="111" height="111">
<path d="M27.6262 -23.2501L-27.2774 31.6853L27.6262 86.6207L82.5299 31.6853L27.6262 -23.2501Z" fill="white"/>
</mask>
<g mask="url(#mask35_7_423)">
<path d="M-25.2369 -23.2485L82.5298 84.5805V85.8021L-26.4578 -23.2485H-25.2369Z" fill="#FF7D00"/>
</g>
<mask id="mask36_7_423" style="mask-type:alpha" maskUnits="userSpaceOnUse" x="-28" y="-24" width="111" height="111">
<path d="M27.6262 -23.2501L-27.2774 31.6853L27.6262 86.6207L82.5299 31.6853L27.6262 -23.2501Z" fill="white"/>
</mask>
<g mask="url(#mask36_7_423)">
<path d="M-24.0161 -23.2485L82.5297 83.3589V84.5805L-25.237 -23.2485H-24.0161Z" fill="#FF7E00"/>
</g>
<mask id="mask37_7_423" style="mask-type:alpha" maskUnits="userSpaceOnUse" x="-28" y="-24" width="111" height="111">
<path d="M27.6262 -23.2501L-27.2774 31.6853L27.6262 86.6207L82.5299 31.6853L27.6262 -23.2501Z" fill="white"/>
</mask>
<g mask="url(#mask37_7_423)">
<path d="M-22.8099 -23.2485L82.5299 82.1522V83.3589L-24.0159 -23.2485H-22.8099Z" fill="#FF7F00"/>
</g>
<mask id="mask38_7_423" style="mask-type:alpha" maskUnits="userSpaceOnUse" x="-28" y="-24" width="111" height="111">
<path d="M27.6262 -23.2501L-27.2774 31.6853L27.6262 86.6207L82.5299 31.6853L27.6262 -23.2501Z" fill="white"/>
</mask>
<g mask="url(#mask38_7_423)">
<path d="M-21.5891 -23.2485L82.5298 80.9306V82.1522L-22.81 -23.2485H-21.5891Z" fill="#FF8000"/>
</g>
<mask id="mask39_7_423" style="mask-type:alpha" maskUnits="userSpaceOnUse" x="-28" y="-24" width="111" height="111">
<path d="M27.6262 -23.2501L-27.2774 31.6853L27.6262 86.6207L82.5299 31.6853L27.6262 -23.2501Z" fill="white"/>
</mask>
<g mask="url(#mask39_7_423)">
<path d="M-20.3681 -23.2485L82.5299 79.709V80.9306L-21.589 -23.2485H-20.3681Z" fill="#FF8100"/>
</g>
<mask id="mask40_7_423" style="mask-type:alpha" maskUnits="userSpaceOnUse" x="-28" y="-24" width="111" height="111">
<path d="M27.6262 -23.2501L-27.2774 31.6853L27.6262 86.6207L82.5299 31.6853L27.6262 -23.2501Z" fill="white"/>
</mask>
<g mask="url(#mask40_7_423)">
<path d="M-19.1473 -23.2485L82.5298 78.4874V79.709L-20.3682 -23.2485H-19.1473Z" fill="#FF8200"/>
</g>
<mask id="mask41_7_423" style="mask-type:alpha" maskUnits="userSpaceOnUse" x="-28" y="-24" width="111" height="111">
<path d="M27.6262 -23.2501L-27.2774 31.6853L27.6262 86.6207L82.5299 31.6853L27.6262 -23.2501Z" fill="white"/>
</mask>
<g mask="url(#mask41_7_423)">
<path d="M-17.9414 -23.2485L82.5297 77.2658V78.4874L-19.1474 -23.2485H-17.9414Z" fill="#FF8300"/>
</g>
<mask id="mask42_7_423" style="mask-type:alpha" maskUnits="userSpaceOnUse" x="-28" y="-24" width="111" height="111">
<path d="M27.6262 -23.2501L-27.2774 31.6853L27.6262 86.6207L82.5299 31.6853L27.6262 -23.2501Z" fill="white"/>
</mask>
<g mask="url(#mask42_7_423)">
<path d="M-16.7205 -23.2485L82.5297 76.0591V77.2658L21.8867 16.6026L-17.9414 -23.2485H-16.7205Z" fill="#FF8400"/>
</g>
<mask id="mask43_7_423" style="mask-type:alpha" maskUnits="userSpaceOnUse" x="-28" y="-24" width="111" height="111">
<path d="M27.6262 -23.2501L-27.2774 31.6853L27.6262 86.6207L82.5299 31.6853L27.6262 -23.2501Z" fill="white"/>
</mask>
<g mask="url(#mask43_7_423)">
<path d="M-15.4996 -23.2485L82.5297 74.8375V76.0591L-16.7205 -23.2485H-15.4996Z" fill="#FF8500"/>
</g>
<mask id="mask44_7_423" style="mask-type:alpha" maskUnits="userSpaceOnUse" x="-28" y="-24" width="111" height="111">
<path d="M27.6262 -23.2501L-27.2774 31.6853L27.6262 86.6207L82.5299 31.6853L27.6262 -23.2501Z" fill="white"/>
</mask>
<g mask="url(#mask44_7_423)">
<path d="M-14.2787 -23.2485L82.5297 73.6159V74.8375L-15.4996 -23.2485H-14.2787Z" fill="#FF8600"/>
</g>
<mask id="mask45_7_423" style="mask-type:alpha" maskUnits="userSpaceOnUse" x="-28" y="-24" width="111" height="111">
<path d="M27.6262 -23.2501L-27.2774 31.6853L27.6262 86.6207L82.5299 31.6853L27.6262 -23.2501Z" fill="white"/>
</mask>
<g mask="url(#mask45_7_423)">
<path d="M-13.0727 -23.2485L82.5297 72.3943V73.6159L-14.2787 -23.2485H-13.0727Z" fill="#FF8700"/>
</g>
<mask id="mask46_7_423" style="mask-type:alpha" maskUnits="userSpaceOnUse" x="-28" y="-24" width="111" height="111">
<path d="M27.6262 -23.2501L-27.2774 31.6853L27.6262 86.6207L82.5299 31.6853L27.6262 -23.2501Z" fill="white"/>
</mask>
<g mask="url(#mask46_7_423)">
<path d="M-11.8517 -23.2485L82.5297 71.1876V72.3943L-13.0726 -23.2485H-11.8517Z" fill="#FF8800"/>
</g>
<mask id="mask47_7_423" style="mask-type:alpha" maskUnits="userSpaceOnUse" x="-28" y="-24" width="111" height="111">
<path d="M27.6262 -23.2501L-27.2774 31.6853L27.6262 86.6207L82.5299 31.6853L27.6262 -23.2501Z" fill="white"/>
</mask>
<g mask="url(#mask47_7_423)">
<path d="M-10.6309 -23.2485L82.5297 69.9659V71.1875L-11.8518 -23.2485H-10.6309Z" fill="#FF8900"/>
</g>
<mask id="mask48_7_423" style="mask-type:alpha" maskUnits="userSpaceOnUse" x="-28" y="-24" width="111" height="111">
<path d="M27.6262 -23.2501L-27.2774 31.6853L27.6262 86.6207L82.5299 31.6853L27.6262 -23.2501Z" fill="white"/>
</mask>
<g mask="url(#mask48_7_423)">
<path d="M-9.4099 -23.2485L82.5298 68.7443V69.9659L-10.6308 -23.2485H-9.4099Z" fill="#FF8A00"/>
</g>
<mask id="mask49_7_423" style="mask-type:alpha" maskUnits="userSpaceOnUse" x="-28" y="-24" width="111" height="111">
<path d="M27.6262 -23.2501L-27.2774 31.6853L27.6262 86.6207L82.5299 31.6853L27.6262 -23.2501Z" fill="white"/>
</mask>
<g mask="url(#mask49_7_423)">
<path d="M-8.18914 -23.2485L82.5297 67.5227V68.7443L-9.41003 -23.2485H-8.18914Z" fill="#FF8B00"/>
</g>
<mask id="mask50_7_423" style="mask-type:alpha" maskUnits="userSpaceOnUse" x="-28" y="-24" width="111" height="111">
<path d="M27.6262 -23.2501L-27.2774 31.6853L27.6262 86.6207L82.5299 31.6853L27.6262 -23.2501Z" fill="white"/>
</mask>
<g mask="url(#mask50_7_423)">
<path d="M-6.98301 -23.2485L82.5298 66.316V67.5227L-8.18903 -23.2485H-6.98301Z" fill="#FF8C00"/>
</g>
<mask id="mask51_7_423" style="mask-type:alpha" maskUnits="userSpaceOnUse" x="-28" y="-24" width="111" height="111">
<path d="M27.6262 -23.2501L-27.2774 31.6853L27.6262 86.6207L82.5299 31.6853L27.6262 -23.2501Z" fill="white"/>
</mask>
<g mask="url(#mask51_7_423)">
<path d="M-5.76207 -23.2485L82.5298 65.0944V66.316L-6.98297 -23.2485H-5.76207Z" fill="#FF8D00"/>
</g>
<mask id="mask52_7_423" style="mask-type:alpha" maskUnits="userSpaceOnUse" x="-28" y="-24" width="111" height="111">
<path d="M27.6262 -23.2501L-27.2774 31.6853L27.6262 86.6207L82.5299 31.6853L27.6262 -23.2501Z" fill="white"/>
</mask>
<g mask="url(#mask52_7_423)">
<path d="M-4.54131 -23.2485L82.5297 63.8728V65.0944L-5.76221 -23.2485H-4.54131Z" fill="#FF8E00"/>
</g>
<mask id="mask53_7_423" style="mask-type:alpha" maskUnits="userSpaceOnUse" x="-28" y="-24" width="111" height="111">
<path d="M27.6262 -23.2501L-27.2774 31.6853L27.6262 86.6207L82.5299 31.6853L27.6262 -23.2501Z" fill="white"/>
</mask>
<g mask="url(#mask53_7_423)">
<path d="M-3.32018 -23.2485L82.5299 62.6512V63.8728L-4.54108 -23.2485H-3.32018Z" fill="#FF8F00"/>
</g>
<mask id="mask54_7_423" style="mask-type:alpha" maskUnits="userSpaceOnUse" x="-28" y="-24" width="111" height="111">
<path d="M27.6262 -23.2501L-27.2774 31.6853L27.6262 86.6207L82.5299 31.6853L27.6262 -23.2501Z" fill="white"/>
</mask>
<g mask="url(#mask54_7_423)">
<path d="M-2.1143 -23.2485L82.5297 61.4296V62.6512L-3.32031 -23.2485H-2.1143Z" fill="#FF9000"/>
</g>
<mask id="mask55_7_423" style="mask-type:alpha" maskUnits="userSpaceOnUse" x="-28" y="-24" width="111" height="111">
<path d="M27.6262 -23.2501L-27.2774 31.6853L27.6262 86.6207L82.5299 31.6853L27.6262 -23.2501Z" fill="white"/>
</mask>
<g mask="url(#mask55_7_423)">
<path d="M-0.893542 -23.2485L82.5296 60.2229V61.4296L-2.11444 -23.2485H-0.893542Z" fill="#FF9100"/>
</g>
<mask id="mask56_7_423" style="mask-type:alpha" maskUnits="userSpaceOnUse" x="-28" y="-24" width="111" height="111">
<path d="M27.6262 -23.2501L-27.2774 31.6853L27.6262 86.6207L82.5299 31.6853L27.6262 -23.2501Z" fill="white"/>
</mask>
<g mask="url(#mask56_7_423)">
<path d="M0.327283 -23.2485L82.5295 59.0013V60.2229L-0.893616 -23.2485H0.327283Z" fill="#FF9200"/>
</g>
<mask id="mask57_7_423" style="mask-type:alpha" maskUnits="userSpaceOnUse" x="-28" y="-24" width="111" height="111">
<path d="M27.6262 -23.2501L-27.2774 31.6853L27.6262 86.6207L82.5299 31.6853L27.6262 -23.2501Z" fill="white"/>
</mask>
<g mask="url(#mask57_7_423)">
<path d="M1.54835 -23.2485L82.5297 57.7797V59.0013L0.327454 -23.2485H1.54835Z" fill="#FF9300"/>
</g>
<mask id="mask58_7_423" style="mask-type:alpha" maskUnits="userSpaceOnUse" x="-28" y="-24" width="111" height="111">
<path d="M27.6262 -23.2501L-27.2774 31.6853L27.6262 86.6207L82.5299 31.6853L27.6262 -23.2501Z" fill="white"/>
</mask>
<g mask="url(#mask58_7_423)">
<path d="M2.7693 -23.2485L82.5298 56.5581V57.7797L1.5484 -23.2485H2.7693Z" fill="#FF9400"/>
</g>
<mask id="mask59_7_423" style="mask-type:alpha" maskUnits="userSpaceOnUse" x="-28" y="-24" width="111" height="111">
<path d="M27.6262 -23.2501L-27.2774 31.6853L27.6262 86.6207L82.5299 31.6853L27.6262 -23.2501Z" fill="white"/>
</mask>
<g mask="url(#mask59_7_423)">
<path d="M3.97517 -23.2485L82.5296 55.3513V56.5581L2.76917 -23.2485H3.97517Z" fill="#FF9500"/>
</g>
<mask id="mask60_7_423" style="mask-type:alpha" maskUnits="userSpaceOnUse" x="-28" y="-24" width="111" height="111">
<path d="M27.6262 -23.2501L-27.2774 31.6853L27.6262 86.6207L82.5299 31.6853L27.6262 -23.2501Z" fill="white"/>
</mask>
<g mask="url(#mask60_7_423)">
<path d="M5.19624 -23.2485L82.5298 54.1297V55.3513L3.97534 -23.2485H5.19624Z" fill="#FF9600"/>
</g>
<mask id="mask61_7_423" style="mask-type:alpha" maskUnits="userSpaceOnUse" x="-28" y="-24" width="111" height="111">
<path d="M27.6262 -23.2501L-27.2774 31.6853L27.6262 86.6207L82.5299 31.6853L27.6262 -23.2501Z" fill="white"/>
</mask>
<g mask="url(#mask61_7_423)">
<path d="M6.41707 -23.2485L82.5297 52.9081V54.1297L5.19617 -23.2485H6.41707Z" fill="#FF9700"/>
</g>
<mask id="mask62_7_423" style="mask-type:alpha" maskUnits="userSpaceOnUse" x="-28" y="-24" width="111" height="111">
<path d="M27.6262 -23.2501L-27.2774 31.6853L27.6262 86.6207L82.5299 31.6853L27.6262 -23.2501Z" fill="white"/>
</mask>
<g mask="url(#mask62_7_423)">
<path d="M7.63801 -23.2485L82.5298 51.6865V52.9081L6.41711 -23.2485H7.63801Z" fill="#FF9800"/>
</g>
<mask id="mask63_7_423" style="mask-type:alpha" maskUnits="userSpaceOnUse" x="-28" y="-24" width="111" height="111">
<path d="M27.6262 -23.2501L-27.2774 31.6853L27.6262 86.6207L82.5299 31.6853L27.6262 -23.2501Z" fill="white"/>
</mask>
<g mask="url(#mask63_7_423)">
<path d="M8.84389 -23.2485L82.5296 50.4649V51.6865L7.63788 -23.2485H8.84389Z" fill="#FF9900"/>
</g>
<mask id="mask64_7_423" style="mask-type:alpha" maskUnits="userSpaceOnUse" x="-28" y="-24" width="111" height="111">
<path d="M27.6262 -23.2501L-27.2774 31.6853L27.6262 86.6207L82.5299 31.6853L27.6262 -23.2501Z" fill="white"/>
</mask>
<g mask="url(#mask64_7_423)">
<path d="M10.0649 -23.2485L82.5297 49.2582V50.4649L8.84399 -23.2485H10.0649Z" fill="#FF9A00"/>
</g>
<mask id="mask65_7_423" style="mask-type:alpha" maskUnits="userSpaceOnUse" x="-28" y="-24" width="111" height="111">
<path d="M27.6262 -23.2501L-27.2774 31.6853L27.6262 86.6207L82.5299 31.6853L27.6262 -23.2501Z" fill="white"/>
</mask>
<g mask="url(#mask65_7_423)">
<path d="M11.2857 -23.2485L82.5297 48.0366V49.2582L10.0648 -23.2485H11.2857Z" fill="#FF9B00"/>
</g>
<mask id="mask66_7_423" style="mask-type:alpha" maskUnits="userSpaceOnUse" x="-28" y="-24" width="111" height="111">
<path d="M27.6262 -23.2501L-27.2774 31.6853L27.6262 86.6207L82.5299 31.6853L27.6262 -23.2501Z" fill="white"/>
</mask>
<g mask="url(#mask66_7_423)">
<path d="M12.5068 -23.2485L82.5298 46.815V48.0366L11.2859 -23.2485H12.5068Z" fill="#FF9C00"/>
</g>
<mask id="mask67_7_423" style="mask-type:alpha" maskUnits="userSpaceOnUse" x="-28" y="-24" width="111" height="111">
<path d="M27.6262 -23.2501L-27.2774 31.6853L27.6262 86.6207L82.5299 31.6853L27.6262 -23.2501Z" fill="white"/>
</mask>
<g mask="url(#mask67_7_423)">
<path d="M82.5298 46.815L12.5067 -23.2485H82.5298V46.815Z" fill="#FF9C00"/>
</g>
</g>
<path d="M0 43.441V19.1628C0 16.8668 1.25612 14.7189 3.25994 13.5783L24.4794 1.44663C26.4832 0.291228 28.9805 0.291228 30.9993 1.44663L52.2188 13.5783C54.2226 14.7337 55.4787 16.8668 55.4787 19.1628V43.441C55.4787 45.7369 54.2226 47.8848 52.2188 49.0254L30.9993 61.1719C28.9955 62.3273 26.4982 62.3273 24.4794 61.1719L3.25994 49.0254C1.25612 47.8848 0 45.7369 0 43.441ZM52.3384 19.1628C52.3384 17.9777 51.6954 16.8668 50.6486 16.2743L29.4291 4.12775C28.3824 3.53523 27.0963 3.53523 26.0496 4.12775L4.83009 16.2594C3.78332 16.852 3.1403 17.9629 3.1403 19.1479V43.4262C3.1403 44.6112 3.78332 45.7221 4.83009 46.3147L26.0496 58.4463C27.0963 59.0389 28.3824 59.0389 29.4291 58.4463L50.6636 46.3295C51.7103 45.7369 52.3534 44.626 52.3534 43.441V19.1628H52.3384Z" fill="#272122"/>
<path d="M32.3835 36.044C29.0335 38.3978 26.2492 38.3978 22.8843 36.0142C22.8694 35.9993 22.8545 35.9844 22.8396 35.9844C22.3334 35.6268 22.2739 35.6566 22.1696 36.2376C21.991 37.3103 22.0356 38.3978 22.1399 39.4853C22.1547 39.7088 22.259 39.8429 22.4674 39.9471C25.3857 41.4518 28.3784 41.9881 31.4902 40.543C33.4108 39.6492 33.1279 40.2451 33.2471 37.936C33.2471 37.4145 33.2471 36.8931 33.1577 36.3717C33.0237 35.6119 32.9939 35.597 32.3835 36.044Z" fill="#272122"/>
<path d="M31.9814 42.0625C29.7927 42.8074 27.5743 43.1351 25.2814 42.5988C24.5369 42.42 23.8074 42.1817 23.0778 41.988C22.9438 41.9582 22.7949 41.839 22.6907 41.988C22.646 42.0625 22.6907 42.2263 22.7353 42.3306C23.1671 43.6714 23.7627 44.9079 24.79 45.8912C25.5792 46.6658 26.5172 47.1277 27.6487 47.1426C28.7207 47.1277 29.629 46.6956 30.4181 45.9657C31.4305 45.0271 32.041 43.8353 32.4877 42.5541C32.5472 42.3753 32.711 42.1221 32.5919 41.988C32.4281 41.7794 32.175 41.988 31.9814 42.0625Z" fill="#272122"/>
<path d="M27.7381 25.5112C25.7132 25.4814 24.1499 26.3753 23.063 28.1034C22.795 28.5205 22.8396 28.6844 23.3756 28.6993C24.537 28.7291 25.6983 28.9079 26.8299 29.1909C27.0979 29.2505 27.3808 29.325 27.6339 29.3846C27.753 29.3548 27.8572 29.3399 27.9466 29.325C29.2717 28.9526 30.6266 28.7589 31.9964 28.6993C32.4877 28.6844 32.4728 28.5056 32.2644 28.1481C31.2221 26.4647 29.7183 25.541 27.7381 25.5112Z" fill="#272122"/>
<path d="M27.6191 36.2971C29.6887 36.2375 31.252 35.3139 32.324 33.5262C32.5622 33.1388 32.5325 32.9451 32.0113 32.9898C30.6416 33.109 29.3015 33.3623 28.0955 34.0625C27.7829 34.2412 27.5297 34.2561 27.2171 34.0625C26.0111 33.3623 24.6859 33.0941 23.3013 32.9898C22.7801 32.9451 22.7504 33.1388 22.9737 33.5262C24.0308 35.2841 25.5644 36.2077 27.6191 36.2971Z" fill="#272122"/>
<path d="M46.9897 31.7235C46.96 31.6937 46.9153 31.6937 46.8855 31.6639C46.3197 31.2766 45.7689 30.8743 45.1882 30.4721C45.2775 30.3827 45.3073 30.3529 45.3371 30.338C45.7689 30.1295 46.1709 29.8911 46.5431 29.6229C48.6722 28.0587 49.8484 25.4069 49.5209 22.7253C49.4911 22.4721 49.4167 22.2039 49.3273 21.9656C49.0444 21.2505 48.6871 21.0866 47.9575 21.3548C45.0393 22.3827 42.2402 23.6788 39.4708 25.0643C37.7288 25.9432 36.0314 26.8967 34.4681 28.0736C34.2894 28.2077 34.1256 28.3566 33.9619 28.4907C34.2894 28.4609 34.5425 28.3566 34.8105 28.2524C38.8901 26.5838 42.9697 24.96 47.1089 23.4553C47.9278 23.1574 48.0915 23.2766 47.9575 24.1555C47.6151 26.3455 46.6771 28.163 44.6075 29.2207C43.9375 29.4144 43.2824 29.6229 42.6124 29.8166C42.5528 29.8315 42.4933 29.8315 42.4188 29.8464C42.255 29.8166 42.1061 29.8315 41.9573 29.906L41.3319 29.9656C40.245 29.9656 39.1581 29.9656 38.0712 29.9656C37.699 29.9507 37.3268 29.9358 36.9694 29.906C36.493 29.8017 36.0314 29.8017 35.555 29.8464C34.4234 29.757 33.2919 29.7272 32.1603 29.8464C31.8774 29.8017 31.6094 29.8166 31.3414 29.906C31.2074 29.9209 31.0883 29.9358 30.9543 29.9507C30.716 29.9209 30.4927 29.9358 30.2843 30.055C30.2247 30.0699 30.1652 30.0699 30.1056 30.0848C29.7929 30.0699 29.4951 30.1444 29.2123 30.2933C29.1527 30.3082 29.0783 30.3231 29.0187 30.338C28.7954 30.338 28.5869 30.4125 28.4083 30.5466C28.2891 30.5913 28.1849 30.636 28.0658 30.6807C27.9467 30.6658 27.8722 30.7105 27.7978 30.7999C27.6936 30.7999 27.5894 30.7999 27.4851 30.7999C27.4256 30.7105 27.3362 30.6807 27.2171 30.6807C27.098 30.636 26.9938 30.5913 26.8747 30.5466C26.696 30.4125 26.4876 30.338 26.2642 30.338C26.2047 30.3231 26.1302 30.3082 26.0707 30.2933C25.7878 30.1444 25.49 30.0699 25.1773 30.0848C25.1178 30.0699 25.0582 30.0699 24.9987 30.055C24.7902 29.9358 24.5669 29.9209 24.3287 29.9507C24.2393 29.9507 24.15 29.9358 24.0458 29.9358C23.5842 29.7868 23.1078 29.7868 22.6313 29.8315C21.9018 29.7421 21.1871 29.757 20.4575 29.8315C19.7428 29.7868 19.0282 29.8166 18.3135 29.9209C17.9859 29.9358 17.6435 29.9507 17.3159 29.9656C16.1993 29.9656 15.0677 29.9656 13.951 29.9656C13.7426 29.9507 13.5341 29.9209 13.3257 29.906C12.4323 29.7421 11.5539 29.5485 10.6903 29.2356C9.96076 28.8632 9.35031 28.3268 8.73986 27.7905C8.66541 27.6863 8.59097 27.5969 8.51652 27.4926C8.15918 26.7626 7.77207 26.0326 7.53385 25.243C7.56362 25.1537 7.54873 25.0792 7.47429 25.0196C7.41473 24.4982 7.23607 23.9767 7.34029 23.4255C7.38496 23.4106 7.39984 23.3808 7.39984 23.3361C7.60829 23.2617 7.80185 23.3361 7.98052 23.4106C12.1643 24.96 16.3333 26.5242 20.4128 28.2971C20.6064 28.3864 20.8 28.5354 21.1275 28.4162C20.3831 27.6862 19.5642 27.1797 18.7453 26.703C16.8246 25.5708 14.8592 24.5577 12.8046 23.6639C10.9732 22.8743 9.17164 21.9954 7.28073 21.3548C6.58095 21.1164 6.22361 21.2654 5.95561 21.9507C5.85139 22.2039 5.77694 22.487 5.74716 22.77C5.47916 25.7198 6.86384 28.8185 9.61831 30.2188C9.7672 30.2933 9.96075 30.338 10.0054 30.5615C9.0823 31.0829 8.21874 31.6639 7.60829 32.5727C7.1914 33.2878 7.28073 33.8092 7.90607 34.3008C8.2783 34.5838 8.71008 34.7775 9.15675 34.8669C12.745 35.5969 16.1099 35.0606 19.1622 32.9749C19.3706 32.8408 19.5791 32.6919 19.7428 32.3492C18.239 33.1239 16.7353 33.541 15.1868 33.7645C13.549 34.0028 11.9112 34.1667 10.2734 33.7496C9.48431 33.541 9.38008 33.2431 9.7672 32.528C9.85653 32.4535 9.94587 32.3641 10.0352 32.2896C10.9583 31.6192 11.8517 30.9488 13.1172 31.1723C14.2488 31.3809 15.3952 31.3362 16.5417 31.3213C18.373 31.3064 20.1895 31.2021 22.0209 31.3064C23.8969 31.4107 25.7431 31.7086 27.3511 32.7961C27.6191 32.9749 27.7829 32.8557 27.9914 32.7216C28.974 32.0959 30.046 31.7384 31.1776 31.5298C32.875 31.2319 34.5723 31.2617 36.2845 31.2915C38.1308 31.3213 39.9919 31.4851 41.8233 31.2021C42.8953 31.0382 43.7439 31.3362 44.5777 31.8874C44.682 31.947 44.7564 32.0513 44.8904 32.0513C45.0691 32.2151 45.2477 32.3641 45.4115 32.5429C45.888 33.0494 45.8135 33.4367 45.1584 33.69C44.8308 33.8241 44.4586 33.9135 44.1013 33.9433C41.3766 34.1518 38.7263 33.7794 36.1952 32.7216C36.091 32.677 35.9868 32.6025 35.8677 32.5578C35.7634 32.5131 35.6592 32.4237 35.4954 32.4982C36.3292 33.3473 37.3268 33.8837 38.3988 34.2859C40.9895 35.2245 43.6248 35.5671 46.3197 34.8073C47.0046 34.6136 47.6895 34.3008 47.8384 33.4963C48.032 32.6919 47.4811 32.2002 46.9897 31.7235Z" fill="#272122"/>
<path d="M20.7105 19.4926C21.2019 19.4926 21.6187 19.0904 21.6187 18.5839C21.6187 18.4796 21.6039 18.3753 21.5741 18.2859C22.2143 18.2561 23.1076 18.3306 23.9414 18.8669C25.1177 19.6118 25.9068 21.0271 26.279 23.0681C25.6388 23.5001 25.1623 24.2003 25.0879 24.9452C25.0432 25.2878 25.1028 25.4517 25.4303 25.2878C26.9192 24.5727 28.4081 24.5727 29.897 25.2878C30.1799 25.4219 30.2544 25.3176 30.2246 25.0345C30.165 24.2748 29.6886 23.5299 29.0335 23.083C29.4057 21.0271 30.1948 19.6118 31.3859 18.8669C32.2048 18.3455 33.0833 18.2561 33.7086 18.2859C33.6789 18.3753 33.664 18.4647 33.664 18.569C33.664 19.0606 34.066 19.4777 34.5722 19.4777C35.0635 19.4777 35.4804 19.0755 35.4804 18.569C35.4804 18.1071 35.138 17.7347 34.7062 17.6751C34.1553 17.541 32.5324 17.2729 31.0137 18.2263C29.6886 19.0606 28.7953 20.5802 28.3635 22.7403C28.155 22.6658 27.9317 22.636 27.7232 22.6211C27.4701 22.6211 27.2319 22.6509 26.9937 22.7254C26.5619 20.5653 25.6686 19.0457 24.3434 18.2263C22.4972 17.0792 20.5318 17.69 20.4574 17.7198C20.4425 17.7198 20.4276 17.7347 20.4127 17.7347C20.0852 17.8688 19.847 18.1965 19.847 18.569C19.8172 19.0904 20.2192 19.4926 20.7105 19.4926Z" fill="#272122"/>
</svg>
