<svg width="56" height="56" viewBox="0 0 56 56" fill="none" xmlns="http://www.w3.org/2000/svg">
<path d="M26 1.1547C27.2376 0.440169 28.7624 0.440169 30 1.1547L50.2487 12.8453C51.4863 13.5598 52.2487 14.8803 52.2487 16.3094V39.6906C52.2487 41.1197 51.4863 42.4402 50.2487 43.1547L30 54.8453C28.7624 55.5598 27.2376 55.5598 26 54.8453L5.75129 43.1547C4.51368 42.4402 3.75129 41.1197 3.75129 39.6906V16.3094C3.75129 14.8803 4.51369 13.5598 5.75129 12.8453L26 1.1547Z" fill="white"/>
<g filter="url(#filter0_d_6_282)">
<path d="M26 5.1547C27.2376 4.44017 28.7624 4.44017 30 5.1547L46.7846 14.8453C48.0222 15.5598 48.7846 16.8803 48.7846 18.3094V37.6906C48.7846 39.1197 48.0222 40.4402 46.7846 41.1547L30 50.8453C28.7624 51.5598 27.2376 51.5598 26 50.8453L9.21539 41.1547C7.97779 40.4402 7.21539 39.1197 7.21539 37.6906V18.3094C7.21539 16.8803 7.97779 15.5598 9.21539 14.8453L26 5.1547Z" fill="url(#paint0_linear_6_282)"/>
</g>
<path d="M36.9281 27.1206L31.7875 25.1234C31.9467 24.6903 32.0281 24.2318 32.0281 23.7545C32.0281 22.3759 31.3316 21.1579 30.2724 20.4317C30.4351 20.0336 30.9352 19.2399 32.438 18.6349C32.662 18.5443 32.7705 18.2897 32.6804 18.0657C32.5903 17.8417 32.3361 17.7336 32.1112 17.8233C30.44 18.4962 29.7701 19.4302 29.5028 20.0204C29.0378 19.8327 28.5311 19.7269 28 19.7269C27.4689 19.7269 26.9618 19.8327 26.4972 20.0204C26.2295 19.4307 25.5601 18.4966 23.8888 17.8233C23.6635 17.7327 23.4098 17.8417 23.3196 18.0657C23.2295 18.2897 23.338 18.5447 23.562 18.6349C25.0644 19.2399 25.5649 20.0331 25.7276 20.4312C24.6685 21.1579 23.972 22.3759 23.972 23.7545C23.972 24.2314 24.0533 24.6899 24.2126 25.1234L19.072 27.1206C17.8981 27.5765 17.0411 28.5841 16.7795 29.8161C16.5178 31.0476 16.8906 32.3168 17.7774 33.2106C18.4818 33.9207 19.4185 34.3118 20.4151 34.3118C21.7556 34.3118 22.9587 33.6219 23.6333 32.4664L23.9225 31.9712C24.1981 35.5399 25.8873 38.2082 27.9996 38.2082C30.1118 38.2082 31.8015 35.5399 32.0766 31.9712L32.3658 32.4664C33.0405 33.6219 34.2436 34.3118 35.5841 34.3118C36.5811 34.3118 37.5178 33.9207 38.2222 33.2106C39.109 32.3168 39.4818 31.0476 39.2201 29.8161C38.959 28.5841 38.1019 27.5765 36.9281 27.1206ZM24.8465 23.7545C24.8465 22.0159 26.261 20.601 28 20.601C29.7391 20.601 31.1535 22.0154 31.1535 23.7545C31.1535 24.1216 31.0914 24.4733 30.9715 24.8062C30.4675 24.6107 29.1288 24.0905 28.1588 23.7134C28.0757 23.681 27.9392 23.6757 27.8416 23.7134L25.0285 24.8062C24.9086 24.4737 24.8465 24.1216 24.8465 23.7545ZM30.8044 34.0992H25.1956C24.9747 33.3554 24.8268 32.5237 24.7756 31.6422H31.2244C31.1732 32.5237 31.0253 33.3554 30.8044 34.0992ZM31.2349 30.5287C31.2384 30.6075 31.2397 30.6876 31.2415 30.7672H24.759C24.7603 30.6871 24.7621 30.6075 24.7656 30.5287L26.058 28.3154H29.9425L31.2349 30.5287ZM26.5685 27.4404L28 24.9891L29.4315 27.4404H26.5685ZM22.8778 32.025C22.3615 32.9092 21.441 33.4368 20.4155 33.4368C19.6538 33.4368 18.9376 33.1376 18.3986 32.5946C17.7205 31.9108 17.4348 30.94 17.6352 29.9981C17.8356 29.0561 18.491 28.2852 19.3887 27.9366L26.6836 25.1024C26.6862 25.1011 26.6893 25.1002 26.6919 25.0994L26.9898 24.9834L22.8778 32.025ZM28 37.3332C27.0086 37.3332 26.1039 36.4044 25.5032 34.9737H30.4973C29.8961 36.4044 28.9914 37.3332 28 37.3332ZM37.6014 32.5942C37.0628 33.1371 36.3462 33.4364 35.5845 33.4364C34.5586 33.4364 33.6381 32.9087 33.1218 32.0246L29.0098 24.9826L29.3073 25.0981C29.309 25.0989 29.3112 25.0994 29.313 25.1002L36.6109 27.9357C37.5086 28.2844 38.1645 29.0552 38.3644 29.9972C38.5652 30.94 38.28 31.9104 37.6014 32.5942Z" fill="#272122"/>
<defs>
<filter id="filter0_d_6_282" x="6.21539" y="4.6188" width="45.5692" height="50.7624" filterUnits="userSpaceOnUse" color-interpolation-filters="sRGB">
<feFlood flood-opacity="0" result="BackgroundImageFix"/>
<feColorMatrix in="SourceAlpha" type="matrix" values="0 0 0 0 0 0 0 0 0 0 0 0 0 0 0 0 0 0 127 0" result="hardAlpha"/>
<feOffset dx="1" dy="2"/>
<feGaussianBlur stdDeviation="1"/>
<feComposite in2="hardAlpha" operator="out"/>
<feColorMatrix type="matrix" values="0 0 0 0 0 0 0 0 0 0 0 0 0 0 0 0 0 0 0.25 0"/>
<feBlend mode="normal" in2="BackgroundImageFix" result="effect1_dropShadow_6_282"/>
<feBlend mode="normal" in="SourceGraphic" in2="effect1_dropShadow_6_282" result="shape"/>
</filter>
<linearGradient id="paint0_linear_6_282" x1="7.02362" y1="50" x2="56.3218" y2="43.2606" gradientUnits="userSpaceOnUse">
<stop stop-color="#FF6100"/>
<stop offset="1" stop-color="#FF9600"/>
</linearGradient>
</defs>
</svg>
