<svg width="56" height="56" viewBox="0 0 56 56" fill="none" xmlns="http://www.w3.org/2000/svg">
<path d="M26 1.1547C27.2376 0.440169 28.7624 0.440169 30 1.1547L50.2487 12.8453C51.4863 13.5598 52.2487 14.8803 52.2487 16.3094V39.6906C52.2487 41.1197 51.4863 42.4402 50.2487 43.1547L30 54.8453C28.7624 55.5598 27.2376 55.5598 26 54.8453L5.75129 43.1547C4.51368 42.4402 3.75129 41.1197 3.75129 39.6906V16.3094C3.75129 14.8803 4.51369 13.5598 5.75129 12.8453L26 1.1547Z" fill="white"/>
<g filter="url(#filter0_d_6_312)">
<path d="M26 5.1547C27.2376 4.44017 28.7624 4.44017 30 5.1547L46.7846 14.8453C48.0222 15.5598 48.7846 16.8803 48.7846 18.3094V37.6906C48.7846 39.1197 48.0222 40.4402 46.7846 41.1547L30 50.8453C28.7624 51.5598 27.2376 51.5598 26 50.8453L9.21539 41.1547C7.97779 40.4402 7.21539 39.1197 7.21539 37.6906V18.3094C7.21539 16.8803 7.97779 15.5598 9.21539 14.8453L26 5.1547Z" fill="url(#paint0_linear_6_312)"/>
</g>
<g clip-path="url(#clip0_6_312)">
<path d="M26.125 28C26.3321 28 26.5 27.6642 26.5 27.25C26.5 26.8358 26.3321 26.5 26.125 26.5C25.9179 26.5 25.75 26.8358 25.75 27.25C25.75 27.6642 25.9179 28 26.125 28Z" fill="#272122"/>
<path d="M29.875 28C30.0821 28 30.25 27.6642 30.25 27.25C30.25 26.8358 30.0821 26.5 29.875 26.5C29.6679 26.5 29.5 26.8358 29.5 27.25C29.5 27.6642 29.6679 28 29.875 28Z" fill="#272122"/>
<path d="M27.25 31C27.6257 31 29.5 30.9456 29.5 29.875C29.5 29.668 29.332 29.5 29.125 29.5C28.918 29.5 28.75 29.668 28.75 29.875C28.75 30.0378 28.0225 30.2489 27.25 30.25C27.043 30.2504 26.875 30.4184 26.8754 30.625C26.875 30.8324 27.043 31 27.25 31Z" fill="#272122"/>
<path d="M39.25 25.375H38.5H38.125V24.625C38.125 24.418 37.957 24.25 37.75 24.25C37.543 24.25 37.375 24.418 37.375 24.625V24.8448L36.8901 24.3599C36.7435 24.2133 36.5065 24.2133 36.3599 24.3599C36.2132 24.5065 36.2132 24.7435 36.3599 24.8901L36.967 25.4973C36.7615 25.6311 36.625 25.8621 36.625 26.125H36.25C36.043 26.125 35.875 26.293 35.875 26.5C35.875 26.707 36.043 26.875 36.25 26.875H36.625C36.625 27.2886 36.9614 27.625 37.375 27.625H38.5H39.625C39.832 27.625 40 27.457 40 27.25V26.125C40 25.7114 39.6636 25.375 39.25 25.375ZM37.375 26.125H38.125V26.875H37.375V26.125ZM39.25 26.875H38.875V26.125H39.25V26.875Z" fill="#272122"/>
<path d="M17.5 18.25H17.125C16.918 18.25 16.75 18.418 16.75 18.625C16.75 18.832 16.918 19 17.125 19H17.5C17.5 19.4136 17.8364 19.75 18.25 19.75H19.375H20.5C20.707 19.75 20.875 19.582 20.875 19.375V18.25C20.875 17.8364 20.5386 17.5 20.125 17.5H19.375H19V16.75C19 16.543 18.832 16.375 18.625 16.375C18.418 16.375 18.25 16.543 18.25 16.75V16.9698L17.7651 16.4849C17.6185 16.3383 17.3815 16.3383 17.2349 16.4849C17.0882 16.6315 17.0882 16.8685 17.2349 17.0151L17.842 17.6223C17.6365 17.7561 17.5 17.9871 17.5 18.25ZM18.25 18.25H19V19H18.25V18.25ZM20.125 19H19.75V18.25H20.125V19Z" fill="#272122"/>
<path d="M16.375 32.125H17.5H18.625C19.0386 32.125 19.375 31.7886 19.375 31.375H19.75C19.957 31.375 20.125 31.207 20.125 31C20.125 30.793 19.957 30.625 19.75 30.625H19.375C19.375 30.3621 19.2385 30.1311 19.033 29.9972L19.6401 29.3901C19.7867 29.2435 19.7867 29.0065 19.6401 28.8599C19.4935 28.7132 19.2565 28.7132 19.1099 28.8599L18.625 29.3447V29.125C18.625 28.918 18.457 28.75 18.25 28.75C18.043 28.75 17.875 28.918 17.875 29.125V29.875H17.5H16.75C16.3364 29.875 16 30.2114 16 30.625V31.75C16 31.957 16.168 32.125 16.375 32.125ZM18.625 31.375H17.875V30.625H18.625V31.375ZM16.75 30.625H17.125V31.375H16.75V30.625Z" fill="#272122"/>
<path d="M35.4708 34.5194C35.4899 34.474 35.5 34.4252 35.5 34.375V22.75C35.707 22.75 35.875 22.582 35.875 22.375V21.625C35.875 21.0047 35.3702 20.5 34.75 20.5H32.5068C32.4918 19.804 32.3313 18.3591 31.3409 17.2832C30.5579 16.4316 29.4336 16 28 16C26.5664 16 25.4421 16.4316 24.6588 17.2832C23.6687 18.3591 23.5083 19.804 23.4932 20.5H21.25C20.6298 20.5 20.125 21.0047 20.125 21.625V22.375C20.125 22.582 20.293 22.75 20.5 22.75V34.375C20.5 34.4252 20.5101 34.474 20.5293 34.5194C20.5484 34.5647 20.5757 34.606 20.6102 34.6401L21.8616 35.8915L20.2101 36.9925C19.6874 37.3412 19.375 37.9244 19.375 38.5529V39.625C19.375 39.832 19.543 40 19.75 40H36.25C36.457 40 36.625 39.832 36.625 39.625V38.5529C36.625 37.9244 36.3126 37.3412 35.7899 36.9929L34.1384 35.8919L35.3898 34.6401C35.4242 34.606 35.452 34.5647 35.4708 34.5194ZM34.7504 34H29.875V32.8356C31.4215 32.1227 32.5 30.5616 32.5 28.75H32.7528C33.4405 28.75 34 28.1905 34 27.5028V26.9972C34 26.6493 33.856 26.3346 33.625 26.1081V22.75H34.75L34.7504 34ZM23.5 28H23.2473C22.9731 28 22.75 27.7769 22.75 27.5028V26.9972C22.75 26.7231 22.9731 26.5 23.2473 26.5H23.5V28ZM32.875 22.75V25.7624C32.8341 25.7583 32.7948 25.75 32.7528 25.75H32.5V25C32.5 24.793 32.332 24.625 32.125 24.625C31.918 24.625 31.75 24.793 31.75 25V25.2614L30.937 24.0419C30.8575 23.9226 30.7172 23.8589 30.5751 23.878C30.4334 23.8971 30.3145 23.995 30.2691 24.1311C30.058 24.7649 29.548 25.1215 29.2446 25.2843L28.4845 24.271C28.5299 24.2035 28.5771 24.139 28.6202 24.0662C28.7256 23.8878 28.666 23.6579 28.4875 23.5529C28.3094 23.4475 28.0795 23.5071 27.9741 23.6856C27.2459 24.9209 25.9983 25.2531 25.375 25.3424V24.25C25.375 24.043 25.207 23.875 25 23.875C24.793 23.875 24.625 24.043 24.625 24.25V24.4698L24.2238 24.871C24.1709 24.7281 24.0363 24.625 23.875 24.625C23.668 24.625 23.5 24.793 23.5 25V25.75H23.2473C23.2053 25.75 23.1659 25.7583 23.125 25.7624V22.75H32.875ZM32.5 26.5H32.7528C33.0269 26.5 33.25 26.7231 33.25 26.9972V27.5028C33.25 27.7769 33.0269 28 32.7528 28H32.5V26.5ZM24.25 25.9052L24.625 25.5302V25.75C24.625 25.957 24.793 26.125 25 26.125C25.0833 26.125 26.7543 26.1032 27.9944 24.8676L28.825 25.975C28.9218 26.104 29.0905 26.1569 29.2435 26.1059C29.287 26.0912 30.1296 25.8018 30.6719 24.9966L31.75 26.6136V28.75C31.75 30.8177 30.0677 32.5 28 32.5C25.9323 32.5 24.25 30.8177 24.25 28.75V25.9052ZM28 33.25C28.3889 33.25 28.7646 33.1952 29.125 33.1019V34H26.875V33.1019C27.2354 33.1952 27.6111 33.25 28 33.25ZM25.2141 17.7872C25.7822 17.1722 26.593 16.8302 27.625 16.7639V18.25C27.625 18.457 27.793 18.625 28 18.625C28.207 18.625 28.375 18.457 28.375 18.25V16.7639C29.407 16.8299 30.2178 17.1719 30.7859 17.7872C31.5996 18.6689 31.7384 19.9067 31.7549 20.5H28.375V19.75C28.375 19.543 28.207 19.375 28 19.375C27.793 19.375 27.625 19.543 27.625 19.75V20.5H24.2451C24.2616 19.9064 24.4004 18.6685 25.2141 17.7872ZM20.875 21.625C20.875 21.4184 21.0434 21.25 21.25 21.25H34.75C34.9566 21.25 35.125 21.4184 35.125 21.625V22H20.875V21.625ZM22.375 22.75V26.1081C22.144 26.3346 22 26.6493 22 26.9972V27.5028C22 28.1905 22.5595 28.75 23.2473 28.75H23.5C23.5 30.5616 24.5785 32.1227 26.125 32.8356V34H25.375C25.168 34 25 34.168 25 34.375C25 34.582 25.168 34.75 25.375 34.75H34.2201L32.6744 36.2957C32.4651 36.505 32.1753 36.625 31.879 36.625H24.1214C23.8251 36.625 23.5356 36.505 23.326 36.2957L21.7802 34.75H23.875C24.082 34.75 24.25 34.582 24.25 34.375C24.25 34.168 24.082 34 23.875 34H21.25V22.75H22.375ZM27.25 38.125V37.375H28.75V38.125H27.25ZM20.125 38.5529C20.125 38.176 20.3125 37.8261 20.626 37.6169L22.4024 36.4326L22.7957 36.826C23.1497 37.18 23.6204 37.375 24.1214 37.375H26.5V38.5C26.5 38.707 26.668 38.875 26.875 38.875H27.625V39.25H20.125V38.5529ZM35.374 37.6169C35.6875 37.8258 35.875 38.1756 35.875 38.5529V39.25H28.375V38.875H29.125C29.332 38.875 29.5 38.707 29.5 38.5V37.375H31.879C32.3796 37.375 32.8506 37.18 33.2046 36.826L33.5976 36.433L35.374 37.6169Z" fill="#272122"/>
</g>
<defs>
<filter id="filter0_d_6_312" x="6.21539" y="4.6188" width="45.5692" height="50.7624" filterUnits="userSpaceOnUse" color-interpolation-filters="sRGB">
<feFlood flood-opacity="0" result="BackgroundImageFix"/>
<feColorMatrix in="SourceAlpha" type="matrix" values="0 0 0 0 0 0 0 0 0 0 0 0 0 0 0 0 0 0 127 0" result="hardAlpha"/>
<feOffset dx="1" dy="2"/>
<feGaussianBlur stdDeviation="1"/>
<feComposite in2="hardAlpha" operator="out"/>
<feColorMatrix type="matrix" values="0 0 0 0 0 0 0 0 0 0 0 0 0 0 0 0 0 0 0.25 0"/>
<feBlend mode="normal" in2="BackgroundImageFix" result="effect1_dropShadow_6_312"/>
<feBlend mode="normal" in="SourceGraphic" in2="effect1_dropShadow_6_312" result="shape"/>
</filter>
<linearGradient id="paint0_linear_6_312" x1="7.02362" y1="50" x2="56.3218" y2="43.2606" gradientUnits="userSpaceOnUse">
<stop stop-color="#FF6100"/>
<stop offset="1" stop-color="#FF9600"/>
</linearGradient>
<clipPath id="clip0_6_312">
<rect width="24" height="24" fill="white" transform="translate(16 16)"/>
</clipPath>
</defs>
</svg>
