<svg width="56" height="56" viewBox="0 0 56 56" fill="none" xmlns="http://www.w3.org/2000/svg">
<path d="M26 1.1547C27.2376 0.440169 28.7624 0.440169 30 1.1547L50.2487 12.8453C51.4863 13.5598 52.2487 14.8803 52.2487 16.3094V39.6906C52.2487 41.1197 51.4863 42.4402 50.2487 43.1547L30 54.8453C28.7624 55.5598 27.2376 55.5598 26 54.8453L5.75129 43.1547C4.51368 42.4402 3.75129 41.1197 3.75129 39.6906V16.3094C3.75129 14.8803 4.51369 13.5598 5.75129 12.8453L26 1.1547Z" fill="white"/>
<g filter="url(#filter0_d_6_311)">
<path d="M26 5.1547C27.2376 4.44017 28.7624 4.44017 30 5.1547L46.7846 14.8453C48.0222 15.5598 48.7846 16.8803 48.7846 18.3094V37.6906C48.7846 39.1197 48.0222 40.4402 46.7846 41.1547L30 50.8453C28.7624 51.5598 27.2376 51.5598 26 50.8453L9.21539 41.1547C7.97779 40.4402 7.21539 39.1197 7.21539 37.6906V18.3094C7.21539 16.8803 7.97779 15.5598 9.21539 14.8453L26 5.1547Z" fill="url(#paint0_linear_6_311)"/>
</g>
<g clip-path="url(#clip0_6_311)">
<path d="M39.9401 29.8266L37.6338 25.7148C37.5509 25.5669 37.3946 25.4753 37.225 25.4753H32.8867L30.7148 21.6029C30.6318 21.455 30.4755 21.3634 30.3059 21.3634H25.9683L23.7963 17.491C23.7134 17.3431 23.5571 17.2516 23.3875 17.2516H18.775C18.6055 17.2516 18.4491 17.3431 18.3662 17.491L16.0599 21.6029C15.98 21.7453 15.98 21.9191 16.0599 22.0615L18.2375 25.9441L16.0599 29.8266C15.98 29.9691 15.98 30.1428 16.0599 30.2852L18.3662 34.3971C18.4491 34.545 18.6054 34.6366 18.775 34.6366H23.1126L25.2846 38.509C25.3675 38.6569 25.5238 38.7484 25.6934 38.7484H30.3059C30.4755 38.7484 30.6318 38.6569 30.7148 38.509L32.8867 34.6366H37.225C37.3945 34.6366 37.5509 34.545 37.6338 34.3971L39.9401 30.2852C40.02 30.1428 40.02 29.969 39.9401 29.8266ZM32.0748 25.9441L30.0314 29.5872H25.9683L23.925 25.9441L25.9683 22.3009H30.0314L32.0748 25.9441ZM19.0495 18.1891H23.113L25.1561 21.8319L23.1126 25.4753H19.0495L17.0062 21.8322L19.0495 18.1891ZM17.0062 30.0559L19.0495 26.4128H23.1126L25.156 30.0559L23.1126 33.6991H19.0495L17.0062 30.0559ZM30.0314 37.8109H25.968L23.9248 34.1681L25.9683 30.5247H30.0314L32.0748 34.1678L30.0314 37.8109ZM36.9505 33.6991H32.887L30.8437 30.0559L32.887 26.4128H36.9505L38.9938 30.0559L36.9505 33.6991Z" fill="#272122"/>
</g>
<defs>
<filter id="filter0_d_6_311" x="6.21539" y="4.6188" width="45.5692" height="50.7624" filterUnits="userSpaceOnUse" color-interpolation-filters="sRGB">
<feFlood flood-opacity="0" result="BackgroundImageFix"/>
<feColorMatrix in="SourceAlpha" type="matrix" values="0 0 0 0 0 0 0 0 0 0 0 0 0 0 0 0 0 0 127 0" result="hardAlpha"/>
<feOffset dx="1" dy="2"/>
<feGaussianBlur stdDeviation="1"/>
<feComposite in2="hardAlpha" operator="out"/>
<feColorMatrix type="matrix" values="0 0 0 0 0 0 0 0 0 0 0 0 0 0 0 0 0 0 0.25 0"/>
<feBlend mode="normal" in2="BackgroundImageFix" result="effect1_dropShadow_6_311"/>
<feBlend mode="normal" in="SourceGraphic" in2="effect1_dropShadow_6_311" result="shape"/>
</filter>
<linearGradient id="paint0_linear_6_311" x1="7.02362" y1="50" x2="56.3218" y2="43.2606" gradientUnits="userSpaceOnUse">
<stop stop-color="#FF6100"/>
<stop offset="1" stop-color="#FF9600"/>
</linearGradient>
<clipPath id="clip0_6_311">
<rect width="24" height="24" fill="white" transform="translate(16 16)"/>
</clipPath>
</defs>
</svg>
