<svg width="56" height="56" viewBox="0 0 56 56" fill="none" xmlns="http://www.w3.org/2000/svg">
<path d="M26 1.1547C27.2376 0.440169 28.7624 0.440169 30 1.1547L50.2487 12.8453C51.4863 13.5598 52.2487 14.8803 52.2487 16.3094V39.6906C52.2487 41.1197 51.4863 42.4402 50.2487 43.1547L30 54.8453C28.7624 55.5598 27.2376 55.5598 26 54.8453L5.75129 43.1547C4.51368 42.4402 3.75129 41.1197 3.75129 39.6906V16.3094C3.75129 14.8803 4.51369 13.5598 5.75129 12.8453L26 1.1547Z" fill="white"/>
<g filter="url(#filter0_d_6_326)">
<path d="M26 5.1547C27.2376 4.44017 28.7624 4.44017 30 5.1547L46.7846 14.8453C48.0222 15.5598 48.7846 16.8803 48.7846 18.3094V37.6906C48.7846 39.1197 48.0222 40.4402 46.7846 41.1547L30 50.8453C28.7624 51.5598 27.2376 51.5598 26 50.8453L9.21539 41.1547C7.97779 40.4402 7.21539 39.1197 7.21539 37.6906V18.3094C7.21539 16.8803 7.97779 15.5598 9.21539 14.8453L26 5.1547Z" fill="url(#paint0_linear_6_326)"/>
</g>
<path d="M29.9708 24.919C29.0296 23.9414 27.5164 25.439 28.4914 26.3958C29.4664 27.3526 30.9406 25.868 29.9708 24.919ZM29.2298 26.0526C29.1397 26.0345 29.0587 25.9857 29.0004 25.9147C28.9422 25.8436 28.9104 25.7545 28.9104 25.6626C28.9104 25.5707 28.9422 25.4816 29.0004 25.4105C29.0587 25.3395 29.1397 25.2907 29.2298 25.2726C29.3199 25.2907 29.4009 25.3395 29.4592 25.4105C29.5174 25.4816 29.5492 25.5707 29.5492 25.6626C29.5492 25.7545 29.5174 25.8436 29.4592 25.9147C29.4009 25.9857 29.3199 26.0345 29.2298 26.0526Z" fill="#272122"/>
<path d="M18.5568 37.5082H17.6C17.5138 37.5082 17.4311 37.5424 17.3702 37.6034C17.3092 37.6643 17.275 37.747 17.275 37.8332V39.375C17.275 39.4612 17.3092 39.5439 17.3702 39.6048C17.4311 39.6658 17.5138 39.7 17.6 39.7H37.1C37.1862 39.7 37.2689 39.6658 37.3298 39.6048C37.3908 39.5439 37.425 39.4612 37.425 39.375V37.8332C37.425 37.747 37.3908 37.6643 37.3298 37.6034C37.2689 37.5424 37.1862 37.5082 37.1 37.5082H36.151C36.0236 30.7482 31.991 26.219 31.3306 25.517C31.3051 25.1196 31.1662 24.7379 30.9302 24.4172L33.2572 22.0772C33.6264 21.7314 32.8438 21.2738 32.68 21.0372L34.4012 19.316L34.76 19.68C35.0538 19.9816 35.5218 19.5162 35.2202 19.2224C35.1994 19.1938 34.6456 18.6634 34.6352 18.6296C34.214 18.2058 32.784 16.7836 32.3862 16.3884C32.0924 16.0946 31.6218 16.56 31.926 16.8538L32.2848 17.2126L30.5636 18.9364C30.3296 18.77 29.872 17.99 29.5236 18.3592L21.8926 25.9928C21.6014 26.271 22.0252 26.5804 22.2072 26.7728C22.0564 27.0328 20.9228 27.7114 21.3466 28.0936L23.5254 30.275C23.5876 30.3348 23.6705 30.3683 23.7568 30.3686C23.8424 30.3688 23.9246 30.3351 23.9856 30.275L24.8462 29.4144C25.0334 29.5964 25.3428 30.0202 25.6262 29.729L27.9922 27.363C28.2843 27.5721 28.6256 27.702 28.9828 27.74C29.2168 28.5902 29.9968 31.8116 28.8008 33.447C28.325 34.097 27.597 34.4142 26.5778 34.4142H24.6642V33.6342H26.5778C26.664 33.6342 26.7467 33.6 26.8076 33.539C26.8686 33.4781 26.9028 33.3954 26.9028 33.3092V31.7778C26.9028 31.6916 26.8686 31.6089 26.8076 31.548C26.7467 31.487 26.664 31.4528 26.5778 31.4528H18.0966C18.0538 31.4525 18.0114 31.4606 17.9718 31.4768C17.9322 31.493 17.8963 31.517 17.866 31.5472C17.8358 31.5775 17.8118 31.6134 17.7956 31.653C17.7794 31.6926 17.7712 31.735 17.7716 31.7778V33.3222C17.7712 33.365 17.7794 33.4074 17.7956 33.447C17.8118 33.4866 17.8358 33.5225 17.866 33.5528C17.8963 33.583 17.9322 33.607 17.9718 33.6232C18.0114 33.6394 18.0538 33.6475 18.0966 33.6472H20.0102V34.5702C18.861 35.1942 18.6114 36.8114 18.5568 37.5082ZM36.775 39.05H17.925V38.1582H36.775V39.05ZM32.1938 37.5082C31.6036 33.3196 31.7414 30.2516 32.576 29.3C32.6937 29.1526 32.8577 29.0491 33.0414 29.0062C34.5662 31.5911 35.4139 34.5189 35.5062 37.5186L32.1938 37.5082ZM29.2298 27.1082C27.3396 27.1368 27.3344 24.1598 29.2298 24.1884C31.12 24.1702 31.12 27.1446 29.2298 27.116V27.1082ZM32.745 17.6728L33.941 18.8714L32.2198 20.5926L31.0212 19.394L32.745 17.6728ZM23.7568 29.5808L22.0356 27.857L22.6648 27.22L24.386 28.9412L23.7568 29.5808ZM25.4 29.04L22.5816 26.2216L29.755 19.0482C30.4674 19.7684 31.835 21.1464 32.5682 21.8588L30.4882 23.9518C28.624 22.5218 26.1124 25.0386 27.5398 26.9002L25.4 29.04ZM29.326 33.8396C30.6416 32.0404 29.9448 28.8294 29.651 27.7244C30.0053 27.6503 30.3347 27.4866 30.6078 27.249C30.8809 27.0114 31.0885 26.7078 31.211 26.3672C31.7526 27.0169 32.2486 27.7032 32.6956 28.4212C32.4574 28.5151 32.2465 28.6671 32.082 28.8632C30.782 30.3634 31.159 34.8016 31.536 37.5082H19.2094C19.2666 36.8634 19.5032 35.4516 20.4678 35.0746H26.5778C27.8024 35.0746 28.7254 34.6586 29.326 33.8396ZM18.4216 32.1028H26.2528V32.9972H18.4216V32.1028ZM24.0142 33.6472V34.4272H20.6602V33.6472H24.0142Z" fill="#272122"/>
<defs>
<filter id="filter0_d_6_326" x="6.21539" y="4.6188" width="45.5692" height="50.7624" filterUnits="userSpaceOnUse" color-interpolation-filters="sRGB">
<feFlood flood-opacity="0" result="BackgroundImageFix"/>
<feColorMatrix in="SourceAlpha" type="matrix" values="0 0 0 0 0 0 0 0 0 0 0 0 0 0 0 0 0 0 127 0" result="hardAlpha"/>
<feOffset dx="1" dy="2"/>
<feGaussianBlur stdDeviation="1"/>
<feComposite in2="hardAlpha" operator="out"/>
<feColorMatrix type="matrix" values="0 0 0 0 0 0 0 0 0 0 0 0 0 0 0 0 0 0 0.25 0"/>
<feBlend mode="normal" in2="BackgroundImageFix" result="effect1_dropShadow_6_326"/>
<feBlend mode="normal" in="SourceGraphic" in2="effect1_dropShadow_6_326" result="shape"/>
</filter>
<linearGradient id="paint0_linear_6_326" x1="7.02362" y1="50" x2="56.3218" y2="43.2606" gradientUnits="userSpaceOnUse">
<stop stop-color="#FF6100"/>
<stop offset="1" stop-color="#FF9600"/>
</linearGradient>
</defs>
</svg>
